<?xml version="1.0" encoding="UTF-8" standalone="no"?>
<!DOCTYPE svg PUBLIC "-//W3C//DTD SVG 1.1//EN"
 "http://www.w3.org/Graphics/SVG/1.1/DTD/svg11.dtd">
<!-- Generated by graphviz version 9.0.0 (20230911.1827)
 -->
<!-- Title: classes Pages: 1 -->
<svg width="3418pt" height="1310pt"
 viewBox="0.00 0.00 3417.75 1309.50" xmlns="http://www.w3.org/2000/svg" xmlns:xlink="http://www.w3.org/1999/xlink">
<g id="graph0" class="graph" transform="scale(1 1) rotate(0) translate(4 1305.5)">
<title>classes</title>
<polygon fill="white" stroke="none" points="-4,4 -4,-1305.5 3413.75,-1305.5 3413.75,4 -4,4"/>
<!-- document_segmentation.model.page_learner.AbstractPageLearner -->
<g id="node1" class="node">
<title>document_segmentation.model.page_learner.AbstractPageLearner</title>
<polygon fill="antiquewhite" stroke="antiquewhite" points="943.88,-852.25 943.88,-1007.25 1462.38,-1007.25 1462.38,-852.25 943.88,-852.25"/>
<text text-anchor="start" x="1146.12" y="-989.95" font-family="Times,serif" font-size="14.00">AbstractPageLearner</text>
<polyline fill="none" stroke="antiquewhite" points="943.88,-982.75 1462.38,-982.75"/>
<text text-anchor="start" x="1172.75" y="-965.45" font-family="Times,serif" font-size="14.00">wandb_run</text>
<polyline fill="none" stroke="antiquewhite" points="943.88,-958.25 1462.38,-958.25"/>
<text text-anchor="start" x="951.88" y="-941.95" font-family="Times,serif" font-size="14.00">eval_(docs: list[Any], name: str): tuple[Metric, Metric, Metric, Metric, pd.DataFrame]</text>
<text text-anchor="start" x="951.88" y="-927.95" font-family="Times,serif" font-size="14.00">forward(pages: list[Page]): torch.Tensor</text>
<text text-anchor="start" x="951.88" y="-913.95" font-family="Times,serif" font-size="14.00">load(path: Path): None</text>
<text text-anchor="start" x="951.88" y="-899.95" font-family="Times,serif" font-style="italic" font-size="14.00">predict</text>
<text text-anchor="start" x="990.12" y="-899.95" font-family="Times,serif" font-size="14.00">(data): pd.DataFrame</text>
<text text-anchor="start" x="951.88" y="-885.95" font-family="Times,serif" font-size="14.00">split(docs: list[Inventory], split: float): tuple[list[Inventory], list[Inventory]]</text>
<text text-anchor="start" x="951.88" y="-871.95" font-family="Times,serif" font-size="14.00">total_class_weights(docs: Iterable[Inventory]): list[float]</text>
<text text-anchor="start" x="951.88" y="-857.95" font-family="Times,serif" font-size="14.00">train_(training_data: list[Inventory], validation_data: dict[str, list[Inventory]]): dict[str, Any]</text>
</g>
<!-- document_segmentation.model.device_module.DeviceModuleMixIn -->
<g id="node2" class="node">
<title>document_segmentation.model.device_module.DeviceModuleMixIn</title>
<polygon fill="antiquewhite" stroke="antiquewhite" points="89,-1235.5 89,-1301 347.25,-1301 347.25,-1235.5 89,-1235.5"/>
<text text-anchor="start" x="160.38" y="-1283.7" font-family="Times,serif" font-size="14.00">DeviceModuleMixIn</text>
<polyline fill="none" stroke="antiquewhite" points="89,-1276.5 347.25,-1276.5"/>
<polyline fill="none" stroke="antiquewhite" points="89,-1276.5 347.25,-1276.5"/>
<text text-anchor="start" x="97" y="-1259.2" font-family="Times,serif" font-size="14.00">get_device(backends: list[ModuleType]): str</text>
<text text-anchor="start" x="97" y="-1242.7" font-family="Times,serif" font-size="14.00">to_device(device: Optional[str])</text>
</g>
<!-- document_segmentation.model.page_learner.AbstractPageLearner&#45;&gt;document_segmentation.model.device_module.DeviceModuleMixIn -->
<g id="edge3" class="edge">
<title>document_segmentation.model.page_learner.AbstractPageLearner&#45;&gt;document_segmentation.model.device_module.DeviceModuleMixIn</title>
<path fill="none" stroke="black" d="M977.76,-1007.74C772.36,-1077.91 478.08,-1178.44 322.99,-1231.43"/>
<polygon fill="none" stroke="black" points="322.28,-1227.97 313.95,-1234.51 324.55,-1234.59 322.28,-1227.97"/>
</g>
<!-- document_segmentation.pagexml.datamodel.document.Document -->
<g id="node3" class="node">
<title>document_segmentation.pagexml.datamodel.document.Document</title>
<polygon fill="aquamarine" stroke="aquamarine" points="1990.25,-436 1990.25,-526 2232,-526 2232,-436 1990.25,-436"/>
<text text-anchor="start" x="2082.62" y="-508.7" font-family="Times,serif" font-size="14.00">Document</text>
<polyline fill="none" stroke="aquamarine" points="1990.25,-501.5 2232,-501.5"/>
<text text-anchor="start" x="1998.25" y="-484.2" font-family="Times,serif" font-size="14.00">label</text>
<text text-anchor="start" x="1998.25" y="-467.7" font-family="Times,serif" font-size="14.00">pages : Annotated[list[Page], MinLen(1)]</text>
<polyline fill="none" stroke="aquamarine" points="1990.25,-460.5 2232,-460.5"/>
<text text-anchor="start" x="2035.38" y="-443.2" font-family="Times,serif" font-size="14.00">label_tensor(): torch.Tensor</text>
</g>
<!-- document_segmentation.pagexml.datamodel.inventory.Inventory -->
<g id="node8" class="node">
<title>document_segmentation.pagexml.datamodel.inventory.Inventory</title>
<polygon fill="aquamarine" stroke="aquamarine" points="1725.5,-662 1725.5,-1197.5 2496.75,-1197.5 2496.75,-662 1725.5,-662"/>
<text text-anchor="start" x="2084.88" y="-1180.2" font-family="Times,serif" font-size="14.00">Inventory</text>
<polyline fill="none" stroke="aquamarine" points="1725.5,-1173 2496.75,-1173"/>
<text text-anchor="start" x="2059" y="-1155.7" font-family="Times,serif" font-size="14.00">inv_nr : Annotated</text>
<text text-anchor="start" x="2059" y="-1139.2" font-family="Times,serif" font-size="14.00">inventory_part : str</text>
<text text-anchor="start" x="2059" y="-1122.7" font-family="Times,serif" font-size="14.00">pages : list[Page]</text>
<polyline fill="none" stroke="aquamarine" points="1725.5,-1115.5 2496.75,-1115.5"/>
<text text-anchor="start" x="1733.5" y="-1098.2" font-family="Times,serif" font-size="14.00">annotate_scan(scan_nr: int, label: SequenceLabel)</text>
<text text-anchor="start" x="1733.5" y="-1081.7" font-family="Times,serif" font-size="14.00">class_counts(): Counter[SequenceLabel]</text>
<text text-anchor="start" x="1733.5" y="-1065.2" font-family="Times,serif" font-size="14.00">class_weights(): list[float]</text>
<text text-anchor="start" x="1733.5" y="-1048.7" font-family="Times,serif" font-size="14.00">download(inv_nr: int, inventory_part: str): &#39;Inventory&#39;</text>
<text text-anchor="start" x="1733.5" y="-1032.2" font-family="Times,serif" font-size="14.00">empty_unlabelled(): &#39;Inventory&#39;</text>
<text text-anchor="start" x="1733.5" y="-1015.7" font-family="Times,serif" font-size="14.00">from_file(file: Path): &#39;Inventory&#39;</text>
<text text-anchor="start" x="1733.5" y="-999.2" font-family="Times,serif" font-size="14.00">full_inv_nr(): str</text>
<text text-anchor="start" x="1733.5" y="-982.7" font-family="Times,serif" font-size="14.00">get_documents(): list[list[Page]]</text>
<text text-anchor="start" x="1733.5" y="-966.2" font-family="Times,serif" font-size="14.00">get_scan(scan_nr: int): tuple[int, Page]</text>
<text text-anchor="start" x="1733.5" y="-949.7" font-family="Times,serif" font-size="14.00">get_scans(start_scan_nr: int, end_scan_nr: int): list[Page]</text>
<text text-anchor="start" x="1733.5" y="-933.2" font-family="Times,serif" font-size="14.00">has_labels(): bool</text>
<text text-anchor="start" x="1733.5" y="-916.7" font-family="Times,serif" font-size="14.00">head(n: int): &#39;Inventory&#39;</text>
<text text-anchor="start" x="1733.5" y="-900.2" font-family="Times,serif" font-size="14.00">label_tensor(): torch.Tensor</text>
<text text-anchor="start" x="1733.5" y="-883.7" font-family="Times,serif" font-size="14.00">labelled(): list[Page]</text>
<text text-anchor="start" x="1733.5" y="-867.2" font-family="Times,serif" font-size="14.00">labelled_inventories(): Iterable[&#39;Inventory&#39;]</text>
<text text-anchor="start" x="1733.5" y="-850.7" font-family="Times,serif" font-size="14.00">labels(): list[SequenceLabel]</text>
<text text-anchor="start" x="1733.5" y="-834.2" font-family="Times,serif" font-size="14.00">link(page: Page): str</text>
<text text-anchor="start" x="1733.5" y="-817.7" font-family="Times,serif" font-size="14.00">load(inv_nr: int, inventory_part: str, inventory_dir: Path)</text>
<text text-anchor="start" x="1733.5" y="-801.2" font-family="Times,serif" font-size="14.00">load_or_download(inv_nr: int, inventory_part: str, inventory_dir: Path)</text>
<text text-anchor="start" x="1733.5" y="-784.7" font-family="Times,serif" font-size="14.00">local_file(inv_nr: int, inventory_part: str, directory: Path): Path</text>
<text text-anchor="start" x="1733.5" y="-768.2" font-family="Times,serif" font-size="14.00">output_row(prediction: Label, actual: Label, page: Page, output: torch.Tensor, thumbnail_downloader: Optional[&#39;ThumbnailDownloader&#39;])</text>
<text text-anchor="start" x="1733.5" y="-751.7" font-family="Times,serif" font-size="14.00">remove_empty_pages(): &#39;Inventory&#39;</text>
<text text-anchor="start" x="1733.5" y="-735.2" font-family="Times,serif" font-size="14.00">remove_scan(scan_nr: int): &#39;Inventory&#39;</text>
<text text-anchor="start" x="1733.5" y="-718.7" font-family="Times,serif" font-size="14.00">remove_short_regions(min_chars: int): &#39;Inventory&#39;</text>
<text text-anchor="start" x="1733.5" y="-702.2" font-family="Times,serif" font-size="14.00">split(max_size): Iterable[&#39;Inventory&#39;]</text>
<text text-anchor="start" x="1733.5" y="-685.7" font-family="Times,serif" font-size="14.00">validate_inv_part(value: str): str</text>
<text text-anchor="start" x="1733.5" y="-669.2" font-family="Times,serif" font-size="14.00">write(target_file: Optional[Path], mode): Path</text>
</g>
<!-- document_segmentation.pagexml.datamodel.document.Document&#45;&gt;document_segmentation.pagexml.datamodel.inventory.Inventory -->
<g id="edge10" class="edge">
<title>document_segmentation.pagexml.datamodel.document.Document&#45;&gt;document_segmentation.pagexml.datamodel.inventory.Inventory</title>
<path fill="none" stroke="black" d="M2111.12,-526.47C2111.12,-557.59 2111.12,-602.09 2111.12,-650.23"/>
<polygon fill="none" stroke="black" points="2107.63,-650.02 2111.13,-660.02 2114.63,-650.02 2107.63,-650.02"/>
</g>
<!-- document_segmentation.model.document_classifier.DocumentClassifier -->
<g id="node4" class="node">
<title>document_segmentation.model.document_classifier.DocumentClassifier</title>
<polygon fill="antiquewhite" stroke="antiquewhite" points="1383.88,-456.5 1383.88,-505.5 1650.38,-505.5 1650.38,-456.5 1383.88,-456.5"/>
<text text-anchor="start" x="1462.75" y="-488.2" font-family="Times,serif" font-size="14.00">DocumentClassifier</text>
<polyline fill="none" stroke="antiquewhite" points="1383.88,-481 1650.38,-481"/>
<polyline fill="none" stroke="antiquewhite" points="1383.88,-481 1650.38,-481"/>
<text text-anchor="start" x="1391.88" y="-463.7" font-family="Times,serif" font-size="14.00">predict(document: Document): pd.DataFrame</text>
</g>
<!-- document_segmentation.model.document_classifier.DocumentClassifier&#45;&gt;document_segmentation.model.page_learner.AbstractPageLearner -->
<g id="edge1" class="edge">
<title>document_segmentation.model.document_classifier.DocumentClassifier&#45;&gt;document_segmentation.model.page_learner.AbstractPageLearner</title>
<path fill="none" stroke="black" d="M1500.46,-505.7C1456.77,-567.87 1337.2,-737.99 1263.68,-842.59"/>
<polygon fill="none" stroke="black" points="1260.91,-840.44 1258.03,-850.64 1266.64,-844.47 1260.91,-840.44"/>
</g>
<!-- document_segmentation.pagexml.datamodel.label.DocumentType -->
<g id="node5" class="node">
<title>document_segmentation.pagexml.datamodel.label.DocumentType</title>
<polygon fill="aquamarine" stroke="aquamarine" points="1466.75,-201.75 1466.75,-275.25 1567.5,-275.25 1567.5,-201.75 1466.75,-201.75"/>
<text text-anchor="start" x="1474.75" y="-257.95" font-family="Times,serif" font-size="14.00">DocumentType</text>
<polyline fill="none" stroke="aquamarine" points="1466.75,-250.75 1567.5,-250.75"/>
<text text-anchor="start" x="1502.12" y="-233.45" font-family="Times,serif" font-size="14.00">name</text>
<polyline fill="none" stroke="aquamarine" points="1466.75,-226.25 1567.5,-226.25"/>
<text text-anchor="start" x="1515.25" y="-208.95" font-family="Times,serif" font-size="14.00"> </text>
</g>
<!-- document_segmentation.pagexml.datamodel.label.DocumentType&#45;&gt;document_segmentation.pagexml.datamodel.document.Document -->
<g id="edge18" class="edge">
<title>document_segmentation.pagexml.datamodel.label.DocumentType&#45;&gt;document_segmentation.pagexml.datamodel.document.Document</title>
<path fill="none" stroke="black" d="M1567.68,-243.12C1656.49,-251.31 1844.09,-276.92 1981.12,-353 2014.15,-371.33 2044.71,-400.29 2067.9,-425.93"/>
<polygon fill="black" stroke="black" points="2067.87,-425.89 2074.84,-427.74 2075.81,-434.89 2068.84,-433.04 2067.87,-425.89"/>
<text text-anchor="middle" x="1948.25" y="-321.7" font-family="Times,serif" font-size="14.00" fill="green">label</text>
</g>
<!-- document_segmentation.pagexml.datamodel.label.DocumentType&#45;&gt;document_segmentation.model.document_classifier.DocumentClassifier -->
<g id="edge17" class="edge">
<title>document_segmentation.pagexml.datamodel.label.DocumentType&#45;&gt;document_segmentation.model.document_classifier.DocumentClassifier</title>
<path fill="none" stroke="black" d="M1517.12,-275.51C1517.12,-320.73 1517.12,-397.9 1517.12,-443.4"/>
<polygon fill="black" stroke="black" points="1517.13,-443.26 1521.13,-449.26 1517.13,-455.26 1513.13,-449.26 1517.13,-443.26"/>
<text text-anchor="middle" x="1562.5" y="-321.7" font-family="Times,serif" font-size="14.00" fill="green">_LABEL_TYPE</text>
</g>
<!-- document_segmentation.pagexml.datamodel.label.Label -->
<g id="node9" class="node">
<title>document_segmentation.pagexml.datamodel.label.Label</title>
<polygon fill="aquamarine" stroke="aquamarine" points="771.38,-436 771.38,-526 1022.88,-526 1022.88,-436 771.38,-436"/>
<text text-anchor="start" x="881.75" y="-508.7" font-family="Times,serif" font-size="14.00">Label</text>
<polyline fill="none" stroke="aquamarine" points="771.38,-501.5 1022.88,-501.5"/>
<text text-anchor="start" x="882.12" y="-484.2" font-family="Times,serif" font-size="14.00">name</text>
<polyline fill="none" stroke="aquamarine" points="771.38,-477 1022.88,-477"/>
<text text-anchor="start" x="779.38" y="-459.7" font-family="Times,serif" font-size="14.00">to_list(): list[int]</text>
<text text-anchor="start" x="779.38" y="-443.2" font-family="Times,serif" font-size="14.00">to_tensor(labels: list[&#39;Label&#39;]): torch.Tensor</text>
</g>
<!-- document_segmentation.pagexml.datamodel.label.DocumentType&#45;&gt;document_segmentation.pagexml.datamodel.label.Label -->
<g id="edge11" class="edge">
<title>document_segmentation.pagexml.datamodel.label.DocumentType&#45;&gt;document_segmentation.pagexml.datamodel.label.Label</title>
<path fill="none" stroke="black" d="M1466.25,-251.46C1389.06,-269.6 1237.73,-305.11 1109.12,-335 1074.47,-343.05 1062.47,-336.17 1031.12,-353 996.6,-371.54 964.48,-401.34 940.36,-427.41"/>
<polygon fill="none" stroke="black" points="937.95,-424.85 933.83,-434.61 943.14,-429.55 937.95,-424.85"/>
</g>
<!-- document_segmentation.pagexml.annotations.renate_analysis.DocumentTypeSheet -->
<g id="node6" class="node">
<title>document_segmentation.pagexml.annotations.renate_analysis.DocumentTypeSheet</title>
<polygon fill="aquamarine" stroke="aquamarine" points="2041,-29.25 2041,-94.75 2371.25,-94.75 2371.25,-29.25 2041,-29.25"/>
<text text-anchor="start" x="2148.75" y="-77.45" font-family="Times,serif" font-size="14.00">DocumentTypeSheet</text>
<polyline fill="none" stroke="aquamarine" points="2041,-70.25 2371.25,-70.25"/>
<polyline fill="none" stroke="aquamarine" points="2041,-70.25 2371.25,-70.25"/>
<text text-anchor="start" x="2049" y="-52.95" font-family="Times,serif" font-size="14.00">document_type(tanap_sub_category: str): DocumentType</text>
<text text-anchor="start" x="2049" y="-36.45" font-family="Times,serif" font-size="14.00">from_file(file: Path)</text>
</g>
<!-- document_segmentation.pagexml.annotations.renate_analysis.RenateAnalysis -->
<g id="node18" class="node">
<title>document_segmentation.pagexml.annotations.renate_analysis.RenateAnalysis</title>
<polygon fill="aquamarine" stroke="aquamarine" points="2001.25,-197.5 2001.25,-279.5 2411,-279.5 2411,-197.5 2001.25,-197.5"/>
<text text-anchor="start" x="2163.75" y="-262.2" font-family="Times,serif" font-size="14.00">RenateAnalysis</text>
<polyline fill="none" stroke="aquamarine" points="2001.25,-255 2411,-255"/>
<polyline fill="none" stroke="aquamarine" points="2001.25,-255 2411,-255"/>
<text text-anchor="start" x="2009.25" y="-237.7" font-family="Times,serif" font-size="14.00">annotated_rows(inventory: Inventory): pd.DataFrame</text>
<text text-anchor="start" x="2009.25" y="-221.2" font-family="Times,serif" font-size="14.00">documents(): Iterable[Document]</text>
<text text-anchor="start" x="2009.25" y="-204.7" font-family="Times,serif" font-size="14.00">documents_from_sheet(sheet: &#39;RenateAnalysisInv&#39;): Iterable[Document]</text>
</g>
<!-- document_segmentation.pagexml.annotations.renate_analysis.DocumentTypeSheet&#45;&gt;document_segmentation.pagexml.annotations.renate_analysis.RenateAnalysis -->
<g id="edge20" class="edge">
<title>document_segmentation.pagexml.annotations.renate_analysis.DocumentTypeSheet&#45;&gt;document_segmentation.pagexml.annotations.renate_analysis.RenateAnalysis</title>
<path fill="none" stroke="black" d="M2206.12,-95.01C2206.12,-119.92 2206.12,-155.05 2206.12,-184.19"/>
<polygon fill="none" stroke="black" points="2206.13,-184.19 2210.13,-190.19 2206.13,-196.19 2202.13,-190.19 2206.13,-184.19"/>
<text text-anchor="middle" x="2254.12" y="-145.2" font-family="Times,serif" font-size="14.00" fill="green">_document_types</text>
</g>
<!-- document_segmentation.pagexml.annotations.generale_missiven.GeneraleMissiven -->
<g id="node7" class="node">
<title>document_segmentation.pagexml.annotations.generale_missiven.GeneraleMissiven</title>
<polygon fill="aquamarine" stroke="aquamarine" points="2428.62,-214 2428.62,-263 2543.62,-263 2543.62,-214 2428.62,-214"/>
<text text-anchor="start" x="2436.62" y="-245.7" font-family="Times,serif" font-size="14.00">GeneraleMissiven</text>
<polyline fill="none" stroke="aquamarine" points="2428.62,-238.5 2543.62,-238.5"/>
<polyline fill="none" stroke="aquamarine" points="2428.62,-238.5 2543.62,-238.5"/>
<text text-anchor="start" x="2484.25" y="-221.2" font-family="Times,serif" font-size="14.00"> </text>
</g>
<!-- document_segmentation.pagexml.annotations.sheet.Sheet -->
<g id="node21" class="node">
<title>document_segmentation.pagexml.annotations.sheet.Sheet</title>
<polygon fill="aquamarine" stroke="aquamarine" points="2249.75,-407 2249.75,-555 2722.5,-555 2722.5,-407 2249.75,-407"/>
<text text-anchor="start" x="2471.12" y="-537.7" font-family="Times,serif" font-size="14.00">Sheet</text>
<polyline fill="none" stroke="aquamarine" points="2249.75,-530.5 2722.5,-530.5"/>
<polyline fill="none" stroke="aquamarine" points="2249.75,-530.5 2722.5,-530.5"/>
<text text-anchor="start" x="2257.75" y="-513.2" font-family="Times,serif" font-size="14.00">all_annotated_inventories(n: Optional[int]): Iterable[&#39;Inventory&#39;]</text>
<text text-anchor="start" x="2257.75" y="-496.7" font-family="Times,serif" font-size="14.00">annotate_inventory(inventory: Inventory): Inventory</text>
<text text-anchor="start" x="2257.75" y="-480.2" font-family="Times,serif" font-size="14.00">annotated_rows(inventory: Inventory): pd.DataFrame</text>
<text text-anchor="start" x="2257.75" y="-463.7" font-family="Times,serif" font-size="14.00">download_inventories()</text>
<text text-anchor="start" x="2257.75" y="-447.2" font-family="Times,serif" font-size="14.00">inventories(): Iterable[Inventory]</text>
<text text-anchor="start" x="2257.75" y="-430.7" font-family="Times,serif" font-size="14.00">inventory_numbers(): Iterable[tuple[int, str]]</text>
<text text-anchor="start" x="2257.75" y="-414.2" font-family="Times,serif" font-size="14.00">preprocess(inventory: Inventory, min_region_text_length, max_size: int): Inventory</text>
</g>
<!-- document_segmentation.pagexml.annotations.generale_missiven.GeneraleMissiven&#45;&gt;document_segmentation.pagexml.annotations.sheet.Sheet -->
<g id="edge7" class="edge">
<title>document_segmentation.pagexml.annotations.generale_missiven.GeneraleMissiven&#45;&gt;document_segmentation.pagexml.annotations.sheet.Sheet</title>
<path fill="none" stroke="black" d="M2486.12,-263.44C2486.12,-294.01 2486.12,-348.54 2486.12,-395.23"/>
<polygon fill="none" stroke="black" points="2482.63,-395.09 2486.13,-405.09 2489.63,-395.09 2482.63,-395.09"/>
</g>
<!-- document_segmentation.pagexml.datamodel.page.Page -->
<g id="node10" class="node">
<title>document_segmentation.pagexml.datamodel.page.Page</title>
<polygon fill="aquamarine" stroke="aquamarine" points="314.62,-353.5 314.62,-608.5 753.62,-608.5 753.62,-353.5 314.62,-353.5"/>
<text text-anchor="start" x="521" y="-591.2" font-family="Times,serif" font-size="14.00">Page</text>
<polyline fill="none" stroke="aquamarine" points="314.62,-584 753.62,-584"/>
<text text-anchor="start" x="475.25" y="-566.7" font-family="Times,serif" font-size="14.00">doc_id : Optional[str]</text>
<text text-anchor="start" x="475.25" y="-550.2" font-family="Times,serif" font-size="14.00">external_ref : str</text>
<text text-anchor="start" x="475.25" y="-533.7" font-family="Times,serif" font-size="14.00">label</text>
<text text-anchor="start" x="475.25" y="-517.2" font-family="Times,serif" font-size="14.00">regions : list[Region]</text>
<text text-anchor="start" x="475.25" y="-500.7" font-family="Times,serif" font-size="14.00">scan_nr : Annotated</text>
<polyline fill="none" stroke="aquamarine" points="314.62,-493.5 753.62,-493.5"/>
<text text-anchor="start" x="322.62" y="-476.2" font-family="Times,serif" font-size="14.00">annotate(label: SequenceLabel): &#39;Page&#39;</text>
<text text-anchor="start" x="322.62" y="-459.7" font-family="Times,serif" font-size="14.00">empty(): &#39;Page&#39;</text>
<text text-anchor="start" x="322.62" y="-443.2" font-family="Times,serif" font-size="14.00">enum_from_int(value)</text>
<text text-anchor="start" x="322.62" y="-426.7" font-family="Times,serif" font-size="14.00">filter_short_regions(min_chars: int): &#39;Page&#39;</text>
<text text-anchor="start" x="322.62" y="-410.2" font-family="Times,serif" font-size="14.00">from_pagexml(label: SequenceLabel, scan_nr: int, pagexml: PageXMLScan)</text>
<text text-anchor="start" x="322.62" y="-393.7" font-family="Times,serif" font-size="14.00">guess_doc_id(inv_nr: str): str</text>
<text text-anchor="start" x="322.62" y="-377.2" font-family="Times,serif" font-size="14.00">is_shorter_than(): bool</text>
<text text-anchor="start" x="322.62" y="-360.7" font-family="Times,serif" font-size="14.00">text(delimiter: str): str</text>
</g>
<!-- document_segmentation.model.page_embedding.PageEmbedding -->
<g id="node11" class="node">
<title>document_segmentation.model.page_embedding.PageEmbedding</title>
<polygon fill="antiquewhite" stroke="antiquewhite" points="139.25,-436 139.25,-526 297,-526 297,-436 139.25,-436"/>
<text text-anchor="start" x="173.5" y="-508.7" font-family="Times,serif" font-size="14.00">PageEmbedding</text>
<polyline fill="none" stroke="antiquewhite" points="139.25,-501.5 297,-501.5"/>
<text text-anchor="start" x="174.25" y="-484.2" font-family="Times,serif" font-size="14.00">output_size : int</text>
<text text-anchor="start" x="174.25" y="-467.7" font-family="Times,serif" font-size="14.00">rnn</text>
<polyline fill="none" stroke="antiquewhite" points="139.25,-460.5 297,-460.5"/>
<text text-anchor="start" x="147.25" y="-443.2" font-family="Times,serif" font-size="14.00">forward(pages: list[Page])</text>
</g>
<!-- document_segmentation.model.page_embedding.PageEmbedding&#45;&gt;document_segmentation.model.page_learner.AbstractPageLearner -->
<g id="edge14" class="edge">
<title>document_segmentation.model.page_embedding.PageEmbedding&#45;&gt;document_segmentation.model.page_learner.AbstractPageLearner</title>
<path fill="none" stroke="black" d="M239.4,-526.46C254.41,-553.63 276.85,-587.23 305.12,-609 489.01,-750.58 740.9,-832.99 931.11,-878.58"/>
<polygon fill="black" stroke="black" points="931,-878.55 937.76,-876.05 942.67,-881.32 935.91,-883.83 931,-878.55"/>
<text text-anchor="middle" x="397" y="-630.2" font-family="Times,serif" font-size="14.00" fill="green">_page_embedding</text>
</g>
<!-- document_segmentation.model.page_embedding.PageEmbedding&#45;&gt;document_segmentation.model.device_module.DeviceModuleMixIn -->
<g id="edge2" class="edge">
<title>document_segmentation.model.page_embedding.PageEmbedding&#45;&gt;document_segmentation.model.device_module.DeviceModuleMixIn</title>
<path fill="none" stroke="black" d="M218.12,-526.47C218.12,-664.87 218.12,-1086.85 218.12,-1223.82"/>
<polygon fill="none" stroke="black" points="214.63,-1223.54 218.13,-1233.54 221.63,-1223.54 214.63,-1223.54"/>
</g>
<!-- document_segmentation.model.page_sequence_tagger.PageSequenceTagger -->
<g id="node12" class="node">
<title>document_segmentation.model.page_sequence_tagger.PageSequenceTagger</title>
<polygon fill="antiquewhite" stroke="antiquewhite" points="1040.62,-448.25 1040.62,-513.75 1365.62,-513.75 1365.62,-448.25 1040.62,-448.25"/>
<text text-anchor="start" x="1145" y="-496.45" font-family="Times,serif" font-size="14.00">PageSequenceTagger</text>
<polyline fill="none" stroke="antiquewhite" points="1040.62,-489.25 1365.62,-489.25"/>
<polyline fill="none" stroke="antiquewhite" points="1040.62,-489.25 1365.62,-489.25"/>
<text text-anchor="start" x="1048.62" y="-471.95" font-family="Times,serif" font-size="14.00">predict(inventory: Inventory): pd.DataFrame</text>
<text text-anchor="start" x="1048.62" y="-455.45" font-family="Times,serif" font-size="14.00">predict_documents(inventory: Inventory): list[list[Page]]</text>
</g>
<!-- document_segmentation.model.page_sequence_tagger.PageSequenceTagger&#45;&gt;document_segmentation.model.page_learner.AbstractPageLearner -->
<g id="edge4" class="edge">
<title>document_segmentation.model.page_sequence_tagger.PageSequenceTagger&#45;&gt;document_segmentation.model.page_learner.AbstractPageLearner</title>
<path fill="none" stroke="black" d="M1203.12,-514.13C1203.12,-581.65 1203.12,-740.31 1203.12,-840.62"/>
<polygon fill="none" stroke="black" points="1199.63,-840.43 1203.13,-850.43 1206.63,-840.43 1199.63,-840.43"/>
</g>
<!-- document_segmentation.pagexml.pagexml.PageXML -->
<g id="node13" class="node">
<title>document_segmentation.pagexml.pagexml.PageXML</title>
<polygon fill="aquamarine" stroke="aquamarine" points="2388.88,-21 2388.88,-103 2745.38,-103 2745.38,-21 2388.88,-21"/>
<text text-anchor="start" x="2538.62" y="-85.7" font-family="Times,serif" font-size="14.00">PageXML</text>
<polyline fill="none" stroke="aquamarine" points="2388.88,-78.5 2745.38,-78.5"/>
<polyline fill="none" stroke="aquamarine" points="2388.88,-78.5 2745.38,-78.5"/>
<text text-anchor="start" x="2396.88" y="-61.2" font-family="Times,serif" font-size="14.00">document_type(): list[str]</text>
<text text-anchor="start" x="2396.88" y="-44.7" font-family="Times,serif" font-size="14.00">get_regions_from_top(): list[PageXMLTextRegion]</text>
<text text-anchor="start" x="2396.88" y="-28.2" font-family="Times,serif" font-size="14.00">top_paragraph(region_types): Optional[PageXMLTextRegion]</text>
</g>
<!-- document_segmentation.pagexml.datamodel.region.Region -->
<g id="node14" class="node">
<title>document_segmentation.pagexml.datamodel.region.Region</title>
<polygon fill="aquamarine" stroke="aquamarine" points="2763.62,-0.5 2763.62,-123.5 3082.62,-123.5 3082.62,-0.5 2763.62,-0.5"/>
<text text-anchor="start" x="2903.62" y="-106.2" font-family="Times,serif" font-size="14.00">Region</text>
<polyline fill="none" stroke="aquamarine" points="2763.62,-99 3082.62,-99"/>
<text text-anchor="start" x="2823" y="-81.7" font-family="Times,serif" font-size="14.00">coordinates : tuple[tuple[int, int], ...]</text>
<text text-anchor="start" x="2823" y="-65.2" font-family="Times,serif" font-size="14.00">id : str</text>
<text text-anchor="start" x="2823" y="-48.7" font-family="Times,serif" font-size="14.00">lines : tuple[str, ...]</text>
<text text-anchor="start" x="2823" y="-32.2" font-family="Times,serif" font-size="14.00">types : tuple[RegionType, ...]</text>
<polyline fill="none" stroke="aquamarine" points="2763.62,-25 3082.62,-25"/>
<text text-anchor="start" x="2771.62" y="-7.7" font-family="Times,serif" font-size="14.00">from_pagexml(region: PageXMLTextRegion): &#39;Region&#39;</text>
</g>
<!-- document_segmentation.model.region_embedding.RegionEmbedding -->
<g id="node15" class="node">
<title>document_segmentation.model.region_embedding.RegionEmbedding</title>
<polygon fill="antiquewhite" stroke="antiquewhite" points="0,-185.25 0,-291.75 222.25,-291.75 222.25,-185.25 0,-185.25"/>
<text text-anchor="start" x="60.12" y="-274.45" font-family="Times,serif" font-size="14.00">RegionEmbedding</text>
<polyline fill="none" stroke="antiquewhite" points="0,-267.25 222.25,-267.25"/>
<text text-anchor="start" x="53.38" y="-249.95" font-family="Times,serif" font-size="14.00">output_size : int</text>
<text text-anchor="start" x="53.38" y="-233.45" font-family="Times,serif" font-size="14.00">text_embedding_size</text>
<polyline fill="none" stroke="antiquewhite" points="0,-226.25 222.25,-226.25"/>
<text text-anchor="start" x="8" y="-208.95" font-family="Times,serif" font-size="14.00">forward(regions: list[Region])</text>
<text text-anchor="start" x="8" y="-192.45" font-family="Times,serif" font-size="14.00">from_model_name(model_name: str)</text>
</g>
<!-- document_segmentation.model.region_embedding.RegionEmbedding&#45;&gt;document_segmentation.model.device_module.DeviceModuleMixIn -->
<g id="edge5" class="edge">
<title>document_segmentation.model.region_embedding.RegionEmbedding&#45;&gt;document_segmentation.model.device_module.DeviceModuleMixIn</title>
<path fill="none" stroke="black" d="M112.48,-292.22C114.64,-364 119.72,-496.43 130.12,-609 151.65,-841.94 194.33,-1119.12 211.11,-1224.09"/>
<polygon fill="none" stroke="black" points="207.61,-1224.35 212.65,-1233.67 214.52,-1223.24 207.61,-1224.35"/>
</g>
<!-- document_segmentation.model.region_embedding.RegionEmbedding&#45;&gt;document_segmentation.model.page_embedding.PageEmbedding -->
<g id="edge15" class="edge">
<title>document_segmentation.model.region_embedding.RegionEmbedding&#45;&gt;document_segmentation.model.page_embedding.PageEmbedding</title>
<path fill="none" stroke="black" d="M134.47,-291.98C151.81,-330.94 175.4,-383.98 193.12,-423.79"/>
<polygon fill="black" stroke="black" points="193.17,-423.91 199.26,-427.76 198.05,-434.87 191.95,-431.01 193.17,-423.91"/>
<text text-anchor="middle" x="193.38" y="-321.7" font-family="Times,serif" font-size="14.00" fill="green">_region_model</text>
</g>
<!-- document_segmentation.model.region_embedding.RegionEmbeddingSentenceTransformer -->
<g id="node16" class="node">
<title>document_segmentation.model.region_embedding.RegionEmbeddingSentenceTransformer</title>
<polygon fill="antiquewhite" stroke="antiquewhite" points="67.62,-25.25 67.62,-98.75 302.62,-98.75 302.62,-25.25 67.62,-25.25"/>
<text text-anchor="start" x="75.62" y="-81.45" font-family="Times,serif" font-size="14.00">RegionEmbeddingSentenceTransformer</text>
<polyline fill="none" stroke="antiquewhite" points="67.62,-74.25 302.62,-74.25"/>
<text text-anchor="start" x="127.38" y="-56.95" font-family="Times,serif" font-size="14.00">text_embedding_size</text>
<polyline fill="none" stroke="antiquewhite" points="67.62,-49.75 302.62,-49.75"/>
<text text-anchor="start" x="183.25" y="-32.45" font-family="Times,serif" font-size="14.00"> </text>
</g>
<!-- document_segmentation.model.region_embedding.RegionEmbeddingSentenceTransformer&#45;&gt;document_segmentation.model.page_embedding.PageEmbedding -->
<g id="edge16" class="edge">
<title>document_segmentation.model.region_embedding.RegionEmbeddingSentenceTransformer&#45;&gt;document_segmentation.model.page_embedding.PageEmbedding</title>
<path fill="none" stroke="black" d="M203.38,-99.06C213.49,-120.88 225.19,-149.61 231.12,-176.5 249.74,-260.88 239.2,-361.57 229.2,-423.13"/>
<polygon fill="black" stroke="black" points="229.24,-422.93 232.18,-429.52 227.24,-434.77 224.29,-428.18 229.24,-422.93"/>
<text text-anchor="middle" x="283.38" y="-233.45" font-family="Times,serif" font-size="14.00" fill="green">_region_model</text>
</g>
<!-- document_segmentation.model.region_embedding.RegionEmbeddingSentenceTransformer&#45;&gt;document_segmentation.model.region_embedding.RegionEmbedding -->
<g id="edge6" class="edge">
<title>document_segmentation.model.region_embedding.RegionEmbeddingSentenceTransformer&#45;&gt;document_segmentation.model.region_embedding.RegionEmbedding</title>
<path fill="none" stroke="black" d="M169.79,-99.16C160.56,-120.92 148.56,-149.22 137.82,-174.56"/>
<polygon fill="none" stroke="black" points="134.73,-172.87 134.05,-183.44 141.18,-175.6 134.73,-172.87"/>
</g>
<!-- document_segmentation.pagexml.datamodel.region.RegionType -->
<g id="node17" class="node">
<title>document_segmentation.pagexml.datamodel.region.RegionType</title>
<polygon fill="aquamarine" stroke="aquamarine" points="3100.5,-17 3100.5,-107 3409.75,-107 3409.75,-17 3100.5,-17"/>
<text text-anchor="start" x="3221.75" y="-89.7" font-family="Times,serif" font-size="14.00">RegionType</text>
<polyline fill="none" stroke="aquamarine" points="3100.5,-82.5 3409.75,-82.5"/>
<text text-anchor="start" x="3240.12" y="-65.2" font-family="Times,serif" font-size="14.00">name</text>
<polyline fill="none" stroke="aquamarine" points="3100.5,-58 3409.75,-58"/>
<text text-anchor="start" x="3108.5" y="-40.7" font-family="Times,serif" font-size="14.00">index(): int</text>
<text text-anchor="start" x="3108.5" y="-24.2" font-family="Times,serif" font-size="14.00">indices(region_types: Iterable[&#39;RegionType&#39;]): list[int]</text>
</g>
<!-- document_segmentation.pagexml.annotations.renate_analysis.RenateAnalysis&#45;&gt;document_segmentation.pagexml.annotations.sheet.Sheet -->
<g id="edge8" class="edge">
<title>document_segmentation.pagexml.annotations.renate_analysis.RenateAnalysis&#45;&gt;document_segmentation.pagexml.annotations.sheet.Sheet</title>
<path fill="none" stroke="black" d="M2252.99,-279.75C2290.8,-312.23 2345.2,-358.96 2391.95,-399.11"/>
<polygon fill="none" stroke="black" points="2389.56,-401.68 2399.43,-405.54 2394.13,-396.37 2389.56,-401.68"/>
</g>
<!-- document_segmentation.pagexml.annotations.renate_analysis.RenateAnalysisInv -->
<g id="node19" class="node">
<title>document_segmentation.pagexml.annotations.renate_analysis.RenateAnalysisInv</title>
<polygon fill="aquamarine" stroke="aquamarine" points="2561.38,-177 2561.38,-300 2866.88,-300 2866.88,-177 2561.38,-177"/>
<text text-anchor="start" x="2662.75" y="-282.7" font-family="Times,serif" font-size="14.00">RenateAnalysisInv</text>
<polyline fill="none" stroke="aquamarine" points="2561.38,-275.5 2866.88,-275.5"/>
<text text-anchor="start" x="2633.5" y="-258.2" font-family="Times,serif" font-size="14.00">NON_DOC_TYPES : set[str]</text>
<polyline fill="none" stroke="aquamarine" points="2561.38,-251 2866.88,-251"/>
<text text-anchor="start" x="2569.38" y="-233.7" font-family="Times,serif" font-size="14.00">annotate_inventory(inventory: Inventory): &#39;Inventory&#39;</text>
<text text-anchor="start" x="2569.38" y="-217.2" font-family="Times,serif" font-size="14.00">get_scans(start: int, end: int): list[Page]</text>
<text text-anchor="start" x="2569.38" y="-200.7" font-family="Times,serif" font-size="14.00">inventories(): Iterable[Inventory]</text>
<text text-anchor="start" x="2569.38" y="-184.2" font-family="Times,serif" font-size="14.00">inventory_numbers(): Iterable[tuple[int, str]]</text>
</g>
<!-- document_segmentation.pagexml.annotations.renate_analysis.RenateAnalysisInv&#45;&gt;document_segmentation.pagexml.annotations.sheet.Sheet -->
<g id="edge9" class="edge">
<title>document_segmentation.pagexml.annotations.renate_analysis.RenateAnalysisInv&#45;&gt;document_segmentation.pagexml.annotations.sheet.Sheet</title>
<path fill="none" stroke="black" d="M2656.3,-300.5C2628.08,-330.26 2593.74,-366.48 2563.32,-398.57"/>
<polygon fill="none" stroke="black" points="2561.06,-395.87 2556.72,-405.53 2566.14,-400.68 2561.06,-395.87"/>
</g>
<!-- document_segmentation.pagexml.datamodel.label.SequenceLabel -->
<g id="node20" class="node">
<title>document_segmentation.pagexml.datamodel.label.SequenceLabel</title>
<polygon fill="aquamarine" stroke="aquamarine" points="847.88,-201.75 847.88,-275.25 946.38,-275.25 946.38,-201.75 847.88,-201.75"/>
<text text-anchor="start" x="855.88" y="-257.95" font-family="Times,serif" font-size="14.00">SequenceLabel</text>
<polyline fill="none" stroke="aquamarine" points="847.88,-250.75 946.38,-250.75"/>
<text text-anchor="start" x="882.12" y="-233.45" font-family="Times,serif" font-size="14.00">name</text>
<polyline fill="none" stroke="aquamarine" points="847.88,-226.25 946.38,-226.25"/>
<text text-anchor="start" x="895.25" y="-208.95" font-family="Times,serif" font-size="14.00"> </text>
</g>
<!-- document_segmentation.pagexml.datamodel.label.SequenceLabel&#45;&gt;document_segmentation.pagexml.datamodel.label.Label -->
<g id="edge12" class="edge">
<title>document_segmentation.pagexml.datamodel.label.SequenceLabel&#45;&gt;document_segmentation.pagexml.datamodel.label.Label</title>
<path fill="none" stroke="black" d="M897.12,-275.51C897.12,-314.89 897.12,-378.49 897.12,-424.32"/>
<polygon fill="none" stroke="black" points="893.63,-424.04 897.13,-434.04 900.63,-424.04 893.63,-424.04"/>
</g>
<!-- document_segmentation.pagexml.datamodel.label.SequenceLabel&#45;&gt;document_segmentation.pagexml.datamodel.page.Page -->
<g id="edge22" class="edge">
<title>document_segmentation.pagexml.datamodel.label.SequenceLabel&#45;&gt;document_segmentation.pagexml.datamodel.page.Page</title>
<path fill="none" stroke="black" d="M847.41,-272.44C817.76,-292.08 777.93,-318.47 736.62,-345.84"/>
<polygon fill="none" stroke="black" points="736.57,-345.88 733.77,-352.52 726.56,-352.5 729.35,-345.86 736.57,-345.88"/>
<text text-anchor="middle" x="783.25" y="-321.7" font-family="Times,serif" font-size="14.00" fill="green">label</text>
</g>
<!-- document_segmentation.pagexml.datamodel.label.SequenceLabel&#45;&gt;document_segmentation.model.page_sequence_tagger.PageSequenceTagger -->
<g id="edge19" class="edge">
<title>document_segmentation.pagexml.datamodel.label.SequenceLabel&#45;&gt;document_segmentation.model.page_sequence_tagger.PageSequenceTagger</title>
<path fill="none" stroke="black" d="M942.94,-275.51C999.09,-319.64 1093.94,-394.19 1152.29,-440.05"/>
<polygon fill="black" stroke="black" points="1152.25,-440.01 1159.44,-440.58 1161.68,-447.43 1154.49,-446.87 1152.25,-440.01"/>
<text text-anchor="middle" x="1059.5" y="-321.7" font-family="Times,serif" font-size="14.00" fill="green">_LABEL_TYPE</text>
</g>
<!-- document_segmentation.pagexml.datamodel.label.Tanap -->
<g id="node22" class="node">
<title>document_segmentation.pagexml.datamodel.label.Tanap</title>
<polygon fill="aquamarine" stroke="aquamarine" points="625.12,-201.75 625.12,-275.25 679.12,-275.25 679.12,-201.75 625.12,-201.75"/>
<text text-anchor="start" x="635.12" y="-257.95" font-family="Times,serif" font-size="14.00">Tanap</text>
<polyline fill="none" stroke="aquamarine" points="625.12,-250.75 678.88,-250.75"/>
<text text-anchor="start" x="637" y="-233.45" font-family="Times,serif" font-size="14.00">name</text>
<polyline fill="none" stroke="aquamarine" points="625.12,-226.25 678.88,-226.25"/>
<text text-anchor="start" x="650.12" y="-208.95" font-family="Times,serif" font-size="14.00"> </text>
</g>
<!-- document_segmentation.pagexml.datamodel.label.Tanap&#45;&gt;document_segmentation.pagexml.datamodel.label.Label -->
<g id="edge13" class="edge">
<title>document_segmentation.pagexml.datamodel.label.Tanap&#45;&gt;document_segmentation.pagexml.datamodel.label.Label</title>
<path fill="none" stroke="black" d="M647.98,-275.65C647.76,-295.66 651.26,-319.53 666.12,-335 696.2,-366.3 723.42,-333.34 762.12,-353 797.33,-370.89 829.81,-400.81 854.08,-427.12"/>
<polygon fill="none" stroke="black" points="851.35,-429.32 860.65,-434.39 856.54,-424.62 851.35,-429.32"/>
</g>
<!-- document_segmentation.pagexml.datamodel.inventory.ThumbnailDownloader -->
<g id="node23" class="node">
<title>document_segmentation.pagexml.datamodel.inventory.ThumbnailDownloader</title>
<polygon fill="aquamarine" stroke="aquamarine" points="1668.5,-415.75 1668.5,-546.25 1971.75,-546.25 1971.75,-415.75 1668.5,-415.75"/>
<text text-anchor="start" x="1756.75" y="-528.95" font-family="Times,serif" font-size="14.00">ThumbnailDownloader</text>
<polyline fill="none" stroke="aquamarine" points="1668.5,-521.75 1971.75,-521.75"/>
<polyline fill="none" stroke="aquamarine" points="1668.5,-521.75 1971.75,-521.75"/>
<text text-anchor="start" x="1676.5" y="-505.45" font-family="Times,serif" font-size="14.00">download(inventory: Inventory, page: Page): Path</text>
<text text-anchor="start" x="1676.5" y="-491.45" font-family="Times,serif" font-size="14.00">from_file(file: Path): &#39;ThumbnailDownloader&#39;</text>
<text text-anchor="start" x="1676.5" y="-477.45" font-family="Times,serif" font-style="italic" font-size="14.00">from_url</text>
<text text-anchor="start" x="1724.5" y="-477.45" font-family="Times,serif" font-size="14.00">(url)</text>
<text text-anchor="start" x="1676.5" y="-463.45" font-family="Times,serif" font-size="14.00">get_metadata(inventory: Inventory, page: Page): dict</text>
<text text-anchor="start" x="1676.5" y="-449.45" font-family="Times,serif" font-size="14.00">get_uuid(inventory: Inventory): UUID</text>
<text text-anchor="start" x="1676.5" y="-435.45" font-family="Times,serif" font-size="14.00">thumbnail(inventory: Inventory, page: Page): Path</text>
<text text-anchor="start" x="1676.5" y="-421.45" font-family="Times,serif" font-size="14.00">thumbnail_url(inventory: Inventory, page: Page): str</text>
</g>
<!-- document_segmentation.pagexml.datamodel.inventory.ThumbnailDownloader&#45;&gt;document_segmentation.model.page_learner.AbstractPageLearner -->
<g id="edge21" class="edge">
<title>document_segmentation.pagexml.datamodel.inventory.ThumbnailDownloader&#45;&gt;document_segmentation.model.page_learner.AbstractPageLearner</title>
<path fill="none" stroke="black" d="M1740.15,-546.53C1714.5,-566.83 1685.83,-589.13 1659.12,-609 1548.39,-691.4 1419.37,-781.32 1326.88,-844.76"/>
<polygon fill="none" stroke="black" points="1326.99,-844.68 1324.31,-851.37 1317.1,-851.47 1319.78,-844.77 1326.99,-844.68"/>
<text text-anchor="middle" x="1689.5" y="-630.2" font-family="Times,serif" font-size="14.00" fill="green">_thumbnail_downloader</text>
</g>
</g>
</svg>
