<?xml version="1.0" encoding="UTF-8" standalone="no"?>
<!DOCTYPE svg PUBLIC "-//W3C//DTD SVG 1.1//EN"
 "http://www.w3.org/Graphics/SVG/1.1/DTD/svg11.dtd">
<!-- Generated by graphviz version 9.0.0 (20230911.1827)
 -->
<!-- Title: classes Pages: 1 -->
<svg width="3289pt" height="1500pt"
 viewBox="0.00 0.00 3289.38 1499.50" xmlns="http://www.w3.org/2000/svg" xmlns:xlink="http://www.w3.org/1999/xlink">
<g id="graph0" class="graph" transform="scale(1 1) rotate(0) translate(4 1495.5)">
<title>classes</title>
<polygon fill="white" stroke="none" points="-4,4 -4,-1495.5 3285.38,-1495.5 3285.38,4 -4,4"/>
<!-- document_segmentation.model.page_learner.AbstractPageLearner -->
<g id="node1" class="node">
<title>document_segmentation.model.page_learner.AbstractPageLearner</title>
<polygon fill="antiquewhite" stroke="antiquewhite" points="668.5,-783.25 668.5,-954.75 1187,-954.75 1187,-783.25 668.5,-783.25"/>
<text text-anchor="start" x="870.75" y="-937.45" font-family="Times,serif" font-size="14.00">AbstractPageLearner</text>
<polyline fill="none" stroke="antiquewhite" points="668.5,-930.25 1187,-930.25"/>
<text text-anchor="start" x="863.25" y="-912.95" font-family="Times,serif" font-size="14.00">wandb_run</text>
<text text-anchor="start" x="863.25" y="-896.45" font-family="Times,serif" font-size="14.00">wandb_run : NoneType</text>
<polyline fill="none" stroke="antiquewhite" points="668.5,-889.25 1187,-889.25"/>
<text text-anchor="start" x="676.5" y="-872.95" font-family="Times,serif" font-size="14.00">eval_(docs: list[Any], name: str): tuple[Metric, Metric, Metric, Metric, pd.DataFrame]</text>
<text text-anchor="start" x="676.5" y="-858.95" font-family="Times,serif" font-size="14.00">forward(pages: list[Page]): torch.Tensor</text>
<text text-anchor="start" x="676.5" y="-844.95" font-family="Times,serif" font-size="14.00">load(path: Path): None</text>
<text text-anchor="start" x="676.5" y="-830.95" font-family="Times,serif" font-style="italic" font-size="14.00">predict</text>
<text text-anchor="start" x="714.75" y="-830.95" font-family="Times,serif" font-size="14.00">(data): pd.DataFrame</text>
<text text-anchor="start" x="676.5" y="-816.95" font-family="Times,serif" font-size="14.00">split(docs: list[Inventory], split: float): tuple[list[Inventory], list[Inventory]]</text>
<text text-anchor="start" x="676.5" y="-802.95" font-family="Times,serif" font-size="14.00">total_class_weights(docs: Iterable[Inventory]): list[float]</text>
<text text-anchor="start" x="676.5" y="-788.95" font-family="Times,serif" font-size="14.00">train_(training_data: list[Inventory], validation_data: dict[str, list[Inventory]]): dict[str, Any]</text>
</g>
<!-- document_segmentation.model.device_module.DeviceModule -->
<g id="node2" class="node">
<title>document_segmentation.model.device_module.DeviceModule</title>
<polygon fill="antiquewhite" stroke="antiquewhite" points="393.62,-1219 393.62,-1284.5 651.88,-1284.5 651.88,-1219 393.62,-1219"/>
<text text-anchor="start" x="482.25" y="-1267.2" font-family="Times,serif" font-size="14.00">DeviceModule</text>
<polyline fill="none" stroke="antiquewhite" points="393.62,-1260 651.88,-1260"/>
<polyline fill="none" stroke="antiquewhite" points="393.62,-1260 651.88,-1260"/>
<text text-anchor="start" x="401.62" y="-1242.7" font-family="Times,serif" font-size="14.00">get_device(backends: list[ModuleType]): str</text>
<text text-anchor="start" x="401.62" y="-1226.2" font-family="Times,serif" font-size="14.00">to_device(device: Optional[str])</text>
</g>
<!-- document_segmentation.model.page_learner.AbstractPageLearner&#45;&gt;document_segmentation.model.device_module.DeviceModule -->
<g id="edge3" class="edge">
<title>document_segmentation.model.page_learner.AbstractPageLearner&#45;&gt;document_segmentation.model.device_module.DeviceModule</title>
<path fill="none" stroke="black" d="M866.35,-955.12C815.11,-1022.01 737.35,-1114.5 654.75,-1180 639.19,-1192.34 621.17,-1203.61 603.54,-1213.35"/>
<polygon fill="none" stroke="black" points="602.28,-1210.06 595.14,-1217.89 605.6,-1216.22 602.28,-1210.06"/>
</g>
<!-- document_segmentation.pagexml.datamodel.document.Document -->
<g id="node3" class="node">
<title>document_segmentation.pagexml.datamodel.document.Document</title>
<polygon fill="aquamarine" stroke="aquamarine" points="2366.88,-276 2366.88,-366 2608.62,-366 2608.62,-276 2366.88,-276"/>
<text text-anchor="start" x="2459.25" y="-348.7" font-family="Times,serif" font-size="14.00">Document</text>
<polyline fill="none" stroke="aquamarine" points="2366.88,-341.5 2608.62,-341.5"/>
<text text-anchor="start" x="2374.88" y="-324.2" font-family="Times,serif" font-size="14.00">label</text>
<text text-anchor="start" x="2374.88" y="-307.7" font-family="Times,serif" font-size="14.00">pages : Annotated[list[Page], MinLen(1)]</text>
<polyline fill="none" stroke="aquamarine" points="2366.88,-300.5 2608.62,-300.5"/>
<text text-anchor="start" x="2412" y="-283.2" font-family="Times,serif" font-size="14.00">label_tensor(): torch.Tensor</text>
</g>
<!-- document_segmentation.pagexml.datamodel.inventory.Inventory -->
<g id="node6" class="node">
<title>document_segmentation.pagexml.datamodel.inventory.Inventory</title>
<polygon fill="aquamarine" stroke="aquamarine" points="2102.12,-593 2102.12,-1145 2873.38,-1145 2873.38,-593 2102.12,-593"/>
<text text-anchor="start" x="2461.5" y="-1127.7" font-family="Times,serif" font-size="14.00">Inventory</text>
<polyline fill="none" stroke="aquamarine" points="2102.12,-1120.5 2873.38,-1120.5"/>
<text text-anchor="start" x="2435.62" y="-1103.2" font-family="Times,serif" font-size="14.00">inv_nr</text>
<text text-anchor="start" x="2435.62" y="-1086.7" font-family="Times,serif" font-size="14.00">inventory_part : str</text>
<text text-anchor="start" x="2435.62" y="-1070.2" font-family="Times,serif" font-size="14.00">pages</text>
<text text-anchor="start" x="2435.62" y="-1053.7" font-family="Times,serif" font-size="14.00">pages : list[Page]</text>
<polyline fill="none" stroke="aquamarine" points="2102.12,-1046.5 2873.38,-1046.5"/>
<text text-anchor="start" x="2110.12" y="-1029.2" font-family="Times,serif" font-size="14.00">annotate_scan(scan_nr: int, label: SequenceLabel)</text>
<text text-anchor="start" x="2110.12" y="-1012.7" font-family="Times,serif" font-size="14.00">class_counts(): Counter[SequenceLabel]</text>
<text text-anchor="start" x="2110.12" y="-996.2" font-family="Times,serif" font-size="14.00">class_weights(): list[float]</text>
<text text-anchor="start" x="2110.12" y="-979.7" font-family="Times,serif" font-size="14.00">download(inv_nr: int, inventory_part: str): &#39;Inventory&#39;</text>
<text text-anchor="start" x="2110.12" y="-963.2" font-family="Times,serif" font-size="14.00">empty_unlabelled(): &#39;Inventory&#39;</text>
<text text-anchor="start" x="2110.12" y="-946.7" font-family="Times,serif" font-size="14.00">from_file(file: Path): &#39;Inventory&#39;</text>
<text text-anchor="start" x="2110.12" y="-930.2" font-family="Times,serif" font-size="14.00">full_inv_nr(): str</text>
<text text-anchor="start" x="2110.12" y="-913.7" font-family="Times,serif" font-size="14.00">get_documents(): list[list[Page]]</text>
<text text-anchor="start" x="2110.12" y="-897.2" font-family="Times,serif" font-size="14.00">get_scan(scan_nr: int): tuple[int, Page]</text>
<text text-anchor="start" x="2110.12" y="-880.7" font-family="Times,serif" font-size="14.00">get_scans(start_scan_nr: int, end_scan_nr: int): list[Page]</text>
<text text-anchor="start" x="2110.12" y="-864.2" font-family="Times,serif" font-size="14.00">has_labels(): bool</text>
<text text-anchor="start" x="2110.12" y="-847.7" font-family="Times,serif" font-size="14.00">head(n: int): &#39;Inventory&#39;</text>
<text text-anchor="start" x="2110.12" y="-831.2" font-family="Times,serif" font-size="14.00">label_tensor(): torch.Tensor</text>
<text text-anchor="start" x="2110.12" y="-814.7" font-family="Times,serif" font-size="14.00">labelled(): list[Page]</text>
<text text-anchor="start" x="2110.12" y="-798.2" font-family="Times,serif" font-size="14.00">labelled_inventories(): Iterable[&#39;Inventory&#39;]</text>
<text text-anchor="start" x="2110.12" y="-781.7" font-family="Times,serif" font-size="14.00">labels(): list[SequenceLabel]</text>
<text text-anchor="start" x="2110.12" y="-765.2" font-family="Times,serif" font-size="14.00">link(page: Page): str</text>
<text text-anchor="start" x="2110.12" y="-748.7" font-family="Times,serif" font-size="14.00">load(inv_nr: int, inventory_part: str, inventory_dir: Path)</text>
<text text-anchor="start" x="2110.12" y="-732.2" font-family="Times,serif" font-size="14.00">load_or_download(inv_nr: int, inventory_part: str, inventory_dir: Path)</text>
<text text-anchor="start" x="2110.12" y="-715.7" font-family="Times,serif" font-size="14.00">local_file(inv_nr: int, inventory_part: str, directory: Path): Path</text>
<text text-anchor="start" x="2110.12" y="-699.2" font-family="Times,serif" font-size="14.00">output_row(prediction: Label, actual: Label, page: Page, output: torch.Tensor, thumbnail_downloader: Optional[&#39;ThumbnailDownloader&#39;])</text>
<text text-anchor="start" x="2110.12" y="-682.7" font-family="Times,serif" font-size="14.00">remove_empty_pages(): &#39;Inventory&#39;</text>
<text text-anchor="start" x="2110.12" y="-666.2" font-family="Times,serif" font-size="14.00">remove_scan(scan_nr: int): &#39;Inventory&#39;</text>
<text text-anchor="start" x="2110.12" y="-649.7" font-family="Times,serif" font-size="14.00">remove_short_regions(min_chars: int): &#39;Inventory&#39;</text>
<text text-anchor="start" x="2110.12" y="-633.2" font-family="Times,serif" font-size="14.00">split(max_size): Iterable[&#39;Inventory&#39;]</text>
<text text-anchor="start" x="2110.12" y="-616.7" font-family="Times,serif" font-size="14.00">validate_inv_part(value: str): str</text>
<text text-anchor="start" x="2110.12" y="-600.2" font-family="Times,serif" font-size="14.00">write(target_file: Optional[Path], mode): Path</text>
</g>
<!-- document_segmentation.pagexml.datamodel.document.Document&#45;&gt;document_segmentation.pagexml.datamodel.inventory.Inventory -->
<g id="edge11" class="edge">
<title>document_segmentation.pagexml.datamodel.document.Document&#45;&gt;document_segmentation.pagexml.datamodel.inventory.Inventory</title>
<path fill="none" stroke="black" d="M2487.75,-366.22C2487.75,-414.81 2487.75,-497.2 2487.75,-581.32"/>
<polygon fill="none" stroke="black" points="2484.25,-581.15 2487.75,-591.15 2491.25,-581.15 2484.25,-581.15"/>
</g>
<!-- document_segmentation.model.document_classifier.DocumentClassifier -->
<g id="node4" class="node">
<title>document_segmentation.model.document_classifier.DocumentClassifier</title>
<polygon fill="antiquewhite" stroke="antiquewhite" points="2082.5,-296.5 2082.5,-345.5 2349,-345.5 2349,-296.5 2082.5,-296.5"/>
<text text-anchor="start" x="2161.38" y="-328.2" font-family="Times,serif" font-size="14.00">DocumentClassifier</text>
<polyline fill="none" stroke="antiquewhite" points="2082.5,-321 2349,-321"/>
<polyline fill="none" stroke="antiquewhite" points="2082.5,-321 2349,-321"/>
<text text-anchor="start" x="2090.5" y="-303.7" font-family="Times,serif" font-size="14.00">predict(document: Document): pd.DataFrame</text>
</g>
<!-- document_segmentation.model.document_classifier.DocumentClassifier&#45;&gt;document_segmentation.model.page_learner.AbstractPageLearner -->
<g id="edge1" class="edge">
<title>document_segmentation.model.document_classifier.DocumentClassifier&#45;&gt;document_segmentation.model.page_learner.AbstractPageLearner</title>
<path fill="none" stroke="black" d="M2197.88,-345.89C2173.18,-377.37 2125.73,-432.61 2073.75,-465.5 1799.54,-639.03 1440.9,-749.37 1198.42,-809.79"/>
<polygon fill="none" stroke="black" points="1197.65,-806.38 1188.79,-812.18 1199.34,-813.17 1197.65,-806.38"/>
</g>
<!-- document_segmentation.pagexml.annotations.generale_missiven.GeneraleMissiven -->
<g id="node5" class="node">
<title>document_segmentation.pagexml.annotations.generale_missiven.GeneraleMissiven</title>
<polygon fill="aquamarine" stroke="aquamarine" points="1774.25,-1227.25 1774.25,-1276.25 1889.25,-1276.25 1889.25,-1227.25 1774.25,-1227.25"/>
<text text-anchor="start" x="1782.25" y="-1258.95" font-family="Times,serif" font-size="14.00">GeneraleMissiven</text>
<polyline fill="none" stroke="aquamarine" points="1774.25,-1251.75 1889.25,-1251.75"/>
<polyline fill="none" stroke="aquamarine" points="1774.25,-1251.75 1889.25,-1251.75"/>
<text text-anchor="start" x="1829.88" y="-1234.45" font-family="Times,serif" font-size="14.00"> </text>
</g>
<!-- document_segmentation.pagexml.annotations.sheet.Sheet -->
<g id="node20" class="node">
<title>document_segmentation.pagexml.annotations.sheet.Sheet</title>
<polygon fill="aquamarine" stroke="aquamarine" points="1875.38,-1343 1875.38,-1491 2348.12,-1491 2348.12,-1343 1875.38,-1343"/>
<text text-anchor="start" x="2096.75" y="-1473.7" font-family="Times,serif" font-size="14.00">Sheet</text>
<polyline fill="none" stroke="aquamarine" points="1875.38,-1466.5 2348.12,-1466.5"/>
<polyline fill="none" stroke="aquamarine" points="1875.38,-1466.5 2348.12,-1466.5"/>
<text text-anchor="start" x="1883.38" y="-1449.2" font-family="Times,serif" font-size="14.00">all_annotated_inventories(n: Optional[int]): Iterable[&#39;Inventory&#39;]</text>
<text text-anchor="start" x="1883.38" y="-1432.7" font-family="Times,serif" font-size="14.00">annotate_inventory(inventory: Inventory): Inventory</text>
<text text-anchor="start" x="1883.38" y="-1416.2" font-family="Times,serif" font-size="14.00">annotated_rows(inventory: Inventory): pd.DataFrame</text>
<text text-anchor="start" x="1883.38" y="-1399.7" font-family="Times,serif" font-size="14.00">download_inventories()</text>
<text text-anchor="start" x="1883.38" y="-1383.2" font-family="Times,serif" font-size="14.00">inventories(): Iterable[Inventory]</text>
<text text-anchor="start" x="1883.38" y="-1366.7" font-family="Times,serif" font-size="14.00">inventory_numbers(): Iterable[tuple[int, str]]</text>
<text text-anchor="start" x="1883.38" y="-1350.2" font-family="Times,serif" font-size="14.00">preprocess(inventory: Inventory, min_region_text_length, max_size: int): Inventory</text>
</g>
<!-- document_segmentation.pagexml.annotations.generale_missiven.GeneraleMissiven&#45;&gt;document_segmentation.pagexml.annotations.sheet.Sheet -->
<g id="edge8" class="edge">
<title>document_segmentation.pagexml.annotations.generale_missiven.GeneraleMissiven&#45;&gt;document_segmentation.pagexml.annotations.sheet.Sheet</title>
<path fill="none" stroke="black" d="M1859.1,-1276.61C1870.64,-1286.14 1884.46,-1296.88 1897.75,-1305.5 1914.4,-1316.3 1932.23,-1326.89 1950.23,-1336.99"/>
<polygon fill="none" stroke="black" points="1948.48,-1340.02 1958.92,-1341.81 1951.87,-1333.89 1948.48,-1340.02"/>
</g>
<!-- document_segmentation.pagexml.annotations.renate_analysis.RenateAnalysisInv -->
<g id="node18" class="node">
<title>document_segmentation.pagexml.annotations.renate_analysis.RenateAnalysisInv</title>
<polygon fill="aquamarine" stroke="aquamarine" points="2335,-1198.5 2335,-1305 2640.5,-1305 2640.5,-1198.5 2335,-1198.5"/>
<text text-anchor="start" x="2436.38" y="-1287.7" font-family="Times,serif" font-size="14.00">RenateAnalysisInv</text>
<polyline fill="none" stroke="aquamarine" points="2335,-1280.5 2640.5,-1280.5"/>
<text text-anchor="start" x="2407.12" y="-1263.2" font-family="Times,serif" font-size="14.00">NON_DOC_TYPES : set[str]</text>
<polyline fill="none" stroke="aquamarine" points="2335,-1256 2640.5,-1256"/>
<text text-anchor="start" x="2343" y="-1238.7" font-family="Times,serif" font-size="14.00">annotate_inventory(inventory: Inventory): &#39;Inventory&#39;</text>
<text text-anchor="start" x="2343" y="-1222.2" font-family="Times,serif" font-size="14.00">inventories(): Iterable[Inventory]</text>
<text text-anchor="start" x="2343" y="-1205.7" font-family="Times,serif" font-size="14.00">inventory_numbers(): Iterable[tuple[int, str]]</text>
</g>
<!-- document_segmentation.pagexml.datamodel.inventory.Inventory&#45;&gt;document_segmentation.pagexml.annotations.renate_analysis.RenateAnalysisInv -->
<g id="edge17" class="edge">
<title>document_segmentation.pagexml.datamodel.inventory.Inventory&#45;&gt;document_segmentation.pagexml.annotations.renate_analysis.RenateAnalysisInv</title>
<path fill="none" stroke="black" d="M2487.75,-1145.45C2487.75,-1159.74 2487.75,-1173.23 2487.75,-1185.48"/>
<polygon fill="black" stroke="black" points="2487.75,-1185.36 2491.75,-1191.36 2487.75,-1197.36 2483.75,-1191.36 2487.75,-1185.36"/>
<text text-anchor="middle" x="2517" y="-1166.7" font-family="Times,serif" font-size="14.00" fill="green">_inventory</text>
</g>
<!-- document_segmentation.pagexml.datamodel.label.Label -->
<g id="node7" class="node">
<title>document_segmentation.pagexml.datamodel.label.Label</title>
<polygon fill="aquamarine" stroke="aquamarine" points="1813,-276 1813,-366 2064.5,-366 2064.5,-276 1813,-276"/>
<text text-anchor="start" x="1923.38" y="-348.7" font-family="Times,serif" font-size="14.00">Label</text>
<polyline fill="none" stroke="aquamarine" points="1813,-341.5 2064.5,-341.5"/>
<text text-anchor="start" x="1923.75" y="-324.2" font-family="Times,serif" font-size="14.00">name</text>
<polyline fill="none" stroke="aquamarine" points="1813,-317 2064.5,-317"/>
<text text-anchor="start" x="1821" y="-299.7" font-family="Times,serif" font-size="14.00">to_list(): list[int]</text>
<text text-anchor="start" x="1821" y="-283.2" font-family="Times,serif" font-size="14.00">to_tensor(labels: list[&#39;Label&#39;]): torch.Tensor</text>
</g>
<!-- document_segmentation.pagexml.datamodel.page.Page -->
<g id="node8" class="node">
<title>document_segmentation.pagexml.datamodel.page.Page</title>
<polygon fill="aquamarine" stroke="aquamarine" points="1013.25,-177 1013.25,-465 1452.25,-465 1452.25,-177 1013.25,-177"/>
<text text-anchor="start" x="1219.62" y="-447.7" font-family="Times,serif" font-size="14.00">Page</text>
<polyline fill="none" stroke="aquamarine" points="1013.25,-440.5 1452.25,-440.5"/>
<text text-anchor="start" x="1173.88" y="-423.2" font-family="Times,serif" font-size="14.00">doc_id : Optional[str]</text>
<text text-anchor="start" x="1173.88" y="-406.7" font-family="Times,serif" font-size="14.00">external_ref : str</text>
<text text-anchor="start" x="1173.88" y="-390.2" font-family="Times,serif" font-size="14.00">label</text>
<text text-anchor="start" x="1173.88" y="-373.7" font-family="Times,serif" font-size="14.00">label : OUT</text>
<text text-anchor="start" x="1173.88" y="-357.2" font-family="Times,serif" font-size="14.00">regions : list</text>
<text text-anchor="start" x="1173.88" y="-340.7" font-family="Times,serif" font-size="14.00">regions : list[Region]</text>
<text text-anchor="start" x="1173.88" y="-324.2" font-family="Times,serif" font-size="14.00">scan_nr</text>
<polyline fill="none" stroke="aquamarine" points="1013.25,-317 1452.25,-317"/>
<text text-anchor="start" x="1021.25" y="-299.7" font-family="Times,serif" font-size="14.00">annotate(label: SequenceLabel): &#39;Page&#39;</text>
<text text-anchor="start" x="1021.25" y="-283.2" font-family="Times,serif" font-size="14.00">empty(): &#39;Page&#39;</text>
<text text-anchor="start" x="1021.25" y="-266.7" font-family="Times,serif" font-size="14.00">enum_from_int(value)</text>
<text text-anchor="start" x="1021.25" y="-250.2" font-family="Times,serif" font-size="14.00">filter_short_regions(min_chars: int): &#39;Page&#39;</text>
<text text-anchor="start" x="1021.25" y="-233.7" font-family="Times,serif" font-size="14.00">from_pagexml(label: SequenceLabel, scan_nr: int, pagexml: PageXMLScan)</text>
<text text-anchor="start" x="1021.25" y="-217.2" font-family="Times,serif" font-size="14.00">guess_doc_id(inv_nr: str): str</text>
<text text-anchor="start" x="1021.25" y="-200.7" font-family="Times,serif" font-size="14.00">is_shorter_than(): bool</text>
<text text-anchor="start" x="1021.25" y="-184.2" font-family="Times,serif" font-size="14.00">text(delimiter: str): str</text>
</g>
<!-- document_segmentation.model.page_embedding.PageEmbedding -->
<g id="node9" class="node">
<title>document_segmentation.model.page_embedding.PageEmbedding</title>
<polygon fill="antiquewhite" stroke="antiquewhite" points="515.88,-276 515.88,-366 673.62,-366 673.62,-276 515.88,-276"/>
<text text-anchor="start" x="550.12" y="-348.7" font-family="Times,serif" font-size="14.00">PageEmbedding</text>
<polyline fill="none" stroke="antiquewhite" points="515.88,-341.5 673.62,-341.5"/>
<text text-anchor="start" x="550.88" y="-324.2" font-family="Times,serif" font-size="14.00">output_size : int</text>
<text text-anchor="start" x="550.88" y="-307.7" font-family="Times,serif" font-size="14.00">rnn</text>
<polyline fill="none" stroke="antiquewhite" points="515.88,-300.5 673.62,-300.5"/>
<text text-anchor="start" x="523.88" y="-283.2" font-family="Times,serif" font-size="14.00">forward(pages: list[Page])</text>
</g>
<!-- document_segmentation.model.page_embedding.PageEmbedding&#45;&gt;document_segmentation.model.page_learner.AbstractPageLearner -->
<g id="edge14" class="edge">
<title>document_segmentation.model.page_embedding.PageEmbedding&#45;&gt;document_segmentation.model.page_learner.AbstractPageLearner</title>
<path fill="none" stroke="black" d="M621.72,-366.22C675.32,-454.11 796.35,-652.55 869.12,-771.86"/>
<polygon fill="black" stroke="black" points="869.07,-771.79 875.61,-774.83 875.32,-782.03 868.78,-778.99 869.07,-771.79"/>
<text text-anchor="middle" x="791.62" y="-523.95" font-family="Times,serif" font-size="14.00" fill="green">_page_embedding</text>
</g>
<!-- document_segmentation.model.page_embedding.PageEmbedding&#45;&gt;document_segmentation.model.device_module.DeviceModule -->
<g id="edge2" class="edge">
<title>document_segmentation.model.page_embedding.PageEmbedding&#45;&gt;document_segmentation.model.device_module.DeviceModule</title>
<path fill="none" stroke="black" d="M605.94,-366.21C613.51,-398.47 622.81,-443.39 626.75,-483.5 630.7,-523.75 629.83,-534.17 626.75,-574.5 608.34,-815.38 553.54,-1100.33 531.79,-1207.31"/>
<polygon fill="none" stroke="black" points="528.37,-1206.59 529.79,-1217.09 535.22,-1208 528.37,-1206.59"/>
</g>
<!-- document_segmentation.model.page_sequence_tagger.PageSequenceTagger -->
<g id="node10" class="node">
<title>document_segmentation.model.page_sequence_tagger.PageSequenceTagger</title>
<polygon fill="antiquewhite" stroke="antiquewhite" points="1470.25,-288.25 1470.25,-353.75 1795.25,-353.75 1795.25,-288.25 1470.25,-288.25"/>
<text text-anchor="start" x="1574.62" y="-336.45" font-family="Times,serif" font-size="14.00">PageSequenceTagger</text>
<polyline fill="none" stroke="antiquewhite" points="1470.25,-329.25 1795.25,-329.25"/>
<polyline fill="none" stroke="antiquewhite" points="1470.25,-329.25 1795.25,-329.25"/>
<text text-anchor="start" x="1478.25" y="-311.95" font-family="Times,serif" font-size="14.00">predict(inventory: Inventory): pd.DataFrame</text>
<text text-anchor="start" x="1478.25" y="-295.45" font-family="Times,serif" font-size="14.00">predict_documents(inventory: Inventory): list[list[Page]]</text>
</g>
<!-- document_segmentation.model.page_sequence_tagger.PageSequenceTagger&#45;&gt;document_segmentation.model.page_learner.AbstractPageLearner -->
<g id="edge4" class="edge">
<title>document_segmentation.model.page_sequence_tagger.PageSequenceTagger&#45;&gt;document_segmentation.model.page_learner.AbstractPageLearner</title>
<path fill="none" stroke="black" d="M1595.52,-354.21C1561.19,-383.67 1508.61,-428.22 1461.75,-465.5 1324.23,-574.91 1162.64,-695.65 1053.52,-776.08"/>
<polygon fill="none" stroke="black" points="1051.64,-773.12 1045.67,-781.87 1055.79,-778.76 1051.64,-773.12"/>
</g>
<!-- document_segmentation.pagexml.pagexml.PageXML -->
<g id="node11" class="node">
<title>document_segmentation.pagexml.pagexml.PageXML</title>
<polygon fill="aquamarine" stroke="aquamarine" points="2260.5,-21 2260.5,-103 2617,-103 2617,-21 2260.5,-21"/>
<text text-anchor="start" x="2410.25" y="-85.7" font-family="Times,serif" font-size="14.00">PageXML</text>
<polyline fill="none" stroke="aquamarine" points="2260.5,-78.5 2617,-78.5"/>
<polyline fill="none" stroke="aquamarine" points="2260.5,-78.5 2617,-78.5"/>
<text text-anchor="start" x="2268.5" y="-61.2" font-family="Times,serif" font-size="14.00">document_type(): list[str]</text>
<text text-anchor="start" x="2268.5" y="-44.7" font-family="Times,serif" font-size="14.00">get_regions_from_top(): list[PageXMLTextRegion]</text>
<text text-anchor="start" x="2268.5" y="-28.2" font-family="Times,serif" font-size="14.00">top_paragraph(region_types): Optional[PageXMLTextRegion]</text>
</g>
<!-- document_segmentation.pagexml.datamodel.region.Region -->
<g id="node12" class="node">
<title>document_segmentation.pagexml.datamodel.region.Region</title>
<polygon fill="aquamarine" stroke="aquamarine" points="2635.25,-0.5 2635.25,-123.5 2954.25,-123.5 2954.25,-0.5 2635.25,-0.5"/>
<text text-anchor="start" x="2775.25" y="-106.2" font-family="Times,serif" font-size="14.00">Region</text>
<polyline fill="none" stroke="aquamarine" points="2635.25,-99 2954.25,-99"/>
<text text-anchor="start" x="2694.62" y="-81.7" font-family="Times,serif" font-size="14.00">coordinates : tuple[tuple[int, int], ...]</text>
<text text-anchor="start" x="2694.62" y="-65.2" font-family="Times,serif" font-size="14.00">id : str</text>
<text text-anchor="start" x="2694.62" y="-48.7" font-family="Times,serif" font-size="14.00">lines : tuple[str, ...]</text>
<text text-anchor="start" x="2694.62" y="-32.2" font-family="Times,serif" font-size="14.00">types : tuple[RegionType, ...]</text>
<polyline fill="none" stroke="aquamarine" points="2635.25,-25 2954.25,-25"/>
<text text-anchor="start" x="2643.25" y="-7.7" font-family="Times,serif" font-size="14.00">from_pagexml(region: PageXMLTextRegion): &#39;Region&#39;</text>
</g>
<!-- document_segmentation.model.region_classifier.RegionClassifier -->
<g id="node13" class="node">
<title>document_segmentation.model.region_classifier.RegionClassifier</title>
<polygon fill="antiquewhite" stroke="antiquewhite" points="184.12,-496.25 184.12,-561.75 625.38,-561.75 625.38,-496.25 184.12,-496.25"/>
<text text-anchor="start" x="359.38" y="-544.45" font-family="Times,serif" font-size="14.00">RegionClassifier</text>
<polyline fill="none" stroke="antiquewhite" points="184.12,-537.25 625.38,-537.25"/>
<polyline fill="none" stroke="antiquewhite" points="184.12,-537.25 625.38,-537.25"/>
<text text-anchor="start" x="192.12" y="-519.95" font-family="Times,serif" font-size="14.00">forward(regions: List[Region]): torch.Tensor</text>
<text text-anchor="start" x="192.12" y="-503.45" font-family="Times,serif" font-size="14.00">train_(dataset: RegionDataset, epochs: int, batch_size: int, weights: list[float])</text>
</g>
<!-- document_segmentation.model.region_classifier.RegionClassifier&#45;&gt;document_segmentation.model.device_module.DeviceModule -->
<g id="edge5" class="edge">
<title>document_segmentation.model.region_classifier.RegionClassifier&#45;&gt;document_segmentation.model.device_module.DeviceModule</title>
<path fill="none" stroke="black" d="M409.97,-561.9C428.91,-677.6 494.02,-1075.29 515.68,-1207.57"/>
<polygon fill="none" stroke="black" points="512.21,-1208.01 517.28,-1217.32 519.11,-1206.88 512.21,-1208.01"/>
</g>
<!-- document_segmentation.model.region_embedding.RegionEmbedding -->
<g id="node14" class="node">
<title>document_segmentation.model.region_embedding.RegionEmbedding</title>
<polygon fill="antiquewhite" stroke="antiquewhite" points="0,-484 0,-574 179.5,-574 179.5,-484 0,-484"/>
<text text-anchor="start" x="38.75" y="-556.7" font-family="Times,serif" font-size="14.00">RegionEmbedding</text>
<polyline fill="none" stroke="antiquewhite" points="0,-549.5 179.5,-549.5"/>
<text text-anchor="start" x="32" y="-532.2" font-family="Times,serif" font-size="14.00">output_size : int</text>
<text text-anchor="start" x="32" y="-515.7" font-family="Times,serif" font-size="14.00">text_embedding_size</text>
<polyline fill="none" stroke="antiquewhite" points="0,-508.5 179.5,-508.5"/>
<text text-anchor="start" x="8" y="-491.2" font-family="Times,serif" font-size="14.00">forward(regions: list[Region])</text>
</g>
<!-- document_segmentation.model.region_embedding.RegionEmbedding&#45;&gt;document_segmentation.model.device_module.DeviceModule -->
<g id="edge6" class="edge">
<title>document_segmentation.model.region_embedding.RegionEmbedding&#45;&gt;document_segmentation.model.device_module.DeviceModule</title>
<path fill="none" stroke="black" d="M106.93,-574.27C149.03,-679.61 264.73,-950.89 411.75,-1145.5 429.83,-1169.43 453.56,-1192.73 474.44,-1211.3"/>
<polygon fill="none" stroke="black" points="471.91,-1213.74 481.74,-1217.7 476.53,-1208.48 471.91,-1213.74"/>
</g>
<!-- document_segmentation.model.region_embedding.RegionEmbeddingSentenceTransformer -->
<g id="node15" class="node">
<title>document_segmentation.model.region_embedding.RegionEmbeddingSentenceTransformer</title>
<polygon fill="antiquewhite" stroke="antiquewhite" points="287.25,-25.25 287.25,-98.75 522.25,-98.75 522.25,-25.25 287.25,-25.25"/>
<text text-anchor="start" x="295.25" y="-81.45" font-family="Times,serif" font-size="14.00">RegionEmbeddingSentenceTransformer</text>
<polyline fill="none" stroke="antiquewhite" points="287.25,-74.25 522.25,-74.25"/>
<text text-anchor="start" x="347" y="-56.95" font-family="Times,serif" font-size="14.00">text_embedding_size</text>
<polyline fill="none" stroke="antiquewhite" points="287.25,-49.75 522.25,-49.75"/>
<text text-anchor="start" x="402.88" y="-32.45" font-family="Times,serif" font-size="14.00"> </text>
</g>
<!-- document_segmentation.model.region_embedding.RegionEmbeddingSentenceTransformer&#45;&gt;document_segmentation.model.page_embedding.PageEmbedding -->
<g id="edge15" class="edge">
<title>document_segmentation.model.region_embedding.RegionEmbeddingSentenceTransformer&#45;&gt;document_segmentation.model.page_embedding.PageEmbedding</title>
<path fill="none" stroke="black" d="M469.37,-99.12C486.72,-111.08 504.36,-125.59 517.75,-142 546.92,-177.74 566.92,-226.21 579.21,-263.55"/>
<polygon fill="black" stroke="black" points="579.18,-263.45 584.81,-267.96 582.82,-274.89 577.19,-270.38 579.18,-263.45"/>
<text text-anchor="middle" x="569" y="-145.2" font-family="Times,serif" font-size="14.00" fill="green">_region_model</text>
</g>
<!-- document_segmentation.model.region_embedding.RegionEmbeddingSentenceTransformer&#45;&gt;document_segmentation.model.region_classifier.RegionClassifier -->
<g id="edge16" class="edge">
<title>document_segmentation.model.region_embedding.RegionEmbeddingSentenceTransformer&#45;&gt;document_segmentation.model.region_classifier.RegionClassifier</title>
<path fill="none" stroke="black" d="M404.75,-99.1C404.75,-183.01 404.75,-391.03 404.75,-483.02"/>
<polygon fill="black" stroke="black" points="404.75,-483.08 408.75,-489.08 404.75,-495.08 400.75,-489.08 404.75,-483.08"/>
<text text-anchor="middle" x="459.12" y="-145.2" font-family="Times,serif" font-size="14.00" fill="green">_region_embedding</text>
</g>
<!-- document_segmentation.model.region_embedding.RegionEmbeddingSentenceTransformer&#45;&gt;document_segmentation.model.region_embedding.RegionEmbedding -->
<g id="edge7" class="edge">
<title>document_segmentation.model.region_embedding.RegionEmbeddingSentenceTransformer&#45;&gt;document_segmentation.model.region_embedding.RegionEmbedding</title>
<path fill="none" stroke="black" d="M380.29,-99.1C325.23,-180.38 191.28,-378.12 126.3,-474.04"/>
<polygon fill="none" stroke="black" points="123.42,-472.06 120.71,-482.3 129.21,-475.98 123.42,-472.06"/>
</g>
<!-- document_segmentation.pagexml.datamodel.region.RegionType -->
<g id="node16" class="node">
<title>document_segmentation.pagexml.datamodel.region.RegionType</title>
<polygon fill="aquamarine" stroke="aquamarine" points="2972.12,-17 2972.12,-107 3281.38,-107 3281.38,-17 2972.12,-17"/>
<text text-anchor="start" x="3093.38" y="-89.7" font-family="Times,serif" font-size="14.00">RegionType</text>
<polyline fill="none" stroke="aquamarine" points="2972.12,-82.5 3281.38,-82.5"/>
<text text-anchor="start" x="3111.75" y="-65.2" font-family="Times,serif" font-size="14.00">name</text>
<polyline fill="none" stroke="aquamarine" points="2972.12,-58 3281.38,-58"/>
<text text-anchor="start" x="2980.12" y="-40.7" font-family="Times,serif" font-size="14.00">index(): int</text>
<text text-anchor="start" x="2980.12" y="-24.2" font-family="Times,serif" font-size="14.00">indices(region_types: Iterable[&#39;RegionType&#39;]): list[int]</text>
</g>
<!-- document_segmentation.pagexml.annotations.renate_analysis.RenateAnalysis -->
<g id="node17" class="node">
<title>document_segmentation.pagexml.annotations.renate_analysis.RenateAnalysis</title>
<polygon fill="aquamarine" stroke="aquamarine" points="1906.88,-1210.75 1906.88,-1292.75 2316.62,-1292.75 2316.62,-1210.75 1906.88,-1210.75"/>
<text text-anchor="start" x="2069.38" y="-1275.45" font-family="Times,serif" font-size="14.00">RenateAnalysis</text>
<polyline fill="none" stroke="aquamarine" points="1906.88,-1268.25 2316.62,-1268.25"/>
<polyline fill="none" stroke="aquamarine" points="1906.88,-1268.25 2316.62,-1268.25"/>
<text text-anchor="start" x="1914.88" y="-1250.95" font-family="Times,serif" font-size="14.00">annotated_rows(inventory: Inventory): pd.DataFrame</text>
<text text-anchor="start" x="1914.88" y="-1234.45" font-family="Times,serif" font-size="14.00">documents(): Iterable[Document]</text>
<text text-anchor="start" x="1914.88" y="-1217.95" font-family="Times,serif" font-size="14.00">documents_from_sheet(sheet: &#39;RenateAnalysisInv&#39;): Iterable[Document]</text>
</g>
<!-- document_segmentation.pagexml.annotations.renate_analysis.RenateAnalysis&#45;&gt;document_segmentation.pagexml.annotations.sheet.Sheet -->
<g id="edge9" class="edge">
<title>document_segmentation.pagexml.annotations.renate_analysis.RenateAnalysis&#45;&gt;document_segmentation.pagexml.annotations.sheet.Sheet</title>
<path fill="none" stroke="black" d="M2111.75,-1293.1C2111.75,-1304.83 2111.75,-1318.1 2111.75,-1331.48"/>
<polygon fill="none" stroke="black" points="2108.25,-1331.19 2111.75,-1341.19 2115.25,-1331.19 2108.25,-1331.19"/>
</g>
<!-- document_segmentation.pagexml.annotations.renate_analysis.RenateAnalysisInv&#45;&gt;document_segmentation.pagexml.annotations.sheet.Sheet -->
<g id="edge10" class="edge">
<title>document_segmentation.pagexml.annotations.renate_analysis.RenateAnalysisInv&#45;&gt;document_segmentation.pagexml.annotations.sheet.Sheet</title>
<path fill="none" stroke="black" d="M2366.45,-1305.41C2342.5,-1315.82 2316.88,-1326.94 2291.47,-1337.97"/>
<polygon fill="none" stroke="black" points="2290.14,-1334.73 2282.37,-1341.92 2292.93,-1341.15 2290.14,-1334.73"/>
</g>
<!-- document_segmentation.pagexml.datamodel.label.SequenceLabel -->
<g id="node19" class="node">
<title>document_segmentation.pagexml.datamodel.label.SequenceLabel</title>
<polygon fill="aquamarine" stroke="aquamarine" points="1370.5,-25.25 1370.5,-98.75 1469,-98.75 1469,-25.25 1370.5,-25.25"/>
<text text-anchor="start" x="1378.5" y="-81.45" font-family="Times,serif" font-size="14.00">SequenceLabel</text>
<polyline fill="none" stroke="aquamarine" points="1370.5,-74.25 1469,-74.25"/>
<text text-anchor="start" x="1404.75" y="-56.95" font-family="Times,serif" font-size="14.00">name</text>
<polyline fill="none" stroke="aquamarine" points="1370.5,-49.75 1469,-49.75"/>
<text text-anchor="start" x="1417.88" y="-32.45" font-family="Times,serif" font-size="14.00"> </text>
</g>
<!-- document_segmentation.pagexml.datamodel.label.SequenceLabel&#45;&gt;document_segmentation.pagexml.datamodel.label.Label -->
<g id="edge12" class="edge">
<title>document_segmentation.pagexml.datamodel.label.SequenceLabel&#45;&gt;document_segmentation.pagexml.datamodel.label.Label</title>
<path fill="none" stroke="black" d="M1469.34,-69.08C1546.13,-80.29 1696.24,-109.5 1804.75,-176.5 1842.5,-199.81 1876.5,-236.51 1900.81,-266.96"/>
<polygon fill="none" stroke="black" points="1897.86,-268.87 1906.78,-274.58 1903.37,-264.55 1897.86,-268.87"/>
</g>
<!-- document_segmentation.pagexml.datamodel.label.SequenceLabel&#45;&gt;document_segmentation.pagexml.datamodel.page.Page -->
<g id="edge19" class="edge">
<title>document_segmentation.pagexml.datamodel.label.SequenceLabel&#45;&gt;document_segmentation.pagexml.datamodel.page.Page</title>
<path fill="none" stroke="black" d="M1370.05,-90.37C1349.21,-103.77 1326.04,-121.46 1309.5,-142 1303.56,-149.38 1297.99,-157.29 1292.79,-165.53"/>
<polygon fill="black" stroke="black" points="1292.83,-165.47 1293.16,-172.67 1286.63,-175.75 1286.3,-168.54 1292.83,-165.47"/>
<text text-anchor="middle" x="1321.88" y="-145.2" font-family="Times,serif" font-size="14.00" fill="green">label</text>
</g>
<!-- document_segmentation.pagexml.datamodel.label.SequenceLabel&#45;&gt;document_segmentation.pagexml.datamodel.page.Page -->
<g id="edge23" class="edge">
<title>document_segmentation.pagexml.datamodel.label.SequenceLabel&#45;&gt;document_segmentation.pagexml.datamodel.page.Page</title>
<path fill="none" stroke="black" d="M1393.55,-99.01C1380.17,-117.4 1362.87,-141.17 1344.6,-166.28"/>
<polygon fill="none" stroke="black" points="1344.59,-166.3 1344.29,-173.5 1337.53,-176 1337.82,-168.8 1344.59,-166.3"/>
<text text-anchor="middle" x="1371.88" y="-145.2" font-family="Times,serif" font-size="14.00" fill="green">label</text>
</g>
<!-- document_segmentation.pagexml.datamodel.label.SequenceLabel&#45;&gt;document_segmentation.model.page_sequence_tagger.PageSequenceTagger -->
<g id="edge18" class="edge">
<title>document_segmentation.pagexml.datamodel.label.SequenceLabel&#45;&gt;document_segmentation.model.page_sequence_tagger.PageSequenceTagger</title>
<path fill="none" stroke="black" d="M1449.59,-99.01C1488.58,-146.05 1556.73,-228.28 1598,-278.07"/>
<polygon fill="black" stroke="black" points="1597.9,-277.95 1604.81,-280.02 1605.56,-287.19 1598.65,-285.12 1597.9,-277.95"/>
<text text-anchor="middle" x="1539.12" y="-145.2" font-family="Times,serif" font-size="14.00" fill="green">_LABEL_TYPE</text>
</g>
<!-- document_segmentation.pagexml.datamodel.label.Tanap -->
<g id="node21" class="node">
<title>document_segmentation.pagexml.datamodel.label.Tanap</title>
<polygon fill="aquamarine" stroke="aquamarine" points="2188.75,-25.25 2188.75,-98.75 2242.75,-98.75 2242.75,-25.25 2188.75,-25.25"/>
<text text-anchor="start" x="2198.75" y="-81.45" font-family="Times,serif" font-size="14.00">Tanap</text>
<polyline fill="none" stroke="aquamarine" points="2188.75,-74.25 2242.5,-74.25"/>
<text text-anchor="start" x="2200.62" y="-56.95" font-family="Times,serif" font-size="14.00">name</text>
<polyline fill="none" stroke="aquamarine" points="2188.75,-49.75 2242.5,-49.75"/>
<text text-anchor="start" x="2213.75" y="-32.45" font-family="Times,serif" font-size="14.00"> </text>
</g>
<!-- document_segmentation.pagexml.datamodel.label.Tanap&#45;&gt;document_segmentation.pagexml.datamodel.document.Document -->
<g id="edge21" class="edge">
<title>document_segmentation.pagexml.datamodel.label.Tanap&#45;&gt;document_segmentation.pagexml.datamodel.document.Document</title>
<path fill="none" stroke="black" d="M2231.11,-99C2236.49,-108.22 2243.34,-117.38 2251.75,-124 2273.29,-140.96 2286.24,-129.71 2310.75,-142 2333.92,-153.61 2338.51,-159.14 2357.75,-176.5 2388.34,-204.09 2419.43,-238.15 2443.54,-266.17"/>
<polygon fill="black" stroke="black" points="2443.39,-265.99 2450.32,-267.96 2451.18,-275.12 2444.24,-273.15 2443.39,-265.99"/>
<text text-anchor="middle" x="2349.88" y="-145.2" font-family="Times,serif" font-size="14.00" fill="green">label</text>
</g>
<!-- document_segmentation.pagexml.datamodel.label.Tanap&#45;&gt;document_segmentation.model.document_classifier.DocumentClassifier -->
<g id="edge20" class="edge">
<title>document_segmentation.pagexml.datamodel.label.Tanap&#45;&gt;document_segmentation.model.document_classifier.DocumentClassifier</title>
<path fill="none" stroke="black" d="M2215.75,-99.01C2215.75,-147.75 2215.75,-234.26 2215.75,-283.34"/>
<polygon fill="black" stroke="black" points="2215.75,-283.22 2219.75,-289.22 2215.75,-295.22 2211.75,-289.22 2215.75,-283.22"/>
<text text-anchor="middle" x="2261.12" y="-145.2" font-family="Times,serif" font-size="14.00" fill="green">_LABEL_TYPE</text>
</g>
<!-- document_segmentation.pagexml.datamodel.label.Tanap&#45;&gt;document_segmentation.pagexml.datamodel.label.Label -->
<g id="edge13" class="edge">
<title>document_segmentation.pagexml.datamodel.label.Tanap&#45;&gt;document_segmentation.pagexml.datamodel.label.Label</title>
<path fill="none" stroke="black" d="M2188.38,-83.04C2159.08,-104.92 2111.68,-141.51 2073.75,-176.5 2042.76,-205.09 2010.32,-239.41 1985.01,-267.32"/>
<polygon fill="none" stroke="black" points="1982.51,-264.87 1978.41,-274.64 1987.7,-269.56 1982.51,-264.87"/>
</g>
<!-- document_segmentation.pagexml.datamodel.inventory.ThumbnailDownloader -->
<g id="node22" class="node">
<title>document_segmentation.pagexml.datamodel.inventory.ThumbnailDownloader</title>
<polygon fill="aquamarine" stroke="aquamarine" points="692.12,-255.75 692.12,-386.25 995.38,-386.25 995.38,-255.75 692.12,-255.75"/>
<text text-anchor="start" x="780.38" y="-368.95" font-family="Times,serif" font-size="14.00">ThumbnailDownloader</text>
<polyline fill="none" stroke="aquamarine" points="692.12,-361.75 995.38,-361.75"/>
<polyline fill="none" stroke="aquamarine" points="692.12,-361.75 995.38,-361.75"/>
<text text-anchor="start" x="700.12" y="-345.45" font-family="Times,serif" font-size="14.00">download(inventory: Inventory, page: Page): Path</text>
<text text-anchor="start" x="700.12" y="-331.45" font-family="Times,serif" font-size="14.00">from_file(file: Path): &#39;ThumbnailDownloader&#39;</text>
<text text-anchor="start" x="700.12" y="-317.45" font-family="Times,serif" font-style="italic" font-size="14.00">from_url</text>
<text text-anchor="start" x="748.12" y="-317.45" font-family="Times,serif" font-size="14.00">(url)</text>
<text text-anchor="start" x="700.12" y="-303.45" font-family="Times,serif" font-size="14.00">get_metadata(inventory: Inventory, page: Page): dict</text>
<text text-anchor="start" x="700.12" y="-289.45" font-family="Times,serif" font-size="14.00">get_uuid(inventory: Inventory): UUID</text>
<text text-anchor="start" x="700.12" y="-275.45" font-family="Times,serif" font-size="14.00">thumbnail(inventory: Inventory, page: Page): Path</text>
<text text-anchor="start" x="700.12" y="-261.45" font-family="Times,serif" font-size="14.00">thumbnail_url(inventory: Inventory, page: Page): str</text>
</g>
<!-- document_segmentation.pagexml.datamodel.inventory.ThumbnailDownloader&#45;&gt;document_segmentation.model.page_learner.AbstractPageLearner -->
<g id="edge22" class="edge">
<title>document_segmentation.pagexml.datamodel.inventory.ThumbnailDownloader&#45;&gt;document_segmentation.model.page_learner.AbstractPageLearner</title>
<path fill="none" stroke="black" d="M853.67,-386.51C868.27,-481.38 895.64,-659.25 912.71,-770.23"/>
<polygon fill="none" stroke="black" points="912.72,-770.34 917.59,-775.66 914.55,-782.2 909.68,-776.87 912.72,-770.34"/>
<text text-anchor="middle" x="946.12" y="-523.95" font-family="Times,serif" font-size="14.00" fill="green">_thumbnail_downloader</text>
</g>
</g>
</svg>
