<?xml version="1.0" encoding="UTF-8" standalone="no"?>
<!DOCTYPE svg PUBLIC "-//W3C//DTD SVG 1.1//EN"
 "http://www.w3.org/Graphics/SVG/1.1/DTD/svg11.dtd">
<!-- Generated by graphviz version 9.0.0 (20230911.1827)
 -->
<!-- Title: classes Pages: 1 -->
<svg width="3176pt" height="1175pt"
 viewBox="0.00 0.00 3176.25 1174.50" xmlns="http://www.w3.org/2000/svg" xmlns:xlink="http://www.w3.org/1999/xlink">
<g id="graph0" class="graph" transform="scale(1 1) rotate(0) translate(4 1170.5)">
<title>classes</title>
<polygon fill="white" stroke="none" points="-4,4 -4,-1170.5 3172.25,-1170.5 3172.25,4 -4,4"/>
<!-- document_segmentation.model.device_module.DeviceModule -->
<g id="node1" class="node">
<title>document_segmentation.model.device_module.DeviceModule</title>
<polygon fill="antiquewhite" stroke="antiquewhite" points="766.5,-1100.5 766.5,-1166 1024.75,-1166 1024.75,-1100.5 766.5,-1100.5"/>
<text text-anchor="start" x="855.12" y="-1148.7" font-family="Times,serif" font-size="14.00">DeviceModule</text>
<polyline fill="none" stroke="antiquewhite" points="766.5,-1141.5 1024.75,-1141.5"/>
<polyline fill="none" stroke="antiquewhite" points="766.5,-1141.5 1024.75,-1141.5"/>
<text text-anchor="start" x="774.5" y="-1124.2" font-family="Times,serif" font-size="14.00">get_device(backends: list[ModuleType]): str</text>
<text text-anchor="start" x="774.5" y="-1107.7" font-family="Times,serif" font-size="14.00">to_device(device: Optional[str])</text>
</g>
<!-- document_segmentation.pagexml.annotations.generale_missiven.GeneraleMissiven -->
<g id="node2" class="node">
<title>document_segmentation.pagexml.annotations.generale_missiven.GeneraleMissiven</title>
<polygon fill="aquamarine" stroke="aquamarine" points="1308.12,-601.75 1308.12,-650.75 1423.12,-650.75 1423.12,-601.75 1308.12,-601.75"/>
<text text-anchor="start" x="1316.12" y="-633.45" font-family="Times,serif" font-size="14.00">GeneraleMissiven</text>
<polyline fill="none" stroke="aquamarine" points="1308.12,-626.25 1423.12,-626.25"/>
<polyline fill="none" stroke="aquamarine" points="1308.12,-626.25 1423.12,-626.25"/>
<text text-anchor="start" x="1363.75" y="-608.95" font-family="Times,serif" font-size="14.00"> </text>
</g>
<!-- document_segmentation.pagexml.annotations.sheet.Sheet -->
<g id="node17" class="node">
<title>document_segmentation.pagexml.annotations.sheet.Sheet</title>
<polygon fill="aquamarine" stroke="aquamarine" points="1309.62,-918.75 1309.62,-1033.75 1673.62,-1033.75 1673.62,-918.75 1309.62,-918.75"/>
<text text-anchor="start" x="1476.62" y="-1016.45" font-family="Times,serif" font-size="14.00">Sheet</text>
<polyline fill="none" stroke="aquamarine" points="1309.62,-1009.25 1673.62,-1009.25"/>
<polyline fill="none" stroke="aquamarine" points="1309.62,-1009.25 1673.62,-1009.25"/>
<text text-anchor="start" x="1317.62" y="-991.95" font-family="Times,serif" font-size="14.00">all_annotated_inventories(n: Optional[int]): Iterable[&#39;Inventory&#39;]</text>
<text text-anchor="start" x="1317.62" y="-975.45" font-family="Times,serif" font-size="14.00">annotate_inventory(inventory: Inventory): Inventory</text>
<text text-anchor="start" x="1317.62" y="-958.95" font-family="Times,serif" font-size="14.00">download_inventories()</text>
<text text-anchor="start" x="1317.62" y="-942.45" font-family="Times,serif" font-size="14.00">inventories(): Iterable[Inventory]</text>
<text text-anchor="start" x="1317.62" y="-925.95" font-family="Times,serif" font-size="14.00">inventory_numbers(): Iterable[tuple[int, str]]</text>
</g>
<!-- document_segmentation.pagexml.annotations.generale_missiven.GeneraleMissiven&#45;&gt;document_segmentation.pagexml.annotations.sheet.Sheet -->
<g id="edge7" class="edge">
<title>document_segmentation.pagexml.annotations.generale_missiven.GeneraleMissiven&#45;&gt;document_segmentation.pagexml.annotations.sheet.Sheet</title>
<path fill="none" stroke="black" d="M1374.29,-651.17C1393.19,-703.38 1438.73,-829.17 1467.2,-907.78"/>
<polygon fill="none" stroke="black" points="1463.89,-908.92 1470.58,-917.13 1470.47,-906.53 1463.89,-908.92"/>
</g>
<!-- document_segmentation.pagexml.datamodel.inventory.Inventory -->
<g id="node3" class="node">
<title>document_segmentation.pagexml.datamodel.inventory.Inventory</title>
<polygon fill="aquamarine" stroke="aquamarine" points="1511.12,-0.5 1511.12,-437 1914.12,-437 1914.12,-0.5 1511.12,-0.5"/>
<text text-anchor="start" x="1686.38" y="-419.7" font-family="Times,serif" font-size="14.00">Inventory</text>
<polyline fill="none" stroke="aquamarine" points="1511.12,-412.5 1914.12,-412.5"/>
<text text-anchor="start" x="1660.5" y="-395.2" font-family="Times,serif" font-size="14.00">inv_nr</text>
<text text-anchor="start" x="1660.5" y="-378.7" font-family="Times,serif" font-size="14.00">inventory_part : str</text>
<text text-anchor="start" x="1660.5" y="-362.2" font-family="Times,serif" font-size="14.00">pages</text>
<text text-anchor="start" x="1660.5" y="-345.7" font-family="Times,serif" font-size="14.00">pages : list[Page]</text>
<polyline fill="none" stroke="aquamarine" points="1511.12,-338.5 1914.12,-338.5"/>
<text text-anchor="start" x="1519.12" y="-321.2" font-family="Times,serif" font-size="14.00">annotate_scan(scan_nr: int, label: Label)</text>
<text text-anchor="start" x="1519.12" y="-304.7" font-family="Times,serif" font-size="14.00">class_counts(): Counter[Label]</text>
<text text-anchor="start" x="1519.12" y="-288.2" font-family="Times,serif" font-size="14.00">class_weights(): list[float]</text>
<text text-anchor="start" x="1519.12" y="-271.7" font-family="Times,serif" font-size="14.00">download(inv_nr: int, inventory_part: str): &#39;Inventory&#39;</text>
<text text-anchor="start" x="1519.12" y="-255.2" font-family="Times,serif" font-size="14.00">empty_unlabelled(): &#39;Inventory&#39;</text>
<text text-anchor="start" x="1519.12" y="-238.7" font-family="Times,serif" font-size="14.00">full_inv_nr(): str</text>
<text text-anchor="start" x="1519.12" y="-222.2" font-family="Times,serif" font-size="14.00">get_scan(scan_nr: int): Page</text>
<text text-anchor="start" x="1519.12" y="-205.7" font-family="Times,serif" font-size="14.00">has_labels(): bool</text>
<text text-anchor="start" x="1519.12" y="-189.2" font-family="Times,serif" font-size="14.00">label_tensor(): torch.Tensor</text>
<text text-anchor="start" x="1519.12" y="-172.7" font-family="Times,serif" font-size="14.00">labelled(): list[Page]</text>
<text text-anchor="start" x="1519.12" y="-156.2" font-family="Times,serif" font-size="14.00">labelled_inventories(): Iterable[&#39;Inventory&#39;]</text>
<text text-anchor="start" x="1519.12" y="-139.7" font-family="Times,serif" font-size="14.00">labels(): list[Label]</text>
<text text-anchor="start" x="1519.12" y="-123.2" font-family="Times,serif" font-size="14.00">link(page: Page): str</text>
<text text-anchor="start" x="1519.12" y="-106.7" font-family="Times,serif" font-size="14.00">load_or_download(inv_nr: int, inventory_part: str, inventory_dir: Path)</text>
<text text-anchor="start" x="1519.12" y="-90.2" font-family="Times,serif" font-size="14.00">local_file(inv_nr: int, inventory_part: str, directory: Path): Path</text>
<text text-anchor="start" x="1519.12" y="-73.7" font-family="Times,serif" font-size="14.00">remove_empty_pages(): &#39;Inventory&#39;</text>
<text text-anchor="start" x="1519.12" y="-57.2" font-family="Times,serif" font-size="14.00">remove_short_regions(min_chars: int): &#39;Inventory&#39;</text>
<text text-anchor="start" x="1519.12" y="-40.7" font-family="Times,serif" font-size="14.00">split(max_size): Iterable[&#39;Inventory&#39;]</text>
<text text-anchor="start" x="1519.12" y="-24.2" font-family="Times,serif" font-size="14.00">validate_inv_part(value: str): str</text>
<text text-anchor="start" x="1519.12" y="-7.7" font-family="Times,serif" font-size="14.00">write(target_file: Optional[Path], mode): Path</text>
</g>
<!-- document_segmentation.pagexml.annotations.renate_analysis.RenateAnalysisInv -->
<g id="node16" class="node">
<title>document_segmentation.pagexml.annotations.renate_analysis.RenateAnalysisInv</title>
<polygon fill="aquamarine" stroke="aquamarine" points="1559.88,-585.25 1559.88,-667.25 1865.38,-667.25 1865.38,-585.25 1559.88,-585.25"/>
<text text-anchor="start" x="1661.25" y="-649.95" font-family="Times,serif" font-size="14.00">RenateAnalysisInv</text>
<polyline fill="none" stroke="aquamarine" points="1559.88,-642.75 1865.38,-642.75"/>
<polyline fill="none" stroke="aquamarine" points="1559.88,-642.75 1865.38,-642.75"/>
<text text-anchor="start" x="1567.88" y="-625.45" font-family="Times,serif" font-size="14.00">annotate_inventory(inventory: Inventory): &#39;Inventory&#39;</text>
<text text-anchor="start" x="1567.88" y="-608.95" font-family="Times,serif" font-size="14.00">inventories(): Iterable[Inventory]</text>
<text text-anchor="start" x="1567.88" y="-592.45" font-family="Times,serif" font-size="14.00">inventory_numbers(): Iterable[tuple[int, str]]</text>
</g>
<!-- document_segmentation.pagexml.datamodel.inventory.Inventory&#45;&gt;document_segmentation.pagexml.annotations.renate_analysis.RenateAnalysisInv -->
<g id="edge14" class="edge">
<title>document_segmentation.pagexml.datamodel.inventory.Inventory&#45;&gt;document_segmentation.pagexml.annotations.renate_analysis.RenateAnalysisInv</title>
<path fill="none" stroke="black" d="M1712.62,-437.34C1712.62,-487.65 1712.62,-536.74 1712.62,-572.12"/>
<polygon fill="black" stroke="black" points="1712.63,-572.08 1716.63,-578.08 1712.63,-584.08 1708.63,-578.08 1712.63,-572.08"/>
<text text-anchor="middle" x="1741.88" y="-458.7" font-family="Times,serif" font-size="14.00" fill="green">_inventory</text>
</g>
<!-- document_segmentation.pagexml.datamodel.label.Label -->
<g id="node4" class="node">
<title>document_segmentation.pagexml.datamodel.label.Label</title>
<polygon fill="aquamarine" stroke="aquamarine" points="2023.62,-182 2023.62,-255.5 2129.62,-255.5 2129.62,-182 2023.62,-182"/>
<text text-anchor="start" x="2061.25" y="-238.2" font-family="Times,serif" font-size="14.00">Label</text>
<polyline fill="none" stroke="aquamarine" points="2023.62,-231 2129.62,-231"/>
<text text-anchor="start" x="2061.62" y="-213.7" font-family="Times,serif" font-size="14.00">name</text>
<polyline fill="none" stroke="aquamarine" points="2023.62,-206.5 2129.62,-206.5"/>
<text text-anchor="start" x="2031.62" y="-189.2" font-family="Times,serif" font-size="14.00">to_list(): list[int]</text>
</g>
<!-- document_segmentation.pagexml.datamodel.page.Page -->
<g id="node5" class="node">
<title>document_segmentation.pagexml.datamodel.page.Page</title>
<polygon fill="aquamarine" stroke="aquamarine" points="1883,-490.5 1883,-762 2270.25,-762 2270.25,-490.5 1883,-490.5"/>
<text text-anchor="start" x="2063.5" y="-744.7" font-family="Times,serif" font-size="14.00">Page</text>
<polyline fill="none" stroke="aquamarine" points="1883,-737.5 2270.25,-737.5"/>
<text text-anchor="start" x="2017.75" y="-720.2" font-family="Times,serif" font-size="14.00">doc_id : Optional[str]</text>
<text text-anchor="start" x="2017.75" y="-703.7" font-family="Times,serif" font-size="14.00">external_ref : str</text>
<text text-anchor="start" x="2017.75" y="-687.2" font-family="Times,serif" font-size="14.00">label</text>
<text text-anchor="start" x="2017.75" y="-670.7" font-family="Times,serif" font-size="14.00">label : OUT</text>
<text text-anchor="start" x="2017.75" y="-654.2" font-family="Times,serif" font-size="14.00">regions : list</text>
<text text-anchor="start" x="2017.75" y="-637.7" font-family="Times,serif" font-size="14.00">regions : list[Region]</text>
<text text-anchor="start" x="2017.75" y="-621.2" font-family="Times,serif" font-size="14.00">scan_nr</text>
<polyline fill="none" stroke="aquamarine" points="1883,-614 2270.25,-614"/>
<text text-anchor="start" x="1891" y="-596.7" font-family="Times,serif" font-size="14.00">empty(): &#39;Page&#39;</text>
<text text-anchor="start" x="1891" y="-580.2" font-family="Times,serif" font-size="14.00">enum_from_int(value)</text>
<text text-anchor="start" x="1891" y="-563.7" font-family="Times,serif" font-size="14.00">filter_short_regions(min_chars: int): &#39;Page&#39;</text>
<text text-anchor="start" x="1891" y="-547.2" font-family="Times,serif" font-size="14.00">from_pagexml(label: Label, scan_nr: int, pagexml: PageXMLScan)</text>
<text text-anchor="start" x="1891" y="-530.7" font-family="Times,serif" font-size="14.00">guess_doc_id(inv_nr: str): str</text>
<text text-anchor="start" x="1891" y="-514.2" font-family="Times,serif" font-size="14.00">is_shorter_than(): bool</text>
<text text-anchor="start" x="1891" y="-497.7" font-family="Times,serif" font-size="14.00">text(delimiter: str): str</text>
</g>
<!-- document_segmentation.pagexml.datamodel.label.Label&#45;&gt;document_segmentation.pagexml.datamodel.page.Page -->
<g id="edge15" class="edge">
<title>document_segmentation.pagexml.datamodel.label.Label&#45;&gt;document_segmentation.pagexml.datamodel.page.Page</title>
<path fill="none" stroke="black" d="M2076.62,-255.74C2076.62,-305.32 2076.62,-397.6 2076.62,-477.53"/>
<polygon fill="black" stroke="black" points="2076.63,-477.35 2080.63,-483.35 2076.63,-489.35 2072.63,-483.35 2076.63,-477.35"/>
<text text-anchor="middle" x="2089.75" y="-458.7" font-family="Times,serif" font-size="14.00" fill="green">label</text>
</g>
<!-- document_segmentation.model.page_classifier.PageClassifier -->
<g id="node6" class="node">
<title>document_segmentation.model.page_classifier.PageClassifier</title>
<polygon fill="antiquewhite" stroke="antiquewhite" points="647.25,-943.5 647.25,-1009 1144,-1009 1144,-943.5 647.25,-943.5"/>
<text text-anchor="start" x="856.62" y="-991.7" font-family="Times,serif" font-size="14.00">PageClassifier</text>
<polyline fill="none" stroke="antiquewhite" points="647.25,-984.5 1144,-984.5"/>
<polyline fill="none" stroke="antiquewhite" points="647.25,-984.5 1144,-984.5"/>
<text text-anchor="start" x="655.25" y="-967.2" font-family="Times,serif" font-size="14.00">forward(pages: PageDataset)</text>
<text text-anchor="start" x="655.25" y="-950.7" font-family="Times,serif" font-size="14.00">train_(pages: PageDataset, epochs: int, batch_size: int, weights: Optional[torch.Tensor])</text>
</g>
<!-- document_segmentation.model.page_classifier.PageClassifier&#45;&gt;document_segmentation.model.device_module.DeviceModule -->
<g id="edge1" class="edge">
<title>document_segmentation.model.page_classifier.PageClassifier&#45;&gt;document_segmentation.model.device_module.DeviceModule</title>
<path fill="none" stroke="black" d="M895.62,-1009.37C895.62,-1032.33 895.62,-1063.5 895.62,-1088.71"/>
<polygon fill="none" stroke="black" points="892.13,-1088.66 895.63,-1098.66 899.13,-1088.66 892.13,-1088.66"/>
</g>
<!-- document_segmentation.model.page_embedding.PageEmbedding -->
<g id="node7" class="node">
<title>document_segmentation.model.page_embedding.PageEmbedding</title>
<polygon fill="antiquewhite" stroke="antiquewhite" points="556.75,-581.25 556.75,-671.25 714.5,-671.25 714.5,-581.25 556.75,-581.25"/>
<text text-anchor="start" x="591" y="-653.95" font-family="Times,serif" font-size="14.00">PageEmbedding</text>
<polyline fill="none" stroke="antiquewhite" points="556.75,-646.75 714.5,-646.75"/>
<text text-anchor="start" x="591.75" y="-629.45" font-family="Times,serif" font-size="14.00">output_size : int</text>
<text text-anchor="start" x="591.75" y="-612.95" font-family="Times,serif" font-size="14.00">rnn</text>
<polyline fill="none" stroke="antiquewhite" points="556.75,-605.75 714.5,-605.75"/>
<text text-anchor="start" x="564.75" y="-588.45" font-family="Times,serif" font-size="14.00">forward(pages: list[Page])</text>
</g>
<!-- document_segmentation.model.page_embedding.PageEmbedding&#45;&gt;document_segmentation.model.device_module.DeviceModule -->
<g id="edge2" class="edge">
<title>document_segmentation.model.page_embedding.PageEmbedding&#45;&gt;document_segmentation.model.device_module.DeviceModule</title>
<path fill="none" stroke="black" d="M629.37,-671.41C616.45,-769.87 591.72,-1003.41 638.62,-1063 654.3,-1082.92 703.73,-1098.48 755.11,-1109.76"/>
<polygon fill="none" stroke="black" points="754.1,-1113.13 764.61,-1111.79 755.56,-1106.28 754.1,-1113.13"/>
</g>
<!-- document_segmentation.model.page_embedding.PageEmbedding&#45;&gt;document_segmentation.model.page_classifier.PageClassifier -->
<g id="edge10" class="edge">
<title>document_segmentation.model.page_embedding.PageEmbedding&#45;&gt;document_segmentation.model.page_classifier.PageClassifier</title>
<path fill="none" stroke="black" d="M632.42,-671.55C628.88,-733.08 626.25,-840.36 648.12,-871.5 669.15,-901.42 700.55,-922.75 733.99,-937.94"/>
<polygon fill="black" stroke="black" points="734.04,-937.96 741.13,-936.66 745.06,-942.71 737.97,-944.01 734.04,-937.96"/>
<text text-anchor="middle" x="682.38" y="-820.95" font-family="Times,serif" font-size="14.00" fill="green">_embedding</text>
</g>
<!-- document_segmentation.model.page_sequence_tagger.PageSequenceTagger -->
<g id="node8" class="node">
<title>document_segmentation.model.page_sequence_tagger.PageSequenceTagger</title>
<polygon fill="antiquewhite" stroke="antiquewhite" points="0,-890 0,-1062.5 591.25,-1062.5 591.25,-890 0,-890"/>
<text text-anchor="start" x="237.5" y="-1045.2" font-family="Times,serif" font-size="14.00">PageSequenceTagger</text>
<polyline fill="none" stroke="antiquewhite" points="0,-1038 591.25,-1038"/>
<text text-anchor="start" x="231.12" y="-1020.7" font-family="Times,serif" font-size="14.00">wandb_run</text>
<text text-anchor="start" x="231.12" y="-1004.2" font-family="Times,serif" font-size="14.00">wandb_run : NoneType</text>
<polyline fill="none" stroke="antiquewhite" points="0,-997 591.25,-997"/>
<text text-anchor="start" x="8" y="-979.7" font-family="Times,serif" font-size="14.00">eval_(inventories: list[Inventory], sheet_name: str): tuple[Metric, Metric, Metric, Metric, pd.DataFrame]</text>
<text text-anchor="start" x="8" y="-963.2" font-family="Times,serif" font-size="14.00">forward(pages: list[Page]): torch.Tensor</text>
<text text-anchor="start" x="8" y="-946.7" font-family="Times,serif" font-size="14.00">load(path: Path): None</text>
<text text-anchor="start" x="8" y="-930.2" font-family="Times,serif" font-size="14.00">predict(inventory: Inventory): pd.DataFrame</text>
<text text-anchor="start" x="8" y="-913.7" font-family="Times,serif" font-size="14.00">save(path: Path): None</text>
<text text-anchor="start" x="8" y="-897.2" font-family="Times,serif" font-size="14.00">train_(training_inventories: list[Inventory], validation_inventories: Optional[dict[str, list[Inventory]]])</text>
</g>
<!-- document_segmentation.model.page_embedding.PageEmbedding&#45;&gt;document_segmentation.model.page_sequence_tagger.PageSequenceTagger -->
<g id="edge11" class="edge">
<title>document_segmentation.model.page_embedding.PageEmbedding&#45;&gt;document_segmentation.model.page_sequence_tagger.PageSequenceTagger</title>
<path fill="none" stroke="black" d="M597.58,-671.6C571.56,-702.07 536.39,-743.54 505.88,-780.5 472.82,-820.54 469.88,-835.33 432.62,-871.5 429.27,-874.76 425.81,-878 422.28,-881.23"/>
<polygon fill="black" stroke="black" points="422.39,-881.13 420.57,-888.11 413.43,-889.11 415.25,-882.14 422.39,-881.13"/>
<text text-anchor="middle" x="556.5" y="-820.95" font-family="Times,serif" font-size="14.00" fill="green">_page_embedding</text>
</g>
<!-- document_segmentation.model.page_sequence_tagger.PageSequenceTagger&#45;&gt;document_segmentation.model.device_module.DeviceModule -->
<g id="edge3" class="edge">
<title>document_segmentation.model.page_sequence_tagger.PageSequenceTagger&#45;&gt;document_segmentation.model.device_module.DeviceModule</title>
<path fill="none" stroke="black" d="M537.4,-1062.92C560.32,-1069.84 583.33,-1076.34 605.62,-1082 653.77,-1094.23 707.16,-1104.41 754.88,-1112.35"/>
<polygon fill="none" stroke="black" points="754.31,-1115.8 764.75,-1113.97 755.45,-1108.89 754.31,-1115.8"/>
</g>
<!-- document_segmentation.pagexml.pagexml.PageXML -->
<g id="node9" class="node">
<title>document_segmentation.pagexml.pagexml.PageXML</title>
<polygon fill="aquamarine" stroke="aquamarine" points="2147.38,-177.75 2147.38,-259.75 2503.88,-259.75 2503.88,-177.75 2147.38,-177.75"/>
<text text-anchor="start" x="2297.12" y="-242.45" font-family="Times,serif" font-size="14.00">PageXML</text>
<polyline fill="none" stroke="aquamarine" points="2147.38,-235.25 2503.88,-235.25"/>
<polyline fill="none" stroke="aquamarine" points="2147.38,-235.25 2503.88,-235.25"/>
<text text-anchor="start" x="2155.38" y="-217.95" font-family="Times,serif" font-size="14.00">document_type(): list[str]</text>
<text text-anchor="start" x="2155.38" y="-201.45" font-family="Times,serif" font-size="14.00">get_regions_from_top(): list[PageXMLTextRegion]</text>
<text text-anchor="start" x="2155.38" y="-184.95" font-family="Times,serif" font-size="14.00">top_paragraph(region_types): Optional[PageXMLTextRegion]</text>
</g>
<!-- document_segmentation.pagexml.datamodel.region.Region -->
<g id="node10" class="node">
<title>document_segmentation.pagexml.datamodel.region.Region</title>
<polygon fill="aquamarine" stroke="aquamarine" points="2522.12,-157.25 2522.12,-280.25 2841.12,-280.25 2841.12,-157.25 2522.12,-157.25"/>
<text text-anchor="start" x="2662.12" y="-262.95" font-family="Times,serif" font-size="14.00">Region</text>
<polyline fill="none" stroke="aquamarine" points="2522.12,-255.75 2841.12,-255.75"/>
<text text-anchor="start" x="2581.5" y="-238.45" font-family="Times,serif" font-size="14.00">coordinates : tuple[tuple[int, int], ...]</text>
<text text-anchor="start" x="2581.5" y="-221.95" font-family="Times,serif" font-size="14.00">id : str</text>
<text text-anchor="start" x="2581.5" y="-205.45" font-family="Times,serif" font-size="14.00">lines : tuple[str, ...]</text>
<text text-anchor="start" x="2581.5" y="-188.95" font-family="Times,serif" font-size="14.00">types : tuple[RegionType, ...]</text>
<polyline fill="none" stroke="aquamarine" points="2522.12,-181.75 2841.12,-181.75"/>
<text text-anchor="start" x="2530.12" y="-164.45" font-family="Times,serif" font-size="14.00">from_pagexml(region: PageXMLTextRegion): &#39;Region&#39;</text>
</g>
<!-- document_segmentation.model.region_classifier.RegionClassifier -->
<g id="node11" class="node">
<title>document_segmentation.model.region_classifier.RegionClassifier</title>
<polygon fill="antiquewhite" stroke="antiquewhite" points="725,-793.25 725,-858.75 1166.25,-858.75 1166.25,-793.25 725,-793.25"/>
<text text-anchor="start" x="900.25" y="-841.45" font-family="Times,serif" font-size="14.00">RegionClassifier</text>
<polyline fill="none" stroke="antiquewhite" points="725,-834.25 1166.25,-834.25"/>
<polyline fill="none" stroke="antiquewhite" points="725,-834.25 1166.25,-834.25"/>
<text text-anchor="start" x="733" y="-816.95" font-family="Times,serif" font-size="14.00">forward(regions: List[Region]): torch.Tensor</text>
<text text-anchor="start" x="733" y="-800.45" font-family="Times,serif" font-size="14.00">train_(dataset: RegionDataset, epochs: int, batch_size: int, weights: list[float])</text>
</g>
<!-- document_segmentation.model.region_classifier.RegionClassifier&#45;&gt;document_segmentation.model.device_module.DeviceModule -->
<g id="edge4" class="edge">
<title>document_segmentation.model.region_classifier.RegionClassifier&#45;&gt;document_segmentation.model.device_module.DeviceModule</title>
<path fill="none" stroke="black" d="M1095.85,-859.17C1122.28,-867.82 1144.09,-878.01 1152.62,-889.5 1198.6,-951.41 1199.52,-1001.79 1152.62,-1063 1137.18,-1083.16 1087.61,-1098.78 1036.07,-1110.03"/>
<polygon fill="none" stroke="black" points="1035.59,-1106.56 1026.53,-1112.06 1037.04,-1113.4 1035.59,-1106.56"/>
</g>
<!-- document_segmentation.model.region_embedding.RegionEmbedding -->
<g id="node12" class="node">
<title>document_segmentation.model.region_embedding.RegionEmbedding</title>
<polygon fill="antiquewhite" stroke="antiquewhite" points="1170.88,-781 1170.88,-871 1350.38,-871 1350.38,-781 1170.88,-781"/>
<text text-anchor="start" x="1209.62" y="-853.7" font-family="Times,serif" font-size="14.00">RegionEmbedding</text>
<polyline fill="none" stroke="antiquewhite" points="1170.88,-846.5 1350.38,-846.5"/>
<text text-anchor="start" x="1202.88" y="-829.2" font-family="Times,serif" font-size="14.00">output_size : int</text>
<text text-anchor="start" x="1202.88" y="-812.7" font-family="Times,serif" font-size="14.00">text_embedding_size</text>
<polyline fill="none" stroke="antiquewhite" points="1170.88,-805.5 1350.38,-805.5"/>
<text text-anchor="start" x="1178.88" y="-788.2" font-family="Times,serif" font-size="14.00">forward(regions: list[Region])</text>
</g>
<!-- document_segmentation.model.region_embedding.RegionEmbedding&#45;&gt;document_segmentation.model.device_module.DeviceModule -->
<g id="edge5" class="edge">
<title>document_segmentation.model.region_embedding.RegionEmbedding&#45;&gt;document_segmentation.model.device_module.DeviceModule</title>
<path fill="none" stroke="black" d="M1257.18,-871.05C1250.94,-922.9 1233.45,-1008.78 1184.62,-1063 1163.94,-1085.97 1099.32,-1102.6 1036.42,-1113.81"/>
<polygon fill="none" stroke="black" points="1035.86,-1110.35 1026.61,-1115.51 1037.06,-1117.25 1035.86,-1110.35"/>
</g>
<!-- document_segmentation.model.region_embedding.RegionEmbeddingSentenceTransformer -->
<g id="node13" class="node">
<title>document_segmentation.model.region_embedding.RegionEmbeddingSentenceTransformer</title>
<polygon fill="antiquewhite" stroke="antiquewhite" points="828.12,-182 828.12,-255.5 1063.12,-255.5 1063.12,-182 828.12,-182"/>
<text text-anchor="start" x="836.12" y="-238.2" font-family="Times,serif" font-size="14.00">RegionEmbeddingSentenceTransformer</text>
<polyline fill="none" stroke="antiquewhite" points="828.12,-231 1063.12,-231"/>
<text text-anchor="start" x="887.88" y="-213.7" font-family="Times,serif" font-size="14.00">text_embedding_size</text>
<polyline fill="none" stroke="antiquewhite" points="828.12,-206.5 1063.12,-206.5"/>
<text text-anchor="start" x="943.75" y="-189.2" font-family="Times,serif" font-size="14.00"> </text>
</g>
<!-- document_segmentation.model.region_embedding.RegionEmbeddingSentenceTransformer&#45;&gt;document_segmentation.model.page_embedding.PageEmbedding -->
<g id="edge12" class="edge">
<title>document_segmentation.model.region_embedding.RegionEmbeddingSentenceTransformer&#45;&gt;document_segmentation.model.page_embedding.PageEmbedding</title>
<path fill="none" stroke="black" d="M918.11,-255.74C863.63,-327 741.73,-486.46 677.33,-570.7"/>
<polygon fill="black" stroke="black" points="677.41,-570.59 676.95,-577.78 670.13,-580.12 670.59,-572.92 677.41,-570.59"/>
<text text-anchor="middle" x="804.88" y="-458.7" font-family="Times,serif" font-size="14.00" fill="green">_region_model</text>
</g>
<!-- document_segmentation.model.region_embedding.RegionEmbeddingSentenceTransformer&#45;&gt;document_segmentation.model.region_classifier.RegionClassifier -->
<g id="edge13" class="edge">
<title>document_segmentation.model.region_embedding.RegionEmbeddingSentenceTransformer&#45;&gt;document_segmentation.model.region_classifier.RegionClassifier</title>
<path fill="none" stroke="black" d="M945.62,-255.8C945.62,-360.57 945.62,-664.88 945.62,-780.09"/>
<polygon fill="black" stroke="black" points="945.63,-779.96 949.63,-785.96 945.63,-791.96 941.63,-785.96 945.63,-779.96"/>
<text text-anchor="middle" x="1000" y="-458.7" font-family="Times,serif" font-size="14.00" fill="green">_region_embedding</text>
</g>
<!-- document_segmentation.model.region_embedding.RegionEmbeddingSentenceTransformer&#45;&gt;document_segmentation.model.region_embedding.RegionEmbedding -->
<g id="edge6" class="edge">
<title>document_segmentation.model.region_embedding.RegionEmbeddingSentenceTransformer&#45;&gt;document_segmentation.model.region_embedding.RegionEmbedding</title>
<path fill="none" stroke="black" d="M964.39,-255.8C1017.47,-357.8 1168.99,-648.93 1232.29,-770.56"/>
<polygon fill="none" stroke="black" points="1229.18,-772.16 1236.9,-779.42 1235.39,-768.93 1229.18,-772.16"/>
</g>
<!-- document_segmentation.pagexml.datamodel.region.RegionType -->
<g id="node14" class="node">
<title>document_segmentation.pagexml.datamodel.region.RegionType</title>
<polygon fill="aquamarine" stroke="aquamarine" points="2859,-173.75 2859,-263.75 3168.25,-263.75 3168.25,-173.75 2859,-173.75"/>
<text text-anchor="start" x="2980.25" y="-246.45" font-family="Times,serif" font-size="14.00">RegionType</text>
<polyline fill="none" stroke="aquamarine" points="2859,-239.25 3168.25,-239.25"/>
<text text-anchor="start" x="2998.62" y="-221.95" font-family="Times,serif" font-size="14.00">name</text>
<polyline fill="none" stroke="aquamarine" points="2859,-214.75 3168.25,-214.75"/>
<text text-anchor="start" x="2867" y="-197.45" font-family="Times,serif" font-size="14.00">index(): int</text>
<text text-anchor="start" x="2867" y="-180.95" font-family="Times,serif" font-size="14.00">indices(region_types: Iterable[&#39;RegionType&#39;]): list[int]</text>
</g>
<!-- document_segmentation.pagexml.annotations.renate_analysis.RenateAnalysis -->
<g id="node15" class="node">
<title>document_segmentation.pagexml.annotations.renate_analysis.RenateAnalysis</title>
<polygon fill="aquamarine" stroke="aquamarine" points="1441.25,-601.75 1441.25,-650.75 1542,-650.75 1542,-601.75 1441.25,-601.75"/>
<text text-anchor="start" x="1449.25" y="-633.45" font-family="Times,serif" font-size="14.00">RenateAnalysis</text>
<polyline fill="none" stroke="aquamarine" points="1441.25,-626.25 1542,-626.25"/>
<polyline fill="none" stroke="aquamarine" points="1441.25,-626.25 1542,-626.25"/>
<text text-anchor="start" x="1489.75" y="-608.95" font-family="Times,serif" font-size="14.00"> </text>
</g>
<!-- document_segmentation.pagexml.annotations.renate_analysis.RenateAnalysis&#45;&gt;document_segmentation.pagexml.annotations.sheet.Sheet -->
<g id="edge8" class="edge">
<title>document_segmentation.pagexml.annotations.renate_analysis.RenateAnalysis&#45;&gt;document_segmentation.pagexml.annotations.sheet.Sheet</title>
<path fill="none" stroke="black" d="M1491.62,-651.17C1491.62,-703.27 1491.62,-828.65 1491.62,-907.3"/>
<polygon fill="none" stroke="black" points="1488.13,-907.04 1491.63,-917.04 1495.13,-907.04 1488.13,-907.04"/>
</g>
<!-- document_segmentation.pagexml.annotations.renate_analysis.RenateAnalysisInv&#45;&gt;document_segmentation.pagexml.annotations.sheet.Sheet -->
<g id="edge9" class="edge">
<title>document_segmentation.pagexml.annotations.renate_analysis.RenateAnalysisInv&#45;&gt;document_segmentation.pagexml.annotations.sheet.Sheet</title>
<path fill="none" stroke="black" d="M1687.06,-667.51C1649.49,-726.67 1578.94,-837.77 1533.67,-909.04"/>
<polygon fill="none" stroke="black" points="1530.95,-906.8 1528.54,-917.12 1536.86,-910.55 1530.95,-906.8"/>
</g>
<!-- document_segmentation.pagexml.datamodel.inventory.ThumbnailDownloader -->
<g id="node18" class="node">
<title>document_segmentation.pagexml.datamodel.inventory.ThumbnailDownloader</title>
<polygon fill="aquamarine" stroke="aquamarine" points="145.12,-568 145.12,-684.5 446.12,-684.5 446.12,-568 145.12,-568"/>
<text text-anchor="start" x="232.25" y="-667.2" font-family="Times,serif" font-size="14.00">ThumbnailDownloader</text>
<polyline fill="none" stroke="aquamarine" points="145.12,-660 446.12,-660"/>
<polyline fill="none" stroke="aquamarine" points="145.12,-660 446.12,-660"/>
<text text-anchor="start" x="153.12" y="-643.7" font-family="Times,serif" font-size="14.00">download(inventory: Inventory, page: Page): Path</text>
<text text-anchor="start" x="153.12" y="-629.7" font-family="Times,serif" font-size="14.00">from_file(file: Path): &#39;ThumbnailDownloader&#39;</text>
<text text-anchor="start" x="153.12" y="-615.7" font-family="Times,serif" font-style="italic" font-size="14.00">from_url</text>
<text text-anchor="start" x="201.12" y="-615.7" font-family="Times,serif" font-size="14.00">(url)</text>
<text text-anchor="start" x="153.12" y="-601.7" font-family="Times,serif" font-size="14.00">get_uuid(inventory: Inventory): UUID</text>
<text text-anchor="start" x="153.12" y="-587.7" font-family="Times,serif" font-size="14.00">thumbnail(inventory: Inventory, page: Page): Path</text>
<text text-anchor="start" x="153.12" y="-573.7" font-family="Times,serif" font-size="14.00">thumbnail_url(inventory: Inventory, page: Page): str</text>
</g>
<!-- document_segmentation.pagexml.datamodel.inventory.ThumbnailDownloader&#45;&gt;document_segmentation.model.page_sequence_tagger.PageSequenceTagger -->
<g id="edge16" class="edge">
<title>document_segmentation.pagexml.datamodel.inventory.ThumbnailDownloader&#45;&gt;document_segmentation.model.page_sequence_tagger.PageSequenceTagger</title>
<path fill="none" stroke="black" d="M295.62,-684.72C295.62,-736.8 295.62,-814.67 295.62,-876.69"/>
<polygon fill="none" stroke="black" points="295.63,-876.77 299.63,-882.77 295.63,-888.77 291.63,-882.77 295.63,-876.77"/>
<text text-anchor="middle" x="362" y="-820.95" font-family="Times,serif" font-size="14.00" fill="green">_thumbnail_downloader</text>
</g>
</g>
</svg>
