<?xml version="1.0" encoding="UTF-8" standalone="no"?>
<!DOCTYPE svg PUBLIC "-//W3C//DTD SVG 1.1//EN"
 "http://www.w3.org/Graphics/SVG/1.1/DTD/svg11.dtd">
<!-- Generated by graphviz version 9.0.0 (20230911.1827)
 -->
<!-- Title: classes Pages: 1 -->
<svg width="3755pt" height="738pt"
 viewBox="0.00 0.00 3755.38 737.50" xmlns="http://www.w3.org/2000/svg" xmlns:xlink="http://www.w3.org/1999/xlink">
<g id="graph0" class="graph" transform="scale(1 1) rotate(0) translate(4 733.5)">
<title>classes</title>
<polygon fill="white" stroke="none" points="-4,4 -4,-733.5 3751.38,-733.5 3751.38,4 -4,4"/>
<!-- document_segmentation.model.dataset.AbstractDataset -->
<g id="node1" class="node">
<title>document_segmentation.model.dataset.AbstractDataset</title>
<polygon fill="antiquewhite" stroke="antiquewhite" points="423.88,-271 423.88,-387.5 719.62,-387.5 719.62,-271 423.88,-271"/>
<text text-anchor="start" x="528.62" y="-370.2" font-family="Times,serif" font-size="14.00">AbstractDataset</text>
<polyline fill="none" stroke="antiquewhite" points="423.88,-363 719.62,-363"/>
<polyline fill="none" stroke="antiquewhite" points="423.88,-363 719.62,-363"/>
<text text-anchor="start" x="431.88" y="-346.7" font-family="Times,serif" font-style="italic" font-size="14.00">balance</text>
<text text-anchor="start" x="474.62" y="-346.7" font-family="Times,serif" font-size="14.00">(max_size: Optional[int]): &#39;AbstractDataset&#39;</text>
<text text-anchor="start" x="431.88" y="-332.7" font-family="Times,serif" font-size="14.00">batches(batch_size: int): Iterable[&#39;AbstractDataset&#39;]</text>
<text text-anchor="start" x="431.88" y="-318.7" font-family="Times,serif" font-size="14.00">class_weights(): list[float]</text>
<text text-anchor="start" x="431.88" y="-304.7" font-family="Times,serif" font-size="14.00">label_tensor(): torch.Tensor</text>
<text text-anchor="start" x="431.88" y="-290.7" font-family="Times,serif" font-style="italic" font-size="14.00">labels</text>
<text text-anchor="start" x="464.12" y="-290.7" font-family="Times,serif" font-size="14.00">(): list[Label]</text>
<text text-anchor="start" x="431.88" y="-276.7" font-family="Times,serif" font-style="italic" font-size="14.00">shuffle</text>
<text text-anchor="start" x="467.88" y="-276.7" font-family="Times,serif" font-size="14.00">(): &#39;AbstractDataset&#39;</text>
</g>
<!-- document_segmentation.model.device_module.DeviceModule -->
<g id="node2" class="node">
<title>document_segmentation.model.device_module.DeviceModule</title>
<polygon fill="antiquewhite" stroke="antiquewhite" points="1073.62,-663.5 1073.62,-729 1331.88,-729 1331.88,-663.5 1073.62,-663.5"/>
<text text-anchor="start" x="1162.25" y="-711.7" font-family="Times,serif" font-size="14.00">DeviceModule</text>
<polyline fill="none" stroke="antiquewhite" points="1073.62,-704.5 1331.88,-704.5"/>
<polyline fill="none" stroke="antiquewhite" points="1073.62,-704.5 1331.88,-704.5"/>
<text text-anchor="start" x="1081.62" y="-687.2" font-family="Times,serif" font-size="14.00">get_device(backends: list[ModuleType]): str</text>
<text text-anchor="start" x="1081.62" y="-670.7" font-family="Times,serif" font-size="14.00">to_device(device: Optional[str])</text>
</g>
<!-- document_segmentation.pagexml.datamodel.document.Document -->
<g id="node3" class="node">
<title>document_segmentation.pagexml.datamodel.document.Document</title>
<polygon fill="aquamarine" stroke="aquamarine" points="1393.5,-33.5 1393.5,-156.5 1570,-156.5 1570,-33.5 1393.5,-33.5"/>
<text text-anchor="start" x="1453.25" y="-139.2" font-family="Times,serif" font-size="14.00">Document</text>
<polyline fill="none" stroke="aquamarine" points="1393.5,-132 1570,-132"/>
<text text-anchor="start" x="1401.5" y="-114.7" font-family="Times,serif" font-size="14.00">id : str</text>
<text text-anchor="start" x="1401.5" y="-98.2" font-family="Times,serif" font-size="14.00">inventory_nr</text>
<text text-anchor="start" x="1401.5" y="-81.7" font-family="Times,serif" font-size="14.00">inventory_part : Optional[str]</text>
<text text-anchor="start" x="1401.5" y="-65.2" font-family="Times,serif" font-size="14.00">pages : list[Page]</text>
<polyline fill="none" stroke="aquamarine" points="1393.5,-58 1570,-58"/>
<text text-anchor="start" x="1479.88" y="-40.7" font-family="Times,serif" font-size="14.00"> </text>
</g>
<!-- document_segmentation.model.dataset.DocumentDataset -->
<g id="node4" class="node">
<title>document_segmentation.model.dataset.DocumentDataset</title>
<polygon fill="antiquewhite" stroke="antiquewhite" points="0,-4.5 0,-185.5 401.5,-185.5 401.5,-4.5 0,-4.5"/>
<text text-anchor="start" x="152" y="-168.2" font-family="Times,serif" font-size="14.00">DocumentDataset</text>
<polyline fill="none" stroke="antiquewhite" points="0,-161 401.5,-161"/>
<polyline fill="none" stroke="antiquewhite" points="0,-161 401.5,-161"/>
<text text-anchor="start" x="8" y="-143.7" font-family="Times,serif" font-size="14.00">balance(max_size: Optional[int]): AbstractDataset</text>
<text text-anchor="start" x="8" y="-127.2" font-family="Times,serif" font-size="14.00">batches(batch_size: int): Iterable[&#39;PageDataset&#39;]</text>
<text text-anchor="start" x="8" y="-110.7" font-family="Times,serif" font-size="14.00">from_dir(data_dir: Path)</text>
<text text-anchor="start" x="8" y="-94.2" font-family="Times,serif" font-size="14.00">from_documents(documents: Iterable[Document]): &#39;DocumentDataset&#39;</text>
<text text-anchor="start" x="8" y="-77.7" font-family="Times,serif" font-size="14.00">from_json_files(files: Iterable[Path])</text>
<text text-anchor="start" x="8" y="-61.2" font-family="Times,serif" font-size="14.00">labels(): list[Label]</text>
<text text-anchor="start" x="8" y="-44.7" font-family="Times,serif" font-size="14.00">n_batches(batch_size: int): int</text>
<text text-anchor="start" x="8" y="-28.2" font-family="Times,serif" font-size="14.00">shuffle(): &#39;DocumentDataset&#39;</text>
<text text-anchor="start" x="8" y="-11.7" font-family="Times,serif" font-size="14.00">split(portion: float): tuple[&#39;DocumentDataset&#39;, &#39;DocumentDataset&#39;]</text>
</g>
<!-- document_segmentation.model.dataset.DocumentDataset&#45;&gt;document_segmentation.model.dataset.AbstractDataset -->
<g id="edge1" class="edge">
<title>document_segmentation.model.dataset.DocumentDataset&#45;&gt;document_segmentation.model.dataset.AbstractDataset</title>
<path fill="none" stroke="black" d="M344.45,-185.96C386.35,-212.19 431.25,-240.29 469.98,-264.54"/>
<polygon fill="none" stroke="black" points="468.07,-267.47 478.4,-269.81 471.79,-261.54 468.07,-267.47"/>
</g>
<!-- document_segmentation.pagexml.annotations.generale_missiven.GeneraleMissiven -->
<g id="node5" class="node">
<title>document_segmentation.pagexml.annotations.generale_missiven.GeneraleMissiven</title>
<polygon fill="aquamarine" stroke="aquamarine" points="1588,-62.25 1588,-127.75 1731.5,-127.75 1731.5,-62.25 1588,-62.25"/>
<text text-anchor="start" x="1610.25" y="-110.45" font-family="Times,serif" font-size="14.00">GeneraleMissiven</text>
<polyline fill="none" stroke="aquamarine" points="1588,-103.25 1731.5,-103.25"/>
<polyline fill="none" stroke="aquamarine" points="1588,-103.25 1731.5,-103.25"/>
<text text-anchor="start" x="1596" y="-85.95" font-family="Times,serif" font-size="14.00">pagexml_first_page(id)</text>
<text text-anchor="start" x="1596" y="-69.45" font-family="Times,serif" font-size="14.00">pagexml_last_page(id)</text>
</g>
<!-- document_segmentation.pagexml.annotations.sheet.Sheet -->
<g id="node22" class="node">
<title>document_segmentation.pagexml.annotations.sheet.Sheet</title>
<polygon fill="aquamarine" stroke="aquamarine" points="1682.25,-296.5 1682.25,-362 1917.25,-362 1917.25,-296.5 1682.25,-296.5"/>
<text text-anchor="start" x="1784.75" y="-344.7" font-family="Times,serif" font-size="14.00">Sheet</text>
<polyline fill="none" stroke="aquamarine" points="1682.25,-337.5 1917.25,-337.5"/>
<polyline fill="none" stroke="aquamarine" points="1682.25,-337.5 1917.25,-337.5"/>
<text text-anchor="start" x="1690.25" y="-320.2" font-family="Times,serif" font-size="14.00">download(target_dir: Path, n: int): None</text>
<text text-anchor="start" x="1690.25" y="-303.7" font-family="Times,serif" font-size="14.00">to_documents(): Iterable[Document]</text>
</g>
<!-- document_segmentation.pagexml.annotations.generale_missiven.GeneraleMissiven&#45;&gt;document_segmentation.pagexml.annotations.sheet.Sheet -->
<g id="edge10" class="edge">
<title>document_segmentation.pagexml.annotations.generale_missiven.GeneraleMissiven&#45;&gt;document_segmentation.pagexml.annotations.sheet.Sheet</title>
<path fill="none" stroke="black" d="M1678.92,-127.81C1703.76,-169.01 1747.12,-240.94 1774.58,-286.5"/>
<polygon fill="none" stroke="black" points="1771.42,-288.03 1779.58,-294.79 1777.41,-284.41 1771.42,-288.03"/>
</g>
<!-- document_segmentation.pagexml.inventory.InventoryReader -->
<g id="node6" class="node">
<title>document_segmentation.pagexml.inventory.InventoryReader</title>
<polygon fill="aquamarine" stroke="aquamarine" points="2174.62,-50 2174.62,-140 2402.88,-140 2402.88,-50 2174.62,-50"/>
<text text-anchor="start" x="2243.38" y="-122.7" font-family="Times,serif" font-size="14.00">InventoryReader</text>
<polyline fill="none" stroke="aquamarine" points="2174.62,-115.5 2402.88,-115.5"/>
<text text-anchor="start" x="2251.62" y="-98.2" font-family="Times,serif" font-size="14.00">inv_nr</text>
<text text-anchor="start" x="2251.62" y="-81.7" font-family="Times,serif" font-size="14.00">local_zip_file</text>
<polyline fill="none" stroke="aquamarine" points="2174.62,-74.5 2402.88,-74.5"/>
<text text-anchor="start" x="2182.62" y="-57.2" font-family="Times,serif" font-size="14.00">pagexml(page_nr: int): PageXMLScan</text>
</g>
<!-- document_segmentation.pagexml.datamodel.label.Label -->
<g id="node7" class="node">
<title>document_segmentation.pagexml.datamodel.label.Label</title>
<polygon fill="aquamarine" stroke="aquamarine" points="2421,-41.75 2421,-148.25 2708.5,-148.25 2708.5,-41.75 2421,-41.75"/>
<text text-anchor="start" x="2549.38" y="-130.95" font-family="Times,serif" font-size="14.00">Label</text>
<polyline fill="none" stroke="aquamarine" points="2421,-123.75 2708.5,-123.75"/>
<text text-anchor="start" x="2549.75" y="-106.45" font-family="Times,serif" font-size="14.00">name</text>
<polyline fill="none" stroke="aquamarine" points="2421,-99.25 2708.5,-99.25"/>
<text text-anchor="start" x="2429" y="-81.95" font-family="Times,serif" font-size="14.00">map_scores(scores: Iterable[float]): dict[str, float]</text>
<text text-anchor="start" x="2429" y="-65.45" font-family="Times,serif" font-size="14.00">succesor(): &#39;Label&#39;</text>
<text text-anchor="start" x="2429" y="-48.95" font-family="Times,serif" font-size="14.00">to_list(): list[int]</text>
</g>
<!-- document_segmentation.pagexml.datamodel.page.Page -->
<g id="node8" class="node">
<title>document_segmentation.pagexml.datamodel.page.Page</title>
<polygon fill="aquamarine" stroke="aquamarine" points="2371.12,-243 2371.12,-415.5 2758.38,-415.5 2758.38,-243 2371.12,-243"/>
<text text-anchor="start" x="2551.62" y="-398.2" font-family="Times,serif" font-size="14.00">Page</text>
<polyline fill="none" stroke="aquamarine" points="2371.12,-391 2758.38,-391"/>
<text text-anchor="start" x="2505.88" y="-373.7" font-family="Times,serif" font-size="14.00">doc_id : Optional[str]</text>
<text text-anchor="start" x="2505.88" y="-357.2" font-family="Times,serif" font-size="14.00">label</text>
<text text-anchor="start" x="2505.88" y="-340.7" font-family="Times,serif" font-size="14.00">regions : list[Region]</text>
<text text-anchor="start" x="2505.88" y="-324.2" font-family="Times,serif" font-size="14.00">scan_nr</text>
<polyline fill="none" stroke="aquamarine" points="2371.12,-317 2758.38,-317"/>
<text text-anchor="start" x="2379.12" y="-299.7" font-family="Times,serif" font-size="14.00">enum_from_int(value)</text>
<text text-anchor="start" x="2379.12" y="-283.2" font-family="Times,serif" font-size="14.00">filter_short_regions(min_chars: int): &#39;Page&#39;</text>
<text text-anchor="start" x="2379.12" y="-266.7" font-family="Times,serif" font-size="14.00">from_pagexml(label: Label, scan_nr: int, pagexml: PageXMLScan)</text>
<text text-anchor="start" x="2379.12" y="-250.2" font-family="Times,serif" font-size="14.00">text(delimiter: str): str</text>
</g>
<!-- document_segmentation.pagexml.datamodel.label.Label&#45;&gt;document_segmentation.pagexml.datamodel.page.Page -->
<g id="edge17" class="edge">
<title>document_segmentation.pagexml.datamodel.label.Label&#45;&gt;document_segmentation.pagexml.datamodel.page.Page</title>
<path fill="none" stroke="black" d="M2564.75,-148.7C2564.75,-172.73 2564.75,-201.97 2564.75,-229.83"/>
<polygon fill="black" stroke="black" points="2564.75,-229.61 2568.75,-235.61 2564.75,-241.61 2560.75,-235.61 2564.75,-229.61"/>
<text text-anchor="middle" x="2577.88" y="-211.2" font-family="Times,serif" font-size="14.00" fill="green">label</text>
</g>
<!-- document_segmentation.model.page_classifier.PageClassifier -->
<g id="node9" class="node">
<title>document_segmentation.model.page_classifier.PageClassifier</title>
<polygon fill="antiquewhite" stroke="antiquewhite" points="383.38,-551.75 383.38,-617.25 880.12,-617.25 880.12,-551.75 383.38,-551.75"/>
<text text-anchor="start" x="592.75" y="-599.95" font-family="Times,serif" font-size="14.00">PageClassifier</text>
<polyline fill="none" stroke="antiquewhite" points="383.38,-592.75 880.12,-592.75"/>
<polyline fill="none" stroke="antiquewhite" points="383.38,-592.75 880.12,-592.75"/>
<text text-anchor="start" x="391.38" y="-575.45" font-family="Times,serif" font-size="14.00">forward(pages: PageDataset)</text>
<text text-anchor="start" x="391.38" y="-558.95" font-family="Times,serif" font-size="14.00">train_(pages: PageDataset, epochs: int, batch_size: int, weights: Optional[torch.Tensor])</text>
</g>
<!-- document_segmentation.model.page_classifier.PageClassifier&#45;&gt;document_segmentation.model.device_module.DeviceModule -->
<g id="edge4" class="edge">
<title>document_segmentation.model.page_classifier.PageClassifier&#45;&gt;document_segmentation.model.device_module.DeviceModule</title>
<path fill="none" stroke="black" d="M799.21,-617.69C882.81,-633.76 982.8,-652.97 1062.34,-668.26"/>
<polygon fill="none" stroke="black" points="1061.45,-671.66 1071.93,-670.11 1062.77,-664.78 1061.45,-671.66"/>
</g>
<!-- document_segmentation.model.dataset.PageDataset -->
<g id="node10" class="node">
<title>document_segmentation.model.dataset.PageDataset</title>
<polygon fill="antiquewhite" stroke="antiquewhite" points="419.75,-0.5 419.75,-189.5 723.75,-189.5 723.75,-0.5 419.75,-0.5"/>
<text text-anchor="start" x="538.38" y="-172.2" font-family="Times,serif" font-size="14.00">PageDataset</text>
<polyline fill="none" stroke="antiquewhite" points="419.75,-165 723.75,-165"/>
<text text-anchor="start" x="556.38" y="-147.7" font-family="Times,serif" font-size="14.00">pages</text>
<polyline fill="none" stroke="antiquewhite" points="419.75,-140.5 723.75,-140.5"/>
<text text-anchor="start" x="427.75" y="-123.2" font-family="Times,serif" font-size="14.00">balance(max_size: Optional[int]): &#39;RegionDataset&#39;</text>
<text text-anchor="start" x="427.75" y="-106.7" font-family="Times,serif" font-size="14.00">doc_ids(): list[str]</text>
<text text-anchor="start" x="427.75" y="-90.2" font-family="Times,serif" font-size="14.00">from_documents(documents: Iterable[Document])</text>
<text text-anchor="start" x="427.75" y="-73.7" font-family="Times,serif" font-size="14.00">labels(): list[Label]</text>
<text text-anchor="start" x="427.75" y="-57.2" font-family="Times,serif" font-size="14.00">region_labels(): Iterable[Label]</text>
<text text-anchor="start" x="427.75" y="-40.7" font-family="Times,serif" font-size="14.00">regions(): Iterable[Region]</text>
<text text-anchor="start" x="427.75" y="-24.2" font-family="Times,serif" font-size="14.00">remove_short_regions(min_chars: int): &#39;PageDataset&#39;</text>
<text text-anchor="start" x="427.75" y="-7.7" font-family="Times,serif" font-size="14.00">shuffle(): &#39;PageDataset&#39;</text>
</g>
<!-- document_segmentation.model.dataset.PageDataset&#45;&gt;document_segmentation.model.dataset.AbstractDataset -->
<g id="edge2" class="edge">
<title>document_segmentation.model.dataset.PageDataset&#45;&gt;document_segmentation.model.dataset.AbstractDataset</title>
<path fill="none" stroke="black" d="M571.75,-189.8C571.75,-212.95 571.75,-237.34 571.75,-259.09"/>
<polygon fill="none" stroke="black" points="568.25,-259.02 571.75,-269.02 575.25,-259.02 568.25,-259.02"/>
</g>
<!-- document_segmentation.model.page_embedding.PageEmbedding -->
<g id="node11" class="node">
<title>document_segmentation.model.page_embedding.PageEmbedding</title>
<polygon fill="antiquewhite" stroke="antiquewhite" points="795.88,-284.25 795.88,-374.25 953.62,-374.25 953.62,-284.25 795.88,-284.25"/>
<text text-anchor="start" x="830.12" y="-356.95" font-family="Times,serif" font-size="14.00">PageEmbedding</text>
<polyline fill="none" stroke="antiquewhite" points="795.88,-349.75 953.62,-349.75"/>
<text text-anchor="start" x="830.88" y="-332.45" font-family="Times,serif" font-size="14.00">output_size : int</text>
<text text-anchor="start" x="830.88" y="-315.95" font-family="Times,serif" font-size="14.00">rnn</text>
<polyline fill="none" stroke="antiquewhite" points="795.88,-308.75 953.62,-308.75"/>
<text text-anchor="start" x="803.88" y="-291.45" font-family="Times,serif" font-size="14.00">forward(pages: list[Page])</text>
</g>
<!-- document_segmentation.model.page_embedding.PageEmbedding&#45;&gt;document_segmentation.model.device_module.DeviceModule -->
<g id="edge5" class="edge">
<title>document_segmentation.model.page_embedding.PageEmbedding&#45;&gt;document_segmentation.model.device_module.DeviceModule</title>
<path fill="none" stroke="black" d="M805.27,-374.63C781.51,-388.83 754.44,-403.98 728.75,-416 563.07,-493.55 250.9,-491.36 374.75,-626 420.25,-675.46 838.27,-689.61 1062.35,-693.64"/>
<polygon fill="none" stroke="black" points="1061.95,-697.14 1072.01,-693.81 1062.08,-690.14 1061.95,-697.14"/>
</g>
<!-- document_segmentation.model.page_embedding.PageEmbedding&#45;&gt;document_segmentation.model.page_classifier.PageClassifier -->
<g id="edge13" class="edge">
<title>document_segmentation.model.page_embedding.PageEmbedding&#45;&gt;document_segmentation.model.page_classifier.PageClassifier</title>
<path fill="none" stroke="black" d="M832.14,-374.65C786.78,-421.93 715.56,-496.16 671.37,-542.21"/>
<polygon fill="black" stroke="black" points="671.3,-542.28 670.03,-549.38 662.99,-550.94 664.26,-543.84 671.3,-542.28"/>
<text text-anchor="middle" x="809.5" y="-474.45" font-family="Times,serif" font-size="14.00" fill="green">_embedding</text>
</g>
<!-- document_segmentation.model.page_sequence_tagger.PageSequenceTagger -->
<g id="node12" class="node">
<title>document_segmentation.model.page_sequence_tagger.PageSequenceTagger</title>
<polygon fill="antiquewhite" stroke="antiquewhite" points="898.5,-543.5 898.5,-625.5 1507,-625.5 1507,-543.5 898.5,-543.5"/>
<text text-anchor="start" x="1144.62" y="-608.2" font-family="Times,serif" font-size="14.00">PageSequenceTagger</text>
<polyline fill="none" stroke="antiquewhite" points="898.5,-601 1507,-601"/>
<polyline fill="none" stroke="antiquewhite" points="898.5,-601 1507,-601"/>
<text text-anchor="start" x="906.5" y="-583.7" font-family="Times,serif" font-size="14.00">eval_(dataset: DocumentDataset, batch_size: int, results_out: TextIO): tuple[Metric, Metric, Metric, Metric]</text>
<text text-anchor="start" x="906.5" y="-567.2" font-family="Times,serif" font-size="14.00">forward(pages: PageDataset)</text>
<text text-anchor="start" x="906.5" y="-550.7" font-family="Times,serif" font-size="14.00">train_(dataset: DocumentDataset, epochs: int, batch_size: int, weights: Optional[list[float]])</text>
</g>
<!-- document_segmentation.model.page_embedding.PageEmbedding&#45;&gt;document_segmentation.model.page_sequence_tagger.PageSequenceTagger -->
<g id="edge14" class="edge">
<title>document_segmentation.model.page_embedding.PageEmbedding&#45;&gt;document_segmentation.model.page_sequence_tagger.PageSequenceTagger</title>
<path fill="none" stroke="black" d="M874.34,-374.38C876.42,-418.8 886.84,-486.13 928,-525 932.95,-529.68 940.1,-534.03 948.91,-538.08"/>
<polygon fill="black" stroke="black" points="948.98,-538.11 956.05,-536.71 960.07,-542.7 952.99,-544.1 948.98,-538.11"/>
<text text-anchor="middle" x="978.62" y="-474.45" font-family="Times,serif" font-size="14.00" fill="green">_page_embedding</text>
</g>
<!-- document_segmentation.model.page_sequence_tagger.PageSequenceTagger&#45;&gt;document_segmentation.model.device_module.DeviceModule -->
<g id="edge6" class="edge">
<title>document_segmentation.model.page_sequence_tagger.PageSequenceTagger&#45;&gt;document_segmentation.model.device_module.DeviceModule</title>
<path fill="none" stroke="black" d="M1202.75,-625.74C1202.75,-634.24 1202.75,-643.24 1202.75,-651.85"/>
<polygon fill="none" stroke="black" points="1199.25,-651.74 1202.75,-661.74 1206.25,-651.74 1199.25,-651.74"/>
</g>
<!-- document_segmentation.pagexml.pagexml.PageXML -->
<g id="node13" class="node">
<title>document_segmentation.pagexml.pagexml.PageXML</title>
<polygon fill="aquamarine" stroke="aquamarine" points="2726.5,-54 2726.5,-136 3083,-136 3083,-54 2726.5,-54"/>
<text text-anchor="start" x="2876.25" y="-118.7" font-family="Times,serif" font-size="14.00">PageXML</text>
<polyline fill="none" stroke="aquamarine" points="2726.5,-111.5 3083,-111.5"/>
<polyline fill="none" stroke="aquamarine" points="2726.5,-111.5 3083,-111.5"/>
<text text-anchor="start" x="2734.5" y="-94.2" font-family="Times,serif" font-size="14.00">document_type(): list[str]</text>
<text text-anchor="start" x="2734.5" y="-77.7" font-family="Times,serif" font-size="14.00">get_regions_from_top(): list[PageXMLTextRegion]</text>
<text text-anchor="start" x="2734.5" y="-61.2" font-family="Times,serif" font-size="14.00">top_paragraph(region_types): Optional[PageXMLTextRegion]</text>
</g>
<!-- document_segmentation.pagexml.datamodel.region.Region -->
<g id="node14" class="node">
<title>document_segmentation.pagexml.datamodel.region.Region</title>
<polygon fill="aquamarine" stroke="aquamarine" points="3101.25,-33.5 3101.25,-156.5 3420.25,-156.5 3420.25,-33.5 3101.25,-33.5"/>
<text text-anchor="start" x="3241.25" y="-139.2" font-family="Times,serif" font-size="14.00">Region</text>
<polyline fill="none" stroke="aquamarine" points="3101.25,-132 3420.25,-132"/>
<text text-anchor="start" x="3160.62" y="-114.7" font-family="Times,serif" font-size="14.00">coordinates : tuple[tuple[int, int], ...]</text>
<text text-anchor="start" x="3160.62" y="-98.2" font-family="Times,serif" font-size="14.00">id : str</text>
<text text-anchor="start" x="3160.62" y="-81.7" font-family="Times,serif" font-size="14.00">lines : tuple[str, ...]</text>
<text text-anchor="start" x="3160.62" y="-65.2" font-family="Times,serif" font-size="14.00">types : tuple[RegionType, ...]</text>
<polyline fill="none" stroke="aquamarine" points="3101.25,-58 3420.25,-58"/>
<text text-anchor="start" x="3109.25" y="-40.7" font-family="Times,serif" font-size="14.00">from_pagexml(region: PageXMLTextRegion): &#39;Region&#39;</text>
</g>
<!-- document_segmentation.model.region_classifier.RegionClassifier -->
<g id="node15" class="node">
<title>document_segmentation.model.region_classifier.RegionClassifier</title>
<polygon fill="antiquewhite" stroke="antiquewhite" points="1037.12,-446.75 1037.12,-512.25 1478.38,-512.25 1478.38,-446.75 1037.12,-446.75"/>
<text text-anchor="start" x="1212.38" y="-494.95" font-family="Times,serif" font-size="14.00">RegionClassifier</text>
<polyline fill="none" stroke="antiquewhite" points="1037.12,-487.75 1478.38,-487.75"/>
<polyline fill="none" stroke="antiquewhite" points="1037.12,-487.75 1478.38,-487.75"/>
<text text-anchor="start" x="1045.12" y="-470.45" font-family="Times,serif" font-size="14.00">forward(regions: List[Region]): torch.Tensor</text>
<text text-anchor="start" x="1045.12" y="-453.95" font-family="Times,serif" font-size="14.00">train_(dataset: RegionDataset, epochs: int, batch_size: int, weights: list[float])</text>
</g>
<!-- document_segmentation.model.region_classifier.RegionClassifier&#45;&gt;document_segmentation.model.device_module.DeviceModule -->
<g id="edge7" class="edge">
<title>document_segmentation.model.region_classifier.RegionClassifier&#45;&gt;document_segmentation.model.device_module.DeviceModule</title>
<path fill="none" stroke="black" d="M1424.7,-512.72C1470.13,-523.12 1508.84,-534.22 1515.75,-543 1538.56,-571.99 1538.85,-597.24 1515.75,-626 1493.54,-653.66 1415.86,-670.94 1343.45,-681.32"/>
<polygon fill="none" stroke="black" points="1343.27,-677.81 1333.85,-682.66 1344.23,-684.75 1343.27,-677.81"/>
</g>
<!-- document_segmentation.model.dataset.RegionDataset -->
<g id="node16" class="node">
<title>document_segmentation.model.dataset.RegionDataset</title>
<polygon fill="antiquewhite" stroke="antiquewhite" points="742,-21 742,-169 1029.5,-169 1029.5,-21 742,-21"/>
<text text-anchor="start" x="846" y="-151.7" font-family="Times,serif" font-size="14.00">RegionDataset</text>
<polyline fill="none" stroke="antiquewhite" points="742,-144.5 1029.5,-144.5"/>
<polyline fill="none" stroke="antiquewhite" points="742,-144.5 1029.5,-144.5"/>
<text text-anchor="start" x="750" y="-127.2" font-family="Times,serif" font-size="14.00">balance(max_size: Optional[int]): &#39;RegionDataset&#39;</text>
<text text-anchor="start" x="750" y="-110.7" font-family="Times,serif" font-size="14.00">from_page_dataset(page_dataset: PageDataset)</text>
<text text-anchor="start" x="750" y="-94.2" font-family="Times,serif" font-size="14.00">labels(): list[Label]</text>
<text text-anchor="start" x="750" y="-77.7" font-family="Times,serif" font-size="14.00">regions(): list[Region]</text>
<text text-anchor="start" x="750" y="-61.2" font-family="Times,serif" font-size="14.00">remove_empty(min_chars: int): &#39;RegionDataset&#39;</text>
<text text-anchor="start" x="750" y="-44.7" font-family="Times,serif" font-size="14.00">sample(k): &#39;RegionDataset&#39;</text>
<text text-anchor="start" x="750" y="-28.2" font-family="Times,serif" font-size="14.00">shuffle(): &#39;RegionDataset&#39;</text>
</g>
<!-- document_segmentation.model.dataset.RegionDataset&#45;&gt;document_segmentation.model.dataset.AbstractDataset -->
<g id="edge3" class="edge">
<title>document_segmentation.model.dataset.RegionDataset&#45;&gt;document_segmentation.model.dataset.AbstractDataset</title>
<path fill="none" stroke="black" d="M786.4,-169.49C745.39,-199.82 698.29,-234.66 658.68,-263.96"/>
<polygon fill="none" stroke="black" points="657,-260.84 651.04,-269.6 661.16,-266.47 657,-260.84"/>
</g>
<!-- document_segmentation.model.region_embedding.RegionEmbedding -->
<g id="node17" class="node">
<title>document_segmentation.model.region_embedding.RegionEmbedding</title>
<polygon fill="antiquewhite" stroke="antiquewhite" points="1483,-434.5 1483,-524.5 1662.5,-524.5 1662.5,-434.5 1483,-434.5"/>
<text text-anchor="start" x="1521.75" y="-507.2" font-family="Times,serif" font-size="14.00">RegionEmbedding</text>
<polyline fill="none" stroke="antiquewhite" points="1483,-500 1662.5,-500"/>
<text text-anchor="start" x="1515" y="-482.7" font-family="Times,serif" font-size="14.00">output_size : int</text>
<text text-anchor="start" x="1515" y="-466.2" font-family="Times,serif" font-size="14.00">text_embedding_size</text>
<polyline fill="none" stroke="antiquewhite" points="1483,-459 1662.5,-459"/>
<text text-anchor="start" x="1491" y="-441.7" font-family="Times,serif" font-size="14.00">forward(regions: list[Region])</text>
</g>
<!-- document_segmentation.model.region_embedding.RegionEmbedding&#45;&gt;document_segmentation.model.device_module.DeviceModule -->
<g id="edge8" class="edge">
<title>document_segmentation.model.region_embedding.RegionEmbedding&#45;&gt;document_segmentation.model.device_module.DeviceModule</title>
<path fill="none" stroke="black" d="M1571.62,-524.85C1568.77,-555.9 1560.67,-596.88 1538.75,-626 1514.84,-657.75 1424.53,-675.22 1343.55,-684.67"/>
<polygon fill="none" stroke="black" points="1343.25,-681.18 1333.7,-685.78 1344.03,-688.13 1343.25,-681.18"/>
</g>
<!-- document_segmentation.model.region_embedding.RegionEmbeddingSentenceTransformer -->
<g id="node18" class="node">
<title>document_segmentation.model.region_embedding.RegionEmbeddingSentenceTransformer</title>
<polygon fill="antiquewhite" stroke="antiquewhite" points="1140.25,-58.25 1140.25,-131.75 1375.25,-131.75 1375.25,-58.25 1140.25,-58.25"/>
<text text-anchor="start" x="1148.25" y="-114.45" font-family="Times,serif" font-size="14.00">RegionEmbeddingSentenceTransformer</text>
<polyline fill="none" stroke="antiquewhite" points="1140.25,-107.25 1375.25,-107.25"/>
<text text-anchor="start" x="1200" y="-89.95" font-family="Times,serif" font-size="14.00">text_embedding_size</text>
<polyline fill="none" stroke="antiquewhite" points="1140.25,-82.75 1375.25,-82.75"/>
<text text-anchor="start" x="1255.88" y="-65.45" font-family="Times,serif" font-size="14.00"> </text>
</g>
<!-- document_segmentation.model.region_embedding.RegionEmbeddingSentenceTransformer&#45;&gt;document_segmentation.model.page_embedding.PageEmbedding -->
<g id="edge15" class="edge">
<title>document_segmentation.model.region_embedding.RegionEmbeddingSentenceTransformer&#45;&gt;document_segmentation.model.page_embedding.PageEmbedding</title>
<path fill="none" stroke="black" d="M1198.33,-132.03C1134.17,-170.94 1031.46,-233.22 959,-277.16"/>
<polygon fill="black" stroke="black" points="959.12,-277.09 956.06,-283.62 948.86,-283.31 951.91,-276.78 959.12,-277.09"/>
<text text-anchor="middle" x="1108" y="-211.2" font-family="Times,serif" font-size="14.00" fill="green">_region_model</text>
</g>
<!-- document_segmentation.model.region_embedding.RegionEmbeddingSentenceTransformer&#45;&gt;document_segmentation.model.region_classifier.RegionClassifier -->
<g id="edge16" class="edge">
<title>document_segmentation.model.region_embedding.RegionEmbeddingSentenceTransformer&#45;&gt;document_segmentation.model.region_classifier.RegionClassifier</title>
<path fill="none" stroke="black" d="M1257.75,-131.98C1257.75,-202.07 1257.75,-356.73 1257.75,-433.48"/>
<polygon fill="black" stroke="black" points="1257.75,-433.52 1261.75,-439.52 1257.75,-445.52 1253.75,-439.52 1257.75,-433.52"/>
<text text-anchor="middle" x="1312.12" y="-211.2" font-family="Times,serif" font-size="14.00" fill="green">_region_embedding</text>
</g>
<!-- document_segmentation.model.region_embedding.RegionEmbeddingSentenceTransformer&#45;&gt;document_segmentation.model.region_embedding.RegionEmbedding -->
<g id="edge9" class="edge">
<title>document_segmentation.model.region_embedding.RegionEmbeddingSentenceTransformer&#45;&gt;document_segmentation.model.region_embedding.RegionEmbedding</title>
<path fill="none" stroke="black" d="M1297.12,-132.24C1319.52,-153.54 1347.64,-181.42 1370.75,-208 1433.09,-279.71 1497.49,-369.08 1536.33,-424.98"/>
<polygon fill="none" stroke="black" points="1533.38,-426.86 1541.95,-433.09 1539.13,-422.88 1533.38,-426.86"/>
</g>
<!-- document_segmentation.pagexml.datamodel.region.RegionType -->
<g id="node19" class="node">
<title>document_segmentation.pagexml.datamodel.region.RegionType</title>
<polygon fill="aquamarine" stroke="aquamarine" points="3438.12,-50 3438.12,-140 3747.38,-140 3747.38,-50 3438.12,-50"/>
<text text-anchor="start" x="3559.38" y="-122.7" font-family="Times,serif" font-size="14.00">RegionType</text>
<polyline fill="none" stroke="aquamarine" points="3438.12,-115.5 3747.38,-115.5"/>
<text text-anchor="start" x="3577.75" y="-98.2" font-family="Times,serif" font-size="14.00">name</text>
<polyline fill="none" stroke="aquamarine" points="3438.12,-91 3747.38,-91"/>
<text text-anchor="start" x="3446.12" y="-73.7" font-family="Times,serif" font-size="14.00">index(): int</text>
<text text-anchor="start" x="3446.12" y="-57.2" font-family="Times,serif" font-size="14.00">indices(region_types: Iterable[&#39;RegionType&#39;]): list[int]</text>
</g>
<!-- document_segmentation.pagexml.annotations.renate_analysis.RenateAnalysis -->
<g id="node20" class="node">
<title>document_segmentation.pagexml.annotations.renate_analysis.RenateAnalysis</title>
<polygon fill="aquamarine" stroke="aquamarine" points="1749.38,-70.5 1749.38,-119.5 1850.12,-119.5 1850.12,-70.5 1749.38,-70.5"/>
<text text-anchor="start" x="1757.38" y="-102.2" font-family="Times,serif" font-size="14.00">RenateAnalysis</text>
<polyline fill="none" stroke="aquamarine" points="1749.38,-95 1850.12,-95"/>
<polyline fill="none" stroke="aquamarine" points="1749.38,-95 1850.12,-95"/>
<text text-anchor="start" x="1797.88" y="-77.7" font-family="Times,serif" font-size="14.00"> </text>
</g>
<!-- document_segmentation.pagexml.annotations.renate_analysis.RenateAnalysis&#45;&gt;document_segmentation.pagexml.annotations.sheet.Sheet -->
<g id="edge11" class="edge">
<title>document_segmentation.pagexml.annotations.renate_analysis.RenateAnalysis&#45;&gt;document_segmentation.pagexml.annotations.sheet.Sheet</title>
<path fill="none" stroke="black" d="M1799.75,-119.98C1799.75,-158.85 1799.75,-236.15 1799.75,-284.86"/>
<polygon fill="none" stroke="black" points="1796.25,-284.78 1799.75,-294.78 1803.25,-284.78 1796.25,-284.78"/>
</g>
<!-- document_segmentation.pagexml.annotations.renate_analysis.RenateAnalysisInv -->
<g id="node21" class="node">
<title>document_segmentation.pagexml.annotations.renate_analysis.RenateAnalysisInv</title>
<polygon fill="aquamarine" stroke="aquamarine" points="1868.62,-62.25 1868.62,-127.75 2156.88,-127.75 2156.88,-62.25 1868.62,-62.25"/>
<text text-anchor="start" x="1961.38" y="-110.45" font-family="Times,serif" font-size="14.00">RenateAnalysisInv</text>
<polyline fill="none" stroke="aquamarine" points="1868.62,-103.25 2156.88,-103.25"/>
<polyline fill="none" stroke="aquamarine" points="1868.62,-103.25 2156.88,-103.25"/>
<text text-anchor="start" x="1876.62" y="-85.95" font-family="Times,serif" font-size="14.00">download(target_dir: Path, n: int, total: int): None</text>
<text text-anchor="start" x="1876.62" y="-69.45" font-family="Times,serif" font-size="14.00">to_documents(): Iterable[Document]</text>
</g>
<!-- document_segmentation.pagexml.annotations.renate_analysis.RenateAnalysisInv&#45;&gt;document_segmentation.pagexml.annotations.sheet.Sheet -->
<g id="edge12" class="edge">
<title>document_segmentation.pagexml.annotations.renate_analysis.RenateAnalysisInv&#45;&gt;document_segmentation.pagexml.annotations.sheet.Sheet</title>
<path fill="none" stroke="black" d="M1983.58,-127.81C1945.47,-169.36 1878.71,-242.15 1836.99,-287.64"/>
<polygon fill="none" stroke="black" points="1834.45,-285.23 1830.27,-294.97 1839.61,-289.96 1834.45,-285.23"/>
</g>
</g>
</svg>
