<?xml version="1.0" encoding="UTF-8" standalone="no"?>
<!DOCTYPE svg PUBLIC "-//W3C//DTD SVG 1.1//EN"
 "http://www.w3.org/Graphics/SVG/1.1/DTD/svg11.dtd">
<!-- Generated by graphviz version 9.0.0 (20230911.1827)
 -->
<!-- Title: classes Pages: 1 -->
<svg width="3155pt" height="1018pt"
 viewBox="0.00 0.00 3154.75 1018.00" xmlns="http://www.w3.org/2000/svg" xmlns:xlink="http://www.w3.org/1999/xlink">
<g id="graph0" class="graph" transform="scale(1 1) rotate(0) translate(4 1014)">
<title>classes</title>
<polygon fill="white" stroke="none" points="-4,4 -4,-1014 3150.75,-1014 3150.75,4 -4,4"/>
<!-- document_segmentation.model.device_module.DeviceModule -->
<g id="node1" class="node">
<title>document_segmentation.model.device_module.DeviceModule</title>
<polygon fill="antiquewhite" stroke="antiquewhite" points="745,-944 745,-1009.5 1003.25,-1009.5 1003.25,-944 745,-944"/>
<text text-anchor="start" x="833.62" y="-992.2" font-family="Times,serif" font-size="14.00">DeviceModule</text>
<polyline fill="none" stroke="antiquewhite" points="745,-985 1003.25,-985"/>
<polyline fill="none" stroke="antiquewhite" points="745,-985 1003.25,-985"/>
<text text-anchor="start" x="753" y="-967.7" font-family="Times,serif" font-size="14.00">get_device(backends: list[ModuleType]): str</text>
<text text-anchor="start" x="753" y="-951.2" font-family="Times,serif" font-size="14.00">to_device(device: Optional[str])</text>
</g>
<!-- document_segmentation.pagexml.annotations.generale_missiven.GeneraleMissiven -->
<g id="node2" class="node">
<title>document_segmentation.pagexml.annotations.generale_missiven.GeneraleMissiven</title>
<polygon fill="aquamarine" stroke="aquamarine" points="1286.62,-527.5 1286.62,-576.5 1401.62,-576.5 1401.62,-527.5 1286.62,-527.5"/>
<text text-anchor="start" x="1294.62" y="-559.2" font-family="Times,serif" font-size="14.00">GeneraleMissiven</text>
<polyline fill="none" stroke="aquamarine" points="1286.62,-552 1401.62,-552"/>
<polyline fill="none" stroke="aquamarine" points="1286.62,-552 1401.62,-552"/>
<text text-anchor="start" x="1342.25" y="-534.7" font-family="Times,serif" font-size="14.00"> </text>
</g>
<!-- document_segmentation.pagexml.annotations.sheet.Sheet -->
<g id="node17" class="node">
<title>document_segmentation.pagexml.annotations.sheet.Sheet</title>
<polygon fill="aquamarine" stroke="aquamarine" points="1290.38,-791 1290.38,-906 1649.88,-906 1649.88,-791 1290.38,-791"/>
<text text-anchor="start" x="1455.12" y="-888.7" font-family="Times,serif" font-size="14.00">Sheet</text>
<polyline fill="none" stroke="aquamarine" points="1290.38,-881.5 1649.88,-881.5"/>
<polyline fill="none" stroke="aquamarine" points="1290.38,-881.5 1649.88,-881.5"/>
<text text-anchor="start" x="1298.38" y="-864.2" font-family="Times,serif" font-size="14.00">all_annotated_inventories(n: Optional[int]): Iterable[Inventory]</text>
<text text-anchor="start" x="1298.38" y="-847.7" font-family="Times,serif" font-size="14.00">annotate_inventory(inventory: Inventory): Inventory</text>
<text text-anchor="start" x="1298.38" y="-831.2" font-family="Times,serif" font-size="14.00">download_inventories()</text>
<text text-anchor="start" x="1298.38" y="-814.7" font-family="Times,serif" font-size="14.00">inventories(): Iterable[Inventory]</text>
<text text-anchor="start" x="1298.38" y="-798.2" font-family="Times,serif" font-size="14.00">inventory_numbers(): Iterable[tuple[int, str]]</text>
</g>
<!-- document_segmentation.pagexml.annotations.generale_missiven.GeneraleMissiven&#45;&gt;document_segmentation.pagexml.annotations.sheet.Sheet -->
<g id="edge7" class="edge">
<title>document_segmentation.pagexml.annotations.generale_missiven.GeneraleMissiven&#45;&gt;document_segmentation.pagexml.annotations.sheet.Sheet</title>
<path fill="none" stroke="black" d="M1354.22,-576.6C1372.89,-620.24 1413.44,-715 1441.26,-780.03"/>
<polygon fill="none" stroke="black" points="1438.03,-781.39 1445.19,-789.21 1444.47,-778.64 1438.03,-781.39"/>
</g>
<!-- document_segmentation.pagexml.datamodel.inventory.Inventory -->
<g id="node3" class="node">
<title>document_segmentation.pagexml.datamodel.inventory.Inventory</title>
<polygon fill="aquamarine" stroke="aquamarine" points="1489.62,-0.5 1489.62,-387.5 1892.62,-387.5 1892.62,-0.5 1489.62,-0.5"/>
<text text-anchor="start" x="1664.88" y="-370.2" font-family="Times,serif" font-size="14.00">Inventory</text>
<polyline fill="none" stroke="aquamarine" points="1489.62,-363 1892.62,-363"/>
<text text-anchor="start" x="1639" y="-345.7" font-family="Times,serif" font-size="14.00">inv_nr</text>
<text text-anchor="start" x="1639" y="-329.2" font-family="Times,serif" font-size="14.00">inventory_part : str</text>
<text text-anchor="start" x="1639" y="-312.7" font-family="Times,serif" font-size="14.00">pages</text>
<text text-anchor="start" x="1639" y="-296.2" font-family="Times,serif" font-size="14.00">pages : list[Page]</text>
<polyline fill="none" stroke="aquamarine" points="1489.62,-289 1892.62,-289"/>
<text text-anchor="start" x="1497.62" y="-271.7" font-family="Times,serif" font-size="14.00">annotate_scan(scan_nr: int, label: Label)</text>
<text text-anchor="start" x="1497.62" y="-255.2" font-family="Times,serif" font-size="14.00">class_counts(): Counter[Label]</text>
<text text-anchor="start" x="1497.62" y="-238.7" font-family="Times,serif" font-size="14.00">class_weights(): list[float]</text>
<text text-anchor="start" x="1497.62" y="-222.2" font-family="Times,serif" font-size="14.00">download(inv_nr: int, inventory_part: str): &#39;Inventory&#39;</text>
<text text-anchor="start" x="1497.62" y="-205.7" font-family="Times,serif" font-size="14.00">full_inv_nr(): str</text>
<text text-anchor="start" x="1497.62" y="-189.2" font-family="Times,serif" font-size="14.00">get_scan(scan_nr: int): Page</text>
<text text-anchor="start" x="1497.62" y="-172.7" font-family="Times,serif" font-size="14.00">label_tensor(): torch.Tensor</text>
<text text-anchor="start" x="1497.62" y="-156.2" font-family="Times,serif" font-size="14.00">labelled(): list[Page]</text>
<text text-anchor="start" x="1497.62" y="-139.7" font-family="Times,serif" font-size="14.00">labelled_inventories(): Iterable[&#39;Inventory&#39;]</text>
<text text-anchor="start" x="1497.62" y="-123.2" font-family="Times,serif" font-size="14.00">labels(): list[Label]</text>
<text text-anchor="start" x="1497.62" y="-106.7" font-family="Times,serif" font-size="14.00">link(page: Page): str</text>
<text text-anchor="start" x="1497.62" y="-90.2" font-family="Times,serif" font-size="14.00">load_or_download(inv_nr: int, inventory_part: str, inventory_dir: Path)</text>
<text text-anchor="start" x="1497.62" y="-73.7" font-family="Times,serif" font-size="14.00">local_file(inv_nr: int, inventory_part: str, directory: Path): Path</text>
<text text-anchor="start" x="1497.62" y="-57.2" font-family="Times,serif" font-size="14.00">preprocess(): &#39;Inventory&#39;</text>
<text text-anchor="start" x="1497.62" y="-40.7" font-family="Times,serif" font-size="14.00">remove_short_regions(min_chars: int): &#39;Inventory&#39;</text>
<text text-anchor="start" x="1497.62" y="-24.2" font-family="Times,serif" font-size="14.00">validate_inv_part(value: str): str</text>
<text text-anchor="start" x="1497.62" y="-7.7" font-family="Times,serif" font-size="14.00">write(target_file: Optional[Path], mode): Path</text>
</g>
<!-- document_segmentation.pagexml.annotations.renate_analysis.RenateAnalysisInv -->
<g id="node16" class="node">
<title>document_segmentation.pagexml.annotations.renate_analysis.RenateAnalysisInv</title>
<polygon fill="aquamarine" stroke="aquamarine" points="1538.38,-511 1538.38,-593 1843.88,-593 1843.88,-511 1538.38,-511"/>
<text text-anchor="start" x="1639.75" y="-575.7" font-family="Times,serif" font-size="14.00">RenateAnalysisInv</text>
<polyline fill="none" stroke="aquamarine" points="1538.38,-568.5 1843.88,-568.5"/>
<polyline fill="none" stroke="aquamarine" points="1538.38,-568.5 1843.88,-568.5"/>
<text text-anchor="start" x="1546.38" y="-551.2" font-family="Times,serif" font-size="14.00">annotate_inventory(inventory: Inventory): &#39;Inventory&#39;</text>
<text text-anchor="start" x="1546.38" y="-534.7" font-family="Times,serif" font-size="14.00">inventories(): Iterable[Inventory]</text>
<text text-anchor="start" x="1546.38" y="-518.2" font-family="Times,serif" font-size="14.00">inventory_numbers(): Iterable[tuple[int, str]]</text>
</g>
<!-- document_segmentation.pagexml.datamodel.inventory.Inventory&#45;&gt;document_segmentation.pagexml.annotations.renate_analysis.RenateAnalysisInv -->
<g id="edge14" class="edge">
<title>document_segmentation.pagexml.datamodel.inventory.Inventory&#45;&gt;document_segmentation.pagexml.annotations.renate_analysis.RenateAnalysisInv</title>
<path fill="none" stroke="black" d="M1691.12,-387.85C1691.12,-428.47 1691.12,-468.06 1691.12,-498.07"/>
<polygon fill="black" stroke="black" points="1691.13,-497.83 1695.13,-503.83 1691.13,-509.83 1687.13,-503.83 1691.13,-497.83"/>
<text text-anchor="middle" x="1720.38" y="-409.2" font-family="Times,serif" font-size="14.00" fill="green">_inventory</text>
</g>
<!-- document_segmentation.pagexml.datamodel.label.Label -->
<g id="node4" class="node">
<title>document_segmentation.pagexml.datamodel.label.Label</title>
<polygon fill="aquamarine" stroke="aquamarine" points="2002.12,-157.25 2002.12,-230.75 2108.12,-230.75 2108.12,-157.25 2002.12,-157.25"/>
<text text-anchor="start" x="2039.75" y="-213.45" font-family="Times,serif" font-size="14.00">Label</text>
<polyline fill="none" stroke="aquamarine" points="2002.12,-206.25 2108.12,-206.25"/>
<text text-anchor="start" x="2040.12" y="-188.95" font-family="Times,serif" font-size="14.00">name</text>
<polyline fill="none" stroke="aquamarine" points="2002.12,-181.75 2108.12,-181.75"/>
<text text-anchor="start" x="2010.12" y="-164.45" font-family="Times,serif" font-size="14.00">to_list(): list[int]</text>
</g>
<!-- document_segmentation.pagexml.datamodel.page.Page -->
<g id="node5" class="node">
<title>document_segmentation.pagexml.datamodel.page.Page</title>
<polygon fill="aquamarine" stroke="aquamarine" points="1861.5,-441 1861.5,-663 2248.75,-663 2248.75,-441 1861.5,-441"/>
<text text-anchor="start" x="2042" y="-645.7" font-family="Times,serif" font-size="14.00">Page</text>
<polyline fill="none" stroke="aquamarine" points="1861.5,-638.5 2248.75,-638.5"/>
<text text-anchor="start" x="1996.25" y="-621.2" font-family="Times,serif" font-size="14.00">doc_id : Optional[str]</text>
<text text-anchor="start" x="1996.25" y="-604.7" font-family="Times,serif" font-size="14.00">external_ref : str</text>
<text text-anchor="start" x="1996.25" y="-588.2" font-family="Times,serif" font-size="14.00">label</text>
<text text-anchor="start" x="1996.25" y="-571.7" font-family="Times,serif" font-size="14.00">regions</text>
<text text-anchor="start" x="1996.25" y="-555.2" font-family="Times,serif" font-size="14.00">regions : list[Region]</text>
<text text-anchor="start" x="1996.25" y="-538.7" font-family="Times,serif" font-size="14.00">scan_nr</text>
<polyline fill="none" stroke="aquamarine" points="1861.5,-531.5 2248.75,-531.5"/>
<text text-anchor="start" x="1869.5" y="-514.2" font-family="Times,serif" font-size="14.00">enum_from_int(value)</text>
<text text-anchor="start" x="1869.5" y="-497.7" font-family="Times,serif" font-size="14.00">filter_short_regions(min_chars: int): &#39;Page&#39;</text>
<text text-anchor="start" x="1869.5" y="-481.2" font-family="Times,serif" font-size="14.00">from_pagexml(label: Label, scan_nr: int, pagexml: PageXMLScan)</text>
<text text-anchor="start" x="1869.5" y="-464.7" font-family="Times,serif" font-size="14.00">guess_doc_id(inv_nr: str): str</text>
<text text-anchor="start" x="1869.5" y="-448.2" font-family="Times,serif" font-size="14.00">text(delimiter: str): str</text>
</g>
<!-- document_segmentation.pagexml.datamodel.label.Label&#45;&gt;document_segmentation.pagexml.datamodel.page.Page -->
<g id="edge15" class="edge">
<title>document_segmentation.pagexml.datamodel.label.Label&#45;&gt;document_segmentation.pagexml.datamodel.page.Page</title>
<path fill="none" stroke="black" d="M2055.12,-231.09C2055.12,-277.02 2055.12,-358.72 2055.12,-428.06"/>
<polygon fill="black" stroke="black" points="2055.13,-427.95 2059.13,-433.95 2055.13,-439.95 2051.13,-433.95 2055.13,-427.95"/>
<text text-anchor="middle" x="2068.25" y="-409.2" font-family="Times,serif" font-size="14.00" fill="green">label</text>
</g>
<!-- document_segmentation.model.page_classifier.PageClassifier -->
<g id="node6" class="node">
<title>document_segmentation.model.page_classifier.PageClassifier</title>
<polygon fill="antiquewhite" stroke="antiquewhite" points="625.75,-815.75 625.75,-881.25 1122.5,-881.25 1122.5,-815.75 625.75,-815.75"/>
<text text-anchor="start" x="835.12" y="-863.95" font-family="Times,serif" font-size="14.00">PageClassifier</text>
<polyline fill="none" stroke="antiquewhite" points="625.75,-856.75 1122.5,-856.75"/>
<polyline fill="none" stroke="antiquewhite" points="625.75,-856.75 1122.5,-856.75"/>
<text text-anchor="start" x="633.75" y="-839.45" font-family="Times,serif" font-size="14.00">forward(pages: PageDataset)</text>
<text text-anchor="start" x="633.75" y="-822.95" font-family="Times,serif" font-size="14.00">train_(pages: PageDataset, epochs: int, batch_size: int, weights: Optional[torch.Tensor])</text>
</g>
<!-- document_segmentation.model.page_classifier.PageClassifier&#45;&gt;document_segmentation.model.device_module.DeviceModule -->
<g id="edge1" class="edge">
<title>document_segmentation.model.page_classifier.PageClassifier&#45;&gt;document_segmentation.model.device_module.DeviceModule</title>
<path fill="none" stroke="black" d="M874.12,-881.68C874.12,-897.12 874.12,-915.83 874.12,-932.49"/>
<polygon fill="none" stroke="black" points="870.63,-932.11 874.13,-942.11 877.63,-932.11 870.63,-932.11"/>
</g>
<!-- document_segmentation.model.page_embedding.PageEmbedding -->
<g id="node7" class="node">
<title>document_segmentation.model.page_embedding.PageEmbedding</title>
<polygon fill="antiquewhite" stroke="antiquewhite" points="535.25,-507 535.25,-597 693,-597 693,-507 535.25,-507"/>
<text text-anchor="start" x="569.5" y="-579.7" font-family="Times,serif" font-size="14.00">PageEmbedding</text>
<polyline fill="none" stroke="antiquewhite" points="535.25,-572.5 693,-572.5"/>
<text text-anchor="start" x="570.25" y="-555.2" font-family="Times,serif" font-size="14.00">output_size : int</text>
<text text-anchor="start" x="570.25" y="-538.7" font-family="Times,serif" font-size="14.00">rnn</text>
<polyline fill="none" stroke="antiquewhite" points="535.25,-531.5 693,-531.5"/>
<text text-anchor="start" x="543.25" y="-514.2" font-family="Times,serif" font-size="14.00">forward(pages: list[Page])</text>
</g>
<!-- document_segmentation.model.page_embedding.PageEmbedding&#45;&gt;document_segmentation.model.device_module.DeviceModule -->
<g id="edge2" class="edge">
<title>document_segmentation.model.page_embedding.PageEmbedding&#45;&gt;document_segmentation.model.device_module.DeviceModule</title>
<path fill="none" stroke="black" d="M608,-597.29C597.4,-681.39 580.09,-859.99 617.12,-906.5 632.91,-926.33 682.36,-941.88 733.72,-953.18"/>
<polygon fill="none" stroke="black" points="732.71,-956.54 743.22,-955.21 734.17,-949.69 732.71,-956.54"/>
</g>
<!-- document_segmentation.model.page_embedding.PageEmbedding&#45;&gt;document_segmentation.model.page_classifier.PageClassifier -->
<g id="edge10" class="edge">
<title>document_segmentation.model.page_embedding.PageEmbedding&#45;&gt;document_segmentation.model.page_classifier.PageClassifier</title>
<path fill="none" stroke="black" d="M610.88,-597.14C607.71,-653.32 605.97,-746.25 626.62,-772.5 638.3,-787.34 652.82,-799.32 668.93,-808.99"/>
<polygon fill="black" stroke="black" points="669.04,-809.06 676.23,-808.48 679.53,-814.89 672.34,-815.47 669.04,-809.06"/>
<text text-anchor="middle" x="660.88" y="-721.95" font-family="Times,serif" font-size="14.00" fill="green">_embedding</text>
</g>
<!-- document_segmentation.model.page_sequence_tagger.PageSequenceTagger -->
<g id="node8" class="node">
<title>document_segmentation.model.page_sequence_tagger.PageSequenceTagger</title>
<polygon fill="antiquewhite" stroke="antiquewhite" points="0,-799.25 0,-897.75 570.25,-897.75 570.25,-799.25 0,-799.25"/>
<text text-anchor="start" x="227" y="-880.45" font-family="Times,serif" font-size="14.00">PageSequenceTagger</text>
<polyline fill="none" stroke="antiquewhite" points="0,-873.25 570.25,-873.25"/>
<polyline fill="none" stroke="antiquewhite" points="0,-873.25 570.25,-873.25"/>
<text text-anchor="start" x="8" y="-855.95" font-family="Times,serif" font-size="14.00">eval_(inventories: list[Inventory]): tuple[Metric, Metric, Metric, Metric, pd.DataFrame]</text>
<text text-anchor="start" x="8" y="-839.45" font-family="Times,serif" font-size="14.00">forward(pages: list[Page]): torch.Tensor</text>
<text text-anchor="start" x="8" y="-822.95" font-family="Times,serif" font-size="14.00">predict(inventory: Inventory): pd.DataFrame</text>
<text text-anchor="start" x="8" y="-806.45" font-family="Times,serif" font-size="14.00">train_(training_inventories: list[Inventory], validation_inventories: Optional[dict[str, list[Inventory]]])</text>
</g>
<!-- document_segmentation.model.page_embedding.PageEmbedding&#45;&gt;document_segmentation.model.page_sequence_tagger.PageSequenceTagger -->
<g id="edge11" class="edge">
<title>document_segmentation.model.page_embedding.PageEmbedding&#45;&gt;document_segmentation.model.page_sequence_tagger.PageSequenceTagger</title>
<path fill="none" stroke="black" d="M565.05,-597.35C539.78,-621.22 509.15,-651.8 484.38,-681.5 452.99,-719.13 458.45,-739.61 422.12,-772.5 414.62,-779.29 406.4,-785.7 397.82,-791.69"/>
<polygon fill="black" stroke="black" points="397.93,-791.61 395.16,-798.27 387.95,-798.28 390.71,-791.62 397.93,-791.61"/>
<text text-anchor="middle" x="535" y="-721.95" font-family="Times,serif" font-size="14.00" fill="green">_page_embedding</text>
</g>
<!-- document_segmentation.model.page_sequence_tagger.PageSequenceTagger&#45;&gt;document_segmentation.model.device_module.DeviceModule -->
<g id="edge3" class="edge">
<title>document_segmentation.model.page_sequence_tagger.PageSequenceTagger&#45;&gt;document_segmentation.model.device_module.DeviceModule</title>
<path fill="none" stroke="black" d="M467.23,-898.17C505.7,-907.79 546.15,-917.4 584.12,-925.5 632.47,-935.82 685.69,-945.51 733.2,-953.58"/>
<polygon fill="none" stroke="black" points="732.57,-957.03 743.02,-955.24 733.74,-950.12 732.57,-957.03"/>
</g>
<!-- document_segmentation.pagexml.pagexml.PageXML -->
<g id="node9" class="node">
<title>document_segmentation.pagexml.pagexml.PageXML</title>
<polygon fill="aquamarine" stroke="aquamarine" points="2125.88,-153 2125.88,-235 2482.38,-235 2482.38,-153 2125.88,-153"/>
<text text-anchor="start" x="2275.62" y="-217.7" font-family="Times,serif" font-size="14.00">PageXML</text>
<polyline fill="none" stroke="aquamarine" points="2125.88,-210.5 2482.38,-210.5"/>
<polyline fill="none" stroke="aquamarine" points="2125.88,-210.5 2482.38,-210.5"/>
<text text-anchor="start" x="2133.88" y="-193.2" font-family="Times,serif" font-size="14.00">document_type(): list[str]</text>
<text text-anchor="start" x="2133.88" y="-176.7" font-family="Times,serif" font-size="14.00">get_regions_from_top(): list[PageXMLTextRegion]</text>
<text text-anchor="start" x="2133.88" y="-160.2" font-family="Times,serif" font-size="14.00">top_paragraph(region_types): Optional[PageXMLTextRegion]</text>
</g>
<!-- document_segmentation.pagexml.datamodel.region.Region -->
<g id="node10" class="node">
<title>document_segmentation.pagexml.datamodel.region.Region</title>
<polygon fill="aquamarine" stroke="aquamarine" points="2500.62,-132.5 2500.62,-255.5 2819.62,-255.5 2819.62,-132.5 2500.62,-132.5"/>
<text text-anchor="start" x="2640.62" y="-238.2" font-family="Times,serif" font-size="14.00">Region</text>
<polyline fill="none" stroke="aquamarine" points="2500.62,-231 2819.62,-231"/>
<text text-anchor="start" x="2560" y="-213.7" font-family="Times,serif" font-size="14.00">coordinates : tuple[tuple[int, int], ...]</text>
<text text-anchor="start" x="2560" y="-197.2" font-family="Times,serif" font-size="14.00">id : str</text>
<text text-anchor="start" x="2560" y="-180.7" font-family="Times,serif" font-size="14.00">lines : tuple[str, ...]</text>
<text text-anchor="start" x="2560" y="-164.2" font-family="Times,serif" font-size="14.00">types : tuple[RegionType, ...]</text>
<polyline fill="none" stroke="aquamarine" points="2500.62,-157 2819.62,-157"/>
<text text-anchor="start" x="2508.62" y="-139.7" font-family="Times,serif" font-size="14.00">from_pagexml(region: PageXMLTextRegion): &#39;Region&#39;</text>
</g>
<!-- document_segmentation.model.region_classifier.RegionClassifier -->
<g id="node11" class="node">
<title>document_segmentation.model.region_classifier.RegionClassifier</title>
<polygon fill="antiquewhite" stroke="antiquewhite" points="703.5,-694.25 703.5,-759.75 1144.75,-759.75 1144.75,-694.25 703.5,-694.25"/>
<text text-anchor="start" x="878.75" y="-742.45" font-family="Times,serif" font-size="14.00">RegionClassifier</text>
<polyline fill="none" stroke="antiquewhite" points="703.5,-735.25 1144.75,-735.25"/>
<polyline fill="none" stroke="antiquewhite" points="703.5,-735.25 1144.75,-735.25"/>
<text text-anchor="start" x="711.5" y="-717.95" font-family="Times,serif" font-size="14.00">forward(regions: List[Region]): torch.Tensor</text>
<text text-anchor="start" x="711.5" y="-701.45" font-family="Times,serif" font-size="14.00">train_(dataset: RegionDataset, epochs: int, batch_size: int, weights: list[float])</text>
</g>
<!-- document_segmentation.model.region_classifier.RegionClassifier&#45;&gt;document_segmentation.model.device_module.DeviceModule -->
<g id="edge4" class="edge">
<title>document_segmentation.model.region_classifier.RegionClassifier&#45;&gt;document_segmentation.model.device_module.DeviceModule</title>
<path fill="none" stroke="black" d="M1074.35,-760.17C1100.78,-768.82 1122.59,-779.01 1131.12,-790.5 1161.86,-831.89 1162.48,-865.58 1131.12,-906.5 1115.68,-926.66 1066.11,-942.28 1014.57,-953.53"/>
<polygon fill="none" stroke="black" points="1014.09,-950.06 1005.03,-955.56 1015.54,-956.9 1014.09,-950.06"/>
</g>
<!-- document_segmentation.model.region_embedding.RegionEmbedding -->
<g id="node12" class="node">
<title>document_segmentation.model.region_embedding.RegionEmbedding</title>
<polygon fill="antiquewhite" stroke="antiquewhite" points="1149.38,-682 1149.38,-772 1328.88,-772 1328.88,-682 1149.38,-682"/>
<text text-anchor="start" x="1188.12" y="-754.7" font-family="Times,serif" font-size="14.00">RegionEmbedding</text>
<polyline fill="none" stroke="antiquewhite" points="1149.38,-747.5 1328.88,-747.5"/>
<text text-anchor="start" x="1181.38" y="-730.2" font-family="Times,serif" font-size="14.00">output_size : int</text>
<text text-anchor="start" x="1181.38" y="-713.7" font-family="Times,serif" font-size="14.00">text_embedding_size</text>
<polyline fill="none" stroke="antiquewhite" points="1149.38,-706.5 1328.88,-706.5"/>
<text text-anchor="start" x="1157.38" y="-689.2" font-family="Times,serif" font-size="14.00">forward(regions: list[Region])</text>
</g>
<!-- document_segmentation.model.region_embedding.RegionEmbedding&#45;&gt;document_segmentation.model.device_module.DeviceModule -->
<g id="edge5" class="edge">
<title>document_segmentation.model.region_embedding.RegionEmbedding&#45;&gt;document_segmentation.model.device_module.DeviceModule</title>
<path fill="none" stroke="black" d="M1227.74,-772.36C1215.74,-811.67 1193.44,-868.56 1157.12,-906.5 1136.55,-928 1075.09,-944.37 1014.68,-955.78"/>
<polygon fill="none" stroke="black" points="1014.12,-952.32 1004.92,-957.57 1015.38,-959.21 1014.12,-952.32"/>
</g>
<!-- document_segmentation.model.region_embedding.RegionEmbeddingSentenceTransformer -->
<g id="node13" class="node">
<title>document_segmentation.model.region_embedding.RegionEmbeddingSentenceTransformer</title>
<polygon fill="antiquewhite" stroke="antiquewhite" points="806.62,-157.25 806.62,-230.75 1041.62,-230.75 1041.62,-157.25 806.62,-157.25"/>
<text text-anchor="start" x="814.62" y="-213.45" font-family="Times,serif" font-size="14.00">RegionEmbeddingSentenceTransformer</text>
<polyline fill="none" stroke="antiquewhite" points="806.62,-206.25 1041.62,-206.25"/>
<text text-anchor="start" x="866.38" y="-188.95" font-family="Times,serif" font-size="14.00">text_embedding_size</text>
<polyline fill="none" stroke="antiquewhite" points="806.62,-181.75 1041.62,-181.75"/>
<text text-anchor="start" x="922.25" y="-164.45" font-family="Times,serif" font-size="14.00"> </text>
</g>
<!-- document_segmentation.model.region_embedding.RegionEmbeddingSentenceTransformer&#45;&gt;document_segmentation.model.page_embedding.PageEmbedding -->
<g id="edge12" class="edge">
<title>document_segmentation.model.region_embedding.RegionEmbeddingSentenceTransformer&#45;&gt;document_segmentation.model.page_embedding.PageEmbedding</title>
<path fill="none" stroke="black" d="M892.69,-231.09C837.97,-293.94 724.92,-423.77 660.94,-497.24"/>
<polygon fill="black" stroke="black" points="661.1,-497.06 660.17,-504.21 653.22,-506.11 654.14,-498.96 661.1,-497.06"/>
<text text-anchor="middle" x="774.38" y="-409.2" font-family="Times,serif" font-size="14.00" fill="green">_region_model</text>
</g>
<!-- document_segmentation.model.region_embedding.RegionEmbeddingSentenceTransformer&#45;&gt;document_segmentation.model.region_classifier.RegionClassifier -->
<g id="edge13" class="edge">
<title>document_segmentation.model.region_embedding.RegionEmbeddingSentenceTransformer&#45;&gt;document_segmentation.model.region_classifier.RegionClassifier</title>
<path fill="none" stroke="black" d="M924.12,-231.08C924.12,-325.13 924.12,-577.64 924.12,-680.98"/>
<polygon fill="black" stroke="black" points="924.13,-681.07 928.13,-687.07 924.13,-693.07 920.13,-687.07 924.13,-681.07"/>
<text text-anchor="middle" x="978.5" y="-409.2" font-family="Times,serif" font-size="14.00" fill="green">_region_embedding</text>
</g>
<!-- document_segmentation.model.region_embedding.RegionEmbeddingSentenceTransformer&#45;&gt;document_segmentation.model.region_embedding.RegionEmbedding -->
<g id="edge6" class="edge">
<title>document_segmentation.model.region_embedding.RegionEmbeddingSentenceTransformer&#45;&gt;document_segmentation.model.region_embedding.RegionEmbedding</title>
<path fill="none" stroke="black" d="M945.53,-231.08C999.78,-322.53 1142.91,-563.8 1207.13,-672.07"/>
<polygon fill="none" stroke="black" points="1204.03,-673.7 1212.14,-680.51 1210.05,-670.13 1204.03,-673.7"/>
</g>
<!-- document_segmentation.pagexml.datamodel.region.RegionType -->
<g id="node14" class="node">
<title>document_segmentation.pagexml.datamodel.region.RegionType</title>
<polygon fill="aquamarine" stroke="aquamarine" points="2837.5,-149 2837.5,-239 3146.75,-239 3146.75,-149 2837.5,-149"/>
<text text-anchor="start" x="2958.75" y="-221.7" font-family="Times,serif" font-size="14.00">RegionType</text>
<polyline fill="none" stroke="aquamarine" points="2837.5,-214.5 3146.75,-214.5"/>
<text text-anchor="start" x="2977.12" y="-197.2" font-family="Times,serif" font-size="14.00">name</text>
<polyline fill="none" stroke="aquamarine" points="2837.5,-190 3146.75,-190"/>
<text text-anchor="start" x="2845.5" y="-172.7" font-family="Times,serif" font-size="14.00">index(): int</text>
<text text-anchor="start" x="2845.5" y="-156.2" font-family="Times,serif" font-size="14.00">indices(region_types: Iterable[&#39;RegionType&#39;]): list[int]</text>
</g>
<!-- document_segmentation.pagexml.annotations.renate_analysis.RenateAnalysis -->
<g id="node15" class="node">
<title>document_segmentation.pagexml.annotations.renate_analysis.RenateAnalysis</title>
<polygon fill="aquamarine" stroke="aquamarine" points="1419.75,-527.5 1419.75,-576.5 1520.5,-576.5 1520.5,-527.5 1419.75,-527.5"/>
<text text-anchor="start" x="1427.75" y="-559.2" font-family="Times,serif" font-size="14.00">RenateAnalysis</text>
<polyline fill="none" stroke="aquamarine" points="1419.75,-552 1520.5,-552"/>
<polyline fill="none" stroke="aquamarine" points="1419.75,-552 1520.5,-552"/>
<text text-anchor="start" x="1468.25" y="-534.7" font-family="Times,serif" font-size="14.00"> </text>
</g>
<!-- document_segmentation.pagexml.annotations.renate_analysis.RenateAnalysis&#45;&gt;document_segmentation.pagexml.annotations.sheet.Sheet -->
<g id="edge8" class="edge">
<title>document_segmentation.pagexml.annotations.renate_analysis.RenateAnalysis&#45;&gt;document_segmentation.pagexml.annotations.sheet.Sheet</title>
<path fill="none" stroke="black" d="M1470.12,-576.6C1470.12,-620.06 1470.12,-714.22 1470.12,-779.23"/>
<polygon fill="none" stroke="black" points="1466.63,-779.09 1470.13,-789.09 1473.63,-779.09 1466.63,-779.09"/>
</g>
<!-- document_segmentation.pagexml.annotations.renate_analysis.RenateAnalysisInv&#45;&gt;document_segmentation.pagexml.annotations.sheet.Sheet -->
<g id="edge9" class="edge">
<title>document_segmentation.pagexml.annotations.renate_analysis.RenateAnalysisInv&#45;&gt;document_segmentation.pagexml.annotations.sheet.Sheet</title>
<path fill="none" stroke="black" d="M1660.86,-593.33C1624.5,-641.78 1563,-723.73 1519.69,-781.46"/>
<polygon fill="none" stroke="black" points="1517.01,-779.19 1513.8,-789.29 1522.61,-783.4 1517.01,-779.19"/>
</g>
<!-- document_segmentation.pagexml.datamodel.inventory.ThumbnailDownloader -->
<g id="node18" class="node">
<title>document_segmentation.pagexml.datamodel.inventory.ThumbnailDownloader</title>
<polygon fill="aquamarine" stroke="aquamarine" points="134.62,-493.75 134.62,-610.25 435.62,-610.25 435.62,-493.75 134.62,-493.75"/>
<text text-anchor="start" x="221.75" y="-592.95" font-family="Times,serif" font-size="14.00">ThumbnailDownloader</text>
<polyline fill="none" stroke="aquamarine" points="134.62,-585.75 435.62,-585.75"/>
<polyline fill="none" stroke="aquamarine" points="134.62,-585.75 435.62,-585.75"/>
<text text-anchor="start" x="142.62" y="-569.45" font-family="Times,serif" font-size="14.00">download(inventory: Inventory, page: Page): Path</text>
<text text-anchor="start" x="142.62" y="-555.45" font-family="Times,serif" font-size="14.00">from_file(file: Path): &#39;ThumbnailDownloader&#39;</text>
<text text-anchor="start" x="142.62" y="-541.45" font-family="Times,serif" font-style="italic" font-size="14.00">from_url</text>
<text text-anchor="start" x="190.62" y="-541.45" font-family="Times,serif" font-size="14.00">(url)</text>
<text text-anchor="start" x="142.62" y="-527.45" font-family="Times,serif" font-size="14.00">get_uuid(inventory: Inventory): UUID</text>
<text text-anchor="start" x="142.62" y="-513.45" font-family="Times,serif" font-size="14.00">thumbnail(inventory: Inventory, page: Page): Path</text>
<text text-anchor="start" x="142.62" y="-499.45" font-family="Times,serif" font-size="14.00">thumbnail_url(inventory: Inventory, page: Page): str</text>
</g>
<!-- document_segmentation.pagexml.datamodel.inventory.ThumbnailDownloader&#45;&gt;document_segmentation.model.page_sequence_tagger.PageSequenceTagger -->
<g id="edge16" class="edge">
<title>document_segmentation.pagexml.datamodel.inventory.ThumbnailDownloader&#45;&gt;document_segmentation.model.page_sequence_tagger.PageSequenceTagger</title>
<path fill="none" stroke="black" d="M285.12,-610.48C285.12,-660.99 285.12,-734.28 285.12,-785.97"/>
<polygon fill="none" stroke="black" points="285.13,-786.04 289.13,-792.04 285.13,-798.04 281.13,-792.04 285.13,-786.04"/>
<text text-anchor="middle" x="351.5" y="-721.95" font-family="Times,serif" font-size="14.00" fill="green">_thumbnail_downloader</text>
</g>
</g>
</svg>
