<?xml version="1.0" encoding="UTF-8" standalone="no"?>
<!DOCTYPE svg PUBLIC "-//W3C//DTD SVG 1.1//EN"
 "http://www.w3.org/Graphics/SVG/1.1/DTD/svg11.dtd">
<!-- Generated by graphviz version 9.0.0 (20230911.1827)
 -->
<!-- Title: classes Pages: 1 -->
<svg width="4530pt" height="1327pt"
 viewBox="0.00 0.00 4530.25 1326.50" xmlns="http://www.w3.org/2000/svg" xmlns:xlink="http://www.w3.org/1999/xlink">
<g id="graph0" class="graph" transform="scale(1 1) rotate(0) translate(4 1322.5)">
<title>classes</title>
<polygon fill="white" stroke="none" points="-4,4 -4,-1322.5 4526.25,-1322.5 4526.25,4 -4,4"/>
<!-- document_segmentation.model.page_learner.AbstractPageLearner -->
<g id="node1" class="node">
<title>document_segmentation.model.page_learner.AbstractPageLearner</title>
<polygon fill="antiquewhite" stroke="antiquewhite" points="668.5,-1005.5 668.5,-1214.5 1160.75,-1214.5 1160.75,-1005.5 668.5,-1005.5"/>
<text text-anchor="start" x="857.62" y="-1197.2" font-family="Times,serif" font-size="14.00">AbstractPageLearner</text>
<polyline fill="none" stroke="antiquewhite" points="668.5,-1190 1160.75,-1190"/>
<text text-anchor="start" x="850.12" y="-1172.7" font-family="Times,serif" font-size="14.00">wandb_run</text>
<text text-anchor="start" x="850.12" y="-1156.2" font-family="Times,serif" font-size="14.00">wandb_run : NoneType</text>
<polyline fill="none" stroke="antiquewhite" points="668.5,-1149 1160.75,-1149"/>
<text text-anchor="start" x="676.5" y="-1132.7" font-family="Times,serif" font-size="14.00">eval_(docs: list[Any], name: str): tuple[Metric, Metric, Metric, Metric, pd.DataFrame]</text>
<text text-anchor="start" x="676.5" y="-1118.7" font-family="Times,serif" font-size="14.00">forward(pages: list[Page]): torch.Tensor</text>
<text text-anchor="start" x="676.5" y="-1104.7" font-family="Times,serif" font-size="14.00">load(path: Path): None</text>
<text text-anchor="start" x="676.5" y="-1090.7" font-family="Times,serif" font-style="italic" font-size="14.00">predict</text>
<text text-anchor="start" x="714.75" y="-1090.7" font-family="Times,serif" font-size="14.00">(data): pd.DataFrame</text>
<text text-anchor="start" x="794.25" y="-1076.7" font-family="Times,serif" font-size="14.00">total_class_weights(docs: Iterable[Inventory</text>
<polyline fill="none" stroke="antiquewhite" points="668.5,-1071 1160.75,-1071"/>
<text text-anchor="start" x="820.5" y="-1053.7" font-family="Times,serif" font-size="14.00">Document]): list[float]</text>
<text text-anchor="start" x="820.5" y="-1037.2" font-family="Times,serif" font-size="14.00">train_(training_data: list[Inventory</text>
<polyline fill="none" stroke="antiquewhite" points="668.5,-1030 1160.75,-1030"/>
<text text-anchor="start" x="796.5" y="-1012.7" font-family="Times,serif" font-size="14.00">Document], validation_data): dict[str, Any]</text>
</g>
<!-- document_segmentation.model.device_module.DeviceModule -->
<g id="node2" class="node">
<title>document_segmentation.model.device_module.DeviceModule</title>
<polygon fill="antiquewhite" stroke="antiquewhite" points="459.5,-1252.5 459.5,-1318 717.75,-1318 717.75,-1252.5 459.5,-1252.5"/>
<text text-anchor="start" x="548.12" y="-1300.7" font-family="Times,serif" font-size="14.00">DeviceModule</text>
<polyline fill="none" stroke="antiquewhite" points="459.5,-1293.5 717.75,-1293.5"/>
<polyline fill="none" stroke="antiquewhite" points="459.5,-1293.5 717.75,-1293.5"/>
<text text-anchor="start" x="467.5" y="-1276.2" font-family="Times,serif" font-size="14.00">get_device(backends: list[ModuleType]): str</text>
<text text-anchor="start" x="467.5" y="-1259.7" font-family="Times,serif" font-size="14.00">to_device(device: Optional[str])</text>
</g>
<!-- document_segmentation.model.page_learner.AbstractPageLearner&#45;&gt;document_segmentation.model.device_module.DeviceModule -->
<g id="edge3" class="edge">
<title>document_segmentation.model.page_learner.AbstractPageLearner&#45;&gt;document_segmentation.model.device_module.DeviceModule</title>
<path fill="none" stroke="black" d="M719.34,-1214.78C697.95,-1226.15 677.32,-1237.11 659.03,-1246.83"/>
<polygon fill="none" stroke="black" points="657.64,-1243.61 650.45,-1251.39 660.93,-1249.79 657.64,-1243.61"/>
</g>
<!-- document_segmentation.pagexml.datamodel.document.Document -->
<g id="node3" class="node">
<title>document_segmentation.pagexml.datamodel.document.Document</title>
<polygon fill="aquamarine" stroke="aquamarine" points="1021.75,-672 1021.75,-795 1263.5,-795 1263.5,-672 1021.75,-672"/>
<text text-anchor="start" x="1114.12" y="-777.7" font-family="Times,serif" font-size="14.00">Document</text>
<polyline fill="none" stroke="aquamarine" points="1021.75,-770.5 1263.5,-770.5"/>
<text text-anchor="start" x="1029.75" y="-753.2" font-family="Times,serif" font-size="14.00">label</text>
<text text-anchor="start" x="1029.75" y="-736.7" font-family="Times,serif" font-size="14.00">pages : Annotated[list[Page], MinLen(1)]</text>
<polyline fill="none" stroke="aquamarine" points="1021.75,-729.5 1263.5,-729.5"/>
<text text-anchor="start" x="1066.88" y="-712.2" font-family="Times,serif" font-size="14.00">class_counts()</text>
<text text-anchor="start" x="1066.88" y="-695.7" font-family="Times,serif" font-size="14.00">label_tensor(): torch.Tensor</text>
<text text-anchor="start" x="1066.88" y="-679.2" font-family="Times,serif" font-size="14.00">labels()</text>
</g>
<!-- document_segmentation.model.document_classifier.DocumentClassifier -->
<g id="node4" class="node">
<title>document_segmentation.model.document_classifier.DocumentClassifier</title>
<polygon fill="antiquewhite" stroke="antiquewhite" points="737.38,-709 737.38,-758 1003.88,-758 1003.88,-709 737.38,-709"/>
<text text-anchor="start" x="816.25" y="-740.7" font-family="Times,serif" font-size="14.00">DocumentClassifier</text>
<polyline fill="none" stroke="antiquewhite" points="737.38,-733.5 1003.88,-733.5"/>
<polyline fill="none" stroke="antiquewhite" points="737.38,-733.5 1003.88,-733.5"/>
<text text-anchor="start" x="745.38" y="-716.2" font-family="Times,serif" font-size="14.00">predict(document: Document): pd.DataFrame</text>
</g>
<!-- document_segmentation.model.document_classifier.DocumentClassifier&#45;&gt;document_segmentation.model.page_learner.AbstractPageLearner -->
<g id="edge1" class="edge">
<title>document_segmentation.model.document_classifier.DocumentClassifier&#45;&gt;document_segmentation.model.page_learner.AbstractPageLearner</title>
<path fill="none" stroke="black" d="M873.44,-758.5C878.92,-805.11 891.32,-910.61 901.09,-993.76"/>
<polygon fill="none" stroke="black" points="897.6,-994.05 902.24,-1003.58 904.55,-993.24 897.6,-994.05"/>
</g>
<!-- document_segmentation.pagexml.annotations.generale_missiven.GeneraleMissiven -->
<g id="node5" class="node">
<title>document_segmentation.pagexml.annotations.generale_missiven.GeneraleMissiven</title>
<polygon fill="aquamarine" stroke="aquamarine" points="2670.12,-709 2670.12,-758 2785.12,-758 2785.12,-709 2670.12,-709"/>
<text text-anchor="start" x="2678.12" y="-740.7" font-family="Times,serif" font-size="14.00">GeneraleMissiven</text>
<polyline fill="none" stroke="aquamarine" points="2670.12,-733.5 2785.12,-733.5"/>
<polyline fill="none" stroke="aquamarine" points="2670.12,-733.5 2785.12,-733.5"/>
<text text-anchor="start" x="2725.75" y="-716.2" font-family="Times,serif" font-size="14.00"> </text>
</g>
<!-- document_segmentation.pagexml.annotations.sheet.Sheet -->
<g id="node20" class="node">
<title>document_segmentation.pagexml.annotations.sheet.Sheet</title>
<polygon fill="aquamarine" stroke="aquamarine" points="2720.25,-1036 2720.25,-1184 3193,-1184 3193,-1036 2720.25,-1036"/>
<text text-anchor="start" x="2941.62" y="-1166.7" font-family="Times,serif" font-size="14.00">Sheet</text>
<polyline fill="none" stroke="aquamarine" points="2720.25,-1159.5 3193,-1159.5"/>
<polyline fill="none" stroke="aquamarine" points="2720.25,-1159.5 3193,-1159.5"/>
<text text-anchor="start" x="2728.25" y="-1142.2" font-family="Times,serif" font-size="14.00">all_annotated_inventories(n: Optional[int]): Iterable[&#39;Inventory&#39;]</text>
<text text-anchor="start" x="2728.25" y="-1125.7" font-family="Times,serif" font-size="14.00">annotate_inventory(inventory: Inventory): Inventory</text>
<text text-anchor="start" x="2728.25" y="-1109.2" font-family="Times,serif" font-size="14.00">annotated_rows(inventory: Inventory): pd.DataFrame</text>
<text text-anchor="start" x="2728.25" y="-1092.7" font-family="Times,serif" font-size="14.00">download_inventories()</text>
<text text-anchor="start" x="2728.25" y="-1076.2" font-family="Times,serif" font-size="14.00">inventories(): Iterable[Inventory]</text>
<text text-anchor="start" x="2728.25" y="-1059.7" font-family="Times,serif" font-size="14.00">inventory_numbers(): Iterable[tuple[int, str]]</text>
<text text-anchor="start" x="2728.25" y="-1043.2" font-family="Times,serif" font-size="14.00">preprocess(inventory: Inventory, min_region_text_length, max_size: int): Inventory</text>
</g>
<!-- document_segmentation.pagexml.annotations.generale_missiven.GeneraleMissiven&#45;&gt;document_segmentation.pagexml.annotations.sheet.Sheet -->
<g id="edge8" class="edge">
<title>document_segmentation.pagexml.annotations.generale_missiven.GeneraleMissiven&#45;&gt;document_segmentation.pagexml.annotations.sheet.Sheet</title>
<path fill="none" stroke="black" d="M2736.98,-758.27C2748.76,-787.29 2770.28,-837.49 2793.62,-878 2823.2,-929.32 2861.11,-983.58 2892.92,-1026.61"/>
<polygon fill="none" stroke="black" points="2889.94,-1028.46 2898.71,-1034.4 2895.56,-1024.29 2889.94,-1028.46"/>
</g>
<!-- document_segmentation.pagexml.datamodel.inventory.Inventory -->
<g id="node6" class="node">
<title>document_segmentation.pagexml.datamodel.inventory.Inventory</title>
<polygon fill="aquamarine" stroke="aquamarine" points="3080.12,-0.5 3080.12,-536 3483.12,-536 3483.12,-0.5 3080.12,-0.5"/>
<text text-anchor="start" x="3255.38" y="-518.7" font-family="Times,serif" font-size="14.00">Inventory</text>
<polyline fill="none" stroke="aquamarine" points="3080.12,-511.5 3483.12,-511.5"/>
<text text-anchor="start" x="3229.5" y="-494.2" font-family="Times,serif" font-size="14.00">inv_nr</text>
<text text-anchor="start" x="3229.5" y="-477.7" font-family="Times,serif" font-size="14.00">inventory_part : str</text>
<text text-anchor="start" x="3229.5" y="-461.2" font-family="Times,serif" font-size="14.00">pages</text>
<text text-anchor="start" x="3229.5" y="-444.7" font-family="Times,serif" font-size="14.00">pages : list[Page]</text>
<polyline fill="none" stroke="aquamarine" points="3080.12,-437.5 3483.12,-437.5"/>
<text text-anchor="start" x="3088.12" y="-420.2" font-family="Times,serif" font-size="14.00">annotate_scan(scan_nr: int, label: SequenceLabel)</text>
<text text-anchor="start" x="3088.12" y="-403.7" font-family="Times,serif" font-size="14.00">class_counts(): Counter[SequenceLabel]</text>
<text text-anchor="start" x="3088.12" y="-387.2" font-family="Times,serif" font-size="14.00">class_weights(): list[float]</text>
<text text-anchor="start" x="3088.12" y="-370.7" font-family="Times,serif" font-size="14.00">download(inv_nr: int, inventory_part: str): &#39;Inventory&#39;</text>
<text text-anchor="start" x="3088.12" y="-354.2" font-family="Times,serif" font-size="14.00">empty_unlabelled(): &#39;Inventory&#39;</text>
<text text-anchor="start" x="3088.12" y="-337.7" font-family="Times,serif" font-size="14.00">from_file(file: Path): &#39;Inventory&#39;</text>
<text text-anchor="start" x="3088.12" y="-321.2" font-family="Times,serif" font-size="14.00">full_inv_nr(): str</text>
<text text-anchor="start" x="3088.12" y="-304.7" font-family="Times,serif" font-size="14.00">get_documents(): list[list[Page]]</text>
<text text-anchor="start" x="3088.12" y="-288.2" font-family="Times,serif" font-size="14.00">get_scan(scan_nr: int): tuple[int, Page]</text>
<text text-anchor="start" x="3088.12" y="-271.7" font-family="Times,serif" font-size="14.00">get_scans(start_scan_nr: int, end_scan_nr: int): list[Page]</text>
<text text-anchor="start" x="3088.12" y="-255.2" font-family="Times,serif" font-size="14.00">has_labels(): bool</text>
<text text-anchor="start" x="3088.12" y="-238.7" font-family="Times,serif" font-size="14.00">head(n: int): &#39;Inventory&#39;</text>
<text text-anchor="start" x="3088.12" y="-222.2" font-family="Times,serif" font-size="14.00">label_tensor(): torch.Tensor</text>
<text text-anchor="start" x="3088.12" y="-205.7" font-family="Times,serif" font-size="14.00">labelled(): list[Page]</text>
<text text-anchor="start" x="3088.12" y="-189.2" font-family="Times,serif" font-size="14.00">labelled_inventories(): Iterable[&#39;Inventory&#39;]</text>
<text text-anchor="start" x="3088.12" y="-172.7" font-family="Times,serif" font-size="14.00">labels(): list[SequenceLabel]</text>
<text text-anchor="start" x="3088.12" y="-156.2" font-family="Times,serif" font-size="14.00">link(page: Page): str</text>
<text text-anchor="start" x="3088.12" y="-139.7" font-family="Times,serif" font-size="14.00">load(inv_nr: int, inventory_part: str, inventory_dir: Path)</text>
<text text-anchor="start" x="3088.12" y="-123.2" font-family="Times,serif" font-size="14.00">load_or_download(inv_nr: int, inventory_part: str, inventory_dir: Path)</text>
<text text-anchor="start" x="3088.12" y="-106.7" font-family="Times,serif" font-size="14.00">local_file(inv_nr: int, inventory_part: str, directory: Path): Path</text>
<text text-anchor="start" x="3088.12" y="-90.2" font-family="Times,serif" font-size="14.00">remove_empty_pages(): &#39;Inventory&#39;</text>
<text text-anchor="start" x="3088.12" y="-73.7" font-family="Times,serif" font-size="14.00">remove_scan(scan_nr: int): &#39;Inventory&#39;</text>
<text text-anchor="start" x="3088.12" y="-57.2" font-family="Times,serif" font-size="14.00">remove_short_regions(min_chars: int): &#39;Inventory&#39;</text>
<text text-anchor="start" x="3088.12" y="-40.7" font-family="Times,serif" font-size="14.00">split(max_size): Iterable[&#39;Inventory&#39;]</text>
<text text-anchor="start" x="3088.12" y="-24.2" font-family="Times,serif" font-size="14.00">validate_inv_part(value: str): str</text>
<text text-anchor="start" x="3088.12" y="-7.7" font-family="Times,serif" font-size="14.00">write(target_file: Optional[Path], mode): Path</text>
</g>
<!-- document_segmentation.pagexml.annotations.renate_analysis.RenateAnalysisInv -->
<g id="node18" class="node">
<title>document_segmentation.pagexml.annotations.renate_analysis.RenateAnalysisInv</title>
<polygon fill="aquamarine" stroke="aquamarine" points="3128.88,-692.5 3128.88,-774.5 3434.38,-774.5 3434.38,-692.5 3128.88,-692.5"/>
<text text-anchor="start" x="3230.25" y="-757.2" font-family="Times,serif" font-size="14.00">RenateAnalysisInv</text>
<polyline fill="none" stroke="aquamarine" points="3128.88,-750 3434.38,-750"/>
<polyline fill="none" stroke="aquamarine" points="3128.88,-750 3434.38,-750"/>
<text text-anchor="start" x="3136.88" y="-732.7" font-family="Times,serif" font-size="14.00">annotate_inventory(inventory: Inventory): &#39;Inventory&#39;</text>
<text text-anchor="start" x="3136.88" y="-716.2" font-family="Times,serif" font-size="14.00">inventories(): Iterable[Inventory]</text>
<text text-anchor="start" x="3136.88" y="-699.7" font-family="Times,serif" font-size="14.00">inventory_numbers(): Iterable[tuple[int, str]]</text>
</g>
<!-- document_segmentation.pagexml.datamodel.inventory.Inventory&#45;&gt;document_segmentation.pagexml.annotations.renate_analysis.RenateAnalysisInv -->
<g id="edge16" class="edge">
<title>document_segmentation.pagexml.datamodel.inventory.Inventory&#45;&gt;document_segmentation.pagexml.annotations.renate_analysis.RenateAnalysisInv</title>
<path fill="none" stroke="black" d="M3281.62,-536.38C3281.62,-590.94 3281.62,-642.81 3281.62,-679.49"/>
<polygon fill="black" stroke="black" points="3281.63,-679.39 3285.63,-685.39 3281.63,-691.39 3277.63,-685.39 3281.63,-679.39"/>
<text text-anchor="middle" x="3310.88" y="-557.7" font-family="Times,serif" font-size="14.00" fill="green">_inventory</text>
</g>
<!-- document_segmentation.pagexml.datamodel.label.Label -->
<g id="node7" class="node">
<title>document_segmentation.pagexml.datamodel.label.Label</title>
<polygon fill="aquamarine" stroke="aquamarine" points="1281.88,-688.5 1281.88,-778.5 1533.38,-778.5 1533.38,-688.5 1281.88,-688.5"/>
<text text-anchor="start" x="1392.25" y="-761.2" font-family="Times,serif" font-size="14.00">Label</text>
<polyline fill="none" stroke="aquamarine" points="1281.88,-754 1533.38,-754"/>
<text text-anchor="start" x="1392.62" y="-736.7" font-family="Times,serif" font-size="14.00">name</text>
<polyline fill="none" stroke="aquamarine" points="1281.88,-729.5 1533.38,-729.5"/>
<text text-anchor="start" x="1289.88" y="-712.2" font-family="Times,serif" font-size="14.00">to_list(): list[int]</text>
<text text-anchor="start" x="1289.88" y="-695.7" font-family="Times,serif" font-size="14.00">to_tensor(labels: list[&#39;Label&#39;]): torch.Tensor</text>
</g>
<!-- document_segmentation.pagexml.datamodel.page.Page -->
<g id="node8" class="node">
<title>document_segmentation.pagexml.datamodel.page.Page</title>
<polygon fill="aquamarine" stroke="aquamarine" points="1894.12,-589.5 1894.12,-877.5 2333.12,-877.5 2333.12,-589.5 1894.12,-589.5"/>
<text text-anchor="start" x="2100.5" y="-860.2" font-family="Times,serif" font-size="14.00">Page</text>
<polyline fill="none" stroke="aquamarine" points="1894.12,-853 2333.12,-853"/>
<text text-anchor="start" x="2054.75" y="-835.7" font-family="Times,serif" font-size="14.00">doc_id : Optional[str]</text>
<text text-anchor="start" x="2054.75" y="-819.2" font-family="Times,serif" font-size="14.00">external_ref : str</text>
<text text-anchor="start" x="2054.75" y="-802.7" font-family="Times,serif" font-size="14.00">label</text>
<text text-anchor="start" x="2054.75" y="-786.2" font-family="Times,serif" font-size="14.00">label : OUT</text>
<text text-anchor="start" x="2054.75" y="-769.7" font-family="Times,serif" font-size="14.00">regions : list</text>
<text text-anchor="start" x="2054.75" y="-753.2" font-family="Times,serif" font-size="14.00">regions : list[Region]</text>
<text text-anchor="start" x="2054.75" y="-736.7" font-family="Times,serif" font-size="14.00">scan_nr</text>
<polyline fill="none" stroke="aquamarine" points="1894.12,-729.5 2333.12,-729.5"/>
<text text-anchor="start" x="1902.12" y="-712.2" font-family="Times,serif" font-size="14.00">annotate(label: SequenceLabel): &#39;Page&#39;</text>
<text text-anchor="start" x="1902.12" y="-695.7" font-family="Times,serif" font-size="14.00">empty(): &#39;Page&#39;</text>
<text text-anchor="start" x="1902.12" y="-679.2" font-family="Times,serif" font-size="14.00">enum_from_int(value)</text>
<text text-anchor="start" x="1902.12" y="-662.7" font-family="Times,serif" font-size="14.00">filter_short_regions(min_chars: int): &#39;Page&#39;</text>
<text text-anchor="start" x="1902.12" y="-646.2" font-family="Times,serif" font-size="14.00">from_pagexml(label: SequenceLabel, scan_nr: int, pagexml: PageXMLScan)</text>
<text text-anchor="start" x="1902.12" y="-629.7" font-family="Times,serif" font-size="14.00">guess_doc_id(inv_nr: str): str</text>
<text text-anchor="start" x="1902.12" y="-613.2" font-family="Times,serif" font-size="14.00">is_shorter_than(): bool</text>
<text text-anchor="start" x="1902.12" y="-596.7" font-family="Times,serif" font-size="14.00">text(delimiter: str): str</text>
</g>
<!-- document_segmentation.model.page_embedding.PageEmbedding -->
<g id="node9" class="node">
<title>document_segmentation.model.page_embedding.PageEmbedding</title>
<polygon fill="antiquewhite" stroke="antiquewhite" points="561.75,-688.5 561.75,-778.5 719.5,-778.5 719.5,-688.5 561.75,-688.5"/>
<text text-anchor="start" x="596" y="-761.2" font-family="Times,serif" font-size="14.00">PageEmbedding</text>
<polyline fill="none" stroke="antiquewhite" points="561.75,-754 719.5,-754"/>
<text text-anchor="start" x="596.75" y="-736.7" font-family="Times,serif" font-size="14.00">output_size : int</text>
<text text-anchor="start" x="596.75" y="-720.2" font-family="Times,serif" font-size="14.00">rnn</text>
<polyline fill="none" stroke="antiquewhite" points="561.75,-713 719.5,-713"/>
<text text-anchor="start" x="569.75" y="-695.7" font-family="Times,serif" font-size="14.00">forward(pages: list[Page])</text>
</g>
<!-- document_segmentation.model.page_embedding.PageEmbedding&#45;&gt;document_segmentation.model.page_learner.AbstractPageLearner -->
<g id="edge13" class="edge">
<title>document_segmentation.model.page_embedding.PageEmbedding&#45;&gt;document_segmentation.model.page_learner.AbstractPageLearner</title>
<path fill="none" stroke="black" d="M661.47,-778.85C687.15,-831.23 733.93,-919.72 786.88,-987 789.14,-989.88 791.48,-992.76 793.86,-995.63"/>
<polygon fill="black" stroke="black" points="793.79,-995.54 800.73,-997.49 801.6,-1004.65 794.66,-1002.7 793.79,-995.54"/>
<text text-anchor="middle" x="837.5" y="-936.45" font-family="Times,serif" font-size="14.00" fill="green">_page_embedding</text>
</g>
<!-- document_segmentation.model.page_embedding.PageEmbedding&#45;&gt;document_segmentation.model.device_module.DeviceModule -->
<g id="edge2" class="edge">
<title>document_segmentation.model.page_embedding.PageEmbedding&#45;&gt;document_segmentation.model.device_module.DeviceModule</title>
<path fill="none" stroke="black" d="M639.1,-778.81C637.15,-829.28 633.2,-914.2 626.62,-987 616.67,-1097.19 610.15,-1124.32 595.62,-1234 595.33,-1236.19 595.03,-1238.44 594.73,-1240.71"/>
<polygon fill="none" stroke="black" points="591.26,-1240.21 593.38,-1250.59 598.2,-1241.16 591.26,-1240.21"/>
</g>
<!-- document_segmentation.model.page_sequence_tagger.PageSequenceTagger -->
<g id="node10" class="node">
<title>document_segmentation.model.page_sequence_tagger.PageSequenceTagger</title>
<polygon fill="antiquewhite" stroke="antiquewhite" points="1551.12,-700.75 1551.12,-766.25 1876.12,-766.25 1876.12,-700.75 1551.12,-700.75"/>
<text text-anchor="start" x="1655.5" y="-748.95" font-family="Times,serif" font-size="14.00">PageSequenceTagger</text>
<polyline fill="none" stroke="antiquewhite" points="1551.12,-741.75 1876.12,-741.75"/>
<polyline fill="none" stroke="antiquewhite" points="1551.12,-741.75 1876.12,-741.75"/>
<text text-anchor="start" x="1559.12" y="-724.45" font-family="Times,serif" font-size="14.00">predict(inventory: Inventory): pd.DataFrame</text>
<text text-anchor="start" x="1559.12" y="-707.95" font-family="Times,serif" font-size="14.00">predict_documents(inventory: Inventory): list[list[Page]]</text>
</g>
<!-- document_segmentation.model.page_sequence_tagger.PageSequenceTagger&#45;&gt;document_segmentation.model.page_learner.AbstractPageLearner -->
<g id="edge4" class="edge">
<title>document_segmentation.model.page_sequence_tagger.PageSequenceTagger&#45;&gt;document_segmentation.model.page_learner.AbstractPageLearner</title>
<path fill="none" stroke="black" d="M1682.46,-766.49C1649.99,-798.32 1596.44,-846.81 1542.62,-878 1427.38,-944.81 1289.37,-998.11 1172.12,-1036.61"/>
<polygon fill="none" stroke="black" points="1171.06,-1033.27 1162.64,-1039.7 1173.23,-1039.92 1171.06,-1033.27"/>
</g>
<!-- document_segmentation.pagexml.pagexml.PageXML -->
<g id="node11" class="node">
<title>document_segmentation.pagexml.pagexml.PageXML</title>
<polygon fill="aquamarine" stroke="aquamarine" points="3501.38,-227.25 3501.38,-309.25 3857.88,-309.25 3857.88,-227.25 3501.38,-227.25"/>
<text text-anchor="start" x="3651.12" y="-291.95" font-family="Times,serif" font-size="14.00">PageXML</text>
<polyline fill="none" stroke="aquamarine" points="3501.38,-284.75 3857.88,-284.75"/>
<polyline fill="none" stroke="aquamarine" points="3501.38,-284.75 3857.88,-284.75"/>
<text text-anchor="start" x="3509.38" y="-267.45" font-family="Times,serif" font-size="14.00">document_type(): list[str]</text>
<text text-anchor="start" x="3509.38" y="-250.95" font-family="Times,serif" font-size="14.00">get_regions_from_top(): list[PageXMLTextRegion]</text>
<text text-anchor="start" x="3509.38" y="-234.45" font-family="Times,serif" font-size="14.00">top_paragraph(region_types): Optional[PageXMLTextRegion]</text>
</g>
<!-- document_segmentation.pagexml.datamodel.region.Region -->
<g id="node12" class="node">
<title>document_segmentation.pagexml.datamodel.region.Region</title>
<polygon fill="aquamarine" stroke="aquamarine" points="3876.12,-206.75 3876.12,-329.75 4195.12,-329.75 4195.12,-206.75 3876.12,-206.75"/>
<text text-anchor="start" x="4016.12" y="-312.45" font-family="Times,serif" font-size="14.00">Region</text>
<polyline fill="none" stroke="aquamarine" points="3876.12,-305.25 4195.12,-305.25"/>
<text text-anchor="start" x="3935.5" y="-287.95" font-family="Times,serif" font-size="14.00">coordinates : tuple[tuple[int, int], ...]</text>
<text text-anchor="start" x="3935.5" y="-271.45" font-family="Times,serif" font-size="14.00">id : str</text>
<text text-anchor="start" x="3935.5" y="-254.95" font-family="Times,serif" font-size="14.00">lines : tuple[str, ...]</text>
<text text-anchor="start" x="3935.5" y="-238.45" font-family="Times,serif" font-size="14.00">types : tuple[RegionType, ...]</text>
<polyline fill="none" stroke="aquamarine" points="3876.12,-231.25 4195.12,-231.25"/>
<text text-anchor="start" x="3884.12" y="-213.95" font-family="Times,serif" font-size="14.00">from_pagexml(region: PageXMLTextRegion): &#39;Region&#39;</text>
</g>
<!-- document_segmentation.model.region_classifier.RegionClassifier -->
<g id="node13" class="node">
<title>document_segmentation.model.region_classifier.RegionClassifier</title>
<polygon fill="antiquewhite" stroke="antiquewhite" points="0,-908.75 0,-974.25 441.25,-974.25 441.25,-908.75 0,-908.75"/>
<text text-anchor="start" x="175.25" y="-956.95" font-family="Times,serif" font-size="14.00">RegionClassifier</text>
<polyline fill="none" stroke="antiquewhite" points="0,-949.75 441.25,-949.75"/>
<polyline fill="none" stroke="antiquewhite" points="0,-949.75 441.25,-949.75"/>
<text text-anchor="start" x="8" y="-932.45" font-family="Times,serif" font-size="14.00">forward(regions: List[Region]): torch.Tensor</text>
<text text-anchor="start" x="8" y="-915.95" font-family="Times,serif" font-size="14.00">train_(dataset: RegionDataset, epochs: int, batch_size: int, weights: list[float])</text>
</g>
<!-- document_segmentation.model.region_classifier.RegionClassifier&#45;&gt;document_segmentation.model.device_module.DeviceModule -->
<g id="edge5" class="edge">
<title>document_segmentation.model.region_classifier.RegionClassifier&#45;&gt;document_segmentation.model.device_module.DeviceModule</title>
<path fill="none" stroke="black" d="M255.25,-974.65C322.87,-1037.45 472.31,-1176.23 545.93,-1244.6"/>
<polygon fill="none" stroke="black" points="543.28,-1246.91 552.99,-1251.15 548.04,-1241.79 543.28,-1246.91"/>
</g>
<!-- document_segmentation.model.region_embedding.RegionEmbedding -->
<g id="node14" class="node">
<title>document_segmentation.model.region_embedding.RegionEmbedding</title>
<polygon fill="antiquewhite" stroke="antiquewhite" points="445.88,-896.5 445.88,-986.5 625.38,-986.5 625.38,-896.5 445.88,-896.5"/>
<text text-anchor="start" x="484.62" y="-969.2" font-family="Times,serif" font-size="14.00">RegionEmbedding</text>
<polyline fill="none" stroke="antiquewhite" points="445.88,-962 625.38,-962"/>
<text text-anchor="start" x="477.88" y="-944.7" font-family="Times,serif" font-size="14.00">output_size : int</text>
<text text-anchor="start" x="477.88" y="-928.2" font-family="Times,serif" font-size="14.00">text_embedding_size</text>
<polyline fill="none" stroke="antiquewhite" points="445.88,-921 625.38,-921"/>
<text text-anchor="start" x="453.88" y="-903.7" font-family="Times,serif" font-size="14.00">forward(regions: list[Region])</text>
</g>
<!-- document_segmentation.model.region_embedding.RegionEmbedding&#45;&gt;document_segmentation.model.device_module.DeviceModule -->
<g id="edge6" class="edge">
<title>document_segmentation.model.region_embedding.RegionEmbedding&#45;&gt;document_segmentation.model.device_module.DeviceModule</title>
<path fill="none" stroke="black" d="M542.5,-986.83C552.72,-1052.76 571.82,-1175.89 581.94,-1241.12"/>
<polygon fill="none" stroke="black" points="578.43,-1241.38 583.43,-1250.73 585.35,-1240.31 578.43,-1241.38"/>
</g>
<!-- document_segmentation.model.region_embedding.RegionEmbeddingSentenceTransformer -->
<g id="node15" class="node">
<title>document_segmentation.model.region_embedding.RegionEmbeddingSentenceTransformer</title>
<polygon fill="antiquewhite" stroke="antiquewhite" points="416.12,-231.5 416.12,-305 651.12,-305 651.12,-231.5 416.12,-231.5"/>
<text text-anchor="start" x="424.12" y="-287.7" font-family="Times,serif" font-size="14.00">RegionEmbeddingSentenceTransformer</text>
<polyline fill="none" stroke="antiquewhite" points="416.12,-280.5 651.12,-280.5"/>
<text text-anchor="start" x="475.88" y="-263.2" font-family="Times,serif" font-size="14.00">text_embedding_size</text>
<polyline fill="none" stroke="antiquewhite" points="416.12,-256 651.12,-256"/>
<text text-anchor="start" x="531.75" y="-238.7" font-family="Times,serif" font-size="14.00"> </text>
</g>
<!-- document_segmentation.model.region_embedding.RegionEmbeddingSentenceTransformer&#45;&gt;document_segmentation.model.page_embedding.PageEmbedding -->
<g id="edge14" class="edge">
<title>document_segmentation.model.region_embedding.RegionEmbeddingSentenceTransformer&#45;&gt;document_segmentation.model.page_embedding.PageEmbedding</title>
<path fill="none" stroke="black" d="M541.93,-305.21C560.43,-385.29 605.13,-578.82 627.46,-675.52"/>
<polygon fill="black" stroke="black" points="627.49,-675.65 632.74,-680.6 630.19,-687.34 624.95,-682.4 627.49,-675.65"/>
<text text-anchor="middle" x="644.88" y="-557.7" font-family="Times,serif" font-size="14.00" fill="green">_region_model</text>
</g>
<!-- document_segmentation.model.region_embedding.RegionEmbeddingSentenceTransformer&#45;&gt;document_segmentation.model.region_classifier.RegionClassifier -->
<g id="edge15" class="edge">
<title>document_segmentation.model.region_embedding.RegionEmbeddingSentenceTransformer&#45;&gt;document_segmentation.model.region_classifier.RegionClassifier</title>
<path fill="none" stroke="black" d="M516.8,-305.34C463.53,-419.58 298.7,-773.06 240.9,-897.01"/>
<polygon fill="black" stroke="black" points="240.95,-896.92 242.04,-904.05 235.88,-907.79 234.79,-900.67 240.95,-896.92"/>
<text text-anchor="middle" x="452" y="-557.7" font-family="Times,serif" font-size="14.00" fill="green">_region_embedding</text>
</g>
<!-- document_segmentation.model.region_embedding.RegionEmbeddingSentenceTransformer&#45;&gt;document_segmentation.model.region_embedding.RegionEmbedding -->
<g id="edge7" class="edge">
<title>document_segmentation.model.region_embedding.RegionEmbeddingSentenceTransformer&#45;&gt;document_segmentation.model.region_embedding.RegionEmbedding</title>
<path fill="none" stroke="black" d="M533.73,-305.34C534.06,-416.08 535.06,-751.58 535.46,-884.96"/>
<polygon fill="none" stroke="black" points="531.96,-884.59 535.49,-894.58 538.96,-884.57 531.96,-884.59"/>
</g>
<!-- document_segmentation.pagexml.datamodel.region.RegionType -->
<g id="node16" class="node">
<title>document_segmentation.pagexml.datamodel.region.RegionType</title>
<polygon fill="aquamarine" stroke="aquamarine" points="4213,-223.25 4213,-313.25 4522.25,-313.25 4522.25,-223.25 4213,-223.25"/>
<text text-anchor="start" x="4334.25" y="-295.95" font-family="Times,serif" font-size="14.00">RegionType</text>
<polyline fill="none" stroke="aquamarine" points="4213,-288.75 4522.25,-288.75"/>
<text text-anchor="start" x="4352.62" y="-271.45" font-family="Times,serif" font-size="14.00">name</text>
<polyline fill="none" stroke="aquamarine" points="4213,-264.25 4522.25,-264.25"/>
<text text-anchor="start" x="4221" y="-246.95" font-family="Times,serif" font-size="14.00">index(): int</text>
<text text-anchor="start" x="4221" y="-230.45" font-family="Times,serif" font-size="14.00">indices(region_types: Iterable[&#39;RegionType&#39;]): list[int]</text>
</g>
<!-- document_segmentation.pagexml.annotations.renate_analysis.RenateAnalysis -->
<g id="node17" class="node">
<title>document_segmentation.pagexml.annotations.renate_analysis.RenateAnalysis</title>
<polygon fill="aquamarine" stroke="aquamarine" points="2802.75,-700.75 2802.75,-766.25 3110.5,-766.25 3110.5,-700.75 2802.75,-700.75"/>
<text text-anchor="start" x="2914.25" y="-748.95" font-family="Times,serif" font-size="14.00">RenateAnalysis</text>
<polyline fill="none" stroke="aquamarine" points="2802.75,-741.75 3110.5,-741.75"/>
<polyline fill="none" stroke="aquamarine" points="2802.75,-741.75 3110.5,-741.75"/>
<text text-anchor="start" x="2810.75" y="-724.45" font-family="Times,serif" font-size="14.00">annotated_rows(inventory: Inventory): pd.DataFrame</text>
<text text-anchor="start" x="2810.75" y="-707.95" font-family="Times,serif" font-size="14.00">documents(): Iterable[Document]</text>
</g>
<!-- document_segmentation.pagexml.annotations.renate_analysis.RenateAnalysis&#45;&gt;document_segmentation.pagexml.annotations.sheet.Sheet -->
<g id="edge9" class="edge">
<title>document_segmentation.pagexml.annotations.renate_analysis.RenateAnalysis&#45;&gt;document_segmentation.pagexml.annotations.sheet.Sheet</title>
<path fill="none" stroke="black" d="M2956.62,-766.43C2956.62,-823.02 2956.62,-942.66 2956.62,-1024.45"/>
<polygon fill="none" stroke="black" points="2953.13,-1024.22 2956.63,-1034.22 2960.13,-1024.22 2953.13,-1024.22"/>
</g>
<!-- document_segmentation.pagexml.annotations.renate_analysis.RenateAnalysisInv&#45;&gt;document_segmentation.pagexml.annotations.sheet.Sheet -->
<g id="edge10" class="edge">
<title>document_segmentation.pagexml.annotations.renate_analysis.RenateAnalysisInv&#45;&gt;document_segmentation.pagexml.annotations.sheet.Sheet</title>
<path fill="none" stroke="black" d="M3246.54,-774.93C3194.35,-835.06 3095.2,-949.32 3027.52,-1027.3"/>
<polygon fill="none" stroke="black" points="3025.16,-1024.69 3021.25,-1034.54 3030.44,-1029.28 3025.16,-1024.69"/>
</g>
<!-- document_segmentation.pagexml.datamodel.label.SequenceLabel -->
<g id="node19" class="node">
<title>document_segmentation.pagexml.datamodel.label.SequenceLabel</title>
<polygon fill="aquamarine" stroke="aquamarine" points="1781.38,-231.5 1781.38,-305 1879.88,-305 1879.88,-231.5 1781.38,-231.5"/>
<text text-anchor="start" x="1789.38" y="-287.7" font-family="Times,serif" font-size="14.00">SequenceLabel</text>
<polyline fill="none" stroke="aquamarine" points="1781.38,-280.5 1879.88,-280.5"/>
<text text-anchor="start" x="1815.62" y="-263.2" font-family="Times,serif" font-size="14.00">name</text>
<polyline fill="none" stroke="aquamarine" points="1781.38,-256 1879.88,-256"/>
<text text-anchor="start" x="1828.75" y="-238.7" font-family="Times,serif" font-size="14.00"> </text>
</g>
<!-- document_segmentation.pagexml.datamodel.label.SequenceLabel&#45;&gt;document_segmentation.pagexml.datamodel.label.Label -->
<g id="edge11" class="edge">
<title>document_segmentation.pagexml.datamodel.label.SequenceLabel&#45;&gt;document_segmentation.pagexml.datamodel.label.Label</title>
<path fill="none" stroke="black" d="M1797.78,-305.21C1723.55,-386.52 1542.51,-584.78 1455.66,-679.9"/>
<polygon fill="none" stroke="black" points="1453.24,-677.36 1449.08,-687.1 1458.4,-682.08 1453.24,-677.36"/>
</g>
<!-- document_segmentation.pagexml.datamodel.label.SequenceLabel&#45;&gt;document_segmentation.pagexml.datamodel.page.Page -->
<g id="edge18" class="edge">
<title>document_segmentation.pagexml.datamodel.label.SequenceLabel&#45;&gt;document_segmentation.pagexml.datamodel.page.Page</title>
<path fill="none" stroke="black" d="M1852.6,-305.21C1888.05,-363.25 1959.9,-480.86 2019.25,-578.02"/>
<polygon fill="black" stroke="black" points="2019.33,-578.15 2025.87,-581.19 2025.59,-588.39 2019.05,-585.36 2019.33,-578.15"/>
<text text-anchor="middle" x="2027.75" y="-557.7" font-family="Times,serif" font-size="14.00" fill="green">label</text>
</g>
<!-- document_segmentation.pagexml.datamodel.label.SequenceLabel&#45;&gt;document_segmentation.pagexml.datamodel.page.Page -->
<g id="edge22" class="edge">
<title>document_segmentation.pagexml.datamodel.label.SequenceLabel&#45;&gt;document_segmentation.pagexml.datamodel.page.Page</title>
<path fill="none" stroke="black" d="M1844.49,-305.19C1867.68,-363.39 1917.64,-480.81 1976.38,-571 1977.97,-573.44 1979.59,-575.89 1981.24,-578.34"/>
<polygon fill="none" stroke="black" points="1981.32,-578.46 1988.03,-581.11 1988.15,-588.32 1981.45,-585.67 1981.32,-578.46"/>
<text text-anchor="middle" x="1989.75" y="-557.7" font-family="Times,serif" font-size="14.00" fill="green">label</text>
</g>
<!-- document_segmentation.pagexml.datamodel.label.SequenceLabel&#45;&gt;document_segmentation.model.page_sequence_tagger.PageSequenceTagger -->
<g id="edge17" class="edge">
<title>document_segmentation.pagexml.datamodel.label.SequenceLabel&#45;&gt;document_segmentation.model.page_sequence_tagger.PageSequenceTagger</title>
<path fill="none" stroke="black" d="M1821.54,-305.21C1800.41,-388.88 1748,-596.39 1724.88,-687.92"/>
<polygon fill="black" stroke="black" points="1724.92,-687.79 1727.33,-694.58 1721.98,-699.42 1719.57,-692.63 1724.92,-687.79"/>
<text text-anchor="middle" x="1804" y="-557.7" font-family="Times,serif" font-size="14.00" fill="green">_LABEL_TYPE</text>
</g>
<!-- document_segmentation.pagexml.datamodel.label.Tanap -->
<g id="node21" class="node">
<title>document_segmentation.pagexml.datamodel.label.Tanap</title>
<polygon fill="aquamarine" stroke="aquamarine" points="1115.62,-231.5 1115.62,-305 1169.62,-305 1169.62,-231.5 1115.62,-231.5"/>
<text text-anchor="start" x="1125.62" y="-287.7" font-family="Times,serif" font-size="14.00">Tanap</text>
<polyline fill="none" stroke="aquamarine" points="1115.62,-280.5 1169.38,-280.5"/>
<text text-anchor="start" x="1127.5" y="-263.2" font-family="Times,serif" font-size="14.00">name</text>
<polyline fill="none" stroke="aquamarine" points="1115.62,-256 1169.38,-256"/>
<text text-anchor="start" x="1140.62" y="-238.7" font-family="Times,serif" font-size="14.00"> </text>
</g>
<!-- document_segmentation.pagexml.datamodel.label.Tanap&#45;&gt;document_segmentation.pagexml.datamodel.document.Document -->
<g id="edge20" class="edge">
<title>document_segmentation.pagexml.datamodel.label.Tanap&#45;&gt;document_segmentation.pagexml.datamodel.document.Document</title>
<path fill="none" stroke="black" d="M1142.62,-305.21C1142.62,-380.98 1142.62,-558.28 1142.62,-659.07"/>
<polygon fill="black" stroke="black" points="1142.63,-658.97 1146.63,-664.97 1142.63,-670.97 1138.63,-664.97 1142.63,-658.97"/>
<text text-anchor="middle" x="1155.75" y="-557.7" font-family="Times,serif" font-size="14.00" fill="green">label</text>
</g>
<!-- document_segmentation.pagexml.datamodel.label.Tanap&#45;&gt;document_segmentation.model.document_classifier.DocumentClassifier -->
<g id="edge19" class="edge">
<title>document_segmentation.pagexml.datamodel.label.Tanap&#45;&gt;document_segmentation.model.document_classifier.DocumentClassifier</title>
<path fill="none" stroke="black" d="M1121.51,-305.21C1070.6,-391.91 941.62,-611.59 891.24,-697.39"/>
<polygon fill="black" stroke="black" points="891.2,-697.46 891.61,-704.66 885.12,-707.81 884.71,-700.61 891.2,-697.46"/>
<text text-anchor="middle" x="1020" y="-557.7" font-family="Times,serif" font-size="14.00" fill="green">_LABEL_TYPE</text>
</g>
<!-- document_segmentation.pagexml.datamodel.label.Tanap&#45;&gt;document_segmentation.pagexml.datamodel.label.Label -->
<g id="edge12" class="edge">
<title>document_segmentation.pagexml.datamodel.label.Tanap&#45;&gt;document_segmentation.pagexml.datamodel.label.Label</title>
<path fill="none" stroke="black" d="M1163.2,-305.21C1209.47,-386.11 1321.98,-582.79 1376.71,-678.45"/>
<polygon fill="none" stroke="black" points="1373.54,-679.97 1381.54,-686.91 1379.62,-676.49 1373.54,-679.97"/>
</g>
<!-- document_segmentation.pagexml.datamodel.inventory.ThumbnailDownloader -->
<g id="node22" class="node">
<title>document_segmentation.pagexml.datamodel.inventory.ThumbnailDownloader</title>
<polygon fill="aquamarine" stroke="aquamarine" points="2351.12,-675.25 2351.12,-791.75 2652.12,-791.75 2652.12,-675.25 2351.12,-675.25"/>
<text text-anchor="start" x="2438.25" y="-774.45" font-family="Times,serif" font-size="14.00">ThumbnailDownloader</text>
<polyline fill="none" stroke="aquamarine" points="2351.12,-767.25 2652.12,-767.25"/>
<polyline fill="none" stroke="aquamarine" points="2351.12,-767.25 2652.12,-767.25"/>
<text text-anchor="start" x="2359.12" y="-750.95" font-family="Times,serif" font-size="14.00">download(inventory: Inventory, page: Page): Path</text>
<text text-anchor="start" x="2359.12" y="-736.95" font-family="Times,serif" font-size="14.00">from_file(file: Path): &#39;ThumbnailDownloader&#39;</text>
<text text-anchor="start" x="2359.12" y="-722.95" font-family="Times,serif" font-style="italic" font-size="14.00">from_url</text>
<text text-anchor="start" x="2407.12" y="-722.95" font-family="Times,serif" font-size="14.00">(url)</text>
<text text-anchor="start" x="2359.12" y="-708.95" font-family="Times,serif" font-size="14.00">get_uuid(inventory: Inventory): UUID</text>
<text text-anchor="start" x="2359.12" y="-694.95" font-family="Times,serif" font-size="14.00">thumbnail(inventory: Inventory, page: Page): Path</text>
<text text-anchor="start" x="2359.12" y="-680.95" font-family="Times,serif" font-size="14.00">thumbnail_url(inventory: Inventory, page: Page): str</text>
</g>
<!-- document_segmentation.pagexml.datamodel.inventory.ThumbnailDownloader&#45;&gt;document_segmentation.model.page_learner.AbstractPageLearner -->
<g id="edge21" class="edge">
<title>document_segmentation.pagexml.datamodel.inventory.ThumbnailDownloader&#45;&gt;document_segmentation.model.page_learner.AbstractPageLearner</title>
<path fill="none" stroke="black" d="M2452.57,-792.25C2423.47,-822.65 2384.04,-857.73 2341.62,-878 2139.85,-974.42 1527.43,-1048.55 1173.9,-1084.69"/>
<polygon fill="none" stroke="black" points="1174.01,-1084.68 1168.45,-1089.26 1162.07,-1085.89 1167.64,-1081.3 1174.01,-1084.68"/>
<text text-anchor="middle" x="2348" y="-936.45" font-family="Times,serif" font-size="14.00" fill="green">_thumbnail_downloader</text>
</g>
</g>
</svg>
