<?xml version="1.0" encoding="UTF-8" standalone="no"?>
<!DOCTYPE svg PUBLIC "-//W3C//DTD SVG 1.1//EN"
 "http://www.w3.org/Graphics/SVG/1.1/DTD/svg11.dtd">
<!-- Generated by graphviz version 9.0.0 (20230911.1827)
 -->
<!-- Title: classes Pages: 1 -->
<svg width="3192pt" height="1274pt"
 viewBox="0.00 0.00 3192.25 1273.50" xmlns="http://www.w3.org/2000/svg" xmlns:xlink="http://www.w3.org/1999/xlink">
<g id="graph0" class="graph" transform="scale(1 1) rotate(0) translate(4 1269.5)">
<title>classes</title>
<polygon fill="white" stroke="none" points="-4,4 -4,-1269.5 3188.25,-1269.5 3188.25,4 -4,4"/>
<!-- document_segmentation.model.device_module.DeviceModule -->
<g id="node1" class="node">
<title>document_segmentation.model.device_module.DeviceModule</title>
<polygon fill="antiquewhite" stroke="antiquewhite" points="766.5,-1199.5 766.5,-1265 1024.75,-1265 1024.75,-1199.5 766.5,-1199.5"/>
<text text-anchor="start" x="855.12" y="-1247.7" font-family="Times,serif" font-size="14.00">DeviceModule</text>
<polyline fill="none" stroke="antiquewhite" points="766.5,-1240.5 1024.75,-1240.5"/>
<polyline fill="none" stroke="antiquewhite" points="766.5,-1240.5 1024.75,-1240.5"/>
<text text-anchor="start" x="774.5" y="-1223.2" font-family="Times,serif" font-size="14.00">get_device(backends: list[ModuleType]): str</text>
<text text-anchor="start" x="774.5" y="-1206.7" font-family="Times,serif" font-size="14.00">to_device(device: Optional[str])</text>
</g>
<!-- document_segmentation.pagexml.annotations.generale_missiven.GeneraleMissiven -->
<g id="node2" class="node">
<title>document_segmentation.pagexml.annotations.generale_missiven.GeneraleMissiven</title>
<polygon fill="aquamarine" stroke="aquamarine" points="1324.12,-692.5 1324.12,-741.5 1439.12,-741.5 1439.12,-692.5 1324.12,-692.5"/>
<text text-anchor="start" x="1332.12" y="-724.2" font-family="Times,serif" font-size="14.00">GeneraleMissiven</text>
<polyline fill="none" stroke="aquamarine" points="1324.12,-717 1439.12,-717"/>
<polyline fill="none" stroke="aquamarine" points="1324.12,-717 1439.12,-717"/>
<text text-anchor="start" x="1379.75" y="-699.7" font-family="Times,serif" font-size="14.00"> </text>
</g>
<!-- document_segmentation.pagexml.annotations.sheet.Sheet -->
<g id="node17" class="node">
<title>document_segmentation.pagexml.annotations.sheet.Sheet</title>
<polygon fill="aquamarine" stroke="aquamarine" points="1271.25,-1009.5 1271.25,-1141 1744,-1141 1744,-1009.5 1271.25,-1009.5"/>
<text text-anchor="start" x="1492.62" y="-1123.7" font-family="Times,serif" font-size="14.00">Sheet</text>
<polyline fill="none" stroke="aquamarine" points="1271.25,-1116.5 1744,-1116.5"/>
<polyline fill="none" stroke="aquamarine" points="1271.25,-1116.5 1744,-1116.5"/>
<text text-anchor="start" x="1279.25" y="-1099.2" font-family="Times,serif" font-size="14.00">all_annotated_inventories(n: Optional[int]): Iterable[&#39;Inventory&#39;]</text>
<text text-anchor="start" x="1279.25" y="-1082.7" font-family="Times,serif" font-size="14.00">annotate_inventory(inventory: Inventory): Inventory</text>
<text text-anchor="start" x="1279.25" y="-1066.2" font-family="Times,serif" font-size="14.00">download_inventories()</text>
<text text-anchor="start" x="1279.25" y="-1049.7" font-family="Times,serif" font-size="14.00">inventories(): Iterable[Inventory]</text>
<text text-anchor="start" x="1279.25" y="-1033.2" font-family="Times,serif" font-size="14.00">inventory_numbers(): Iterable[tuple[int, str]]</text>
<text text-anchor="start" x="1279.25" y="-1016.7" font-family="Times,serif" font-size="14.00">preprocess(inventory: Inventory, min_region_text_length, max_size: int): Inventory</text>
</g>
<!-- document_segmentation.pagexml.annotations.generale_missiven.GeneraleMissiven&#45;&gt;document_segmentation.pagexml.annotations.sheet.Sheet -->
<g id="edge7" class="edge">
<title>document_segmentation.pagexml.annotations.generale_missiven.GeneraleMissiven&#45;&gt;document_segmentation.pagexml.annotations.sheet.Sheet</title>
<path fill="none" stroke="black" d="M1390.09,-741.93C1408.36,-793.59 1452.16,-917.43 1480.83,-998.48"/>
<polygon fill="none" stroke="black" points="1477.45,-999.44 1484.09,-1007.7 1484.05,-997.1 1477.45,-999.44"/>
</g>
<!-- document_segmentation.pagexml.datamodel.inventory.Inventory -->
<g id="node3" class="node">
<title>document_segmentation.pagexml.datamodel.inventory.Inventory</title>
<polygon fill="aquamarine" stroke="aquamarine" points="1527.12,-0.5 1527.12,-519.5 1930.12,-519.5 1930.12,-0.5 1527.12,-0.5"/>
<text text-anchor="start" x="1702.38" y="-502.2" font-family="Times,serif" font-size="14.00">Inventory</text>
<polyline fill="none" stroke="aquamarine" points="1527.12,-495 1930.12,-495"/>
<text text-anchor="start" x="1676.5" y="-477.7" font-family="Times,serif" font-size="14.00">inv_nr</text>
<text text-anchor="start" x="1676.5" y="-461.2" font-family="Times,serif" font-size="14.00">inventory_part : str</text>
<text text-anchor="start" x="1676.5" y="-444.7" font-family="Times,serif" font-size="14.00">pages</text>
<text text-anchor="start" x="1676.5" y="-428.2" font-family="Times,serif" font-size="14.00">pages : list[Page]</text>
<polyline fill="none" stroke="aquamarine" points="1527.12,-421 1930.12,-421"/>
<text text-anchor="start" x="1535.12" y="-403.7" font-family="Times,serif" font-size="14.00">annotate_scan(scan_nr: int, label: Label)</text>
<text text-anchor="start" x="1535.12" y="-387.2" font-family="Times,serif" font-size="14.00">class_counts(): Counter[Label]</text>
<text text-anchor="start" x="1535.12" y="-370.7" font-family="Times,serif" font-size="14.00">class_weights(): list[float]</text>
<text text-anchor="start" x="1535.12" y="-354.2" font-family="Times,serif" font-size="14.00">download(inv_nr: int, inventory_part: str): &#39;Inventory&#39;</text>
<text text-anchor="start" x="1535.12" y="-337.7" font-family="Times,serif" font-size="14.00">empty_unlabelled(): &#39;Inventory&#39;</text>
<text text-anchor="start" x="1535.12" y="-321.2" font-family="Times,serif" font-size="14.00">from_file(file: Path): &#39;Inventory&#39;</text>
<text text-anchor="start" x="1535.12" y="-304.7" font-family="Times,serif" font-size="14.00">full_inv_nr(): str</text>
<text text-anchor="start" x="1535.12" y="-288.2" font-family="Times,serif" font-size="14.00">get_scan(scan_nr: int): Page</text>
<text text-anchor="start" x="1535.12" y="-271.7" font-family="Times,serif" font-size="14.00">has_labels(): bool</text>
<text text-anchor="start" x="1535.12" y="-255.2" font-family="Times,serif" font-size="14.00">head(n: int): &#39;Inventory&#39;</text>
<text text-anchor="start" x="1535.12" y="-238.7" font-family="Times,serif" font-size="14.00">label_tensor(): torch.Tensor</text>
<text text-anchor="start" x="1535.12" y="-222.2" font-family="Times,serif" font-size="14.00">labelled(): list[Page]</text>
<text text-anchor="start" x="1535.12" y="-205.7" font-family="Times,serif" font-size="14.00">labelled_inventories(): Iterable[&#39;Inventory&#39;]</text>
<text text-anchor="start" x="1535.12" y="-189.2" font-family="Times,serif" font-size="14.00">labels(): list[Label]</text>
<text text-anchor="start" x="1535.12" y="-172.7" font-family="Times,serif" font-size="14.00">link(page: Page): str</text>
<text text-anchor="start" x="1535.12" y="-156.2" font-family="Times,serif" font-size="14.00">load(inv_nr: int, inventory_part: str, inventory_dir: Path)</text>
<text text-anchor="start" x="1535.12" y="-139.7" font-family="Times,serif" font-size="14.00">load_or_download(inv_nr: int, inventory_part: str, inventory_dir: Path)</text>
<text text-anchor="start" x="1535.12" y="-123.2" font-family="Times,serif" font-size="14.00">local_file(inv_nr: int, inventory_part: str, directory: Path): Path</text>
<text text-anchor="start" x="1535.12" y="-106.7" font-family="Times,serif" font-size="14.00">remove_empty_pages(): &#39;Inventory&#39;</text>
<text text-anchor="start" x="1535.12" y="-90.2" font-family="Times,serif" font-size="14.00">remove_scan(scan_nr: int): &#39;Inventory&#39;</text>
<text text-anchor="start" x="1535.12" y="-73.7" font-family="Times,serif" font-size="14.00">remove_short_regions(min_chars: int): &#39;Inventory&#39;</text>
<text text-anchor="start" x="1535.12" y="-57.2" font-family="Times,serif" font-size="14.00">split(max_size): Iterable[&#39;Inventory&#39;]</text>
<text text-anchor="start" x="1535.12" y="-40.7" font-family="Times,serif" font-size="14.00">total_class_weights(inventories: Iterable[&#39;Inventory&#39;]): list[float]</text>
<text text-anchor="start" x="1535.12" y="-24.2" font-family="Times,serif" font-size="14.00">validate_inv_part(value: str): str</text>
<text text-anchor="start" x="1535.12" y="-7.7" font-family="Times,serif" font-size="14.00">write(target_file: Optional[Path], mode): Path</text>
</g>
<!-- document_segmentation.pagexml.annotations.renate_analysis.RenateAnalysisInv -->
<g id="node16" class="node">
<title>document_segmentation.pagexml.annotations.renate_analysis.RenateAnalysisInv</title>
<polygon fill="aquamarine" stroke="aquamarine" points="1575.88,-676 1575.88,-758 1881.38,-758 1881.38,-676 1575.88,-676"/>
<text text-anchor="start" x="1677.25" y="-740.7" font-family="Times,serif" font-size="14.00">RenateAnalysisInv</text>
<polyline fill="none" stroke="aquamarine" points="1575.88,-733.5 1881.38,-733.5"/>
<polyline fill="none" stroke="aquamarine" points="1575.88,-733.5 1881.38,-733.5"/>
<text text-anchor="start" x="1583.88" y="-716.2" font-family="Times,serif" font-size="14.00">annotate_inventory(inventory: Inventory): &#39;Inventory&#39;</text>
<text text-anchor="start" x="1583.88" y="-699.7" font-family="Times,serif" font-size="14.00">inventories(): Iterable[Inventory]</text>
<text text-anchor="start" x="1583.88" y="-683.2" font-family="Times,serif" font-size="14.00">inventory_numbers(): Iterable[tuple[int, str]]</text>
</g>
<!-- document_segmentation.pagexml.datamodel.inventory.Inventory&#45;&gt;document_segmentation.pagexml.annotations.renate_analysis.RenateAnalysisInv -->
<g id="edge14" class="edge">
<title>document_segmentation.pagexml.datamodel.inventory.Inventory&#45;&gt;document_segmentation.pagexml.annotations.renate_analysis.RenateAnalysisInv</title>
<path fill="none" stroke="black" d="M1728.62,-519.74C1728.62,-574.09 1728.62,-626.01 1728.62,-662.78"/>
<polygon fill="black" stroke="black" points="1728.63,-662.72 1732.63,-668.72 1728.63,-674.72 1724.63,-668.72 1728.63,-662.72"/>
<text text-anchor="middle" x="1757.88" y="-541.2" font-family="Times,serif" font-size="14.00" fill="green">_inventory</text>
</g>
<!-- document_segmentation.pagexml.datamodel.label.Label -->
<g id="node4" class="node">
<title>document_segmentation.pagexml.datamodel.label.Label</title>
<polygon fill="aquamarine" stroke="aquamarine" points="2039.62,-223.25 2039.62,-296.75 2145.62,-296.75 2145.62,-223.25 2039.62,-223.25"/>
<text text-anchor="start" x="2077.25" y="-279.45" font-family="Times,serif" font-size="14.00">Label</text>
<polyline fill="none" stroke="aquamarine" points="2039.62,-272.25 2145.62,-272.25"/>
<text text-anchor="start" x="2077.62" y="-254.95" font-family="Times,serif" font-size="14.00">name</text>
<polyline fill="none" stroke="aquamarine" points="2039.62,-247.75 2145.62,-247.75"/>
<text text-anchor="start" x="2047.62" y="-230.45" font-family="Times,serif" font-size="14.00">to_list(): list[int]</text>
</g>
<!-- document_segmentation.pagexml.datamodel.page.Page -->
<g id="node5" class="node">
<title>document_segmentation.pagexml.datamodel.page.Page</title>
<polygon fill="aquamarine" stroke="aquamarine" points="1899,-573 1899,-861 2286.25,-861 2286.25,-573 1899,-573"/>
<text text-anchor="start" x="2079.5" y="-843.7" font-family="Times,serif" font-size="14.00">Page</text>
<polyline fill="none" stroke="aquamarine" points="1899,-836.5 2286.25,-836.5"/>
<text text-anchor="start" x="2018.38" y="-819.2" font-family="Times,serif" font-size="14.00">doc_id : Optional[str]</text>
<text text-anchor="start" x="2018.38" y="-802.7" font-family="Times,serif" font-size="14.00">external_ref : str</text>
<text text-anchor="start" x="2018.38" y="-786.2" font-family="Times,serif" font-size="14.00">label</text>
<text text-anchor="start" x="2018.38" y="-769.7" font-family="Times,serif" font-size="14.00">label : END_BEGIN, OUT</text>
<text text-anchor="start" x="2018.38" y="-753.2" font-family="Times,serif" font-size="14.00">regions : list</text>
<text text-anchor="start" x="2018.38" y="-736.7" font-family="Times,serif" font-size="14.00">regions : list[Region]</text>
<text text-anchor="start" x="2018.38" y="-720.2" font-family="Times,serif" font-size="14.00">scan_nr</text>
<polyline fill="none" stroke="aquamarine" points="1899,-713 2286.25,-713"/>
<text text-anchor="start" x="1907" y="-695.7" font-family="Times,serif" font-size="14.00">annotate(label: Label): &#39;Page&#39;</text>
<text text-anchor="start" x="1907" y="-679.2" font-family="Times,serif" font-size="14.00">empty(): &#39;Page&#39;</text>
<text text-anchor="start" x="1907" y="-662.7" font-family="Times,serif" font-size="14.00">enum_from_int(value)</text>
<text text-anchor="start" x="1907" y="-646.2" font-family="Times,serif" font-size="14.00">filter_short_regions(min_chars: int): &#39;Page&#39;</text>
<text text-anchor="start" x="1907" y="-629.7" font-family="Times,serif" font-size="14.00">from_pagexml(label: Label, scan_nr: int, pagexml: PageXMLScan)</text>
<text text-anchor="start" x="1907" y="-613.2" font-family="Times,serif" font-size="14.00">guess_doc_id(inv_nr: str): str</text>
<text text-anchor="start" x="1907" y="-596.7" font-family="Times,serif" font-size="14.00">is_shorter_than(): bool</text>
<text text-anchor="start" x="1907" y="-580.2" font-family="Times,serif" font-size="14.00">text(delimiter: str): str</text>
</g>
<!-- document_segmentation.pagexml.datamodel.label.Label&#45;&gt;document_segmentation.pagexml.datamodel.page.Page -->
<g id="edge15" class="edge">
<title>document_segmentation.pagexml.datamodel.label.Label&#45;&gt;document_segmentation.pagexml.datamodel.page.Page</title>
<path fill="none" stroke="black" d="M2092.62,-297.08C2092.62,-353.45 2092.62,-465.7 2092.62,-559.82"/>
<polygon fill="black" stroke="black" points="2092.63,-559.78 2096.63,-565.78 2092.63,-571.78 2088.63,-565.78 2092.63,-559.78"/>
<text text-anchor="middle" x="2105.75" y="-541.2" font-family="Times,serif" font-size="14.00" fill="green">label</text>
</g>
<!-- document_segmentation.model.page_classifier.PageClassifier -->
<g id="node6" class="node">
<title>document_segmentation.model.page_classifier.PageClassifier</title>
<polygon fill="antiquewhite" stroke="antiquewhite" points="647.25,-1042.5 647.25,-1108 1144,-1108 1144,-1042.5 647.25,-1042.5"/>
<text text-anchor="start" x="856.62" y="-1090.7" font-family="Times,serif" font-size="14.00">PageClassifier</text>
<polyline fill="none" stroke="antiquewhite" points="647.25,-1083.5 1144,-1083.5"/>
<polyline fill="none" stroke="antiquewhite" points="647.25,-1083.5 1144,-1083.5"/>
<text text-anchor="start" x="655.25" y="-1066.2" font-family="Times,serif" font-size="14.00">forward(pages: PageDataset)</text>
<text text-anchor="start" x="655.25" y="-1049.7" font-family="Times,serif" font-size="14.00">train_(pages: PageDataset, epochs: int, batch_size: int, weights: Optional[torch.Tensor])</text>
</g>
<!-- document_segmentation.model.page_classifier.PageClassifier&#45;&gt;document_segmentation.model.device_module.DeviceModule -->
<g id="edge1" class="edge">
<title>document_segmentation.model.page_classifier.PageClassifier&#45;&gt;document_segmentation.model.device_module.DeviceModule</title>
<path fill="none" stroke="black" d="M895.62,-1108.37C895.62,-1131.33 895.62,-1162.5 895.62,-1187.71"/>
<polygon fill="none" stroke="black" points="892.13,-1187.66 895.63,-1197.66 899.13,-1187.66 892.13,-1187.66"/>
</g>
<!-- document_segmentation.model.page_embedding.PageEmbedding -->
<g id="node7" class="node">
<title>document_segmentation.model.page_embedding.PageEmbedding</title>
<polygon fill="antiquewhite" stroke="antiquewhite" points="556.75,-672 556.75,-762 714.5,-762 714.5,-672 556.75,-672"/>
<text text-anchor="start" x="591" y="-744.7" font-family="Times,serif" font-size="14.00">PageEmbedding</text>
<polyline fill="none" stroke="antiquewhite" points="556.75,-737.5 714.5,-737.5"/>
<text text-anchor="start" x="591.75" y="-720.2" font-family="Times,serif" font-size="14.00">output_size : int</text>
<text text-anchor="start" x="591.75" y="-703.7" font-family="Times,serif" font-size="14.00">rnn</text>
<polyline fill="none" stroke="antiquewhite" points="556.75,-696.5 714.5,-696.5"/>
<text text-anchor="start" x="564.75" y="-679.2" font-family="Times,serif" font-size="14.00">forward(pages: list[Page])</text>
</g>
<!-- document_segmentation.model.page_embedding.PageEmbedding&#45;&gt;document_segmentation.model.device_module.DeviceModule -->
<g id="edge2" class="edge">
<title>document_segmentation.model.page_embedding.PageEmbedding&#45;&gt;document_segmentation.model.device_module.DeviceModule</title>
<path fill="none" stroke="black" d="M629.35,-762.25C616.19,-862.13 590.71,-1101.13 638.62,-1162 654.3,-1181.92 703.73,-1197.48 755.11,-1208.76"/>
<polygon fill="none" stroke="black" points="754.1,-1212.13 764.61,-1210.79 755.56,-1205.28 754.1,-1212.13"/>
</g>
<!-- document_segmentation.model.page_embedding.PageEmbedding&#45;&gt;document_segmentation.model.page_classifier.PageClassifier -->
<g id="edge10" class="edge">
<title>document_segmentation.model.page_embedding.PageEmbedding&#45;&gt;document_segmentation.model.page_classifier.PageClassifier</title>
<path fill="none" stroke="black" d="M635.28,-762.49C635.14,-830.43 636.52,-953.95 648.12,-970.5 669.13,-1000.44 700.52,-1021.78 733.95,-1036.97"/>
<polygon fill="black" stroke="black" points="734,-1036.99 741.09,-1035.68 745.02,-1041.73 737.93,-1043.03 734,-1036.99"/>
<text text-anchor="middle" x="682.38" y="-919.95" font-family="Times,serif" font-size="14.00" fill="green">_embedding</text>
</g>
<!-- document_segmentation.model.page_sequence_tagger.PageSequenceTagger -->
<g id="node8" class="node">
<title>document_segmentation.model.page_sequence_tagger.PageSequenceTagger</title>
<polygon fill="antiquewhite" stroke="antiquewhite" points="0,-989 0,-1161.5 591.25,-1161.5 591.25,-989 0,-989"/>
<text text-anchor="start" x="237.5" y="-1144.2" font-family="Times,serif" font-size="14.00">PageSequenceTagger</text>
<polyline fill="none" stroke="antiquewhite" points="0,-1137 591.25,-1137"/>
<text text-anchor="start" x="231.12" y="-1119.7" font-family="Times,serif" font-size="14.00">wandb_run</text>
<text text-anchor="start" x="231.12" y="-1103.2" font-family="Times,serif" font-size="14.00">wandb_run : NoneType</text>
<polyline fill="none" stroke="antiquewhite" points="0,-1096 591.25,-1096"/>
<text text-anchor="start" x="8" y="-1078.7" font-family="Times,serif" font-size="14.00">eval_(inventories: list[Inventory], sheet_name: str): tuple[Metric, Metric, Metric, Metric, pd.DataFrame]</text>
<text text-anchor="start" x="8" y="-1062.2" font-family="Times,serif" font-size="14.00">forward(pages: list[Page]): torch.Tensor</text>
<text text-anchor="start" x="8" y="-1045.7" font-family="Times,serif" font-size="14.00">load(path: Path): None</text>
<text text-anchor="start" x="8" y="-1029.2" font-family="Times,serif" font-size="14.00">predict(inventory: Inventory): pd.DataFrame</text>
<text text-anchor="start" x="8" y="-1012.7" font-family="Times,serif" font-size="14.00">save(path: Path): None</text>
<text text-anchor="start" x="8" y="-996.2" font-family="Times,serif" font-size="14.00">train_(training_inventories: list[Inventory], validation_inventories: Optional[dict[str, list[Inventory]]])</text>
</g>
<!-- document_segmentation.model.page_embedding.PageEmbedding&#45;&gt;document_segmentation.model.page_sequence_tagger.PageSequenceTagger -->
<g id="edge11" class="edge">
<title>document_segmentation.model.page_embedding.PageEmbedding&#45;&gt;document_segmentation.model.page_sequence_tagger.PageSequenceTagger</title>
<path fill="none" stroke="black" d="M599.93,-762.44C541.84,-834.74 433.22,-969.93 432.62,-970.5 429.27,-973.76 425.81,-977.01 422.28,-980.23"/>
<polygon fill="black" stroke="black" points="422.39,-980.13 420.57,-987.11 413.43,-988.12 415.25,-981.14 422.39,-980.13"/>
<text text-anchor="middle" x="554.5" y="-919.95" font-family="Times,serif" font-size="14.00" fill="green">_page_embedding</text>
</g>
<!-- document_segmentation.model.page_sequence_tagger.PageSequenceTagger&#45;&gt;document_segmentation.model.device_module.DeviceModule -->
<g id="edge3" class="edge">
<title>document_segmentation.model.page_sequence_tagger.PageSequenceTagger&#45;&gt;document_segmentation.model.device_module.DeviceModule</title>
<path fill="none" stroke="black" d="M537.4,-1161.92C560.32,-1168.84 583.33,-1175.34 605.62,-1181 653.77,-1193.23 707.16,-1203.41 754.88,-1211.35"/>
<polygon fill="none" stroke="black" points="754.31,-1214.8 764.75,-1212.97 755.45,-1207.89 754.31,-1214.8"/>
</g>
<!-- document_segmentation.pagexml.pagexml.PageXML -->
<g id="node9" class="node">
<title>document_segmentation.pagexml.pagexml.PageXML</title>
<polygon fill="aquamarine" stroke="aquamarine" points="2163.38,-219 2163.38,-301 2519.88,-301 2519.88,-219 2163.38,-219"/>
<text text-anchor="start" x="2313.12" y="-283.7" font-family="Times,serif" font-size="14.00">PageXML</text>
<polyline fill="none" stroke="aquamarine" points="2163.38,-276.5 2519.88,-276.5"/>
<polyline fill="none" stroke="aquamarine" points="2163.38,-276.5 2519.88,-276.5"/>
<text text-anchor="start" x="2171.38" y="-259.2" font-family="Times,serif" font-size="14.00">document_type(): list[str]</text>
<text text-anchor="start" x="2171.38" y="-242.7" font-family="Times,serif" font-size="14.00">get_regions_from_top(): list[PageXMLTextRegion]</text>
<text text-anchor="start" x="2171.38" y="-226.2" font-family="Times,serif" font-size="14.00">top_paragraph(region_types): Optional[PageXMLTextRegion]</text>
</g>
<!-- document_segmentation.pagexml.datamodel.region.Region -->
<g id="node10" class="node">
<title>document_segmentation.pagexml.datamodel.region.Region</title>
<polygon fill="aquamarine" stroke="aquamarine" points="2538.12,-198.5 2538.12,-321.5 2857.12,-321.5 2857.12,-198.5 2538.12,-198.5"/>
<text text-anchor="start" x="2678.12" y="-304.2" font-family="Times,serif" font-size="14.00">Region</text>
<polyline fill="none" stroke="aquamarine" points="2538.12,-297 2857.12,-297"/>
<text text-anchor="start" x="2597.5" y="-279.7" font-family="Times,serif" font-size="14.00">coordinates : tuple[tuple[int, int], ...]</text>
<text text-anchor="start" x="2597.5" y="-263.2" font-family="Times,serif" font-size="14.00">id : str</text>
<text text-anchor="start" x="2597.5" y="-246.7" font-family="Times,serif" font-size="14.00">lines : tuple[str, ...]</text>
<text text-anchor="start" x="2597.5" y="-230.2" font-family="Times,serif" font-size="14.00">types : tuple[RegionType, ...]</text>
<polyline fill="none" stroke="aquamarine" points="2538.12,-223 2857.12,-223"/>
<text text-anchor="start" x="2546.12" y="-205.7" font-family="Times,serif" font-size="14.00">from_pagexml(region: PageXMLTextRegion): &#39;Region&#39;</text>
</g>
<!-- document_segmentation.model.region_classifier.RegionClassifier -->
<g id="node11" class="node">
<title>document_segmentation.model.region_classifier.RegionClassifier</title>
<polygon fill="antiquewhite" stroke="antiquewhite" points="725,-892.25 725,-957.75 1166.25,-957.75 1166.25,-892.25 725,-892.25"/>
<text text-anchor="start" x="900.25" y="-940.45" font-family="Times,serif" font-size="14.00">RegionClassifier</text>
<polyline fill="none" stroke="antiquewhite" points="725,-933.25 1166.25,-933.25"/>
<polyline fill="none" stroke="antiquewhite" points="725,-933.25 1166.25,-933.25"/>
<text text-anchor="start" x="733" y="-915.95" font-family="Times,serif" font-size="14.00">forward(regions: List[Region]): torch.Tensor</text>
<text text-anchor="start" x="733" y="-899.45" font-family="Times,serif" font-size="14.00">train_(dataset: RegionDataset, epochs: int, batch_size: int, weights: list[float])</text>
</g>
<!-- document_segmentation.model.region_classifier.RegionClassifier&#45;&gt;document_segmentation.model.device_module.DeviceModule -->
<g id="edge4" class="edge">
<title>document_segmentation.model.region_classifier.RegionClassifier&#45;&gt;document_segmentation.model.device_module.DeviceModule</title>
<path fill="none" stroke="black" d="M1095.85,-958.17C1122.28,-966.82 1144.09,-977.01 1152.62,-988.5 1198.6,-1050.41 1199.52,-1100.79 1152.62,-1162 1137.18,-1182.16 1087.61,-1197.78 1036.07,-1209.03"/>
<polygon fill="none" stroke="black" points="1035.59,-1205.56 1026.53,-1211.06 1037.04,-1212.4 1035.59,-1205.56"/>
</g>
<!-- document_segmentation.model.region_embedding.RegionEmbedding -->
<g id="node12" class="node">
<title>document_segmentation.model.region_embedding.RegionEmbedding</title>
<polygon fill="antiquewhite" stroke="antiquewhite" points="1170.88,-880 1170.88,-970 1350.38,-970 1350.38,-880 1170.88,-880"/>
<text text-anchor="start" x="1209.62" y="-952.7" font-family="Times,serif" font-size="14.00">RegionEmbedding</text>
<polyline fill="none" stroke="antiquewhite" points="1170.88,-945.5 1350.38,-945.5"/>
<text text-anchor="start" x="1202.88" y="-928.2" font-family="Times,serif" font-size="14.00">output_size : int</text>
<text text-anchor="start" x="1202.88" y="-911.7" font-family="Times,serif" font-size="14.00">text_embedding_size</text>
<polyline fill="none" stroke="antiquewhite" points="1170.88,-904.5 1350.38,-904.5"/>
<text text-anchor="start" x="1178.88" y="-887.2" font-family="Times,serif" font-size="14.00">forward(regions: list[Region])</text>
</g>
<!-- document_segmentation.model.region_embedding.RegionEmbedding&#45;&gt;document_segmentation.model.device_module.DeviceModule -->
<g id="edge5" class="edge">
<title>document_segmentation.model.region_embedding.RegionEmbedding&#45;&gt;document_segmentation.model.device_module.DeviceModule</title>
<path fill="none" stroke="black" d="M1257.18,-970.05C1250.94,-1021.9 1233.45,-1107.78 1184.62,-1162 1163.94,-1184.97 1099.32,-1201.6 1036.42,-1212.81"/>
<polygon fill="none" stroke="black" points="1035.86,-1209.35 1026.61,-1214.51 1037.06,-1216.25 1035.86,-1209.35"/>
</g>
<!-- document_segmentation.model.region_embedding.RegionEmbeddingSentenceTransformer -->
<g id="node13" class="node">
<title>document_segmentation.model.region_embedding.RegionEmbeddingSentenceTransformer</title>
<polygon fill="antiquewhite" stroke="antiquewhite" points="828.12,-223.25 828.12,-296.75 1063.12,-296.75 1063.12,-223.25 828.12,-223.25"/>
<text text-anchor="start" x="836.12" y="-279.45" font-family="Times,serif" font-size="14.00">RegionEmbeddingSentenceTransformer</text>
<polyline fill="none" stroke="antiquewhite" points="828.12,-272.25 1063.12,-272.25"/>
<text text-anchor="start" x="887.88" y="-254.95" font-family="Times,serif" font-size="14.00">text_embedding_size</text>
<polyline fill="none" stroke="antiquewhite" points="828.12,-247.75 1063.12,-247.75"/>
<text text-anchor="start" x="943.75" y="-230.45" font-family="Times,serif" font-size="14.00"> </text>
</g>
<!-- document_segmentation.model.region_embedding.RegionEmbeddingSentenceTransformer&#45;&gt;document_segmentation.model.page_embedding.PageEmbedding -->
<g id="edge12" class="edge">
<title>document_segmentation.model.region_embedding.RegionEmbeddingSentenceTransformer&#45;&gt;document_segmentation.model.page_embedding.PageEmbedding</title>
<path fill="none" stroke="black" d="M921.04,-297.08C866.97,-376.44 737.45,-566.55 673.15,-660.93"/>
<polygon fill="black" stroke="black" points="673.09,-661.01 673.02,-668.22 666.33,-670.93 666.41,-663.72 673.09,-661.01"/>
<text text-anchor="middle" x="795.88" y="-541.2" font-family="Times,serif" font-size="14.00" fill="green">_region_model</text>
</g>
<!-- document_segmentation.model.region_embedding.RegionEmbeddingSentenceTransformer&#45;&gt;document_segmentation.model.region_classifier.RegionClassifier -->
<g id="edge13" class="edge">
<title>document_segmentation.model.region_embedding.RegionEmbeddingSentenceTransformer&#45;&gt;document_segmentation.model.region_classifier.RegionClassifier</title>
<path fill="none" stroke="black" d="M945.62,-297.12C945.62,-409.76 945.62,-754.55 945.62,-878.79"/>
<polygon fill="black" stroke="black" points="945.63,-878.9 949.63,-884.9 945.63,-890.9 941.63,-884.9 945.63,-878.9"/>
<text text-anchor="middle" x="1000" y="-541.2" font-family="Times,serif" font-size="14.00" fill="green">_region_embedding</text>
</g>
<!-- document_segmentation.model.region_embedding.RegionEmbeddingSentenceTransformer&#45;&gt;document_segmentation.model.region_embedding.RegionEmbedding -->
<g id="edge6" class="edge">
<title>document_segmentation.model.region_embedding.RegionEmbeddingSentenceTransformer&#45;&gt;document_segmentation.model.region_embedding.RegionEmbedding</title>
<path fill="none" stroke="black" d="M962.78,-297.12C1015.03,-407.09 1172.41,-738.32 1234.77,-869.57"/>
<polygon fill="none" stroke="black" points="1231.52,-870.89 1238.97,-878.42 1237.84,-867.89 1231.52,-870.89"/>
</g>
<!-- document_segmentation.pagexml.datamodel.region.RegionType -->
<g id="node14" class="node">
<title>document_segmentation.pagexml.datamodel.region.RegionType</title>
<polygon fill="aquamarine" stroke="aquamarine" points="2875,-215 2875,-305 3184.25,-305 3184.25,-215 2875,-215"/>
<text text-anchor="start" x="2996.25" y="-287.7" font-family="Times,serif" font-size="14.00">RegionType</text>
<polyline fill="none" stroke="aquamarine" points="2875,-280.5 3184.25,-280.5"/>
<text text-anchor="start" x="3014.62" y="-263.2" font-family="Times,serif" font-size="14.00">name</text>
<polyline fill="none" stroke="aquamarine" points="2875,-256 3184.25,-256"/>
<text text-anchor="start" x="2883" y="-238.7" font-family="Times,serif" font-size="14.00">index(): int</text>
<text text-anchor="start" x="2883" y="-222.2" font-family="Times,serif" font-size="14.00">indices(region_types: Iterable[&#39;RegionType&#39;]): list[int]</text>
</g>
<!-- document_segmentation.pagexml.annotations.renate_analysis.RenateAnalysis -->
<g id="node15" class="node">
<title>document_segmentation.pagexml.annotations.renate_analysis.RenateAnalysis</title>
<polygon fill="aquamarine" stroke="aquamarine" points="1457.25,-692.5 1457.25,-741.5 1558,-741.5 1558,-692.5 1457.25,-692.5"/>
<text text-anchor="start" x="1465.25" y="-724.2" font-family="Times,serif" font-size="14.00">RenateAnalysis</text>
<polyline fill="none" stroke="aquamarine" points="1457.25,-717 1558,-717"/>
<polyline fill="none" stroke="aquamarine" points="1457.25,-717 1558,-717"/>
<text text-anchor="start" x="1505.75" y="-699.7" font-family="Times,serif" font-size="14.00"> </text>
</g>
<!-- document_segmentation.pagexml.annotations.renate_analysis.RenateAnalysis&#45;&gt;document_segmentation.pagexml.annotations.sheet.Sheet -->
<g id="edge8" class="edge">
<title>document_segmentation.pagexml.annotations.renate_analysis.RenateAnalysis&#45;&gt;document_segmentation.pagexml.annotations.sheet.Sheet</title>
<path fill="none" stroke="black" d="M1507.62,-741.93C1507.62,-793.48 1507.62,-916.92 1507.62,-997.98"/>
<polygon fill="none" stroke="black" points="1504.13,-997.61 1507.63,-1007.61 1511.13,-997.61 1504.13,-997.61"/>
</g>
<!-- document_segmentation.pagexml.annotations.renate_analysis.RenateAnalysisInv&#45;&gt;document_segmentation.pagexml.annotations.sheet.Sheet -->
<g id="edge9" class="edge">
<title>document_segmentation.pagexml.annotations.renate_analysis.RenateAnalysisInv&#45;&gt;document_segmentation.pagexml.annotations.sheet.Sheet</title>
<path fill="none" stroke="black" d="M1703.7,-758.17C1667.46,-816.6 1599.56,-926.05 1553.96,-999.55"/>
<polygon fill="none" stroke="black" points="1551.06,-997.6 1548.76,-1007.94 1557.01,-1001.29 1551.06,-997.6"/>
</g>
<!-- document_segmentation.pagexml.datamodel.inventory.ThumbnailDownloader -->
<g id="node18" class="node">
<title>document_segmentation.pagexml.datamodel.inventory.ThumbnailDownloader</title>
<polygon fill="aquamarine" stroke="aquamarine" points="145.12,-658.75 145.12,-775.25 446.12,-775.25 446.12,-658.75 145.12,-658.75"/>
<text text-anchor="start" x="232.25" y="-757.95" font-family="Times,serif" font-size="14.00">ThumbnailDownloader</text>
<polyline fill="none" stroke="aquamarine" points="145.12,-750.75 446.12,-750.75"/>
<polyline fill="none" stroke="aquamarine" points="145.12,-750.75 446.12,-750.75"/>
<text text-anchor="start" x="153.12" y="-734.45" font-family="Times,serif" font-size="14.00">download(inventory: Inventory, page: Page): Path</text>
<text text-anchor="start" x="153.12" y="-720.45" font-family="Times,serif" font-size="14.00">from_file(file: Path): &#39;ThumbnailDownloader&#39;</text>
<text text-anchor="start" x="153.12" y="-706.45" font-family="Times,serif" font-style="italic" font-size="14.00">from_url</text>
<text text-anchor="start" x="201.12" y="-706.45" font-family="Times,serif" font-size="14.00">(url)</text>
<text text-anchor="start" x="153.12" y="-692.45" font-family="Times,serif" font-size="14.00">get_uuid(inventory: Inventory): UUID</text>
<text text-anchor="start" x="153.12" y="-678.45" font-family="Times,serif" font-size="14.00">thumbnail(inventory: Inventory, page: Page): Path</text>
<text text-anchor="start" x="153.12" y="-664.45" font-family="Times,serif" font-size="14.00">thumbnail_url(inventory: Inventory, page: Page): str</text>
</g>
<!-- document_segmentation.pagexml.datamodel.inventory.ThumbnailDownloader&#45;&gt;document_segmentation.model.page_sequence_tagger.PageSequenceTagger -->
<g id="edge16" class="edge">
<title>document_segmentation.pagexml.datamodel.inventory.ThumbnailDownloader&#45;&gt;document_segmentation.model.page_sequence_tagger.PageSequenceTagger</title>
<path fill="none" stroke="black" d="M295.62,-775.63C295.62,-829.61 295.62,-911.39 295.62,-975.72"/>
<polygon fill="none" stroke="black" points="295.63,-975.85 299.63,-981.85 295.63,-987.85 291.63,-981.85 295.63,-975.85"/>
<text text-anchor="middle" x="362" y="-919.95" font-family="Times,serif" font-size="14.00" fill="green">_thumbnail_downloader</text>
</g>
</g>
</svg>
