<?xml version="1.0" encoding="UTF-8" standalone="no"?>
<!DOCTYPE svg PUBLIC "-//W3C//DTD SVG 1.1//EN"
 "http://www.w3.org/Graphics/SVG/1.1/DTD/svg11.dtd">
<!-- Generated by graphviz version 9.0.0 (20230911.1827)
 -->
<!-- Title: classes Pages: 1 -->
<svg width="4727pt" height="1208pt"
 viewBox="0.00 0.00 4727.25 1207.50" xmlns="http://www.w3.org/2000/svg" xmlns:xlink="http://www.w3.org/1999/xlink">
<g id="graph0" class="graph" transform="scale(1 1) rotate(0) translate(4 1203.5)">
<title>classes</title>
<polygon fill="white" stroke="none" points="-4,4 -4,-1203.5 4723.25,-1203.5 4723.25,4 -4,4"/>
<!-- document_segmentation.model.page_learner.AbstractPageLearner -->
<g id="node1" class="node">
<title>document_segmentation.model.page_learner.AbstractPageLearner</title>
<polygon fill="antiquewhite" stroke="antiquewhite" points="1458.38,-750.25 1458.38,-905.25 1976.88,-905.25 1976.88,-750.25 1458.38,-750.25"/>
<text text-anchor="start" x="1660.62" y="-887.95" font-family="Times,serif" font-size="14.00">AbstractPageLearner</text>
<polyline fill="none" stroke="antiquewhite" points="1458.38,-880.75 1976.88,-880.75"/>
<text text-anchor="start" x="1687.25" y="-863.45" font-family="Times,serif" font-size="14.00">wandb_run</text>
<polyline fill="none" stroke="antiquewhite" points="1458.38,-856.25 1976.88,-856.25"/>
<text text-anchor="start" x="1466.38" y="-839.95" font-family="Times,serif" font-size="14.00">eval_(docs: list[Any], name: str): tuple[Metric, Metric, Metric, Metric, pd.DataFrame]</text>
<text text-anchor="start" x="1466.38" y="-825.95" font-family="Times,serif" font-size="14.00">forward(pages: list[Page]): torch.Tensor</text>
<text text-anchor="start" x="1466.38" y="-811.95" font-family="Times,serif" font-size="14.00">load(path: Path): None</text>
<text text-anchor="start" x="1466.38" y="-797.95" font-family="Times,serif" font-style="italic" font-size="14.00">predict</text>
<text text-anchor="start" x="1504.62" y="-797.95" font-family="Times,serif" font-size="14.00">(data): pd.DataFrame</text>
<text text-anchor="start" x="1466.38" y="-783.95" font-family="Times,serif" font-size="14.00">split(docs: list[Inventory], split: float): tuple[list[Inventory], list[Inventory]]</text>
<text text-anchor="start" x="1466.38" y="-769.95" font-family="Times,serif" font-size="14.00">total_class_weights(docs: Iterable[Inventory]): list[float]</text>
<text text-anchor="start" x="1466.38" y="-755.95" font-family="Times,serif" font-size="14.00">train_(training_data: list[Inventory], validation_data: dict[str, list[Inventory]]): dict[str, Any]</text>
</g>
<!-- document_segmentation.model.device_module.DeviceModule -->
<g id="node2" class="node">
<title>document_segmentation.model.device_module.DeviceModule</title>
<polygon fill="antiquewhite" stroke="antiquewhite" points="484.5,-1133.5 484.5,-1199 742.75,-1199 742.75,-1133.5 484.5,-1133.5"/>
<text text-anchor="start" x="573.12" y="-1181.7" font-family="Times,serif" font-size="14.00">DeviceModule</text>
<polyline fill="none" stroke="antiquewhite" points="484.5,-1174.5 742.75,-1174.5"/>
<polyline fill="none" stroke="antiquewhite" points="484.5,-1174.5 742.75,-1174.5"/>
<text text-anchor="start" x="492.5" y="-1157.2" font-family="Times,serif" font-size="14.00">get_device(backends: list[ModuleType]): str</text>
<text text-anchor="start" x="492.5" y="-1140.7" font-family="Times,serif" font-size="14.00">to_device(device: Optional[str])</text>
</g>
<!-- document_segmentation.model.page_learner.AbstractPageLearner&#45;&gt;document_segmentation.model.device_module.DeviceModule -->
<g id="edge3" class="edge">
<title>document_segmentation.model.page_learner.AbstractPageLearner&#45;&gt;document_segmentation.model.device_module.DeviceModule</title>
<path fill="none" stroke="black" d="M1664.8,-905.72C1616.73,-968.84 1539.67,-1054.34 1449.62,-1096 1329.71,-1151.48 959.81,-1163.1 754.53,-1165.17"/>
<polygon fill="none" stroke="black" points="754.55,-1161.67 744.58,-1165.26 754.61,-1168.67 754.55,-1161.67"/>
</g>
<!-- document_segmentation.pagexml.datamodel.document.Document -->
<g id="node3" class="node">
<title>document_segmentation.pagexml.datamodel.document.Document</title>
<polygon fill="aquamarine" stroke="aquamarine" points="957.75,-259.5 957.75,-349.5 1199.5,-349.5 1199.5,-259.5 957.75,-259.5"/>
<text text-anchor="start" x="1050.12" y="-332.2" font-family="Times,serif" font-size="14.00">Document</text>
<polyline fill="none" stroke="aquamarine" points="957.75,-325 1199.5,-325"/>
<text text-anchor="start" x="965.75" y="-307.7" font-family="Times,serif" font-size="14.00">label</text>
<text text-anchor="start" x="965.75" y="-291.2" font-family="Times,serif" font-size="14.00">pages : Annotated[list[Page], MinLen(1)]</text>
<polyline fill="none" stroke="aquamarine" points="957.75,-284 1199.5,-284"/>
<text text-anchor="start" x="1002.88" y="-266.7" font-family="Times,serif" font-size="14.00">label_tensor(): torch.Tensor</text>
</g>
<!-- document_segmentation.pagexml.datamodel.inventory.Inventory -->
<g id="node6" class="node">
<title>document_segmentation.pagexml.datamodel.inventory.Inventory</title>
<polygon fill="aquamarine" stroke="aquamarine" points="669,-560 669,-1095.5 1440.25,-1095.5 1440.25,-560 669,-560"/>
<text text-anchor="start" x="1028.38" y="-1078.2" font-family="Times,serif" font-size="14.00">Inventory</text>
<polyline fill="none" stroke="aquamarine" points="669,-1071 1440.25,-1071"/>
<text text-anchor="start" x="1002.5" y="-1053.7" font-family="Times,serif" font-size="14.00">inv_nr : Annotated</text>
<text text-anchor="start" x="1002.5" y="-1037.2" font-family="Times,serif" font-size="14.00">inventory_part : str</text>
<text text-anchor="start" x="1002.5" y="-1020.7" font-family="Times,serif" font-size="14.00">pages : list[Page]</text>
<polyline fill="none" stroke="aquamarine" points="669,-1013.5 1440.25,-1013.5"/>
<text text-anchor="start" x="677" y="-996.2" font-family="Times,serif" font-size="14.00">annotate_scan(scan_nr: int, label: SequenceLabel)</text>
<text text-anchor="start" x="677" y="-979.7" font-family="Times,serif" font-size="14.00">class_counts(): Counter[SequenceLabel]</text>
<text text-anchor="start" x="677" y="-963.2" font-family="Times,serif" font-size="14.00">class_weights(): list[float]</text>
<text text-anchor="start" x="677" y="-946.7" font-family="Times,serif" font-size="14.00">download(inv_nr: int, inventory_part: str): &#39;Inventory&#39;</text>
<text text-anchor="start" x="677" y="-930.2" font-family="Times,serif" font-size="14.00">empty_unlabelled(): &#39;Inventory&#39;</text>
<text text-anchor="start" x="677" y="-913.7" font-family="Times,serif" font-size="14.00">from_file(file: Path): &#39;Inventory&#39;</text>
<text text-anchor="start" x="677" y="-897.2" font-family="Times,serif" font-size="14.00">full_inv_nr(): str</text>
<text text-anchor="start" x="677" y="-880.7" font-family="Times,serif" font-size="14.00">get_documents(): list[list[Page]]</text>
<text text-anchor="start" x="677" y="-864.2" font-family="Times,serif" font-size="14.00">get_scan(scan_nr: int): tuple[int, Page]</text>
<text text-anchor="start" x="677" y="-847.7" font-family="Times,serif" font-size="14.00">get_scans(start_scan_nr: int, end_scan_nr: int): list[Page]</text>
<text text-anchor="start" x="677" y="-831.2" font-family="Times,serif" font-size="14.00">has_labels(): bool</text>
<text text-anchor="start" x="677" y="-814.7" font-family="Times,serif" font-size="14.00">head(n: int): &#39;Inventory&#39;</text>
<text text-anchor="start" x="677" y="-798.2" font-family="Times,serif" font-size="14.00">label_tensor(): torch.Tensor</text>
<text text-anchor="start" x="677" y="-781.7" font-family="Times,serif" font-size="14.00">labelled(): list[Page]</text>
<text text-anchor="start" x="677" y="-765.2" font-family="Times,serif" font-size="14.00">labelled_inventories(): Iterable[&#39;Inventory&#39;]</text>
<text text-anchor="start" x="677" y="-748.7" font-family="Times,serif" font-size="14.00">labels(): list[SequenceLabel]</text>
<text text-anchor="start" x="677" y="-732.2" font-family="Times,serif" font-size="14.00">link(page: Page): str</text>
<text text-anchor="start" x="677" y="-715.7" font-family="Times,serif" font-size="14.00">load(inv_nr: int, inventory_part: str, inventory_dir: Path)</text>
<text text-anchor="start" x="677" y="-699.2" font-family="Times,serif" font-size="14.00">load_or_download(inv_nr: int, inventory_part: str, inventory_dir: Path)</text>
<text text-anchor="start" x="677" y="-682.7" font-family="Times,serif" font-size="14.00">local_file(inv_nr: int, inventory_part: str, directory: Path): Path</text>
<text text-anchor="start" x="677" y="-666.2" font-family="Times,serif" font-size="14.00">output_row(prediction: Label, actual: Label, page: Page, output: torch.Tensor, thumbnail_downloader: Optional[&#39;ThumbnailDownloader&#39;])</text>
<text text-anchor="start" x="677" y="-649.7" font-family="Times,serif" font-size="14.00">remove_empty_pages(): &#39;Inventory&#39;</text>
<text text-anchor="start" x="677" y="-633.2" font-family="Times,serif" font-size="14.00">remove_scan(scan_nr: int): &#39;Inventory&#39;</text>
<text text-anchor="start" x="677" y="-616.7" font-family="Times,serif" font-size="14.00">remove_short_regions(min_chars: int): &#39;Inventory&#39;</text>
<text text-anchor="start" x="677" y="-600.2" font-family="Times,serif" font-size="14.00">split(max_size): Iterable[&#39;Inventory&#39;]</text>
<text text-anchor="start" x="677" y="-583.7" font-family="Times,serif" font-size="14.00">validate_inv_part(value: str): str</text>
<text text-anchor="start" x="677" y="-567.2" font-family="Times,serif" font-size="14.00">write(target_file: Optional[Path], mode): Path</text>
</g>
<!-- document_segmentation.pagexml.datamodel.document.Document&#45;&gt;document_segmentation.pagexml.datamodel.inventory.Inventory -->
<g id="edge11" class="edge">
<title>document_segmentation.pagexml.datamodel.document.Document&#45;&gt;document_segmentation.pagexml.datamodel.inventory.Inventory</title>
<path fill="none" stroke="black" d="M1076.58,-349.94C1074.47,-395.64 1071.01,-470.87 1067.45,-548.22"/>
<polygon fill="none" stroke="black" points="1063.96,-547.98 1066.99,-558.13 1070.95,-548.3 1063.96,-547.98"/>
</g>
<!-- document_segmentation.model.document_classifier.DocumentClassifier -->
<g id="node4" class="node">
<title>document_segmentation.model.document_classifier.DocumentClassifier</title>
<polygon fill="antiquewhite" stroke="antiquewhite" points="1561.38,-280 1561.38,-329 1827.88,-329 1827.88,-280 1561.38,-280"/>
<text text-anchor="start" x="1640.25" y="-311.7" font-family="Times,serif" font-size="14.00">DocumentClassifier</text>
<polyline fill="none" stroke="antiquewhite" points="1561.38,-304.5 1827.88,-304.5"/>
<polyline fill="none" stroke="antiquewhite" points="1561.38,-304.5 1827.88,-304.5"/>
<text text-anchor="start" x="1569.38" y="-287.2" font-family="Times,serif" font-size="14.00">predict(document: Document): pd.DataFrame</text>
</g>
<!-- document_segmentation.model.document_classifier.DocumentClassifier&#45;&gt;document_segmentation.model.page_learner.AbstractPageLearner -->
<g id="edge1" class="edge">
<title>document_segmentation.model.document_classifier.DocumentClassifier&#45;&gt;document_segmentation.model.page_learner.AbstractPageLearner</title>
<path fill="none" stroke="black" d="M1695.67,-329.25C1698.83,-400.71 1708.34,-616.33 1713.75,-738.97"/>
<polygon fill="none" stroke="black" points="1710.24,-738.83 1714.18,-748.67 1717.24,-738.52 1710.24,-738.83"/>
</g>
<!-- document_segmentation.pagexml.annotations.generale_missiven.GeneraleMissiven -->
<g id="node5" class="node">
<title>document_segmentation.pagexml.annotations.generale_missiven.GeneraleMissiven</title>
<polygon fill="aquamarine" stroke="aquamarine" points="2814.12,-37.5 2814.12,-86.5 2929.12,-86.5 2929.12,-37.5 2814.12,-37.5"/>
<text text-anchor="start" x="2822.12" y="-69.2" font-family="Times,serif" font-size="14.00">GeneraleMissiven</text>
<polyline fill="none" stroke="aquamarine" points="2814.12,-62 2929.12,-62"/>
<polyline fill="none" stroke="aquamarine" points="2814.12,-62 2929.12,-62"/>
<text text-anchor="start" x="2869.75" y="-44.7" font-family="Times,serif" font-size="14.00"> </text>
</g>
<!-- document_segmentation.pagexml.annotations.sheet.Sheet -->
<g id="node20" class="node">
<title>document_segmentation.pagexml.annotations.sheet.Sheet</title>
<polygon fill="aquamarine" stroke="aquamarine" points="2915.25,-230.5 2915.25,-378.5 3388,-378.5 3388,-230.5 2915.25,-230.5"/>
<text text-anchor="start" x="3136.62" y="-361.2" font-family="Times,serif" font-size="14.00">Sheet</text>
<polyline fill="none" stroke="aquamarine" points="2915.25,-354 3388,-354"/>
<polyline fill="none" stroke="aquamarine" points="2915.25,-354 3388,-354"/>
<text text-anchor="start" x="2923.25" y="-336.7" font-family="Times,serif" font-size="14.00">all_annotated_inventories(n: Optional[int]): Iterable[&#39;Inventory&#39;]</text>
<text text-anchor="start" x="2923.25" y="-320.2" font-family="Times,serif" font-size="14.00">annotate_inventory(inventory: Inventory): Inventory</text>
<text text-anchor="start" x="2923.25" y="-303.7" font-family="Times,serif" font-size="14.00">annotated_rows(inventory: Inventory): pd.DataFrame</text>
<text text-anchor="start" x="2923.25" y="-287.2" font-family="Times,serif" font-size="14.00">download_inventories()</text>
<text text-anchor="start" x="2923.25" y="-270.7" font-family="Times,serif" font-size="14.00">inventories(): Iterable[Inventory]</text>
<text text-anchor="start" x="2923.25" y="-254.2" font-family="Times,serif" font-size="14.00">inventory_numbers(): Iterable[tuple[int, str]]</text>
<text text-anchor="start" x="2923.25" y="-237.7" font-family="Times,serif" font-size="14.00">preprocess(inventory: Inventory, min_region_text_length, max_size: int): Inventory</text>
</g>
<!-- document_segmentation.pagexml.annotations.generale_missiven.GeneraleMissiven&#45;&gt;document_segmentation.pagexml.annotations.sheet.Sheet -->
<g id="edge8" class="edge">
<title>document_segmentation.pagexml.annotations.generale_missiven.GeneraleMissiven&#45;&gt;document_segmentation.pagexml.annotations.sheet.Sheet</title>
<path fill="none" stroke="black" d="M2896.75,-86.75C2908.96,-98.16 2923.92,-111.94 2937.62,-124 2975.02,-156.93 3016.88,-192.35 3053.59,-222.95"/>
<polygon fill="none" stroke="black" points="3051.22,-225.54 3061.15,-229.24 3055.7,-220.16 3051.22,-225.54"/>
</g>
<!-- document_segmentation.pagexml.datamodel.label.Label -->
<g id="node7" class="node">
<title>document_segmentation.pagexml.datamodel.label.Label</title>
<polygon fill="aquamarine" stroke="aquamarine" points="1845.88,-259.5 1845.88,-349.5 2097.38,-349.5 2097.38,-259.5 1845.88,-259.5"/>
<text text-anchor="start" x="1956.25" y="-332.2" font-family="Times,serif" font-size="14.00">Label</text>
<polyline fill="none" stroke="aquamarine" points="1845.88,-325 2097.38,-325"/>
<text text-anchor="start" x="1956.62" y="-307.7" font-family="Times,serif" font-size="14.00">name</text>
<polyline fill="none" stroke="aquamarine" points="1845.88,-300.5 2097.38,-300.5"/>
<text text-anchor="start" x="1853.88" y="-283.2" font-family="Times,serif" font-size="14.00">to_list(): list[int]</text>
<text text-anchor="start" x="1853.88" y="-266.7" font-family="Times,serif" font-size="14.00">to_tensor(labels: list[&#39;Label&#39;]): torch.Tensor</text>
</g>
<!-- document_segmentation.pagexml.datamodel.page.Page -->
<g id="node8" class="node">
<title>document_segmentation.pagexml.datamodel.page.Page</title>
<polygon fill="aquamarine" stroke="aquamarine" points="2458.12,-177 2458.12,-432 2897.12,-432 2897.12,-177 2458.12,-177"/>
<text text-anchor="start" x="2664.5" y="-414.7" font-family="Times,serif" font-size="14.00">Page</text>
<polyline fill="none" stroke="aquamarine" points="2458.12,-407.5 2897.12,-407.5"/>
<text text-anchor="start" x="2618.75" y="-390.2" font-family="Times,serif" font-size="14.00">doc_id : Optional[str]</text>
<text text-anchor="start" x="2618.75" y="-373.7" font-family="Times,serif" font-size="14.00">external_ref : str</text>
<text text-anchor="start" x="2618.75" y="-357.2" font-family="Times,serif" font-size="14.00">label</text>
<text text-anchor="start" x="2618.75" y="-340.7" font-family="Times,serif" font-size="14.00">regions : list[Region]</text>
<text text-anchor="start" x="2618.75" y="-324.2" font-family="Times,serif" font-size="14.00">scan_nr : Annotated</text>
<polyline fill="none" stroke="aquamarine" points="2458.12,-317 2897.12,-317"/>
<text text-anchor="start" x="2466.12" y="-299.7" font-family="Times,serif" font-size="14.00">annotate(label: SequenceLabel): &#39;Page&#39;</text>
<text text-anchor="start" x="2466.12" y="-283.2" font-family="Times,serif" font-size="14.00">empty(): &#39;Page&#39;</text>
<text text-anchor="start" x="2466.12" y="-266.7" font-family="Times,serif" font-size="14.00">enum_from_int(value)</text>
<text text-anchor="start" x="2466.12" y="-250.2" font-family="Times,serif" font-size="14.00">filter_short_regions(min_chars: int): &#39;Page&#39;</text>
<text text-anchor="start" x="2466.12" y="-233.7" font-family="Times,serif" font-size="14.00">from_pagexml(label: SequenceLabel, scan_nr: int, pagexml: PageXMLScan)</text>
<text text-anchor="start" x="2466.12" y="-217.2" font-family="Times,serif" font-size="14.00">guess_doc_id(inv_nr: str): str</text>
<text text-anchor="start" x="2466.12" y="-200.7" font-family="Times,serif" font-size="14.00">is_shorter_than(): bool</text>
<text text-anchor="start" x="2466.12" y="-184.2" font-family="Times,serif" font-size="14.00">text(delimiter: str): str</text>
</g>
<!-- document_segmentation.model.page_embedding.PageEmbedding -->
<g id="node9" class="node">
<title>document_segmentation.model.page_embedding.PageEmbedding</title>
<polygon fill="antiquewhite" stroke="antiquewhite" points="562.75,-259.5 562.75,-349.5 720.5,-349.5 720.5,-259.5 562.75,-259.5"/>
<text text-anchor="start" x="597" y="-332.2" font-family="Times,serif" font-size="14.00">PageEmbedding</text>
<polyline fill="none" stroke="antiquewhite" points="562.75,-325 720.5,-325"/>
<text text-anchor="start" x="597.75" y="-307.7" font-family="Times,serif" font-size="14.00">output_size : int</text>
<text text-anchor="start" x="597.75" y="-291.2" font-family="Times,serif" font-size="14.00">rnn</text>
<polyline fill="none" stroke="antiquewhite" points="562.75,-284 720.5,-284"/>
<text text-anchor="start" x="570.75" y="-266.7" font-family="Times,serif" font-size="14.00">forward(pages: list[Page])</text>
</g>
<!-- document_segmentation.model.page_embedding.PageEmbedding&#45;&gt;document_segmentation.model.page_learner.AbstractPageLearner -->
<g id="edge14" class="edge">
<title>document_segmentation.model.page_embedding.PageEmbedding&#45;&gt;document_segmentation.model.page_learner.AbstractPageLearner</title>
<path fill="none" stroke="black" d="M720.91,-342C782.2,-369.31 869.65,-406.31 948.62,-432.5 962.25,-437.02 1437.14,-552.41 1449.62,-559.5 1529.74,-604.96 1602.49,-680.78 1651.9,-740.07"/>
<polygon fill="black" stroke="black" points="1651.73,-739.86 1658.63,-741.94 1659.36,-749.12 1652.46,-747.03 1651.73,-739.86"/>
<text text-anchor="middle" x="1434.5" y="-490.95" font-family="Times,serif" font-size="14.00" fill="green">_page_embedding</text>
</g>
<!-- document_segmentation.model.page_embedding.PageEmbedding&#45;&gt;document_segmentation.model.device_module.DeviceModule -->
<g id="edge2" class="edge">
<title>document_segmentation.model.page_embedding.PageEmbedding&#45;&gt;document_segmentation.model.device_module.DeviceModule</title>
<path fill="none" stroke="black" d="M642.97,-349.96C646.17,-472.35 651.88,-824.42 622.62,-1115 622.39,-1117.31 622.11,-1119.67 621.8,-1122.05"/>
<polygon fill="none" stroke="black" points="618.38,-1121.28 620.35,-1131.69 625.3,-1122.32 618.38,-1121.28"/>
</g>
<!-- document_segmentation.model.page_sequence_tagger.PageSequenceTagger -->
<g id="node10" class="node">
<title>document_segmentation.model.page_sequence_tagger.PageSequenceTagger</title>
<polygon fill="antiquewhite" stroke="antiquewhite" points="2115.12,-271.75 2115.12,-337.25 2440.12,-337.25 2440.12,-271.75 2115.12,-271.75"/>
<text text-anchor="start" x="2219.5" y="-319.95" font-family="Times,serif" font-size="14.00">PageSequenceTagger</text>
<polyline fill="none" stroke="antiquewhite" points="2115.12,-312.75 2440.12,-312.75"/>
<polyline fill="none" stroke="antiquewhite" points="2115.12,-312.75 2440.12,-312.75"/>
<text text-anchor="start" x="2123.12" y="-295.45" font-family="Times,serif" font-size="14.00">predict(inventory: Inventory): pd.DataFrame</text>
<text text-anchor="start" x="2123.12" y="-278.95" font-family="Times,serif" font-size="14.00">predict_documents(inventory: Inventory): list[list[Page]]</text>
</g>
<!-- document_segmentation.model.page_sequence_tagger.PageSequenceTagger&#45;&gt;document_segmentation.model.page_learner.AbstractPageLearner -->
<g id="edge4" class="edge">
<title>document_segmentation.model.page_sequence_tagger.PageSequenceTagger&#45;&gt;document_segmentation.model.page_learner.AbstractPageLearner</title>
<path fill="none" stroke="black" d="M2243.02,-337.71C2157.62,-417.21 1934.62,-624.77 1808.31,-742.34"/>
<polygon fill="none" stroke="black" points="1806.18,-739.54 1801.24,-748.92 1810.95,-744.67 1806.18,-739.54"/>
</g>
<!-- document_segmentation.pagexml.pagexml.PageXML -->
<g id="node11" class="node">
<title>document_segmentation.pagexml.pagexml.PageXML</title>
<polygon fill="aquamarine" stroke="aquamarine" points="3698.38,-21 3698.38,-103 4054.88,-103 4054.88,-21 3698.38,-21"/>
<text text-anchor="start" x="3848.12" y="-85.7" font-family="Times,serif" font-size="14.00">PageXML</text>
<polyline fill="none" stroke="aquamarine" points="3698.38,-78.5 4054.88,-78.5"/>
<polyline fill="none" stroke="aquamarine" points="3698.38,-78.5 4054.88,-78.5"/>
<text text-anchor="start" x="3706.38" y="-61.2" font-family="Times,serif" font-size="14.00">document_type(): list[str]</text>
<text text-anchor="start" x="3706.38" y="-44.7" font-family="Times,serif" font-size="14.00">get_regions_from_top(): list[PageXMLTextRegion]</text>
<text text-anchor="start" x="3706.38" y="-28.2" font-family="Times,serif" font-size="14.00">top_paragraph(region_types): Optional[PageXMLTextRegion]</text>
</g>
<!-- document_segmentation.pagexml.datamodel.region.Region -->
<g id="node12" class="node">
<title>document_segmentation.pagexml.datamodel.region.Region</title>
<polygon fill="aquamarine" stroke="aquamarine" points="4073.12,-0.5 4073.12,-123.5 4392.12,-123.5 4392.12,-0.5 4073.12,-0.5"/>
<text text-anchor="start" x="4213.12" y="-106.2" font-family="Times,serif" font-size="14.00">Region</text>
<polyline fill="none" stroke="aquamarine" points="4073.12,-99 4392.12,-99"/>
<text text-anchor="start" x="4132.5" y="-81.7" font-family="Times,serif" font-size="14.00">coordinates : tuple[tuple[int, int], ...]</text>
<text text-anchor="start" x="4132.5" y="-65.2" font-family="Times,serif" font-size="14.00">id : str</text>
<text text-anchor="start" x="4132.5" y="-48.7" font-family="Times,serif" font-size="14.00">lines : tuple[str, ...]</text>
<text text-anchor="start" x="4132.5" y="-32.2" font-family="Times,serif" font-size="14.00">types : tuple[RegionType, ...]</text>
<polyline fill="none" stroke="aquamarine" points="4073.12,-25 4392.12,-25"/>
<text text-anchor="start" x="4081.12" y="-7.7" font-family="Times,serif" font-size="14.00">from_pagexml(region: PageXMLTextRegion): &#39;Region&#39;</text>
</g>
<!-- document_segmentation.model.region_classifier.RegionClassifier -->
<g id="node13" class="node">
<title>document_segmentation.model.region_classifier.RegionClassifier</title>
<polygon fill="antiquewhite" stroke="antiquewhite" points="0,-463.25 0,-528.75 441.25,-528.75 441.25,-463.25 0,-463.25"/>
<text text-anchor="start" x="175.25" y="-511.45" font-family="Times,serif" font-size="14.00">RegionClassifier</text>
<polyline fill="none" stroke="antiquewhite" points="0,-504.25 441.25,-504.25"/>
<polyline fill="none" stroke="antiquewhite" points="0,-504.25 441.25,-504.25"/>
<text text-anchor="start" x="8" y="-486.95" font-family="Times,serif" font-size="14.00">forward(regions: List[Region]): torch.Tensor</text>
<text text-anchor="start" x="8" y="-470.45" font-family="Times,serif" font-size="14.00">train_(dataset: RegionDataset, epochs: int, batch_size: int, weights: list[float])</text>
</g>
<!-- document_segmentation.model.region_classifier.RegionClassifier&#45;&gt;document_segmentation.model.device_module.DeviceModule -->
<g id="edge5" class="edge">
<title>document_segmentation.model.region_classifier.RegionClassifier&#45;&gt;document_segmentation.model.device_module.DeviceModule</title>
<path fill="none" stroke="black" d="M233.24,-529.05C270.88,-622.35 389.11,-899.62 539.62,-1096 547.49,-1106.26 556.94,-1116.34 566.41,-1125.49"/>
<polygon fill="none" stroke="black" points="563.91,-1127.94 573.6,-1132.24 568.7,-1122.84 563.91,-1127.94"/>
</g>
<!-- document_segmentation.model.region_embedding.RegionEmbedding -->
<g id="node14" class="node">
<title>document_segmentation.model.region_embedding.RegionEmbedding</title>
<polygon fill="antiquewhite" stroke="antiquewhite" points="445.88,-451 445.88,-541 625.38,-541 625.38,-451 445.88,-451"/>
<text text-anchor="start" x="484.62" y="-523.7" font-family="Times,serif" font-size="14.00">RegionEmbedding</text>
<polyline fill="none" stroke="antiquewhite" points="445.88,-516.5 625.38,-516.5"/>
<text text-anchor="start" x="477.88" y="-499.2" font-family="Times,serif" font-size="14.00">output_size : int</text>
<text text-anchor="start" x="477.88" y="-482.7" font-family="Times,serif" font-size="14.00">text_embedding_size</text>
<polyline fill="none" stroke="antiquewhite" points="445.88,-475.5 625.38,-475.5"/>
<text text-anchor="start" x="453.88" y="-458.2" font-family="Times,serif" font-size="14.00">forward(regions: list[Region])</text>
</g>
<!-- document_segmentation.model.region_embedding.RegionEmbedding&#45;&gt;document_segmentation.model.device_module.DeviceModule -->
<g id="edge6" class="edge">
<title>document_segmentation.model.region_embedding.RegionEmbedding&#45;&gt;document_segmentation.model.device_module.DeviceModule</title>
<path fill="none" stroke="black" d="M540.8,-541.36C555.01,-663.09 594.49,-1001.28 608.56,-1121.85"/>
<polygon fill="none" stroke="black" points="605.07,-1122.13 609.7,-1131.66 612.02,-1121.32 605.07,-1122.13"/>
</g>
<!-- document_segmentation.model.region_embedding.RegionEmbeddingSentenceTransformer -->
<g id="node15" class="node">
<title>document_segmentation.model.region_embedding.RegionEmbeddingSentenceTransformer</title>
<polygon fill="antiquewhite" stroke="antiquewhite" points="417.12,-25.25 417.12,-98.75 652.12,-98.75 652.12,-25.25 417.12,-25.25"/>
<text text-anchor="start" x="425.12" y="-81.45" font-family="Times,serif" font-size="14.00">RegionEmbeddingSentenceTransformer</text>
<polyline fill="none" stroke="antiquewhite" points="417.12,-74.25 652.12,-74.25"/>
<text text-anchor="start" x="476.88" y="-56.95" font-family="Times,serif" font-size="14.00">text_embedding_size</text>
<polyline fill="none" stroke="antiquewhite" points="417.12,-49.75 652.12,-49.75"/>
<text text-anchor="start" x="532.75" y="-32.45" font-family="Times,serif" font-size="14.00"> </text>
</g>
<!-- document_segmentation.model.region_embedding.RegionEmbeddingSentenceTransformer&#45;&gt;document_segmentation.model.page_embedding.PageEmbedding -->
<g id="edge15" class="edge">
<title>document_segmentation.model.region_embedding.RegionEmbeddingSentenceTransformer&#45;&gt;document_segmentation.model.page_embedding.PageEmbedding</title>
<path fill="none" stroke="black" d="M550.64,-99.01C568.09,-138.22 596.22,-201.45 616.59,-247.23"/>
<polygon fill="black" stroke="black" points="616.61,-247.27 622.7,-251.13 621.49,-258.23 615.39,-254.38 616.61,-247.27"/>
<text text-anchor="middle" x="616.88" y="-145.2" font-family="Times,serif" font-size="14.00" fill="green">_region_model</text>
</g>
<!-- document_segmentation.model.region_embedding.RegionEmbeddingSentenceTransformer&#45;&gt;document_segmentation.model.region_classifier.RegionClassifier -->
<g id="edge16" class="edge">
<title>document_segmentation.model.region_embedding.RegionEmbeddingSentenceTransformer&#45;&gt;document_segmentation.model.region_classifier.RegionClassifier</title>
<path fill="none" stroke="black" d="M473.32,-99.21C455.74,-111.4 437.42,-126 422.88,-142 335.02,-238.63 268.57,-379.82 238.43,-450.8"/>
<polygon fill="black" stroke="black" points="238.39,-450.9 239.76,-457.98 233.75,-461.97 232.38,-454.89 238.39,-450.9"/>
<text text-anchor="middle" x="478" y="-145.2" font-family="Times,serif" font-size="14.00" fill="green">_region_embedding</text>
</g>
<!-- document_segmentation.model.region_embedding.RegionEmbeddingSentenceTransformer&#45;&gt;document_segmentation.model.region_embedding.RegionEmbedding -->
<g id="edge7" class="edge">
<title>document_segmentation.model.region_embedding.RegionEmbeddingSentenceTransformer&#45;&gt;document_segmentation.model.region_embedding.RegionEmbedding</title>
<path fill="none" stroke="black" d="M534.71,-99.09C534.88,-174.56 535.29,-349.52 535.5,-439.44"/>
<polygon fill="none" stroke="black" points="532,-439.25 535.52,-449.24 539,-439.24 532,-439.25"/>
</g>
<!-- document_segmentation.pagexml.datamodel.region.RegionType -->
<g id="node16" class="node">
<title>document_segmentation.pagexml.datamodel.region.RegionType</title>
<polygon fill="aquamarine" stroke="aquamarine" points="4410,-17 4410,-107 4719.25,-107 4719.25,-17 4410,-17"/>
<text text-anchor="start" x="4531.25" y="-89.7" font-family="Times,serif" font-size="14.00">RegionType</text>
<polyline fill="none" stroke="aquamarine" points="4410,-82.5 4719.25,-82.5"/>
<text text-anchor="start" x="4549.62" y="-65.2" font-family="Times,serif" font-size="14.00">name</text>
<polyline fill="none" stroke="aquamarine" points="4410,-58 4719.25,-58"/>
<text text-anchor="start" x="4418" y="-40.7" font-family="Times,serif" font-size="14.00">index(): int</text>
<text text-anchor="start" x="4418" y="-24.2" font-family="Times,serif" font-size="14.00">indices(region_types: Iterable[&#39;RegionType&#39;]): list[int]</text>
</g>
<!-- document_segmentation.pagexml.annotations.renate_analysis.RenateAnalysis -->
<g id="node17" class="node">
<title>document_segmentation.pagexml.annotations.renate_analysis.RenateAnalysis</title>
<polygon fill="aquamarine" stroke="aquamarine" points="2946.75,-21 2946.75,-103 3356.5,-103 3356.5,-21 2946.75,-21"/>
<text text-anchor="start" x="3109.25" y="-85.7" font-family="Times,serif" font-size="14.00">RenateAnalysis</text>
<polyline fill="none" stroke="aquamarine" points="2946.75,-78.5 3356.5,-78.5"/>
<polyline fill="none" stroke="aquamarine" points="2946.75,-78.5 3356.5,-78.5"/>
<text text-anchor="start" x="2954.75" y="-61.2" font-family="Times,serif" font-size="14.00">annotated_rows(inventory: Inventory): pd.DataFrame</text>
<text text-anchor="start" x="2954.75" y="-44.7" font-family="Times,serif" font-size="14.00">documents(): Iterable[Document]</text>
<text text-anchor="start" x="2954.75" y="-28.2" font-family="Times,serif" font-size="14.00">documents_from_sheet(sheet: &#39;RenateAnalysisInv&#39;): Iterable[Document]</text>
</g>
<!-- document_segmentation.pagexml.annotations.renate_analysis.RenateAnalysis&#45;&gt;document_segmentation.pagexml.annotations.sheet.Sheet -->
<g id="edge9" class="edge">
<title>document_segmentation.pagexml.annotations.renate_analysis.RenateAnalysis&#45;&gt;document_segmentation.pagexml.annotations.sheet.Sheet</title>
<path fill="none" stroke="black" d="M3151.62,-103.25C3151.62,-134.65 3151.62,-179.37 3151.62,-218.59"/>
<polygon fill="none" stroke="black" points="3148.13,-218.51 3151.63,-228.51 3155.13,-218.51 3148.13,-218.51"/>
</g>
<!-- document_segmentation.pagexml.annotations.renate_analysis.RenateAnalysisInv -->
<g id="node18" class="node">
<title>document_segmentation.pagexml.annotations.renate_analysis.RenateAnalysisInv</title>
<polygon fill="aquamarine" stroke="aquamarine" points="3374.88,-8.75 3374.88,-115.25 3680.38,-115.25 3680.38,-8.75 3374.88,-8.75"/>
<text text-anchor="start" x="3476.25" y="-97.95" font-family="Times,serif" font-size="14.00">RenateAnalysisInv</text>
<polyline fill="none" stroke="aquamarine" points="3374.88,-90.75 3680.38,-90.75"/>
<text text-anchor="start" x="3447" y="-73.45" font-family="Times,serif" font-size="14.00">NON_DOC_TYPES : set[str]</text>
<polyline fill="none" stroke="aquamarine" points="3374.88,-66.25 3680.38,-66.25"/>
<text text-anchor="start" x="3382.88" y="-48.95" font-family="Times,serif" font-size="14.00">annotate_inventory(inventory: Inventory): &#39;Inventory&#39;</text>
<text text-anchor="start" x="3382.88" y="-32.45" font-family="Times,serif" font-size="14.00">inventories(): Iterable[Inventory]</text>
<text text-anchor="start" x="3382.88" y="-15.95" font-family="Times,serif" font-size="14.00">inventory_numbers(): Iterable[tuple[int, str]]</text>
</g>
<!-- document_segmentation.pagexml.annotations.renate_analysis.RenateAnalysisInv&#45;&gt;document_segmentation.pagexml.annotations.sheet.Sheet -->
<g id="edge10" class="edge">
<title>document_segmentation.pagexml.annotations.renate_analysis.RenateAnalysisInv&#45;&gt;document_segmentation.pagexml.annotations.sheet.Sheet</title>
<path fill="none" stroke="black" d="M3445.57,-115.48C3395.94,-147.23 3331.67,-188.34 3275.89,-224.01"/>
<polygon fill="none" stroke="black" points="3274.12,-221 3267.58,-229.33 3277.89,-226.89 3274.12,-221"/>
</g>
<!-- document_segmentation.pagexml.datamodel.label.SequenceLabel -->
<g id="node19" class="node">
<title>document_segmentation.pagexml.datamodel.label.SequenceLabel</title>
<polygon fill="aquamarine" stroke="aquamarine" points="2228.38,-25.25 2228.38,-98.75 2326.88,-98.75 2326.88,-25.25 2228.38,-25.25"/>
<text text-anchor="start" x="2236.38" y="-81.45" font-family="Times,serif" font-size="14.00">SequenceLabel</text>
<polyline fill="none" stroke="aquamarine" points="2228.38,-74.25 2326.88,-74.25"/>
<text text-anchor="start" x="2262.62" y="-56.95" font-family="Times,serif" font-size="14.00">name</text>
<polyline fill="none" stroke="aquamarine" points="2228.38,-49.75 2326.88,-49.75"/>
<text text-anchor="start" x="2275.75" y="-32.45" font-family="Times,serif" font-size="14.00"> </text>
</g>
<!-- document_segmentation.pagexml.datamodel.label.SequenceLabel&#45;&gt;document_segmentation.pagexml.datamodel.label.Label -->
<g id="edge12" class="edge">
<title>document_segmentation.pagexml.datamodel.label.SequenceLabel&#45;&gt;document_segmentation.pagexml.datamodel.label.Label</title>
<path fill="none" stroke="black" d="M2228.22,-92.38C2192.96,-114.11 2145,-145.25 2105.62,-176.5 2076.75,-199.42 2046.78,-227.37 2022.52,-251.22"/>
<polygon fill="none" stroke="black" points="2020.25,-248.54 2015.6,-258.07 2025.17,-253.52 2020.25,-248.54"/>
</g>
<!-- document_segmentation.pagexml.datamodel.label.SequenceLabel&#45;&gt;document_segmentation.pagexml.datamodel.page.Page -->
<g id="edge21" class="edge">
<title>document_segmentation.pagexml.datamodel.label.SequenceLabel&#45;&gt;document_segmentation.pagexml.datamodel.page.Page</title>
<path fill="none" stroke="black" d="M2327.07,-92.73C2360.5,-112.83 2407.24,-140.93 2455.72,-170.08"/>
<polygon fill="none" stroke="black" points="2455.68,-170.06 2462.89,-169.72 2465.97,-176.24 2458.76,-176.58 2455.68,-170.06"/>
<text text-anchor="middle" x="2443.75" y="-145.2" font-family="Times,serif" font-size="14.00" fill="green">label</text>
</g>
<!-- document_segmentation.pagexml.datamodel.label.SequenceLabel&#45;&gt;document_segmentation.model.page_sequence_tagger.PageSequenceTagger -->
<g id="edge17" class="edge">
<title>document_segmentation.pagexml.datamodel.label.SequenceLabel&#45;&gt;document_segmentation.model.page_sequence_tagger.PageSequenceTagger</title>
<path fill="none" stroke="black" d="M2277.62,-99.01C2277.62,-141.58 2277.62,-212.48 2277.62,-258.6"/>
<polygon fill="black" stroke="black" points="2277.63,-258.58 2281.63,-264.58 2277.63,-270.58 2273.63,-264.58 2277.63,-258.58"/>
<text text-anchor="middle" x="2323" y="-145.2" font-family="Times,serif" font-size="14.00" fill="green">_LABEL_TYPE</text>
</g>
<!-- document_segmentation.pagexml.datamodel.label.Tanap -->
<g id="node21" class="node">
<title>document_segmentation.pagexml.datamodel.label.Tanap</title>
<polygon fill="aquamarine" stroke="aquamarine" points="1667.62,-25.25 1667.62,-98.75 1721.62,-98.75 1721.62,-25.25 1667.62,-25.25"/>
<text text-anchor="start" x="1677.62" y="-81.45" font-family="Times,serif" font-size="14.00">Tanap</text>
<polyline fill="none" stroke="aquamarine" points="1667.62,-74.25 1721.38,-74.25"/>
<text text-anchor="start" x="1679.5" y="-56.95" font-family="Times,serif" font-size="14.00">name</text>
<polyline fill="none" stroke="aquamarine" points="1667.62,-49.75 1721.38,-49.75"/>
<text text-anchor="start" x="1692.62" y="-32.45" font-family="Times,serif" font-size="14.00"> </text>
</g>
<!-- document_segmentation.pagexml.datamodel.label.Tanap&#45;&gt;document_segmentation.pagexml.datamodel.document.Document -->
<g id="edge19" class="edge">
<title>document_segmentation.pagexml.datamodel.label.Tanap&#45;&gt;document_segmentation.pagexml.datamodel.document.Document</title>
<path fill="none" stroke="black" d="M1667.24,-65.35C1593.15,-72.58 1384.02,-98.97 1230.62,-176.5 1193.56,-195.23 1157.64,-224.55 1130.04,-250.3"/>
<polygon fill="black" stroke="black" points="1129.98,-250.35 1128.39,-257.39 1121.28,-258.62 1122.88,-251.58 1129.98,-250.35"/>
<text text-anchor="middle" x="1315.75" y="-145.2" font-family="Times,serif" font-size="14.00" fill="green">label</text>
</g>
<!-- document_segmentation.pagexml.datamodel.label.Tanap&#45;&gt;document_segmentation.model.document_classifier.DocumentClassifier -->
<g id="edge18" class="edge">
<title>document_segmentation.pagexml.datamodel.label.Tanap&#45;&gt;document_segmentation.model.document_classifier.DocumentClassifier</title>
<path fill="none" stroke="black" d="M1694.62,-99.01C1694.62,-144.23 1694.62,-221.4 1694.62,-266.9"/>
<polygon fill="black" stroke="black" points="1694.63,-266.76 1698.63,-272.76 1694.63,-278.76 1690.63,-272.76 1694.63,-266.76"/>
<text text-anchor="middle" x="1740" y="-145.2" font-family="Times,serif" font-size="14.00" fill="green">_LABEL_TYPE</text>
</g>
<!-- document_segmentation.pagexml.datamodel.label.Tanap&#45;&gt;document_segmentation.pagexml.datamodel.label.Label -->
<g id="edge13" class="edge">
<title>document_segmentation.pagexml.datamodel.label.Tanap&#45;&gt;document_segmentation.pagexml.datamodel.label.Label</title>
<path fill="none" stroke="black" d="M1722.11,-83.91C1751.11,-106.22 1797.89,-142.89 1836.62,-176.5 1864.14,-200.37 1893.72,-227.96 1918.16,-251.32"/>
<polygon fill="none" stroke="black" points="1915.5,-253.62 1925.14,-258.02 1920.35,-248.57 1915.5,-253.62"/>
</g>
<!-- document_segmentation.pagexml.datamodel.inventory.ThumbnailDownloader -->
<g id="node22" class="node">
<title>document_segmentation.pagexml.datamodel.inventory.ThumbnailDownloader</title>
<polygon fill="aquamarine" stroke="aquamarine" points="1240,-239.25 1240,-369.75 1543.25,-369.75 1543.25,-239.25 1240,-239.25"/>
<text text-anchor="start" x="1328.25" y="-352.45" font-family="Times,serif" font-size="14.00">ThumbnailDownloader</text>
<polyline fill="none" stroke="aquamarine" points="1240,-345.25 1543.25,-345.25"/>
<polyline fill="none" stroke="aquamarine" points="1240,-345.25 1543.25,-345.25"/>
<text text-anchor="start" x="1248" y="-328.95" font-family="Times,serif" font-size="14.00">download(inventory: Inventory, page: Page): Path</text>
<text text-anchor="start" x="1248" y="-314.95" font-family="Times,serif" font-size="14.00">from_file(file: Path): &#39;ThumbnailDownloader&#39;</text>
<text text-anchor="start" x="1248" y="-300.95" font-family="Times,serif" font-style="italic" font-size="14.00">from_url</text>
<text text-anchor="start" x="1296" y="-300.95" font-family="Times,serif" font-size="14.00">(url)</text>
<text text-anchor="start" x="1248" y="-286.95" font-family="Times,serif" font-size="14.00">get_metadata(inventory: Inventory, page: Page): dict</text>
<text text-anchor="start" x="1248" y="-272.95" font-family="Times,serif" font-size="14.00">get_uuid(inventory: Inventory): UUID</text>
<text text-anchor="start" x="1248" y="-258.95" font-family="Times,serif" font-size="14.00">thumbnail(inventory: Inventory, page: Page): Path</text>
<text text-anchor="start" x="1248" y="-244.95" font-family="Times,serif" font-size="14.00">thumbnail_url(inventory: Inventory, page: Page): str</text>
</g>
<!-- document_segmentation.pagexml.datamodel.inventory.ThumbnailDownloader&#45;&gt;document_segmentation.model.page_learner.AbstractPageLearner -->
<g id="edge20" class="edge">
<title>document_segmentation.pagexml.datamodel.inventory.ThumbnailDownloader&#45;&gt;document_segmentation.model.page_learner.AbstractPageLearner</title>
<path fill="none" stroke="black" d="M1432.09,-370.2C1490.23,-463.16 1597.55,-634.75 1662.77,-739.04"/>
<polygon fill="none" stroke="black" points="1662.69,-738.92 1669.26,-741.88 1669.05,-749.09 1662.48,-746.12 1662.69,-738.92"/>
<text text-anchor="middle" x="1602" y="-490.95" font-family="Times,serif" font-size="14.00" fill="green">_thumbnail_downloader</text>
</g>
</g>
</svg>
