<?xml version="1.0" encoding="UTF-8" standalone="no"?>
<!DOCTYPE svg PUBLIC "-//W3C//DTD SVG 1.1//EN"
 "http://www.w3.org/Graphics/SVG/1.1/DTD/svg11.dtd">
<!-- Generated by graphviz version 9.0.0 (20230911.1827)
 -->
<!-- Title: classes Pages: 1 -->
<svg width="3192pt" height="1257pt"
 viewBox="0.00 0.00 3192.25 1257.00" xmlns="http://www.w3.org/2000/svg" xmlns:xlink="http://www.w3.org/1999/xlink">
<g id="graph0" class="graph" transform="scale(1 1) rotate(0) translate(4 1253)">
<title>classes</title>
<polygon fill="white" stroke="none" points="-4,4 -4,-1253 3188.25,-1253 3188.25,4 -4,4"/>
<!-- document_segmentation.model.device_module.DeviceModule -->
<g id="node1" class="node">
<title>document_segmentation.model.device_module.DeviceModule</title>
<polygon fill="antiquewhite" stroke="antiquewhite" points="766.5,-1183 766.5,-1248.5 1024.75,-1248.5 1024.75,-1183 766.5,-1183"/>
<text text-anchor="start" x="855.12" y="-1231.2" font-family="Times,serif" font-size="14.00">DeviceModule</text>
<polyline fill="none" stroke="antiquewhite" points="766.5,-1224 1024.75,-1224"/>
<polyline fill="none" stroke="antiquewhite" points="766.5,-1224 1024.75,-1224"/>
<text text-anchor="start" x="774.5" y="-1206.7" font-family="Times,serif" font-size="14.00">get_device(backends: list[ModuleType]): str</text>
<text text-anchor="start" x="774.5" y="-1190.2" font-family="Times,serif" font-size="14.00">to_device(device: Optional[str])</text>
</g>
<!-- document_segmentation.pagexml.annotations.generale_missiven.GeneraleMissiven -->
<g id="node2" class="node">
<title>document_segmentation.pagexml.annotations.generale_missiven.GeneraleMissiven</title>
<polygon fill="aquamarine" stroke="aquamarine" points="1324.12,-684.25 1324.12,-733.25 1439.12,-733.25 1439.12,-684.25 1324.12,-684.25"/>
<text text-anchor="start" x="1332.12" y="-715.95" font-family="Times,serif" font-size="14.00">GeneraleMissiven</text>
<polyline fill="none" stroke="aquamarine" points="1324.12,-708.75 1439.12,-708.75"/>
<polyline fill="none" stroke="aquamarine" points="1324.12,-708.75 1439.12,-708.75"/>
<text text-anchor="start" x="1379.75" y="-691.45" font-family="Times,serif" font-size="14.00"> </text>
</g>
<!-- document_segmentation.pagexml.annotations.sheet.Sheet -->
<g id="node17" class="node">
<title>document_segmentation.pagexml.annotations.sheet.Sheet</title>
<polygon fill="aquamarine" stroke="aquamarine" points="1271.25,-993 1271.25,-1124.5 1744,-1124.5 1744,-993 1271.25,-993"/>
<text text-anchor="start" x="1492.62" y="-1107.2" font-family="Times,serif" font-size="14.00">Sheet</text>
<polyline fill="none" stroke="aquamarine" points="1271.25,-1100 1744,-1100"/>
<polyline fill="none" stroke="aquamarine" points="1271.25,-1100 1744,-1100"/>
<text text-anchor="start" x="1279.25" y="-1082.7" font-family="Times,serif" font-size="14.00">all_annotated_inventories(n: Optional[int]): Iterable[&#39;Inventory&#39;]</text>
<text text-anchor="start" x="1279.25" y="-1066.2" font-family="Times,serif" font-size="14.00">annotate_inventory(inventory: Inventory): Inventory</text>
<text text-anchor="start" x="1279.25" y="-1049.7" font-family="Times,serif" font-size="14.00">download_inventories()</text>
<text text-anchor="start" x="1279.25" y="-1033.2" font-family="Times,serif" font-size="14.00">inventories(): Iterable[Inventory]</text>
<text text-anchor="start" x="1279.25" y="-1016.7" font-family="Times,serif" font-size="14.00">inventory_numbers(): Iterable[tuple[int, str]]</text>
<text text-anchor="start" x="1279.25" y="-1000.2" font-family="Times,serif" font-size="14.00">preprocess(inventory: Inventory, min_region_text_length, max_size: int): Inventory</text>
</g>
<!-- document_segmentation.pagexml.annotations.generale_missiven.GeneraleMissiven&#45;&gt;document_segmentation.pagexml.annotations.sheet.Sheet -->
<g id="edge7" class="edge">
<title>document_segmentation.pagexml.annotations.generale_missiven.GeneraleMissiven&#45;&gt;document_segmentation.pagexml.annotations.sheet.Sheet</title>
<path fill="none" stroke="black" d="M1390.29,-733.67C1408.56,-784.15 1451.74,-903.41 1480.31,-982.32"/>
<polygon fill="none" stroke="black" points="1476.86,-983.06 1483.55,-991.27 1483.44,-980.67 1476.86,-983.06"/>
</g>
<!-- document_segmentation.pagexml.datamodel.inventory.Inventory -->
<g id="node3" class="node">
<title>document_segmentation.pagexml.datamodel.inventory.Inventory</title>
<polygon fill="aquamarine" stroke="aquamarine" points="1527.12,-0.5 1527.12,-519.5 1930.12,-519.5 1930.12,-0.5 1527.12,-0.5"/>
<text text-anchor="start" x="1702.38" y="-502.2" font-family="Times,serif" font-size="14.00">Inventory</text>
<polyline fill="none" stroke="aquamarine" points="1527.12,-495 1930.12,-495"/>
<text text-anchor="start" x="1676.5" y="-477.7" font-family="Times,serif" font-size="14.00">inv_nr</text>
<text text-anchor="start" x="1676.5" y="-461.2" font-family="Times,serif" font-size="14.00">inventory_part : str</text>
<text text-anchor="start" x="1676.5" y="-444.7" font-family="Times,serif" font-size="14.00">pages</text>
<text text-anchor="start" x="1676.5" y="-428.2" font-family="Times,serif" font-size="14.00">pages : list[Page]</text>
<polyline fill="none" stroke="aquamarine" points="1527.12,-421 1930.12,-421"/>
<text text-anchor="start" x="1535.12" y="-403.7" font-family="Times,serif" font-size="14.00">annotate_scan(scan_nr: int, label: Label)</text>
<text text-anchor="start" x="1535.12" y="-387.2" font-family="Times,serif" font-size="14.00">class_counts(): Counter[Label]</text>
<text text-anchor="start" x="1535.12" y="-370.7" font-family="Times,serif" font-size="14.00">class_weights(): list[float]</text>
<text text-anchor="start" x="1535.12" y="-354.2" font-family="Times,serif" font-size="14.00">download(inv_nr: int, inventory_part: str): &#39;Inventory&#39;</text>
<text text-anchor="start" x="1535.12" y="-337.7" font-family="Times,serif" font-size="14.00">empty_unlabelled(): &#39;Inventory&#39;</text>
<text text-anchor="start" x="1535.12" y="-321.2" font-family="Times,serif" font-size="14.00">from_file(file: Path): &#39;Inventory&#39;</text>
<text text-anchor="start" x="1535.12" y="-304.7" font-family="Times,serif" font-size="14.00">full_inv_nr(): str</text>
<text text-anchor="start" x="1535.12" y="-288.2" font-family="Times,serif" font-size="14.00">get_scan(scan_nr: int): Page</text>
<text text-anchor="start" x="1535.12" y="-271.7" font-family="Times,serif" font-size="14.00">has_labels(): bool</text>
<text text-anchor="start" x="1535.12" y="-255.2" font-family="Times,serif" font-size="14.00">head(n: int): &#39;Inventory&#39;</text>
<text text-anchor="start" x="1535.12" y="-238.7" font-family="Times,serif" font-size="14.00">label_tensor(): torch.Tensor</text>
<text text-anchor="start" x="1535.12" y="-222.2" font-family="Times,serif" font-size="14.00">labelled(): list[Page]</text>
<text text-anchor="start" x="1535.12" y="-205.7" font-family="Times,serif" font-size="14.00">labelled_inventories(): Iterable[&#39;Inventory&#39;]</text>
<text text-anchor="start" x="1535.12" y="-189.2" font-family="Times,serif" font-size="14.00">labels(): list[Label]</text>
<text text-anchor="start" x="1535.12" y="-172.7" font-family="Times,serif" font-size="14.00">link(page: Page): str</text>
<text text-anchor="start" x="1535.12" y="-156.2" font-family="Times,serif" font-size="14.00">load(inv_nr: int, inventory_part: str, inventory_dir: Path)</text>
<text text-anchor="start" x="1535.12" y="-139.7" font-family="Times,serif" font-size="14.00">load_or_download(inv_nr: int, inventory_part: str, inventory_dir: Path)</text>
<text text-anchor="start" x="1535.12" y="-123.2" font-family="Times,serif" font-size="14.00">local_file(inv_nr: int, inventory_part: str, directory: Path): Path</text>
<text text-anchor="start" x="1535.12" y="-106.7" font-family="Times,serif" font-size="14.00">remove_empty_pages(): &#39;Inventory&#39;</text>
<text text-anchor="start" x="1535.12" y="-90.2" font-family="Times,serif" font-size="14.00">remove_scan(scan_nr: int): &#39;Inventory&#39;</text>
<text text-anchor="start" x="1535.12" y="-73.7" font-family="Times,serif" font-size="14.00">remove_short_regions(min_chars: int): &#39;Inventory&#39;</text>
<text text-anchor="start" x="1535.12" y="-57.2" font-family="Times,serif" font-size="14.00">split(max_size): Iterable[&#39;Inventory&#39;]</text>
<text text-anchor="start" x="1535.12" y="-40.7" font-family="Times,serif" font-size="14.00">total_class_weights(inventories: Iterable[&#39;Inventory&#39;]): list[float]</text>
<text text-anchor="start" x="1535.12" y="-24.2" font-family="Times,serif" font-size="14.00">validate_inv_part(value: str): str</text>
<text text-anchor="start" x="1535.12" y="-7.7" font-family="Times,serif" font-size="14.00">write(target_file: Optional[Path], mode): Path</text>
</g>
<!-- document_segmentation.pagexml.annotations.renate_analysis.RenateAnalysisInv -->
<g id="node16" class="node">
<title>document_segmentation.pagexml.annotations.renate_analysis.RenateAnalysisInv</title>
<polygon fill="aquamarine" stroke="aquamarine" points="1575.88,-667.75 1575.88,-749.75 1881.38,-749.75 1881.38,-667.75 1575.88,-667.75"/>
<text text-anchor="start" x="1677.25" y="-732.45" font-family="Times,serif" font-size="14.00">RenateAnalysisInv</text>
<polyline fill="none" stroke="aquamarine" points="1575.88,-725.25 1881.38,-725.25"/>
<polyline fill="none" stroke="aquamarine" points="1575.88,-725.25 1881.38,-725.25"/>
<text text-anchor="start" x="1583.88" y="-707.95" font-family="Times,serif" font-size="14.00">annotate_inventory(inventory: Inventory): &#39;Inventory&#39;</text>
<text text-anchor="start" x="1583.88" y="-691.45" font-family="Times,serif" font-size="14.00">inventories(): Iterable[Inventory]</text>
<text text-anchor="start" x="1583.88" y="-674.95" font-family="Times,serif" font-size="14.00">inventory_numbers(): Iterable[tuple[int, str]]</text>
</g>
<!-- document_segmentation.pagexml.datamodel.inventory.Inventory&#45;&gt;document_segmentation.pagexml.annotations.renate_analysis.RenateAnalysisInv -->
<g id="edge14" class="edge">
<title>document_segmentation.pagexml.datamodel.inventory.Inventory&#45;&gt;document_segmentation.pagexml.annotations.renate_analysis.RenateAnalysisInv</title>
<path fill="none" stroke="black" d="M1728.62,-519.91C1728.62,-571.17 1728.62,-619.87 1728.62,-654.84"/>
<polygon fill="black" stroke="black" points="1728.63,-654.64 1732.63,-660.64 1728.63,-666.64 1724.63,-660.64 1728.63,-654.64"/>
<text text-anchor="middle" x="1757.88" y="-541.2" font-family="Times,serif" font-size="14.00" fill="green">_inventory</text>
</g>
<!-- document_segmentation.pagexml.datamodel.label.Label -->
<g id="node4" class="node">
<title>document_segmentation.pagexml.datamodel.label.Label</title>
<polygon fill="aquamarine" stroke="aquamarine" points="2039.62,-223.25 2039.62,-296.75 2145.62,-296.75 2145.62,-223.25 2039.62,-223.25"/>
<text text-anchor="start" x="2077.25" y="-279.45" font-family="Times,serif" font-size="14.00">Label</text>
<polyline fill="none" stroke="aquamarine" points="2039.62,-272.25 2145.62,-272.25"/>
<text text-anchor="start" x="2077.62" y="-254.95" font-family="Times,serif" font-size="14.00">name</text>
<polyline fill="none" stroke="aquamarine" points="2039.62,-247.75 2145.62,-247.75"/>
<text text-anchor="start" x="2047.62" y="-230.45" font-family="Times,serif" font-size="14.00">to_list(): list[int]</text>
</g>
<!-- document_segmentation.pagexml.datamodel.page.Page -->
<g id="node5" class="node">
<title>document_segmentation.pagexml.datamodel.page.Page</title>
<polygon fill="aquamarine" stroke="aquamarine" points="1899,-573 1899,-844.5 2286.25,-844.5 2286.25,-573 1899,-573"/>
<text text-anchor="start" x="2079.5" y="-827.2" font-family="Times,serif" font-size="14.00">Page</text>
<polyline fill="none" stroke="aquamarine" points="1899,-820 2286.25,-820"/>
<text text-anchor="start" x="2033.75" y="-802.7" font-family="Times,serif" font-size="14.00">doc_id : Optional[str]</text>
<text text-anchor="start" x="2033.75" y="-786.2" font-family="Times,serif" font-size="14.00">external_ref : str</text>
<text text-anchor="start" x="2033.75" y="-769.7" font-family="Times,serif" font-size="14.00">label</text>
<text text-anchor="start" x="2033.75" y="-753.2" font-family="Times,serif" font-size="14.00">label : OUT</text>
<text text-anchor="start" x="2033.75" y="-736.7" font-family="Times,serif" font-size="14.00">regions : list</text>
<text text-anchor="start" x="2033.75" y="-720.2" font-family="Times,serif" font-size="14.00">regions : list[Region]</text>
<text text-anchor="start" x="2033.75" y="-703.7" font-family="Times,serif" font-size="14.00">scan_nr</text>
<polyline fill="none" stroke="aquamarine" points="1899,-696.5 2286.25,-696.5"/>
<text text-anchor="start" x="1907" y="-679.2" font-family="Times,serif" font-size="14.00">empty(): &#39;Page&#39;</text>
<text text-anchor="start" x="1907" y="-662.7" font-family="Times,serif" font-size="14.00">enum_from_int(value)</text>
<text text-anchor="start" x="1907" y="-646.2" font-family="Times,serif" font-size="14.00">filter_short_regions(min_chars: int): &#39;Page&#39;</text>
<text text-anchor="start" x="1907" y="-629.7" font-family="Times,serif" font-size="14.00">from_pagexml(label: Label, scan_nr: int, pagexml: PageXMLScan)</text>
<text text-anchor="start" x="1907" y="-613.2" font-family="Times,serif" font-size="14.00">guess_doc_id(inv_nr: str): str</text>
<text text-anchor="start" x="1907" y="-596.7" font-family="Times,serif" font-size="14.00">is_shorter_than(): bool</text>
<text text-anchor="start" x="1907" y="-580.2" font-family="Times,serif" font-size="14.00">text(delimiter: str): str</text>
</g>
<!-- document_segmentation.pagexml.datamodel.label.Label&#45;&gt;document_segmentation.pagexml.datamodel.page.Page -->
<g id="edge15" class="edge">
<title>document_segmentation.pagexml.datamodel.label.Label&#45;&gt;document_segmentation.pagexml.datamodel.page.Page</title>
<path fill="none" stroke="black" d="M2092.62,-297.18C2092.62,-353.82 2092.62,-466.58 2092.62,-559.62"/>
<polygon fill="black" stroke="black" points="2092.63,-559.71 2096.63,-565.71 2092.63,-571.71 2088.63,-565.71 2092.63,-559.71"/>
<text text-anchor="middle" x="2105.75" y="-541.2" font-family="Times,serif" font-size="14.00" fill="green">label</text>
</g>
<!-- document_segmentation.model.page_classifier.PageClassifier -->
<g id="node6" class="node">
<title>document_segmentation.model.page_classifier.PageClassifier</title>
<polygon fill="antiquewhite" stroke="antiquewhite" points="647.25,-1026 647.25,-1091.5 1144,-1091.5 1144,-1026 647.25,-1026"/>
<text text-anchor="start" x="856.62" y="-1074.2" font-family="Times,serif" font-size="14.00">PageClassifier</text>
<polyline fill="none" stroke="antiquewhite" points="647.25,-1067 1144,-1067"/>
<polyline fill="none" stroke="antiquewhite" points="647.25,-1067 1144,-1067"/>
<text text-anchor="start" x="655.25" y="-1049.7" font-family="Times,serif" font-size="14.00">forward(pages: PageDataset)</text>
<text text-anchor="start" x="655.25" y="-1033.2" font-family="Times,serif" font-size="14.00">train_(pages: PageDataset, epochs: int, batch_size: int, weights: Optional[torch.Tensor])</text>
</g>
<!-- document_segmentation.model.page_classifier.PageClassifier&#45;&gt;document_segmentation.model.device_module.DeviceModule -->
<g id="edge1" class="edge">
<title>document_segmentation.model.page_classifier.PageClassifier&#45;&gt;document_segmentation.model.device_module.DeviceModule</title>
<path fill="none" stroke="black" d="M895.62,-1091.87C895.62,-1114.83 895.62,-1146 895.62,-1171.21"/>
<polygon fill="none" stroke="black" points="892.13,-1171.16 895.63,-1181.16 899.13,-1171.16 892.13,-1171.16"/>
</g>
<!-- document_segmentation.model.page_embedding.PageEmbedding -->
<g id="node7" class="node">
<title>document_segmentation.model.page_embedding.PageEmbedding</title>
<polygon fill="antiquewhite" stroke="antiquewhite" points="556.75,-663.75 556.75,-753.75 714.5,-753.75 714.5,-663.75 556.75,-663.75"/>
<text text-anchor="start" x="591" y="-736.45" font-family="Times,serif" font-size="14.00">PageEmbedding</text>
<polyline fill="none" stroke="antiquewhite" points="556.75,-729.25 714.5,-729.25"/>
<text text-anchor="start" x="591.75" y="-711.95" font-family="Times,serif" font-size="14.00">output_size : int</text>
<text text-anchor="start" x="591.75" y="-695.45" font-family="Times,serif" font-size="14.00">rnn</text>
<polyline fill="none" stroke="antiquewhite" points="556.75,-688.25 714.5,-688.25"/>
<text text-anchor="start" x="564.75" y="-670.95" font-family="Times,serif" font-size="14.00">forward(pages: list[Page])</text>
</g>
<!-- document_segmentation.model.page_embedding.PageEmbedding&#45;&gt;document_segmentation.model.device_module.DeviceModule -->
<g id="edge2" class="edge">
<title>document_segmentation.model.page_embedding.PageEmbedding&#45;&gt;document_segmentation.model.device_module.DeviceModule</title>
<path fill="none" stroke="black" d="M629.37,-753.91C616.45,-852.37 591.72,-1085.91 638.62,-1145.5 654.3,-1165.42 703.73,-1180.98 755.11,-1192.26"/>
<polygon fill="none" stroke="black" points="754.1,-1195.63 764.61,-1194.29 755.56,-1188.78 754.1,-1195.63"/>
</g>
<!-- document_segmentation.model.page_embedding.PageEmbedding&#45;&gt;document_segmentation.model.page_classifier.PageClassifier -->
<g id="edge10" class="edge">
<title>document_segmentation.model.page_embedding.PageEmbedding&#45;&gt;document_segmentation.model.page_classifier.PageClassifier</title>
<path fill="none" stroke="black" d="M632.42,-754.05C628.88,-815.58 626.25,-922.86 648.12,-954 669.15,-983.92 700.55,-1005.25 733.99,-1020.44"/>
<polygon fill="black" stroke="black" points="734.04,-1020.46 741.13,-1019.16 745.06,-1025.21 737.97,-1026.51 734.04,-1020.46"/>
<text text-anchor="middle" x="682.38" y="-903.45" font-family="Times,serif" font-size="14.00" fill="green">_embedding</text>
</g>
<!-- document_segmentation.model.page_sequence_tagger.PageSequenceTagger -->
<g id="node8" class="node">
<title>document_segmentation.model.page_sequence_tagger.PageSequenceTagger</title>
<polygon fill="antiquewhite" stroke="antiquewhite" points="0,-972.5 0,-1145 591.25,-1145 591.25,-972.5 0,-972.5"/>
<text text-anchor="start" x="237.5" y="-1127.7" font-family="Times,serif" font-size="14.00">PageSequenceTagger</text>
<polyline fill="none" stroke="antiquewhite" points="0,-1120.5 591.25,-1120.5"/>
<text text-anchor="start" x="231.12" y="-1103.2" font-family="Times,serif" font-size="14.00">wandb_run</text>
<text text-anchor="start" x="231.12" y="-1086.7" font-family="Times,serif" font-size="14.00">wandb_run : NoneType</text>
<polyline fill="none" stroke="antiquewhite" points="0,-1079.5 591.25,-1079.5"/>
<text text-anchor="start" x="8" y="-1062.2" font-family="Times,serif" font-size="14.00">eval_(inventories: list[Inventory], sheet_name: str): tuple[Metric, Metric, Metric, Metric, pd.DataFrame]</text>
<text text-anchor="start" x="8" y="-1045.7" font-family="Times,serif" font-size="14.00">forward(pages: list[Page]): torch.Tensor</text>
<text text-anchor="start" x="8" y="-1029.2" font-family="Times,serif" font-size="14.00">load(path: Path): None</text>
<text text-anchor="start" x="8" y="-1012.7" font-family="Times,serif" font-size="14.00">predict(inventory: Inventory): pd.DataFrame</text>
<text text-anchor="start" x="8" y="-996.2" font-family="Times,serif" font-size="14.00">save(path: Path): None</text>
<text text-anchor="start" x="8" y="-979.7" font-family="Times,serif" font-size="14.00">train_(training_inventories: list[Inventory], validation_inventories: Optional[dict[str, list[Inventory]]])</text>
</g>
<!-- document_segmentation.model.page_embedding.PageEmbedding&#45;&gt;document_segmentation.model.page_sequence_tagger.PageSequenceTagger -->
<g id="edge11" class="edge">
<title>document_segmentation.model.page_embedding.PageEmbedding&#45;&gt;document_segmentation.model.page_sequence_tagger.PageSequenceTagger</title>
<path fill="none" stroke="black" d="M597.58,-754.1C571.56,-784.57 536.39,-826.04 505.88,-863 472.82,-903.04 469.88,-917.83 432.62,-954 429.27,-957.26 425.81,-960.5 422.28,-963.73"/>
<polygon fill="black" stroke="black" points="422.39,-963.63 420.57,-970.61 413.43,-971.61 415.25,-964.64 422.39,-963.63"/>
<text text-anchor="middle" x="556.5" y="-903.45" font-family="Times,serif" font-size="14.00" fill="green">_page_embedding</text>
</g>
<!-- document_segmentation.model.page_sequence_tagger.PageSequenceTagger&#45;&gt;document_segmentation.model.device_module.DeviceModule -->
<g id="edge3" class="edge">
<title>document_segmentation.model.page_sequence_tagger.PageSequenceTagger&#45;&gt;document_segmentation.model.device_module.DeviceModule</title>
<path fill="none" stroke="black" d="M537.4,-1145.42C560.32,-1152.34 583.33,-1158.84 605.62,-1164.5 653.77,-1176.73 707.16,-1186.91 754.88,-1194.85"/>
<polygon fill="none" stroke="black" points="754.31,-1198.3 764.75,-1196.47 755.45,-1191.39 754.31,-1198.3"/>
</g>
<!-- document_segmentation.pagexml.pagexml.PageXML -->
<g id="node9" class="node">
<title>document_segmentation.pagexml.pagexml.PageXML</title>
<polygon fill="aquamarine" stroke="aquamarine" points="2163.38,-219 2163.38,-301 2519.88,-301 2519.88,-219 2163.38,-219"/>
<text text-anchor="start" x="2313.12" y="-283.7" font-family="Times,serif" font-size="14.00">PageXML</text>
<polyline fill="none" stroke="aquamarine" points="2163.38,-276.5 2519.88,-276.5"/>
<polyline fill="none" stroke="aquamarine" points="2163.38,-276.5 2519.88,-276.5"/>
<text text-anchor="start" x="2171.38" y="-259.2" font-family="Times,serif" font-size="14.00">document_type(): list[str]</text>
<text text-anchor="start" x="2171.38" y="-242.7" font-family="Times,serif" font-size="14.00">get_regions_from_top(): list[PageXMLTextRegion]</text>
<text text-anchor="start" x="2171.38" y="-226.2" font-family="Times,serif" font-size="14.00">top_paragraph(region_types): Optional[PageXMLTextRegion]</text>
</g>
<!-- document_segmentation.pagexml.datamodel.region.Region -->
<g id="node10" class="node">
<title>document_segmentation.pagexml.datamodel.region.Region</title>
<polygon fill="aquamarine" stroke="aquamarine" points="2538.12,-198.5 2538.12,-321.5 2857.12,-321.5 2857.12,-198.5 2538.12,-198.5"/>
<text text-anchor="start" x="2678.12" y="-304.2" font-family="Times,serif" font-size="14.00">Region</text>
<polyline fill="none" stroke="aquamarine" points="2538.12,-297 2857.12,-297"/>
<text text-anchor="start" x="2597.5" y="-279.7" font-family="Times,serif" font-size="14.00">coordinates : tuple[tuple[int, int], ...]</text>
<text text-anchor="start" x="2597.5" y="-263.2" font-family="Times,serif" font-size="14.00">id : str</text>
<text text-anchor="start" x="2597.5" y="-246.7" font-family="Times,serif" font-size="14.00">lines : tuple[str, ...]</text>
<text text-anchor="start" x="2597.5" y="-230.2" font-family="Times,serif" font-size="14.00">types : tuple[RegionType, ...]</text>
<polyline fill="none" stroke="aquamarine" points="2538.12,-223 2857.12,-223"/>
<text text-anchor="start" x="2546.12" y="-205.7" font-family="Times,serif" font-size="14.00">from_pagexml(region: PageXMLTextRegion): &#39;Region&#39;</text>
</g>
<!-- document_segmentation.model.region_classifier.RegionClassifier -->
<g id="node11" class="node">
<title>document_segmentation.model.region_classifier.RegionClassifier</title>
<polygon fill="antiquewhite" stroke="antiquewhite" points="725,-875.75 725,-941.25 1166.25,-941.25 1166.25,-875.75 725,-875.75"/>
<text text-anchor="start" x="900.25" y="-923.95" font-family="Times,serif" font-size="14.00">RegionClassifier</text>
<polyline fill="none" stroke="antiquewhite" points="725,-916.75 1166.25,-916.75"/>
<polyline fill="none" stroke="antiquewhite" points="725,-916.75 1166.25,-916.75"/>
<text text-anchor="start" x="733" y="-899.45" font-family="Times,serif" font-size="14.00">forward(regions: List[Region]): torch.Tensor</text>
<text text-anchor="start" x="733" y="-882.95" font-family="Times,serif" font-size="14.00">train_(dataset: RegionDataset, epochs: int, batch_size: int, weights: list[float])</text>
</g>
<!-- document_segmentation.model.region_classifier.RegionClassifier&#45;&gt;document_segmentation.model.device_module.DeviceModule -->
<g id="edge4" class="edge">
<title>document_segmentation.model.region_classifier.RegionClassifier&#45;&gt;document_segmentation.model.device_module.DeviceModule</title>
<path fill="none" stroke="black" d="M1095.85,-941.67C1122.28,-950.32 1144.09,-960.51 1152.62,-972 1198.6,-1033.91 1199.52,-1084.29 1152.62,-1145.5 1137.18,-1165.66 1087.61,-1181.28 1036.07,-1192.53"/>
<polygon fill="none" stroke="black" points="1035.59,-1189.06 1026.53,-1194.56 1037.04,-1195.9 1035.59,-1189.06"/>
</g>
<!-- document_segmentation.model.region_embedding.RegionEmbedding -->
<g id="node12" class="node">
<title>document_segmentation.model.region_embedding.RegionEmbedding</title>
<polygon fill="antiquewhite" stroke="antiquewhite" points="1170.88,-863.5 1170.88,-953.5 1350.38,-953.5 1350.38,-863.5 1170.88,-863.5"/>
<text text-anchor="start" x="1209.62" y="-936.2" font-family="Times,serif" font-size="14.00">RegionEmbedding</text>
<polyline fill="none" stroke="antiquewhite" points="1170.88,-929 1350.38,-929"/>
<text text-anchor="start" x="1202.88" y="-911.7" font-family="Times,serif" font-size="14.00">output_size : int</text>
<text text-anchor="start" x="1202.88" y="-895.2" font-family="Times,serif" font-size="14.00">text_embedding_size</text>
<polyline fill="none" stroke="antiquewhite" points="1170.88,-888 1350.38,-888"/>
<text text-anchor="start" x="1178.88" y="-870.7" font-family="Times,serif" font-size="14.00">forward(regions: list[Region])</text>
</g>
<!-- document_segmentation.model.region_embedding.RegionEmbedding&#45;&gt;document_segmentation.model.device_module.DeviceModule -->
<g id="edge5" class="edge">
<title>document_segmentation.model.region_embedding.RegionEmbedding&#45;&gt;document_segmentation.model.device_module.DeviceModule</title>
<path fill="none" stroke="black" d="M1257.18,-953.55C1250.94,-1005.4 1233.45,-1091.28 1184.62,-1145.5 1163.94,-1168.47 1099.32,-1185.1 1036.42,-1196.31"/>
<polygon fill="none" stroke="black" points="1035.86,-1192.85 1026.61,-1198.01 1037.06,-1199.75 1035.86,-1192.85"/>
</g>
<!-- document_segmentation.model.region_embedding.RegionEmbeddingSentenceTransformer -->
<g id="node13" class="node">
<title>document_segmentation.model.region_embedding.RegionEmbeddingSentenceTransformer</title>
<polygon fill="antiquewhite" stroke="antiquewhite" points="828.12,-223.25 828.12,-296.75 1063.12,-296.75 1063.12,-223.25 828.12,-223.25"/>
<text text-anchor="start" x="836.12" y="-279.45" font-family="Times,serif" font-size="14.00">RegionEmbeddingSentenceTransformer</text>
<polyline fill="none" stroke="antiquewhite" points="828.12,-272.25 1063.12,-272.25"/>
<text text-anchor="start" x="887.88" y="-254.95" font-family="Times,serif" font-size="14.00">text_embedding_size</text>
<polyline fill="none" stroke="antiquewhite" points="828.12,-247.75 1063.12,-247.75"/>
<text text-anchor="start" x="943.75" y="-230.45" font-family="Times,serif" font-size="14.00"> </text>
</g>
<!-- document_segmentation.model.region_embedding.RegionEmbeddingSentenceTransformer&#45;&gt;document_segmentation.model.page_embedding.PageEmbedding -->
<g id="edge12" class="edge">
<title>document_segmentation.model.region_embedding.RegionEmbeddingSentenceTransformer&#45;&gt;document_segmentation.model.page_embedding.PageEmbedding</title>
<path fill="none" stroke="black" d="M920.52,-297.18C866.31,-375.31 738.01,-560.2 673.72,-652.85"/>
<polygon fill="black" stroke="black" points="673.75,-652.81 673.62,-660.02 666.91,-662.66 667.04,-655.45 673.75,-652.81"/>
<text text-anchor="middle" x="786.88" y="-541.2" font-family="Times,serif" font-size="14.00" fill="green">_region_model</text>
</g>
<!-- document_segmentation.model.region_embedding.RegionEmbeddingSentenceTransformer&#45;&gt;document_segmentation.model.region_classifier.RegionClassifier -->
<g id="edge13" class="edge">
<title>document_segmentation.model.region_embedding.RegionEmbeddingSentenceTransformer&#45;&gt;document_segmentation.model.region_classifier.RegionClassifier</title>
<path fill="none" stroke="black" d="M945.62,-297.14C945.62,-407.74 945.62,-741.41 945.62,-862.76"/>
<polygon fill="black" stroke="black" points="945.63,-862.59 949.63,-868.59 945.63,-874.59 941.63,-868.59 945.63,-862.59"/>
<text text-anchor="middle" x="1000" y="-541.2" font-family="Times,serif" font-size="14.00" fill="green">_region_embedding</text>
</g>
<!-- document_segmentation.model.region_embedding.RegionEmbeddingSentenceTransformer&#45;&gt;document_segmentation.model.region_embedding.RegionEmbedding -->
<g id="edge6" class="edge">
<title>document_segmentation.model.region_embedding.RegionEmbeddingSentenceTransformer&#45;&gt;document_segmentation.model.region_embedding.RegionEmbedding</title>
<path fill="none" stroke="black" d="M963.24,-297.14C1015.78,-404.98 1171.64,-724.88 1234.2,-853.27"/>
<polygon fill="none" stroke="black" points="1230.89,-854.46 1238.41,-861.92 1237.18,-851.39 1230.89,-854.46"/>
</g>
<!-- document_segmentation.pagexml.datamodel.region.RegionType -->
<g id="node14" class="node">
<title>document_segmentation.pagexml.datamodel.region.RegionType</title>
<polygon fill="aquamarine" stroke="aquamarine" points="2875,-215 2875,-305 3184.25,-305 3184.25,-215 2875,-215"/>
<text text-anchor="start" x="2996.25" y="-287.7" font-family="Times,serif" font-size="14.00">RegionType</text>
<polyline fill="none" stroke="aquamarine" points="2875,-280.5 3184.25,-280.5"/>
<text text-anchor="start" x="3014.62" y="-263.2" font-family="Times,serif" font-size="14.00">name</text>
<polyline fill="none" stroke="aquamarine" points="2875,-256 3184.25,-256"/>
<text text-anchor="start" x="2883" y="-238.7" font-family="Times,serif" font-size="14.00">index(): int</text>
<text text-anchor="start" x="2883" y="-222.2" font-family="Times,serif" font-size="14.00">indices(region_types: Iterable[&#39;RegionType&#39;]): list[int]</text>
</g>
<!-- document_segmentation.pagexml.annotations.renate_analysis.RenateAnalysis -->
<g id="node15" class="node">
<title>document_segmentation.pagexml.annotations.renate_analysis.RenateAnalysis</title>
<polygon fill="aquamarine" stroke="aquamarine" points="1457.25,-684.25 1457.25,-733.25 1558,-733.25 1558,-684.25 1457.25,-684.25"/>
<text text-anchor="start" x="1465.25" y="-715.95" font-family="Times,serif" font-size="14.00">RenateAnalysis</text>
<polyline fill="none" stroke="aquamarine" points="1457.25,-708.75 1558,-708.75"/>
<polyline fill="none" stroke="aquamarine" points="1457.25,-708.75 1558,-708.75"/>
<text text-anchor="start" x="1505.75" y="-691.45" font-family="Times,serif" font-size="14.00"> </text>
</g>
<!-- document_segmentation.pagexml.annotations.renate_analysis.RenateAnalysis&#45;&gt;document_segmentation.pagexml.annotations.sheet.Sheet -->
<g id="edge8" class="edge">
<title>document_segmentation.pagexml.annotations.renate_analysis.RenateAnalysis&#45;&gt;document_segmentation.pagexml.annotations.sheet.Sheet</title>
<path fill="none" stroke="black" d="M1507.62,-733.67C1507.62,-783.94 1507.62,-902.44 1507.62,-981.35"/>
<polygon fill="none" stroke="black" points="1504.13,-981.18 1507.63,-991.18 1511.13,-981.18 1504.13,-981.18"/>
</g>
<!-- document_segmentation.pagexml.annotations.renate_analysis.RenateAnalysisInv&#45;&gt;document_segmentation.pagexml.annotations.sheet.Sheet -->
<g id="edge9" class="edge">
<title>document_segmentation.pagexml.annotations.renate_analysis.RenateAnalysisInv&#45;&gt;document_segmentation.pagexml.annotations.sheet.Sheet</title>
<path fill="none" stroke="black" d="M1703.06,-750.01C1666.9,-806.94 1600.2,-911.98 1554.88,-983.33"/>
<polygon fill="none" stroke="black" points="1552.13,-981.14 1549.73,-991.46 1558.04,-984.89 1552.13,-981.14"/>
</g>
<!-- document_segmentation.pagexml.datamodel.inventory.ThumbnailDownloader -->
<g id="node18" class="node">
<title>document_segmentation.pagexml.datamodel.inventory.ThumbnailDownloader</title>
<polygon fill="aquamarine" stroke="aquamarine" points="145.12,-650.5 145.12,-767 446.12,-767 446.12,-650.5 145.12,-650.5"/>
<text text-anchor="start" x="232.25" y="-749.7" font-family="Times,serif" font-size="14.00">ThumbnailDownloader</text>
<polyline fill="none" stroke="aquamarine" points="145.12,-742.5 446.12,-742.5"/>
<polyline fill="none" stroke="aquamarine" points="145.12,-742.5 446.12,-742.5"/>
<text text-anchor="start" x="153.12" y="-726.2" font-family="Times,serif" font-size="14.00">download(inventory: Inventory, page: Page): Path</text>
<text text-anchor="start" x="153.12" y="-712.2" font-family="Times,serif" font-size="14.00">from_file(file: Path): &#39;ThumbnailDownloader&#39;</text>
<text text-anchor="start" x="153.12" y="-698.2" font-family="Times,serif" font-style="italic" font-size="14.00">from_url</text>
<text text-anchor="start" x="201.12" y="-698.2" font-family="Times,serif" font-size="14.00">(url)</text>
<text text-anchor="start" x="153.12" y="-684.2" font-family="Times,serif" font-size="14.00">get_uuid(inventory: Inventory): UUID</text>
<text text-anchor="start" x="153.12" y="-670.2" font-family="Times,serif" font-size="14.00">thumbnail(inventory: Inventory, page: Page): Path</text>
<text text-anchor="start" x="153.12" y="-656.2" font-family="Times,serif" font-size="14.00">thumbnail_url(inventory: Inventory, page: Page): str</text>
</g>
<!-- document_segmentation.pagexml.datamodel.inventory.ThumbnailDownloader&#45;&gt;document_segmentation.model.page_sequence_tagger.PageSequenceTagger -->
<g id="edge16" class="edge">
<title>document_segmentation.pagexml.datamodel.inventory.ThumbnailDownloader&#45;&gt;document_segmentation.model.page_sequence_tagger.PageSequenceTagger</title>
<path fill="none" stroke="black" d="M295.62,-767.22C295.62,-819.3 295.62,-897.17 295.62,-959.19"/>
<polygon fill="none" stroke="black" points="295.63,-959.27 299.63,-965.27 295.63,-971.27 291.63,-965.27 295.63,-959.27"/>
<text text-anchor="middle" x="362" y="-903.45" font-family="Times,serif" font-size="14.00" fill="green">_thumbnail_downloader</text>
</g>
</g>
</svg>
