<?xml version="1.0" encoding="UTF-8" standalone="no"?>
<!DOCTYPE svg PUBLIC "-//W3C//DTD SVG 1.1//EN"
 "http://www.w3.org/Graphics/SVG/1.1/DTD/svg11.dtd">
<!-- Generated by graphviz version 9.0.0 (20230911.1827)
 -->
<!-- Title: classes Pages: 1 -->
<svg width="3056pt" height="919pt"
 viewBox="0.00 0.00 3056.50 919.00" xmlns="http://www.w3.org/2000/svg" xmlns:xlink="http://www.w3.org/1999/xlink">
<g id="graph0" class="graph" transform="scale(1 1) rotate(0) translate(4 915)">
<title>classes</title>
<polygon fill="white" stroke="none" points="-4,4 -4,-915 3052.5,-915 3052.5,4 -4,4"/>
<!-- document_segmentation.model.device_module.DeviceModule -->
<g id="node1" class="node">
<title>document_segmentation.model.device_module.DeviceModule</title>
<polygon fill="antiquewhite" stroke="antiquewhite" points="682.75,-845 682.75,-910.5 941,-910.5 941,-845 682.75,-845"/>
<text text-anchor="start" x="771.37" y="-893.2" font-family="Times,serif" font-size="14.00">DeviceModule</text>
<polyline fill="none" stroke="antiquewhite" points="682.75,-886 941,-886"/>
<polyline fill="none" stroke="antiquewhite" points="682.75,-886 941,-886"/>
<text text-anchor="start" x="690.75" y="-868.7" font-family="Times,serif" font-size="14.00">get_device(backends: list[ModuleType]): str</text>
<text text-anchor="start" x="690.75" y="-852.2" font-family="Times,serif" font-size="14.00">to_device(device: Optional[str])</text>
</g>
<!-- document_segmentation.pagexml.annotations.generale_missiven.GeneraleMissiven -->
<g id="node2" class="node">
<title>document_segmentation.pagexml.annotations.generale_missiven.GeneraleMissiven</title>
<polygon fill="aquamarine" stroke="aquamarine" points="1188.37,-453.25 1188.37,-502.25 1303.37,-502.25 1303.37,-453.25 1188.37,-453.25"/>
<text text-anchor="start" x="1196.37" y="-484.95" font-family="Times,serif" font-size="14.00">GeneraleMissiven</text>
<polyline fill="none" stroke="aquamarine" points="1188.37,-477.75 1303.37,-477.75"/>
<polyline fill="none" stroke="aquamarine" points="1188.37,-477.75 1303.37,-477.75"/>
<text text-anchor="start" x="1244" y="-460.45" font-family="Times,serif" font-size="14.00"> </text>
</g>
<!-- document_segmentation.pagexml.annotations.sheet.Sheet -->
<g id="node17" class="node">
<title>document_segmentation.pagexml.annotations.sheet.Sheet</title>
<polygon fill="aquamarine" stroke="aquamarine" points="1192.12,-708.5 1192.12,-807 1551.62,-807 1551.62,-708.5 1192.12,-708.5"/>
<text text-anchor="start" x="1356.87" y="-789.7" font-family="Times,serif" font-size="14.00">Sheet</text>
<polyline fill="none" stroke="aquamarine" points="1192.12,-782.5 1551.62,-782.5"/>
<polyline fill="none" stroke="aquamarine" points="1192.12,-782.5 1551.62,-782.5"/>
<text text-anchor="start" x="1200.12" y="-765.2" font-family="Times,serif" font-size="14.00">all_annotated_inventories(n: Optional[int]): Iterable[Inventory]</text>
<text text-anchor="start" x="1200.12" y="-748.7" font-family="Times,serif" font-size="14.00">annotate_inventory(inventory: Inventory): Inventory</text>
<text text-anchor="start" x="1200.12" y="-732.2" font-family="Times,serif" font-size="14.00">inventories(): Iterable[Inventory]</text>
<text text-anchor="start" x="1200.12" y="-715.7" font-family="Times,serif" font-size="14.00">inventory_numbers(): Iterable[tuple[int, str]]</text>
</g>
<!-- document_segmentation.pagexml.annotations.generale_missiven.GeneraleMissiven&#45;&gt;document_segmentation.pagexml.annotations.sheet.Sheet -->
<g id="edge7" class="edge">
<title>document_segmentation.pagexml.annotations.generale_missiven.GeneraleMissiven&#45;&gt;document_segmentation.pagexml.annotations.sheet.Sheet</title>
<path fill="none" stroke="black" d="M1256.62,-502.45C1276.08,-545.4 1317.71,-637.25 1345.25,-698"/>
<polygon fill="none" stroke="black" points="1341.94,-699.17 1349.25,-706.84 1348.31,-696.29 1341.94,-699.17"/>
</g>
<!-- document_segmentation.pagexml.datamodel.inventory.Inventory -->
<g id="node3" class="node">
<title>document_segmentation.pagexml.datamodel.inventory.Inventory</title>
<polygon fill="aquamarine" stroke="aquamarine" points="1391.37,-0.5 1391.37,-321.5 1794.37,-321.5 1794.37,-0.5 1391.37,-0.5"/>
<text text-anchor="start" x="1566.62" y="-304.2" font-family="Times,serif" font-size="14.00">Inventory</text>
<polyline fill="none" stroke="aquamarine" points="1391.37,-297 1794.37,-297"/>
<text text-anchor="start" x="1540.75" y="-279.7" font-family="Times,serif" font-size="14.00">inv_nr</text>
<text text-anchor="start" x="1540.75" y="-263.2" font-family="Times,serif" font-size="14.00">inventory_part : str</text>
<text text-anchor="start" x="1540.75" y="-246.7" font-family="Times,serif" font-size="14.00">pages</text>
<text text-anchor="start" x="1540.75" y="-230.2" font-family="Times,serif" font-size="14.00">pages : list[Page]</text>
<polyline fill="none" stroke="aquamarine" points="1391.37,-223 1794.37,-223"/>
<text text-anchor="start" x="1399.37" y="-205.7" font-family="Times,serif" font-size="14.00">annotate_scan(scan_nr: int, label: Label)</text>
<text text-anchor="start" x="1399.37" y="-189.2" font-family="Times,serif" font-size="14.00">class_counts(): Counter[Label]</text>
<text text-anchor="start" x="1399.37" y="-172.7" font-family="Times,serif" font-size="14.00">class_weights(): list[float]</text>
<text text-anchor="start" x="1399.37" y="-156.2" font-family="Times,serif" font-size="14.00">download(inv_nr: int, inventory_part: str): &#39;Inventory&#39;</text>
<text text-anchor="start" x="1399.37" y="-139.7" font-family="Times,serif" font-size="14.00">label_tensor(): torch.Tensor</text>
<text text-anchor="start" x="1399.37" y="-123.2" font-family="Times,serif" font-size="14.00">labelled(): list[Page]</text>
<text text-anchor="start" x="1399.37" y="-106.7" font-family="Times,serif" font-size="14.00">labelled_inventories(): Iterable[&#39;Inventory&#39;]</text>
<text text-anchor="start" x="1399.37" y="-90.2" font-family="Times,serif" font-size="14.00">labels(): list[Label]</text>
<text text-anchor="start" x="1399.37" y="-73.7" font-family="Times,serif" font-size="14.00">load_or_download(inv_nr: int, inventory_part: str, inventory_dir: Path)</text>
<text text-anchor="start" x="1399.37" y="-57.2" font-family="Times,serif" font-size="14.00">local_file(inv_nr: int, inventory_part: str, directory: Path): Path</text>
<text text-anchor="start" x="1399.37" y="-40.7" font-family="Times,serif" font-size="14.00">preprocess(): &#39;Inventory&#39;</text>
<text text-anchor="start" x="1399.37" y="-24.2" font-family="Times,serif" font-size="14.00">remove_short_regions(min_chars: int): &#39;Inventory&#39;</text>
<text text-anchor="start" x="1399.37" y="-7.7" font-family="Times,serif" font-size="14.00">write(target_file: Optional[Path], mode): Path</text>
</g>
<!-- document_segmentation.pagexml.annotations.renate_analysis.RenateAnalysisInv -->
<g id="node16" class="node">
<title>document_segmentation.pagexml.annotations.renate_analysis.RenateAnalysisInv</title>
<polygon fill="aquamarine" stroke="aquamarine" points="1440.12,-436.75 1440.12,-518.75 1745.62,-518.75 1745.62,-436.75 1440.12,-436.75"/>
<text text-anchor="start" x="1541.5" y="-501.45" font-family="Times,serif" font-size="14.00">RenateAnalysisInv</text>
<polyline fill="none" stroke="aquamarine" points="1440.12,-494.25 1745.62,-494.25"/>
<polyline fill="none" stroke="aquamarine" points="1440.12,-494.25 1745.62,-494.25"/>
<text text-anchor="start" x="1448.12" y="-476.95" font-family="Times,serif" font-size="14.00">annotate_inventory(inventory: Inventory): &#39;Inventory&#39;</text>
<text text-anchor="start" x="1448.12" y="-460.45" font-family="Times,serif" font-size="14.00">inventories(): Iterable[Inventory]</text>
<text text-anchor="start" x="1448.12" y="-443.95" font-family="Times,serif" font-size="14.00">inventory_numbers(): Iterable[tuple[int, str]]</text>
</g>
<!-- document_segmentation.pagexml.datamodel.inventory.Inventory&#45;&gt;document_segmentation.pagexml.annotations.renate_analysis.RenateAnalysisInv -->
<g id="edge14" class="edge">
<title>document_segmentation.pagexml.datamodel.inventory.Inventory&#45;&gt;document_segmentation.pagexml.annotations.renate_analysis.RenateAnalysisInv</title>
<path fill="none" stroke="black" d="M1592.87,-321.68C1592.87,-358.46 1592.87,-395.08 1592.87,-423.48"/>
<polygon fill="black" stroke="black" points="1592.87,-423.43 1596.87,-429.43 1592.87,-435.43 1588.87,-429.43 1592.87,-423.43"/>
<text text-anchor="middle" x="1622.12" y="-343.2" font-family="Times,serif" font-size="14.00" fill="green">_inventory</text>
</g>
<!-- document_segmentation.pagexml.datamodel.label.Label -->
<g id="node4" class="node">
<title>document_segmentation.pagexml.datamodel.label.Label</title>
<polygon fill="aquamarine" stroke="aquamarine" points="1903.87,-124.25 1903.87,-197.75 2009.87,-197.75 2009.87,-124.25 1903.87,-124.25"/>
<text text-anchor="start" x="1941.5" y="-180.45" font-family="Times,serif" font-size="14.00">Label</text>
<polyline fill="none" stroke="aquamarine" points="1903.87,-173.25 2009.87,-173.25"/>
<text text-anchor="start" x="1941.87" y="-155.95" font-family="Times,serif" font-size="14.00">name</text>
<polyline fill="none" stroke="aquamarine" points="1903.87,-148.75 2009.87,-148.75"/>
<text text-anchor="start" x="1911.87" y="-131.45" font-family="Times,serif" font-size="14.00">to_list(): list[int]</text>
</g>
<!-- document_segmentation.pagexml.datamodel.page.Page -->
<g id="node5" class="node">
<title>document_segmentation.pagexml.datamodel.page.Page</title>
<polygon fill="aquamarine" stroke="aquamarine" points="1763.25,-375 1763.25,-580.5 2150.5,-580.5 2150.5,-375 1763.25,-375"/>
<text text-anchor="start" x="1943.75" y="-563.2" font-family="Times,serif" font-size="14.00">Page</text>
<polyline fill="none" stroke="aquamarine" points="1763.25,-556 2150.5,-556"/>
<text text-anchor="start" x="1898" y="-538.7" font-family="Times,serif" font-size="14.00">doc_id : Optional[str]</text>
<text text-anchor="start" x="1898" y="-522.2" font-family="Times,serif" font-size="14.00">external_ref : str</text>
<text text-anchor="start" x="1898" y="-505.7" font-family="Times,serif" font-size="14.00">label</text>
<text text-anchor="start" x="1898" y="-489.2" font-family="Times,serif" font-size="14.00">regions</text>
<text text-anchor="start" x="1898" y="-472.7" font-family="Times,serif" font-size="14.00">regions : list[Region]</text>
<text text-anchor="start" x="1898" y="-456.2" font-family="Times,serif" font-size="14.00">scan_nr</text>
<polyline fill="none" stroke="aquamarine" points="1763.25,-449 2150.5,-449"/>
<text text-anchor="start" x="1771.25" y="-431.7" font-family="Times,serif" font-size="14.00">enum_from_int(value)</text>
<text text-anchor="start" x="1771.25" y="-415.2" font-family="Times,serif" font-size="14.00">filter_short_regions(min_chars: int): &#39;Page&#39;</text>
<text text-anchor="start" x="1771.25" y="-398.7" font-family="Times,serif" font-size="14.00">from_pagexml(label: Label, scan_nr: int, pagexml: PageXMLScan)</text>
<text text-anchor="start" x="1771.25" y="-382.2" font-family="Times,serif" font-size="14.00">text(delimiter: str): str</text>
</g>
<!-- document_segmentation.pagexml.datamodel.label.Label&#45;&gt;document_segmentation.pagexml.datamodel.page.Page -->
<g id="edge15" class="edge">
<title>document_segmentation.pagexml.datamodel.label.Label&#45;&gt;document_segmentation.pagexml.datamodel.page.Page</title>
<path fill="none" stroke="black" d="M1956.87,-198.11C1956.87,-237.89 1956.87,-303.9 1956.87,-361.69"/>
<polygon fill="black" stroke="black" points="1956.87,-361.75 1960.87,-367.75 1956.87,-373.75 1952.87,-367.75 1956.87,-361.75"/>
<text text-anchor="middle" x="1970" y="-343.2" font-family="Times,serif" font-size="14.00" fill="green">label</text>
</g>
<!-- document_segmentation.model.page_classifier.PageClassifier -->
<g id="node6" class="node">
<title>document_segmentation.model.page_classifier.PageClassifier</title>
<polygon fill="antiquewhite" stroke="antiquewhite" points="34.5,-725 34.5,-790.5 531.25,-790.5 531.25,-725 34.5,-725"/>
<text text-anchor="start" x="243.87" y="-773.2" font-family="Times,serif" font-size="14.00">PageClassifier</text>
<polyline fill="none" stroke="antiquewhite" points="34.5,-766 531.25,-766"/>
<polyline fill="none" stroke="antiquewhite" points="34.5,-766 531.25,-766"/>
<text text-anchor="start" x="42.5" y="-748.7" font-family="Times,serif" font-size="14.00">forward(pages: PageDataset)</text>
<text text-anchor="start" x="42.5" y="-732.2" font-family="Times,serif" font-size="14.00">train_(pages: PageDataset, epochs: int, batch_size: int, weights: Optional[torch.Tensor])</text>
</g>
<!-- document_segmentation.model.page_classifier.PageClassifier&#45;&gt;document_segmentation.model.device_module.DeviceModule -->
<g id="edge1" class="edge">
<title>document_segmentation.model.page_classifier.PageClassifier&#45;&gt;document_segmentation.model.device_module.DeviceModule</title>
<path fill="none" stroke="black" d="M427.43,-790.99C503.38,-807.94 596.08,-828.61 671.42,-845.42"/>
<polygon fill="none" stroke="black" points="670.4,-848.78 680.93,-847.54 671.93,-841.95 670.4,-848.78"/>
</g>
<!-- document_segmentation.model.page_embedding.PageEmbedding -->
<g id="node7" class="node">
<title>document_segmentation.model.page_embedding.PageEmbedding</title>
<polygon fill="antiquewhite" stroke="antiquewhite" points="259,-432.75 259,-522.75 416.75,-522.75 416.75,-432.75 259,-432.75"/>
<text text-anchor="start" x="293.25" y="-505.45" font-family="Times,serif" font-size="14.00">PageEmbedding</text>
<polyline fill="none" stroke="antiquewhite" points="259,-498.25 416.75,-498.25"/>
<text text-anchor="start" x="294" y="-480.95" font-family="Times,serif" font-size="14.00">output_size : int</text>
<text text-anchor="start" x="294" y="-464.45" font-family="Times,serif" font-size="14.00">rnn</text>
<polyline fill="none" stroke="antiquewhite" points="259,-457.25 416.75,-457.25"/>
<text text-anchor="start" x="267" y="-439.95" font-family="Times,serif" font-size="14.00">forward(pages: list[Page])</text>
</g>
<!-- document_segmentation.model.page_embedding.PageEmbedding&#45;&gt;document_segmentation.model.device_module.DeviceModule -->
<g id="edge2" class="edge">
<title>document_segmentation.model.page_embedding.PageEmbedding&#45;&gt;document_segmentation.model.device_module.DeviceModule</title>
<path fill="none" stroke="black" d="M258.97,-514.6C137.08,-574.59 -73.1,-699.42 25.87,-807.5 68.48,-854.02 456.72,-869.45 671.14,-874.44"/>
<polygon fill="none" stroke="black" points="670.89,-877.94 680.96,-874.67 671.05,-870.94 670.89,-877.94"/>
</g>
<!-- document_segmentation.model.page_embedding.PageEmbedding&#45;&gt;document_segmentation.model.page_classifier.PageClassifier -->
<g id="edge10" class="edge">
<title>document_segmentation.model.page_embedding.PageEmbedding&#45;&gt;document_segmentation.model.page_classifier.PageClassifier</title>
<path fill="none" stroke="black" d="M329.1,-523.11C318.86,-574.86 302.02,-659.95 291.74,-711.91"/>
<polygon fill="black" stroke="black" points="291.72,-712.03 294.48,-718.69 289.39,-723.8 286.63,-717.14 291.72,-712.03"/>
<text text-anchor="middle" x="347.62" y="-639.45" font-family="Times,serif" font-size="14.00" fill="green">_embedding</text>
</g>
<!-- document_segmentation.model.page_sequence_tagger.PageSequenceTagger -->
<g id="node8" class="node">
<title>document_segmentation.model.page_sequence_tagger.PageSequenceTagger</title>
<polygon fill="antiquewhite" stroke="antiquewhite" points="549.25,-716.75 549.25,-798.75 1074.5,-798.75 1074.5,-716.75 549.25,-716.75"/>
<text text-anchor="start" x="753.75" y="-781.45" font-family="Times,serif" font-size="14.00">PageSequenceTagger</text>
<polyline fill="none" stroke="antiquewhite" points="549.25,-774.25 1074.5,-774.25"/>
<polyline fill="none" stroke="antiquewhite" points="549.25,-774.25 1074.5,-774.25"/>
<text text-anchor="start" x="557.25" y="-756.95" font-family="Times,serif" font-size="14.00">eval_(inventories: list[Inventory], results_out: TextIO): tuple[Metric, Metric, Metric, Metric]</text>
<text text-anchor="start" x="557.25" y="-740.45" font-family="Times,serif" font-size="14.00">forward(pages: list[Page])</text>
<text text-anchor="start" x="557.25" y="-723.95" font-family="Times,serif" font-size="14.00">train_(training_inventories: list[Inventory], validation_inventories: Optional[list[Inventory]])</text>
</g>
<!-- document_segmentation.model.page_embedding.PageEmbedding&#45;&gt;document_segmentation.model.page_sequence_tagger.PageSequenceTagger -->
<g id="edge11" class="edge">
<title>document_segmentation.model.page_embedding.PageEmbedding&#45;&gt;document_segmentation.model.page_sequence_tagger.PageSequenceTagger</title>
<path fill="none" stroke="black" d="M358.79,-523.1C384.21,-571.94 431.81,-648.95 496.12,-690 505.42,-695.93 538.86,-704.53 580.72,-713.59"/>
<polygon fill="black" stroke="black" points="580.73,-713.59 587.43,-710.93 592.46,-716.1 585.76,-718.76 580.73,-713.59"/>
<text text-anchor="middle" x="546.75" y="-639.45" font-family="Times,serif" font-size="14.00" fill="green">_page_embedding</text>
</g>
<!-- document_segmentation.model.page_sequence_tagger.PageSequenceTagger&#45;&gt;document_segmentation.model.device_module.DeviceModule -->
<g id="edge3" class="edge">
<title>document_segmentation.model.page_sequence_tagger.PageSequenceTagger&#45;&gt;document_segmentation.model.device_module.DeviceModule</title>
<path fill="none" stroke="black" d="M811.87,-799.03C811.87,-810.13 811.87,-822.21 811.87,-833.48"/>
<polygon fill="none" stroke="black" points="808.37,-833.32 811.87,-843.32 815.37,-833.32 808.37,-833.32"/>
</g>
<!-- document_segmentation.pagexml.pagexml.PageXML -->
<g id="node9" class="node">
<title>document_segmentation.pagexml.pagexml.PageXML</title>
<polygon fill="aquamarine" stroke="aquamarine" points="2027.62,-120 2027.62,-202 2384.12,-202 2384.12,-120 2027.62,-120"/>
<text text-anchor="start" x="2177.37" y="-184.7" font-family="Times,serif" font-size="14.00">PageXML</text>
<polyline fill="none" stroke="aquamarine" points="2027.62,-177.5 2384.12,-177.5"/>
<polyline fill="none" stroke="aquamarine" points="2027.62,-177.5 2384.12,-177.5"/>
<text text-anchor="start" x="2035.62" y="-160.2" font-family="Times,serif" font-size="14.00">document_type(): list[str]</text>
<text text-anchor="start" x="2035.62" y="-143.7" font-family="Times,serif" font-size="14.00">get_regions_from_top(): list[PageXMLTextRegion]</text>
<text text-anchor="start" x="2035.62" y="-127.2" font-family="Times,serif" font-size="14.00">top_paragraph(region_types): Optional[PageXMLTextRegion]</text>
</g>
<!-- document_segmentation.pagexml.datamodel.region.Region -->
<g id="node10" class="node">
<title>document_segmentation.pagexml.datamodel.region.Region</title>
<polygon fill="aquamarine" stroke="aquamarine" points="2402.37,-99.5 2402.37,-222.5 2721.37,-222.5 2721.37,-99.5 2402.37,-99.5"/>
<text text-anchor="start" x="2542.37" y="-205.2" font-family="Times,serif" font-size="14.00">Region</text>
<polyline fill="none" stroke="aquamarine" points="2402.37,-198 2721.37,-198"/>
<text text-anchor="start" x="2461.75" y="-180.7" font-family="Times,serif" font-size="14.00">coordinates : tuple[tuple[int, int], ...]</text>
<text text-anchor="start" x="2461.75" y="-164.2" font-family="Times,serif" font-size="14.00">id : str</text>
<text text-anchor="start" x="2461.75" y="-147.7" font-family="Times,serif" font-size="14.00">lines : tuple[str, ...]</text>
<text text-anchor="start" x="2461.75" y="-131.2" font-family="Times,serif" font-size="14.00">types : tuple[RegionType, ...]</text>
<polyline fill="none" stroke="aquamarine" points="2402.37,-124 2721.37,-124"/>
<text text-anchor="start" x="2410.37" y="-106.7" font-family="Times,serif" font-size="14.00">from_pagexml(region: PageXMLTextRegion): &#39;Region&#39;</text>
</g>
<!-- document_segmentation.model.region_classifier.RegionClassifier -->
<g id="node11" class="node">
<title>document_segmentation.model.region_classifier.RegionClassifier</title>
<polygon fill="antiquewhite" stroke="antiquewhite" points="605.25,-611.75 605.25,-677.25 1046.5,-677.25 1046.5,-611.75 605.25,-611.75"/>
<text text-anchor="start" x="780.5" y="-659.95" font-family="Times,serif" font-size="14.00">RegionClassifier</text>
<polyline fill="none" stroke="antiquewhite" points="605.25,-652.75 1046.5,-652.75"/>
<polyline fill="none" stroke="antiquewhite" points="605.25,-652.75 1046.5,-652.75"/>
<text text-anchor="start" x="613.25" y="-635.45" font-family="Times,serif" font-size="14.00">forward(regions: List[Region]): torch.Tensor</text>
<text text-anchor="start" x="613.25" y="-618.95" font-family="Times,serif" font-size="14.00">train_(dataset: RegionDataset, epochs: int, batch_size: int, weights: list[float])</text>
</g>
<!-- document_segmentation.model.region_classifier.RegionClassifier&#45;&gt;document_segmentation.model.device_module.DeviceModule -->
<g id="edge4" class="edge">
<title>document_segmentation.model.region_classifier.RegionClassifier&#45;&gt;document_segmentation.model.device_module.DeviceModule</title>
<path fill="none" stroke="black" d="M992.82,-677.72C1038.25,-688.12 1076.96,-699.22 1083.87,-708 1111.22,-742.76 1111.01,-772.59 1083.87,-807.5 1066.63,-829.68 1009.73,-845.93 952.4,-857.09"/>
<polygon fill="none" stroke="black" points="951.98,-853.61 942.81,-858.91 953.28,-860.49 951.98,-853.61"/>
</g>
<!-- document_segmentation.model.region_embedding.RegionEmbedding -->
<g id="node12" class="node">
<title>document_segmentation.model.region_embedding.RegionEmbedding</title>
<polygon fill="antiquewhite" stroke="antiquewhite" points="1051.12,-599.5 1051.12,-689.5 1230.62,-689.5 1230.62,-599.5 1051.12,-599.5"/>
<text text-anchor="start" x="1089.87" y="-672.2" font-family="Times,serif" font-size="14.00">RegionEmbedding</text>
<polyline fill="none" stroke="antiquewhite" points="1051.12,-665 1230.62,-665"/>
<text text-anchor="start" x="1083.12" y="-647.7" font-family="Times,serif" font-size="14.00">output_size : int</text>
<text text-anchor="start" x="1083.12" y="-631.2" font-family="Times,serif" font-size="14.00">text_embedding_size</text>
<polyline fill="none" stroke="antiquewhite" points="1051.12,-624 1230.62,-624"/>
<text text-anchor="start" x="1059.12" y="-606.7" font-family="Times,serif" font-size="14.00">forward(regions: list[Region])</text>
</g>
<!-- document_segmentation.model.region_embedding.RegionEmbedding&#45;&gt;document_segmentation.model.device_module.DeviceModule -->
<g id="edge5" class="edge">
<title>document_segmentation.model.region_embedding.RegionEmbedding&#45;&gt;document_segmentation.model.device_module.DeviceModule</title>
<path fill="none" stroke="black" d="M1142.11,-689.86C1140.91,-724.97 1134.13,-773.59 1108.87,-807.5 1089.33,-833.75 1019.41,-850.79 952.32,-861.4"/>
<polygon fill="none" stroke="black" points="952,-857.91 942.64,-862.89 953.06,-864.83 952,-857.91"/>
</g>
<!-- document_segmentation.model.region_embedding.RegionEmbeddingSentenceTransformer -->
<g id="node13" class="node">
<title>document_segmentation.model.region_embedding.RegionEmbeddingSentenceTransformer</title>
<polygon fill="antiquewhite" stroke="antiquewhite" points="708.37,-124.25 708.37,-197.75 943.37,-197.75 943.37,-124.25 708.37,-124.25"/>
<text text-anchor="start" x="716.37" y="-180.45" font-family="Times,serif" font-size="14.00">RegionEmbeddingSentenceTransformer</text>
<polyline fill="none" stroke="antiquewhite" points="708.37,-173.25 943.37,-173.25"/>
<text text-anchor="start" x="768.12" y="-155.95" font-family="Times,serif" font-size="14.00">text_embedding_size</text>
<polyline fill="none" stroke="antiquewhite" points="708.37,-148.75 943.37,-148.75"/>
<text text-anchor="start" x="824" y="-131.45" font-family="Times,serif" font-size="14.00"> </text>
</g>
<!-- document_segmentation.model.region_embedding.RegionEmbeddingSentenceTransformer&#45;&gt;document_segmentation.model.page_embedding.PageEmbedding -->
<g id="edge12" class="edge">
<title>document_segmentation.model.region_embedding.RegionEmbeddingSentenceTransformer&#45;&gt;document_segmentation.model.page_embedding.PageEmbedding</title>
<path fill="none" stroke="black" d="M769.89,-198.11C683.26,-253.98 516.4,-361.6 417.32,-425.51"/>
<polygon fill="black" stroke="black" points="417.32,-425.51 414.44,-432.12 407.23,-432.01 410.11,-425.4 417.32,-425.51"/>
<text text-anchor="middle" x="580.12" y="-343.2" font-family="Times,serif" font-size="14.00" fill="green">_region_model</text>
</g>
<!-- document_segmentation.model.region_embedding.RegionEmbeddingSentenceTransformer&#45;&gt;document_segmentation.model.region_classifier.RegionClassifier -->
<g id="edge13" class="edge">
<title>document_segmentation.model.region_embedding.RegionEmbeddingSentenceTransformer&#45;&gt;document_segmentation.model.region_classifier.RegionClassifier</title>
<path fill="none" stroke="black" d="M825.87,-198.19C825.87,-284.79 825.87,-503.77 825.87,-598.59"/>
<polygon fill="black" stroke="black" points="825.87,-598.48 829.87,-604.48 825.87,-610.48 821.87,-604.48 825.87,-598.48"/>
<text text-anchor="middle" x="880.25" y="-343.2" font-family="Times,serif" font-size="14.00" fill="green">_region_embedding</text>
</g>
<!-- document_segmentation.model.region_embedding.RegionEmbeddingSentenceTransformer&#45;&gt;document_segmentation.model.region_embedding.RegionEmbedding -->
<g id="edge6" class="edge">
<title>document_segmentation.model.region_embedding.RegionEmbeddingSentenceTransformer&#45;&gt;document_segmentation.model.region_embedding.RegionEmbedding</title>
<path fill="none" stroke="black" d="M849.55,-198.19C904.52,-282.22 1041.04,-490.89 1105.76,-589.83"/>
<polygon fill="none" stroke="black" points="1102.75,-591.62 1111.15,-598.07 1108.61,-587.79 1102.75,-591.62"/>
</g>
<!-- document_segmentation.pagexml.datamodel.region.RegionType -->
<g id="node14" class="node">
<title>document_segmentation.pagexml.datamodel.region.RegionType</title>
<polygon fill="aquamarine" stroke="aquamarine" points="2739.25,-116 2739.25,-206 3048.5,-206 3048.5,-116 2739.25,-116"/>
<text text-anchor="start" x="2860.5" y="-188.7" font-family="Times,serif" font-size="14.00">RegionType</text>
<polyline fill="none" stroke="aquamarine" points="2739.25,-181.5 3048.5,-181.5"/>
<text text-anchor="start" x="2878.87" y="-164.2" font-family="Times,serif" font-size="14.00">name</text>
<polyline fill="none" stroke="aquamarine" points="2739.25,-157 3048.5,-157"/>
<text text-anchor="start" x="2747.25" y="-139.7" font-family="Times,serif" font-size="14.00">index(): int</text>
<text text-anchor="start" x="2747.25" y="-123.2" font-family="Times,serif" font-size="14.00">indices(region_types: Iterable[&#39;RegionType&#39;]): list[int]</text>
</g>
<!-- document_segmentation.pagexml.annotations.renate_analysis.RenateAnalysis -->
<g id="node15" class="node">
<title>document_segmentation.pagexml.annotations.renate_analysis.RenateAnalysis</title>
<polygon fill="aquamarine" stroke="aquamarine" points="1321.5,-453.25 1321.5,-502.25 1422.25,-502.25 1422.25,-453.25 1321.5,-453.25"/>
<text text-anchor="start" x="1329.5" y="-484.95" font-family="Times,serif" font-size="14.00">RenateAnalysis</text>
<polyline fill="none" stroke="aquamarine" points="1321.5,-477.75 1422.25,-477.75"/>
<polyline fill="none" stroke="aquamarine" points="1321.5,-477.75 1422.25,-477.75"/>
<text text-anchor="start" x="1370" y="-460.45" font-family="Times,serif" font-size="14.00"> </text>
</g>
<!-- document_segmentation.pagexml.annotations.renate_analysis.RenateAnalysis&#45;&gt;document_segmentation.pagexml.annotations.sheet.Sheet -->
<g id="edge8" class="edge">
<title>document_segmentation.pagexml.annotations.renate_analysis.RenateAnalysis&#45;&gt;document_segmentation.pagexml.annotations.sheet.Sheet</title>
<path fill="none" stroke="black" d="M1371.87,-502.45C1371.87,-545.13 1371.87,-636.12 1371.87,-696.87"/>
<polygon fill="none" stroke="black" points="1368.37,-696.7 1371.87,-706.7 1375.37,-696.7 1368.37,-696.7"/>
</g>
<!-- document_segmentation.pagexml.annotations.renate_analysis.RenateAnalysisInv&#45;&gt;document_segmentation.pagexml.annotations.sheet.Sheet -->
<g id="edge9" class="edge">
<title>document_segmentation.pagexml.annotations.renate_analysis.RenateAnalysisInv&#45;&gt;document_segmentation.pagexml.annotations.sheet.Sheet</title>
<path fill="none" stroke="black" d="M1560.74,-519.17C1522.98,-566.68 1460.06,-645.82 1417.31,-699.59"/>
<polygon fill="none" stroke="black" points="1414.79,-697.14 1411.31,-707.14 1420.27,-701.49 1414.79,-697.14"/>
</g>
</g>
</svg>
