<?xml version="1.0" encoding="UTF-8" standalone="no"?>
<!DOCTYPE svg PUBLIC "-//W3C//DTD SVG 1.1//EN"
 "http://www.w3.org/Graphics/SVG/1.1/DTD/svg11.dtd">
<!-- Generated by graphviz version 9.0.0 (20230911.1827)
 -->
<!-- Title: classes Pages: 1 -->
<svg width="3176pt" height="1191pt"
 viewBox="0.00 0.00 3176.25 1191.00" xmlns="http://www.w3.org/2000/svg" xmlns:xlink="http://www.w3.org/1999/xlink">
<g id="graph0" class="graph" transform="scale(1 1) rotate(0) translate(4 1187)">
<title>classes</title>
<polygon fill="white" stroke="none" points="-4,4 -4,-1187 3172.25,-1187 3172.25,4 -4,4"/>
<!-- document_segmentation.model.device_module.DeviceModule -->
<g id="node1" class="node">
<title>document_segmentation.model.device_module.DeviceModule</title>
<polygon fill="antiquewhite" stroke="antiquewhite" points="766.5,-1117 766.5,-1182.5 1024.75,-1182.5 1024.75,-1117 766.5,-1117"/>
<text text-anchor="start" x="855.12" y="-1165.2" font-family="Times,serif" font-size="14.00">DeviceModule</text>
<polyline fill="none" stroke="antiquewhite" points="766.5,-1158 1024.75,-1158"/>
<polyline fill="none" stroke="antiquewhite" points="766.5,-1158 1024.75,-1158"/>
<text text-anchor="start" x="774.5" y="-1140.7" font-family="Times,serif" font-size="14.00">get_device(backends: list[ModuleType]): str</text>
<text text-anchor="start" x="774.5" y="-1124.2" font-family="Times,serif" font-size="14.00">to_device(device: Optional[str])</text>
</g>
<!-- document_segmentation.pagexml.annotations.generale_missiven.GeneraleMissiven -->
<g id="node2" class="node">
<title>document_segmentation.pagexml.annotations.generale_missiven.GeneraleMissiven</title>
<polygon fill="aquamarine" stroke="aquamarine" points="1308.12,-618.25 1308.12,-667.25 1423.12,-667.25 1423.12,-618.25 1308.12,-618.25"/>
<text text-anchor="start" x="1316.12" y="-649.95" font-family="Times,serif" font-size="14.00">GeneraleMissiven</text>
<polyline fill="none" stroke="aquamarine" points="1308.12,-642.75 1423.12,-642.75"/>
<polyline fill="none" stroke="aquamarine" points="1308.12,-642.75 1423.12,-642.75"/>
<text text-anchor="start" x="1363.75" y="-625.45" font-family="Times,serif" font-size="14.00"> </text>
</g>
<!-- document_segmentation.pagexml.annotations.sheet.Sheet -->
<g id="node17" class="node">
<title>document_segmentation.pagexml.annotations.sheet.Sheet</title>
<polygon fill="aquamarine" stroke="aquamarine" points="1309.62,-935.25 1309.62,-1050.25 1673.62,-1050.25 1673.62,-935.25 1309.62,-935.25"/>
<text text-anchor="start" x="1476.62" y="-1032.95" font-family="Times,serif" font-size="14.00">Sheet</text>
<polyline fill="none" stroke="aquamarine" points="1309.62,-1025.75 1673.62,-1025.75"/>
<polyline fill="none" stroke="aquamarine" points="1309.62,-1025.75 1673.62,-1025.75"/>
<text text-anchor="start" x="1317.62" y="-1008.45" font-family="Times,serif" font-size="14.00">all_annotated_inventories(n: Optional[int]): Iterable[&#39;Inventory&#39;]</text>
<text text-anchor="start" x="1317.62" y="-991.95" font-family="Times,serif" font-size="14.00">annotate_inventory(inventory: Inventory): Inventory</text>
<text text-anchor="start" x="1317.62" y="-975.45" font-family="Times,serif" font-size="14.00">download_inventories()</text>
<text text-anchor="start" x="1317.62" y="-958.95" font-family="Times,serif" font-size="14.00">inventories(): Iterable[Inventory]</text>
<text text-anchor="start" x="1317.62" y="-942.45" font-family="Times,serif" font-size="14.00">inventory_numbers(): Iterable[tuple[int, str]]</text>
</g>
<!-- document_segmentation.pagexml.annotations.generale_missiven.GeneraleMissiven&#45;&gt;document_segmentation.pagexml.annotations.sheet.Sheet -->
<g id="edge7" class="edge">
<title>document_segmentation.pagexml.annotations.generale_missiven.GeneraleMissiven&#45;&gt;document_segmentation.pagexml.annotations.sheet.Sheet</title>
<path fill="none" stroke="black" d="M1374.29,-667.67C1393.19,-719.88 1438.73,-845.67 1467.2,-924.28"/>
<polygon fill="none" stroke="black" points="1463.89,-925.42 1470.58,-933.63 1470.47,-923.03 1463.89,-925.42"/>
</g>
<!-- document_segmentation.pagexml.datamodel.inventory.Inventory -->
<g id="node3" class="node">
<title>document_segmentation.pagexml.datamodel.inventory.Inventory</title>
<polygon fill="aquamarine" stroke="aquamarine" points="1511.12,-0.5 1511.12,-453.5 1914.12,-453.5 1914.12,-0.5 1511.12,-0.5"/>
<text text-anchor="start" x="1686.38" y="-436.2" font-family="Times,serif" font-size="14.00">Inventory</text>
<polyline fill="none" stroke="aquamarine" points="1511.12,-429 1914.12,-429"/>
<text text-anchor="start" x="1660.5" y="-411.7" font-family="Times,serif" font-size="14.00">inv_nr</text>
<text text-anchor="start" x="1660.5" y="-395.2" font-family="Times,serif" font-size="14.00">inventory_part : str</text>
<text text-anchor="start" x="1660.5" y="-378.7" font-family="Times,serif" font-size="14.00">pages</text>
<text text-anchor="start" x="1660.5" y="-362.2" font-family="Times,serif" font-size="14.00">pages : list[Page]</text>
<polyline fill="none" stroke="aquamarine" points="1511.12,-355 1914.12,-355"/>
<text text-anchor="start" x="1519.12" y="-337.7" font-family="Times,serif" font-size="14.00">annotate_scan(scan_nr: int, label: Label)</text>
<text text-anchor="start" x="1519.12" y="-321.2" font-family="Times,serif" font-size="14.00">class_counts(): Counter[Label]</text>
<text text-anchor="start" x="1519.12" y="-304.7" font-family="Times,serif" font-size="14.00">class_weights(): list[float]</text>
<text text-anchor="start" x="1519.12" y="-288.2" font-family="Times,serif" font-size="14.00">download(inv_nr: int, inventory_part: str): &#39;Inventory&#39;</text>
<text text-anchor="start" x="1519.12" y="-271.7" font-family="Times,serif" font-size="14.00">empty_unlabelled(): &#39;Inventory&#39;</text>
<text text-anchor="start" x="1519.12" y="-255.2" font-family="Times,serif" font-size="14.00">full_inv_nr(): str</text>
<text text-anchor="start" x="1519.12" y="-238.7" font-family="Times,serif" font-size="14.00">get_scan(scan_nr: int): Page</text>
<text text-anchor="start" x="1519.12" y="-222.2" font-family="Times,serif" font-size="14.00">has_labels(): bool</text>
<text text-anchor="start" x="1519.12" y="-205.7" font-family="Times,serif" font-size="14.00">label_tensor(): torch.Tensor</text>
<text text-anchor="start" x="1519.12" y="-189.2" font-family="Times,serif" font-size="14.00">labelled(): list[Page]</text>
<text text-anchor="start" x="1519.12" y="-172.7" font-family="Times,serif" font-size="14.00">labelled_inventories(): Iterable[&#39;Inventory&#39;]</text>
<text text-anchor="start" x="1519.12" y="-156.2" font-family="Times,serif" font-size="14.00">labels(): list[Label]</text>
<text text-anchor="start" x="1519.12" y="-139.7" font-family="Times,serif" font-size="14.00">link(page: Page): str</text>
<text text-anchor="start" x="1519.12" y="-123.2" font-family="Times,serif" font-size="14.00">load_or_download(inv_nr: int, inventory_part: str, inventory_dir: Path)</text>
<text text-anchor="start" x="1519.12" y="-106.7" font-family="Times,serif" font-size="14.00">local_file(inv_nr: int, inventory_part: str, directory: Path): Path</text>
<text text-anchor="start" x="1519.12" y="-90.2" font-family="Times,serif" font-size="14.00">remove_empty_pages(): &#39;Inventory&#39;</text>
<text text-anchor="start" x="1519.12" y="-73.7" font-family="Times,serif" font-size="14.00">remove_short_regions(min_chars: int): &#39;Inventory&#39;</text>
<text text-anchor="start" x="1519.12" y="-57.2" font-family="Times,serif" font-size="14.00">split(max_size): Iterable[&#39;Inventory&#39;]</text>
<text text-anchor="start" x="1519.12" y="-40.7" font-family="Times,serif" font-size="14.00">total_class_weights(inventories: Iterable[&#39;Inventory&#39;]): list[float]</text>
<text text-anchor="start" x="1519.12" y="-24.2" font-family="Times,serif" font-size="14.00">validate_inv_part(value: str): str</text>
<text text-anchor="start" x="1519.12" y="-7.7" font-family="Times,serif" font-size="14.00">write(target_file: Optional[Path], mode): Path</text>
</g>
<!-- document_segmentation.pagexml.annotations.renate_analysis.RenateAnalysisInv -->
<g id="node16" class="node">
<title>document_segmentation.pagexml.annotations.renate_analysis.RenateAnalysisInv</title>
<polygon fill="aquamarine" stroke="aquamarine" points="1559.88,-601.75 1559.88,-683.75 1865.38,-683.75 1865.38,-601.75 1559.88,-601.75"/>
<text text-anchor="start" x="1661.25" y="-666.45" font-family="Times,serif" font-size="14.00">RenateAnalysisInv</text>
<polyline fill="none" stroke="aquamarine" points="1559.88,-659.25 1865.38,-659.25"/>
<polyline fill="none" stroke="aquamarine" points="1559.88,-659.25 1865.38,-659.25"/>
<text text-anchor="start" x="1567.88" y="-641.95" font-family="Times,serif" font-size="14.00">annotate_inventory(inventory: Inventory): &#39;Inventory&#39;</text>
<text text-anchor="start" x="1567.88" y="-625.45" font-family="Times,serif" font-size="14.00">inventories(): Iterable[Inventory]</text>
<text text-anchor="start" x="1567.88" y="-608.95" font-family="Times,serif" font-size="14.00">inventory_numbers(): Iterable[tuple[int, str]]</text>
</g>
<!-- document_segmentation.pagexml.datamodel.inventory.Inventory&#45;&gt;document_segmentation.pagexml.annotations.renate_analysis.RenateAnalysisInv -->
<g id="edge14" class="edge">
<title>document_segmentation.pagexml.datamodel.inventory.Inventory&#45;&gt;document_segmentation.pagexml.annotations.renate_analysis.RenateAnalysisInv</title>
<path fill="none" stroke="black" d="M1712.62,-453.94C1712.62,-504.35 1712.62,-553.24 1712.62,-588.5"/>
<polygon fill="black" stroke="black" points="1712.63,-588.42 1716.63,-594.42 1712.63,-600.42 1708.63,-594.42 1712.63,-588.42"/>
<text text-anchor="middle" x="1741.88" y="-475.2" font-family="Times,serif" font-size="14.00" fill="green">_inventory</text>
</g>
<!-- document_segmentation.pagexml.datamodel.label.Label -->
<g id="node4" class="node">
<title>document_segmentation.pagexml.datamodel.label.Label</title>
<polygon fill="aquamarine" stroke="aquamarine" points="2023.62,-190.25 2023.62,-263.75 2129.62,-263.75 2129.62,-190.25 2023.62,-190.25"/>
<text text-anchor="start" x="2061.25" y="-246.45" font-family="Times,serif" font-size="14.00">Label</text>
<polyline fill="none" stroke="aquamarine" points="2023.62,-239.25 2129.62,-239.25"/>
<text text-anchor="start" x="2061.62" y="-221.95" font-family="Times,serif" font-size="14.00">name</text>
<polyline fill="none" stroke="aquamarine" points="2023.62,-214.75 2129.62,-214.75"/>
<text text-anchor="start" x="2031.62" y="-197.45" font-family="Times,serif" font-size="14.00">to_list(): list[int]</text>
</g>
<!-- document_segmentation.pagexml.datamodel.page.Page -->
<g id="node5" class="node">
<title>document_segmentation.pagexml.datamodel.page.Page</title>
<polygon fill="aquamarine" stroke="aquamarine" points="1883,-507 1883,-778.5 2270.25,-778.5 2270.25,-507 1883,-507"/>
<text text-anchor="start" x="2063.5" y="-761.2" font-family="Times,serif" font-size="14.00">Page</text>
<polyline fill="none" stroke="aquamarine" points="1883,-754 2270.25,-754"/>
<text text-anchor="start" x="2017.75" y="-736.7" font-family="Times,serif" font-size="14.00">doc_id : Optional[str]</text>
<text text-anchor="start" x="2017.75" y="-720.2" font-family="Times,serif" font-size="14.00">external_ref : str</text>
<text text-anchor="start" x="2017.75" y="-703.7" font-family="Times,serif" font-size="14.00">label</text>
<text text-anchor="start" x="2017.75" y="-687.2" font-family="Times,serif" font-size="14.00">label : OUT</text>
<text text-anchor="start" x="2017.75" y="-670.7" font-family="Times,serif" font-size="14.00">regions : list</text>
<text text-anchor="start" x="2017.75" y="-654.2" font-family="Times,serif" font-size="14.00">regions : list[Region]</text>
<text text-anchor="start" x="2017.75" y="-637.7" font-family="Times,serif" font-size="14.00">scan_nr</text>
<polyline fill="none" stroke="aquamarine" points="1883,-630.5 2270.25,-630.5"/>
<text text-anchor="start" x="1891" y="-613.2" font-family="Times,serif" font-size="14.00">empty(): &#39;Page&#39;</text>
<text text-anchor="start" x="1891" y="-596.7" font-family="Times,serif" font-size="14.00">enum_from_int(value)</text>
<text text-anchor="start" x="1891" y="-580.2" font-family="Times,serif" font-size="14.00">filter_short_regions(min_chars: int): &#39;Page&#39;</text>
<text text-anchor="start" x="1891" y="-563.7" font-family="Times,serif" font-size="14.00">from_pagexml(label: Label, scan_nr: int, pagexml: PageXMLScan)</text>
<text text-anchor="start" x="1891" y="-547.2" font-family="Times,serif" font-size="14.00">guess_doc_id(inv_nr: str): str</text>
<text text-anchor="start" x="1891" y="-530.7" font-family="Times,serif" font-size="14.00">is_shorter_than(): bool</text>
<text text-anchor="start" x="1891" y="-514.2" font-family="Times,serif" font-size="14.00">text(delimiter: str): str</text>
</g>
<!-- document_segmentation.pagexml.datamodel.label.Label&#45;&gt;document_segmentation.pagexml.datamodel.page.Page -->
<g id="edge15" class="edge">
<title>document_segmentation.pagexml.datamodel.label.Label&#45;&gt;document_segmentation.pagexml.datamodel.page.Page</title>
<path fill="none" stroke="black" d="M2076.62,-263.99C2076.62,-314.99 2076.62,-411.28 2076.62,-493.88"/>
<polygon fill="black" stroke="black" points="2076.63,-493.84 2080.63,-499.84 2076.63,-505.84 2072.63,-499.84 2076.63,-493.84"/>
<text text-anchor="middle" x="2089.75" y="-475.2" font-family="Times,serif" font-size="14.00" fill="green">label</text>
</g>
<!-- document_segmentation.model.page_classifier.PageClassifier -->
<g id="node6" class="node">
<title>document_segmentation.model.page_classifier.PageClassifier</title>
<polygon fill="antiquewhite" stroke="antiquewhite" points="647.25,-960 647.25,-1025.5 1144,-1025.5 1144,-960 647.25,-960"/>
<text text-anchor="start" x="856.62" y="-1008.2" font-family="Times,serif" font-size="14.00">PageClassifier</text>
<polyline fill="none" stroke="antiquewhite" points="647.25,-1001 1144,-1001"/>
<polyline fill="none" stroke="antiquewhite" points="647.25,-1001 1144,-1001"/>
<text text-anchor="start" x="655.25" y="-983.7" font-family="Times,serif" font-size="14.00">forward(pages: PageDataset)</text>
<text text-anchor="start" x="655.25" y="-967.2" font-family="Times,serif" font-size="14.00">train_(pages: PageDataset, epochs: int, batch_size: int, weights: Optional[torch.Tensor])</text>
</g>
<!-- document_segmentation.model.page_classifier.PageClassifier&#45;&gt;document_segmentation.model.device_module.DeviceModule -->
<g id="edge1" class="edge">
<title>document_segmentation.model.page_classifier.PageClassifier&#45;&gt;document_segmentation.model.device_module.DeviceModule</title>
<path fill="none" stroke="black" d="M895.62,-1025.87C895.62,-1048.83 895.62,-1080 895.62,-1105.21"/>
<polygon fill="none" stroke="black" points="892.13,-1105.16 895.63,-1115.16 899.13,-1105.16 892.13,-1105.16"/>
</g>
<!-- document_segmentation.model.page_embedding.PageEmbedding -->
<g id="node7" class="node">
<title>document_segmentation.model.page_embedding.PageEmbedding</title>
<polygon fill="antiquewhite" stroke="antiquewhite" points="556.75,-597.75 556.75,-687.75 714.5,-687.75 714.5,-597.75 556.75,-597.75"/>
<text text-anchor="start" x="591" y="-670.45" font-family="Times,serif" font-size="14.00">PageEmbedding</text>
<polyline fill="none" stroke="antiquewhite" points="556.75,-663.25 714.5,-663.25"/>
<text text-anchor="start" x="591.75" y="-645.95" font-family="Times,serif" font-size="14.00">output_size : int</text>
<text text-anchor="start" x="591.75" y="-629.45" font-family="Times,serif" font-size="14.00">rnn</text>
<polyline fill="none" stroke="antiquewhite" points="556.75,-622.25 714.5,-622.25"/>
<text text-anchor="start" x="564.75" y="-604.95" font-family="Times,serif" font-size="14.00">forward(pages: list[Page])</text>
</g>
<!-- document_segmentation.model.page_embedding.PageEmbedding&#45;&gt;document_segmentation.model.device_module.DeviceModule -->
<g id="edge2" class="edge">
<title>document_segmentation.model.page_embedding.PageEmbedding&#45;&gt;document_segmentation.model.device_module.DeviceModule</title>
<path fill="none" stroke="black" d="M629.37,-687.91C616.45,-786.37 591.72,-1019.91 638.62,-1079.5 654.3,-1099.42 703.73,-1114.98 755.11,-1126.26"/>
<polygon fill="none" stroke="black" points="754.1,-1129.63 764.61,-1128.29 755.56,-1122.78 754.1,-1129.63"/>
</g>
<!-- document_segmentation.model.page_embedding.PageEmbedding&#45;&gt;document_segmentation.model.page_classifier.PageClassifier -->
<g id="edge10" class="edge">
<title>document_segmentation.model.page_embedding.PageEmbedding&#45;&gt;document_segmentation.model.page_classifier.PageClassifier</title>
<path fill="none" stroke="black" d="M632.42,-688.05C628.88,-749.58 626.25,-856.86 648.12,-888 669.15,-917.92 700.55,-939.25 733.99,-954.44"/>
<polygon fill="black" stroke="black" points="734.04,-954.46 741.13,-953.16 745.06,-959.21 737.97,-960.51 734.04,-954.46"/>
<text text-anchor="middle" x="682.38" y="-837.45" font-family="Times,serif" font-size="14.00" fill="green">_embedding</text>
</g>
<!-- document_segmentation.model.page_sequence_tagger.PageSequenceTagger -->
<g id="node8" class="node">
<title>document_segmentation.model.page_sequence_tagger.PageSequenceTagger</title>
<polygon fill="antiquewhite" stroke="antiquewhite" points="0,-906.5 0,-1079 591.25,-1079 591.25,-906.5 0,-906.5"/>
<text text-anchor="start" x="237.5" y="-1061.7" font-family="Times,serif" font-size="14.00">PageSequenceTagger</text>
<polyline fill="none" stroke="antiquewhite" points="0,-1054.5 591.25,-1054.5"/>
<text text-anchor="start" x="231.12" y="-1037.2" font-family="Times,serif" font-size="14.00">wandb_run</text>
<text text-anchor="start" x="231.12" y="-1020.7" font-family="Times,serif" font-size="14.00">wandb_run : NoneType</text>
<polyline fill="none" stroke="antiquewhite" points="0,-1013.5 591.25,-1013.5"/>
<text text-anchor="start" x="8" y="-996.2" font-family="Times,serif" font-size="14.00">eval_(inventories: list[Inventory], sheet_name: str): tuple[Metric, Metric, Metric, Metric, pd.DataFrame]</text>
<text text-anchor="start" x="8" y="-979.7" font-family="Times,serif" font-size="14.00">forward(pages: list[Page]): torch.Tensor</text>
<text text-anchor="start" x="8" y="-963.2" font-family="Times,serif" font-size="14.00">load(path: Path): None</text>
<text text-anchor="start" x="8" y="-946.7" font-family="Times,serif" font-size="14.00">predict(inventory: Inventory): pd.DataFrame</text>
<text text-anchor="start" x="8" y="-930.2" font-family="Times,serif" font-size="14.00">save(path: Path): None</text>
<text text-anchor="start" x="8" y="-913.7" font-family="Times,serif" font-size="14.00">train_(training_inventories: list[Inventory], validation_inventories: Optional[dict[str, list[Inventory]]])</text>
</g>
<!-- document_segmentation.model.page_embedding.PageEmbedding&#45;&gt;document_segmentation.model.page_sequence_tagger.PageSequenceTagger -->
<g id="edge11" class="edge">
<title>document_segmentation.model.page_embedding.PageEmbedding&#45;&gt;document_segmentation.model.page_sequence_tagger.PageSequenceTagger</title>
<path fill="none" stroke="black" d="M597.58,-688.1C571.56,-718.57 536.39,-760.04 505.88,-797 472.82,-837.04 469.88,-851.83 432.62,-888 429.27,-891.26 425.81,-894.5 422.28,-897.73"/>
<polygon fill="black" stroke="black" points="422.39,-897.63 420.57,-904.61 413.43,-905.61 415.25,-898.64 422.39,-897.63"/>
<text text-anchor="middle" x="556.5" y="-837.45" font-family="Times,serif" font-size="14.00" fill="green">_page_embedding</text>
</g>
<!-- document_segmentation.model.page_sequence_tagger.PageSequenceTagger&#45;&gt;document_segmentation.model.device_module.DeviceModule -->
<g id="edge3" class="edge">
<title>document_segmentation.model.page_sequence_tagger.PageSequenceTagger&#45;&gt;document_segmentation.model.device_module.DeviceModule</title>
<path fill="none" stroke="black" d="M537.4,-1079.42C560.32,-1086.34 583.33,-1092.84 605.62,-1098.5 653.77,-1110.73 707.16,-1120.91 754.88,-1128.85"/>
<polygon fill="none" stroke="black" points="754.31,-1132.3 764.75,-1130.47 755.45,-1125.39 754.31,-1132.3"/>
</g>
<!-- document_segmentation.pagexml.pagexml.PageXML -->
<g id="node9" class="node">
<title>document_segmentation.pagexml.pagexml.PageXML</title>
<polygon fill="aquamarine" stroke="aquamarine" points="2147.38,-186 2147.38,-268 2503.88,-268 2503.88,-186 2147.38,-186"/>
<text text-anchor="start" x="2297.12" y="-250.7" font-family="Times,serif" font-size="14.00">PageXML</text>
<polyline fill="none" stroke="aquamarine" points="2147.38,-243.5 2503.88,-243.5"/>
<polyline fill="none" stroke="aquamarine" points="2147.38,-243.5 2503.88,-243.5"/>
<text text-anchor="start" x="2155.38" y="-226.2" font-family="Times,serif" font-size="14.00">document_type(): list[str]</text>
<text text-anchor="start" x="2155.38" y="-209.7" font-family="Times,serif" font-size="14.00">get_regions_from_top(): list[PageXMLTextRegion]</text>
<text text-anchor="start" x="2155.38" y="-193.2" font-family="Times,serif" font-size="14.00">top_paragraph(region_types): Optional[PageXMLTextRegion]</text>
</g>
<!-- document_segmentation.pagexml.datamodel.region.Region -->
<g id="node10" class="node">
<title>document_segmentation.pagexml.datamodel.region.Region</title>
<polygon fill="aquamarine" stroke="aquamarine" points="2522.12,-165.5 2522.12,-288.5 2841.12,-288.5 2841.12,-165.5 2522.12,-165.5"/>
<text text-anchor="start" x="2662.12" y="-271.2" font-family="Times,serif" font-size="14.00">Region</text>
<polyline fill="none" stroke="aquamarine" points="2522.12,-264 2841.12,-264"/>
<text text-anchor="start" x="2581.5" y="-246.7" font-family="Times,serif" font-size="14.00">coordinates : tuple[tuple[int, int], ...]</text>
<text text-anchor="start" x="2581.5" y="-230.2" font-family="Times,serif" font-size="14.00">id : str</text>
<text text-anchor="start" x="2581.5" y="-213.7" font-family="Times,serif" font-size="14.00">lines : tuple[str, ...]</text>
<text text-anchor="start" x="2581.5" y="-197.2" font-family="Times,serif" font-size="14.00">types : tuple[RegionType, ...]</text>
<polyline fill="none" stroke="aquamarine" points="2522.12,-190 2841.12,-190"/>
<text text-anchor="start" x="2530.12" y="-172.7" font-family="Times,serif" font-size="14.00">from_pagexml(region: PageXMLTextRegion): &#39;Region&#39;</text>
</g>
<!-- document_segmentation.model.region_classifier.RegionClassifier -->
<g id="node11" class="node">
<title>document_segmentation.model.region_classifier.RegionClassifier</title>
<polygon fill="antiquewhite" stroke="antiquewhite" points="725,-809.75 725,-875.25 1166.25,-875.25 1166.25,-809.75 725,-809.75"/>
<text text-anchor="start" x="900.25" y="-857.95" font-family="Times,serif" font-size="14.00">RegionClassifier</text>
<polyline fill="none" stroke="antiquewhite" points="725,-850.75 1166.25,-850.75"/>
<polyline fill="none" stroke="antiquewhite" points="725,-850.75 1166.25,-850.75"/>
<text text-anchor="start" x="733" y="-833.45" font-family="Times,serif" font-size="14.00">forward(regions: List[Region]): torch.Tensor</text>
<text text-anchor="start" x="733" y="-816.95" font-family="Times,serif" font-size="14.00">train_(dataset: RegionDataset, epochs: int, batch_size: int, weights: list[float])</text>
</g>
<!-- document_segmentation.model.region_classifier.RegionClassifier&#45;&gt;document_segmentation.model.device_module.DeviceModule -->
<g id="edge4" class="edge">
<title>document_segmentation.model.region_classifier.RegionClassifier&#45;&gt;document_segmentation.model.device_module.DeviceModule</title>
<path fill="none" stroke="black" d="M1095.85,-875.67C1122.28,-884.32 1144.09,-894.51 1152.62,-906 1198.6,-967.91 1199.52,-1018.29 1152.62,-1079.5 1137.18,-1099.66 1087.61,-1115.28 1036.07,-1126.53"/>
<polygon fill="none" stroke="black" points="1035.59,-1123.06 1026.53,-1128.56 1037.04,-1129.9 1035.59,-1123.06"/>
</g>
<!-- document_segmentation.model.region_embedding.RegionEmbedding -->
<g id="node12" class="node">
<title>document_segmentation.model.region_embedding.RegionEmbedding</title>
<polygon fill="antiquewhite" stroke="antiquewhite" points="1170.88,-797.5 1170.88,-887.5 1350.38,-887.5 1350.38,-797.5 1170.88,-797.5"/>
<text text-anchor="start" x="1209.62" y="-870.2" font-family="Times,serif" font-size="14.00">RegionEmbedding</text>
<polyline fill="none" stroke="antiquewhite" points="1170.88,-863 1350.38,-863"/>
<text text-anchor="start" x="1202.88" y="-845.7" font-family="Times,serif" font-size="14.00">output_size : int</text>
<text text-anchor="start" x="1202.88" y="-829.2" font-family="Times,serif" font-size="14.00">text_embedding_size</text>
<polyline fill="none" stroke="antiquewhite" points="1170.88,-822 1350.38,-822"/>
<text text-anchor="start" x="1178.88" y="-804.7" font-family="Times,serif" font-size="14.00">forward(regions: list[Region])</text>
</g>
<!-- document_segmentation.model.region_embedding.RegionEmbedding&#45;&gt;document_segmentation.model.device_module.DeviceModule -->
<g id="edge5" class="edge">
<title>document_segmentation.model.region_embedding.RegionEmbedding&#45;&gt;document_segmentation.model.device_module.DeviceModule</title>
<path fill="none" stroke="black" d="M1257.18,-887.55C1250.94,-939.4 1233.45,-1025.28 1184.62,-1079.5 1163.94,-1102.47 1099.32,-1119.1 1036.42,-1130.31"/>
<polygon fill="none" stroke="black" points="1035.86,-1126.85 1026.61,-1132.01 1037.06,-1133.75 1035.86,-1126.85"/>
</g>
<!-- document_segmentation.model.region_embedding.RegionEmbeddingSentenceTransformer -->
<g id="node13" class="node">
<title>document_segmentation.model.region_embedding.RegionEmbeddingSentenceTransformer</title>
<polygon fill="antiquewhite" stroke="antiquewhite" points="828.12,-190.25 828.12,-263.75 1063.12,-263.75 1063.12,-190.25 828.12,-190.25"/>
<text text-anchor="start" x="836.12" y="-246.45" font-family="Times,serif" font-size="14.00">RegionEmbeddingSentenceTransformer</text>
<polyline fill="none" stroke="antiquewhite" points="828.12,-239.25 1063.12,-239.25"/>
<text text-anchor="start" x="887.88" y="-221.95" font-family="Times,serif" font-size="14.00">text_embedding_size</text>
<polyline fill="none" stroke="antiquewhite" points="828.12,-214.75 1063.12,-214.75"/>
<text text-anchor="start" x="943.75" y="-197.45" font-family="Times,serif" font-size="14.00"> </text>
</g>
<!-- document_segmentation.model.region_embedding.RegionEmbeddingSentenceTransformer&#45;&gt;document_segmentation.model.page_embedding.PageEmbedding -->
<g id="edge12" class="edge">
<title>document_segmentation.model.region_embedding.RegionEmbeddingSentenceTransformer&#45;&gt;document_segmentation.model.page_embedding.PageEmbedding</title>
<path fill="none" stroke="black" d="M918.66,-263.99C864.21,-336.66 740.89,-501.25 676.5,-587.19"/>
<polygon fill="black" stroke="black" points="676.5,-587.2 676.1,-594.4 669.3,-596.8 669.7,-589.6 676.5,-587.2"/>
<text text-anchor="middle" x="795.88" y="-475.2" font-family="Times,serif" font-size="14.00" fill="green">_region_model</text>
</g>
<!-- document_segmentation.model.region_embedding.RegionEmbeddingSentenceTransformer&#45;&gt;document_segmentation.model.region_classifier.RegionClassifier -->
<g id="edge13" class="edge">
<title>document_segmentation.model.region_embedding.RegionEmbeddingSentenceTransformer&#45;&gt;document_segmentation.model.region_classifier.RegionClassifier</title>
<path fill="none" stroke="black" d="M945.62,-264.09C945.62,-370.08 945.62,-680.3 945.62,-796.7"/>
<polygon fill="black" stroke="black" points="945.63,-796.68 949.63,-802.68 945.63,-808.68 941.63,-802.68 945.63,-796.68"/>
<text text-anchor="middle" x="1000" y="-475.2" font-family="Times,serif" font-size="14.00" fill="green">_region_embedding</text>
</g>
<!-- document_segmentation.model.region_embedding.RegionEmbeddingSentenceTransformer&#45;&gt;document_segmentation.model.region_embedding.RegionEmbedding -->
<g id="edge6" class="edge">
<title>document_segmentation.model.region_embedding.RegionEmbeddingSentenceTransformer&#45;&gt;document_segmentation.model.region_embedding.RegionEmbedding</title>
<path fill="none" stroke="black" d="M964.15,-264.09C1017.19,-367.39 1169.85,-664.7 1232.88,-787.47"/>
<polygon fill="none" stroke="black" points="1229.61,-788.76 1237.29,-796.06 1235.84,-785.56 1229.61,-788.76"/>
</g>
<!-- document_segmentation.pagexml.datamodel.region.RegionType -->
<g id="node14" class="node">
<title>document_segmentation.pagexml.datamodel.region.RegionType</title>
<polygon fill="aquamarine" stroke="aquamarine" points="2859,-182 2859,-272 3168.25,-272 3168.25,-182 2859,-182"/>
<text text-anchor="start" x="2980.25" y="-254.7" font-family="Times,serif" font-size="14.00">RegionType</text>
<polyline fill="none" stroke="aquamarine" points="2859,-247.5 3168.25,-247.5"/>
<text text-anchor="start" x="2998.62" y="-230.2" font-family="Times,serif" font-size="14.00">name</text>
<polyline fill="none" stroke="aquamarine" points="2859,-223 3168.25,-223"/>
<text text-anchor="start" x="2867" y="-205.7" font-family="Times,serif" font-size="14.00">index(): int</text>
<text text-anchor="start" x="2867" y="-189.2" font-family="Times,serif" font-size="14.00">indices(region_types: Iterable[&#39;RegionType&#39;]): list[int]</text>
</g>
<!-- document_segmentation.pagexml.annotations.renate_analysis.RenateAnalysis -->
<g id="node15" class="node">
<title>document_segmentation.pagexml.annotations.renate_analysis.RenateAnalysis</title>
<polygon fill="aquamarine" stroke="aquamarine" points="1441.25,-618.25 1441.25,-667.25 1542,-667.25 1542,-618.25 1441.25,-618.25"/>
<text text-anchor="start" x="1449.25" y="-649.95" font-family="Times,serif" font-size="14.00">RenateAnalysis</text>
<polyline fill="none" stroke="aquamarine" points="1441.25,-642.75 1542,-642.75"/>
<polyline fill="none" stroke="aquamarine" points="1441.25,-642.75 1542,-642.75"/>
<text text-anchor="start" x="1489.75" y="-625.45" font-family="Times,serif" font-size="14.00"> </text>
</g>
<!-- document_segmentation.pagexml.annotations.renate_analysis.RenateAnalysis&#45;&gt;document_segmentation.pagexml.annotations.sheet.Sheet -->
<g id="edge8" class="edge">
<title>document_segmentation.pagexml.annotations.renate_analysis.RenateAnalysis&#45;&gt;document_segmentation.pagexml.annotations.sheet.Sheet</title>
<path fill="none" stroke="black" d="M1491.62,-667.67C1491.62,-719.77 1491.62,-845.15 1491.62,-923.8"/>
<polygon fill="none" stroke="black" points="1488.13,-923.54 1491.63,-933.54 1495.13,-923.54 1488.13,-923.54"/>
</g>
<!-- document_segmentation.pagexml.annotations.renate_analysis.RenateAnalysisInv&#45;&gt;document_segmentation.pagexml.annotations.sheet.Sheet -->
<g id="edge9" class="edge">
<title>document_segmentation.pagexml.annotations.renate_analysis.RenateAnalysisInv&#45;&gt;document_segmentation.pagexml.annotations.sheet.Sheet</title>
<path fill="none" stroke="black" d="M1687.06,-684.01C1649.49,-743.17 1578.94,-854.27 1533.67,-925.54"/>
<polygon fill="none" stroke="black" points="1530.95,-923.3 1528.54,-933.62 1536.86,-927.05 1530.95,-923.3"/>
</g>
<!-- document_segmentation.pagexml.datamodel.inventory.ThumbnailDownloader -->
<g id="node18" class="node">
<title>document_segmentation.pagexml.datamodel.inventory.ThumbnailDownloader</title>
<polygon fill="aquamarine" stroke="aquamarine" points="145.12,-584.5 145.12,-701 446.12,-701 446.12,-584.5 145.12,-584.5"/>
<text text-anchor="start" x="232.25" y="-683.7" font-family="Times,serif" font-size="14.00">ThumbnailDownloader</text>
<polyline fill="none" stroke="aquamarine" points="145.12,-676.5 446.12,-676.5"/>
<polyline fill="none" stroke="aquamarine" points="145.12,-676.5 446.12,-676.5"/>
<text text-anchor="start" x="153.12" y="-660.2" font-family="Times,serif" font-size="14.00">download(inventory: Inventory, page: Page): Path</text>
<text text-anchor="start" x="153.12" y="-646.2" font-family="Times,serif" font-size="14.00">from_file(file: Path): &#39;ThumbnailDownloader&#39;</text>
<text text-anchor="start" x="153.12" y="-632.2" font-family="Times,serif" font-style="italic" font-size="14.00">from_url</text>
<text text-anchor="start" x="201.12" y="-632.2" font-family="Times,serif" font-size="14.00">(url)</text>
<text text-anchor="start" x="153.12" y="-618.2" font-family="Times,serif" font-size="14.00">get_uuid(inventory: Inventory): UUID</text>
<text text-anchor="start" x="153.12" y="-604.2" font-family="Times,serif" font-size="14.00">thumbnail(inventory: Inventory, page: Page): Path</text>
<text text-anchor="start" x="153.12" y="-590.2" font-family="Times,serif" font-size="14.00">thumbnail_url(inventory: Inventory, page: Page): str</text>
</g>
<!-- document_segmentation.pagexml.datamodel.inventory.ThumbnailDownloader&#45;&gt;document_segmentation.model.page_sequence_tagger.PageSequenceTagger -->
<g id="edge16" class="edge">
<title>document_segmentation.pagexml.datamodel.inventory.ThumbnailDownloader&#45;&gt;document_segmentation.model.page_sequence_tagger.PageSequenceTagger</title>
<path fill="none" stroke="black" d="M295.62,-701.22C295.62,-753.3 295.62,-831.17 295.62,-893.19"/>
<polygon fill="none" stroke="black" points="295.63,-893.27 299.63,-899.27 295.63,-905.27 291.63,-899.27 295.63,-893.27"/>
<text text-anchor="middle" x="362" y="-837.45" font-family="Times,serif" font-size="14.00" fill="green">_thumbnail_downloader</text>
</g>
</g>
</svg>
