<?xml version="1.0" encoding="UTF-8" standalone="no"?>
<!DOCTYPE svg PUBLIC "-//W3C//DTD SVG 1.1//EN"
 "http://www.w3.org/Graphics/SVG/1.1/DTD/svg11.dtd">
<!-- Generated by graphviz version 9.0.0 (20230911.1827)
 -->
<!-- Title: classes Pages: 1 -->
<svg width="3836pt" height="1360pt"
 viewBox="0.00 0.00 3836.25 1359.50" xmlns="http://www.w3.org/2000/svg" xmlns:xlink="http://www.w3.org/1999/xlink">
<g id="graph0" class="graph" transform="scale(1 1) rotate(0) translate(4 1355.5)">
<title>classes</title>
<polygon fill="white" stroke="none" points="-4,4 -4,-1355.5 3832.25,-1355.5 3832.25,4 -4,4"/>
<!-- document_segmentation.model.page_learner.AbstractPageLearner -->
<g id="node1" class="node">
<title>document_segmentation.model.page_learner.AbstractPageLearner</title>
<polygon fill="antiquewhite" stroke="antiquewhite" points="1312.38,-902.25 1312.38,-1057.25 1830.88,-1057.25 1830.88,-902.25 1312.38,-902.25"/>
<text text-anchor="start" x="1514.62" y="-1039.95" font-family="Times,serif" font-size="14.00">AbstractPageLearner</text>
<polyline fill="none" stroke="antiquewhite" points="1312.38,-1032.75 1830.88,-1032.75"/>
<text text-anchor="start" x="1541.25" y="-1015.45" font-family="Times,serif" font-size="14.00">wandb_run</text>
<polyline fill="none" stroke="antiquewhite" points="1312.38,-1008.25 1830.88,-1008.25"/>
<text text-anchor="start" x="1320.38" y="-991.95" font-family="Times,serif" font-size="14.00">eval_(docs: list[Any], name: str): tuple[Metric, Metric, Metric, Metric, pd.DataFrame]</text>
<text text-anchor="start" x="1320.38" y="-977.95" font-family="Times,serif" font-size="14.00">forward(pages: list[Page]): torch.Tensor</text>
<text text-anchor="start" x="1320.38" y="-963.95" font-family="Times,serif" font-size="14.00">load(path: Path): None</text>
<text text-anchor="start" x="1320.38" y="-949.95" font-family="Times,serif" font-style="italic" font-size="14.00">predict</text>
<text text-anchor="start" x="1358.62" y="-949.95" font-family="Times,serif" font-size="14.00">(data): pd.DataFrame</text>
<text text-anchor="start" x="1320.38" y="-935.95" font-family="Times,serif" font-size="14.00">split(docs: list[Inventory], split: float): tuple[list[Inventory], list[Inventory]]</text>
<text text-anchor="start" x="1320.38" y="-921.95" font-family="Times,serif" font-size="14.00">total_class_weights(docs: Iterable[Inventory]): list[float]</text>
<text text-anchor="start" x="1320.38" y="-907.95" font-family="Times,serif" font-size="14.00">train_(training_data: list[Inventory], validation_data: dict[str, list[Inventory]]): dict[str, Any]</text>
</g>
<!-- document_segmentation.model.device_module.DeviceModuleMixIn -->
<g id="node2" class="node">
<title>document_segmentation.model.device_module.DeviceModuleMixIn</title>
<polygon fill="antiquewhite" stroke="antiquewhite" points="346.5,-1285.5 346.5,-1351 604.75,-1351 604.75,-1285.5 346.5,-1285.5"/>
<text text-anchor="start" x="417.88" y="-1333.7" font-family="Times,serif" font-size="14.00">DeviceModuleMixIn</text>
<polyline fill="none" stroke="antiquewhite" points="346.5,-1326.5 604.75,-1326.5"/>
<polyline fill="none" stroke="antiquewhite" points="346.5,-1326.5 604.75,-1326.5"/>
<text text-anchor="start" x="354.5" y="-1309.2" font-family="Times,serif" font-size="14.00">get_device(backends: list[ModuleType]): str</text>
<text text-anchor="start" x="354.5" y="-1292.7" font-family="Times,serif" font-size="14.00">to_device(device: Optional[str])</text>
</g>
<!-- document_segmentation.model.page_learner.AbstractPageLearner&#45;&gt;document_segmentation.model.device_module.DeviceModuleMixIn -->
<g id="edge3" class="edge">
<title>document_segmentation.model.page_learner.AbstractPageLearner&#45;&gt;document_segmentation.model.device_module.DeviceModuleMixIn</title>
<path fill="none" stroke="black" d="M1518.79,-1057.7C1470.72,-1120.82 1393.66,-1206.3 1303.62,-1248 1185.11,-1302.89 819.99,-1314.77 616.43,-1317.03"/>
<polygon fill="none" stroke="black" points="616.53,-1313.53 606.57,-1317.13 616.61,-1320.53 616.53,-1313.53"/>
</g>
<!-- document_segmentation.pagexml.datamodel.document.Document -->
<g id="node3" class="node">
<title>document_segmentation.pagexml.datamodel.document.Document</title>
<polygon fill="aquamarine" stroke="aquamarine" points="733.75,-486 733.75,-576 975.5,-576 975.5,-486 733.75,-486"/>
<text text-anchor="start" x="826.12" y="-558.7" font-family="Times,serif" font-size="14.00">Document</text>
<polyline fill="none" stroke="aquamarine" points="733.75,-551.5 975.5,-551.5"/>
<text text-anchor="start" x="741.75" y="-534.2" font-family="Times,serif" font-size="14.00">label</text>
<text text-anchor="start" x="741.75" y="-517.7" font-family="Times,serif" font-size="14.00">pages : Annotated[list[Page], MinLen(1)]</text>
<polyline fill="none" stroke="aquamarine" points="733.75,-510.5 975.5,-510.5"/>
<text text-anchor="start" x="778.88" y="-493.2" font-family="Times,serif" font-size="14.00">label_tensor(): torch.Tensor</text>
</g>
<!-- document_segmentation.pagexml.datamodel.inventory.Inventory -->
<g id="node8" class="node">
<title>document_segmentation.pagexml.datamodel.inventory.Inventory</title>
<polygon fill="aquamarine" stroke="aquamarine" points="523,-712 523,-1247.5 1294.25,-1247.5 1294.25,-712 523,-712"/>
<text text-anchor="start" x="882.38" y="-1230.2" font-family="Times,serif" font-size="14.00">Inventory</text>
<polyline fill="none" stroke="aquamarine" points="523,-1223 1294.25,-1223"/>
<text text-anchor="start" x="856.5" y="-1205.7" font-family="Times,serif" font-size="14.00">inv_nr : Annotated</text>
<text text-anchor="start" x="856.5" y="-1189.2" font-family="Times,serif" font-size="14.00">inventory_part : str</text>
<text text-anchor="start" x="856.5" y="-1172.7" font-family="Times,serif" font-size="14.00">pages : list[Page]</text>
<polyline fill="none" stroke="aquamarine" points="523,-1165.5 1294.25,-1165.5"/>
<text text-anchor="start" x="531" y="-1148.2" font-family="Times,serif" font-size="14.00">annotate_scan(scan_nr: int, label: SequenceLabel)</text>
<text text-anchor="start" x="531" y="-1131.7" font-family="Times,serif" font-size="14.00">class_counts(): Counter[SequenceLabel]</text>
<text text-anchor="start" x="531" y="-1115.2" font-family="Times,serif" font-size="14.00">class_weights(): list[float]</text>
<text text-anchor="start" x="531" y="-1098.7" font-family="Times,serif" font-size="14.00">download(inv_nr: int, inventory_part: str): &#39;Inventory&#39;</text>
<text text-anchor="start" x="531" y="-1082.2" font-family="Times,serif" font-size="14.00">empty_unlabelled(): &#39;Inventory&#39;</text>
<text text-anchor="start" x="531" y="-1065.7" font-family="Times,serif" font-size="14.00">from_file(file: Path): &#39;Inventory&#39;</text>
<text text-anchor="start" x="531" y="-1049.2" font-family="Times,serif" font-size="14.00">full_inv_nr(): str</text>
<text text-anchor="start" x="531" y="-1032.7" font-family="Times,serif" font-size="14.00">get_documents(): list[list[Page]]</text>
<text text-anchor="start" x="531" y="-1016.2" font-family="Times,serif" font-size="14.00">get_scan(scan_nr: int): tuple[int, Page]</text>
<text text-anchor="start" x="531" y="-999.7" font-family="Times,serif" font-size="14.00">get_scans(start_scan_nr: int, end_scan_nr: int): list[Page]</text>
<text text-anchor="start" x="531" y="-983.2" font-family="Times,serif" font-size="14.00">has_labels(): bool</text>
<text text-anchor="start" x="531" y="-966.7" font-family="Times,serif" font-size="14.00">head(n: int): &#39;Inventory&#39;</text>
<text text-anchor="start" x="531" y="-950.2" font-family="Times,serif" font-size="14.00">label_tensor(): torch.Tensor</text>
<text text-anchor="start" x="531" y="-933.7" font-family="Times,serif" font-size="14.00">labelled(): list[Page]</text>
<text text-anchor="start" x="531" y="-917.2" font-family="Times,serif" font-size="14.00">labelled_inventories(): Iterable[&#39;Inventory&#39;]</text>
<text text-anchor="start" x="531" y="-900.7" font-family="Times,serif" font-size="14.00">labels(): list[SequenceLabel]</text>
<text text-anchor="start" x="531" y="-884.2" font-family="Times,serif" font-size="14.00">link(page: Page): str</text>
<text text-anchor="start" x="531" y="-867.7" font-family="Times,serif" font-size="14.00">load(inv_nr: int, inventory_part: str, inventory_dir: Path)</text>
<text text-anchor="start" x="531" y="-851.2" font-family="Times,serif" font-size="14.00">load_or_download(inv_nr: int, inventory_part: str, inventory_dir: Path)</text>
<text text-anchor="start" x="531" y="-834.7" font-family="Times,serif" font-size="14.00">local_file(inv_nr: int, inventory_part: str, directory: Path): Path</text>
<text text-anchor="start" x="531" y="-818.2" font-family="Times,serif" font-size="14.00">output_row(prediction: Label, actual: Label, page: Page, output: torch.Tensor, thumbnail_downloader: Optional[&#39;ThumbnailDownloader&#39;])</text>
<text text-anchor="start" x="531" y="-801.7" font-family="Times,serif" font-size="14.00">remove_empty_pages(): &#39;Inventory&#39;</text>
<text text-anchor="start" x="531" y="-785.2" font-family="Times,serif" font-size="14.00">remove_scan(scan_nr: int): &#39;Inventory&#39;</text>
<text text-anchor="start" x="531" y="-768.7" font-family="Times,serif" font-size="14.00">remove_short_regions(min_chars: int): &#39;Inventory&#39;</text>
<text text-anchor="start" x="531" y="-752.2" font-family="Times,serif" font-size="14.00">split(max_size): Iterable[&#39;Inventory&#39;]</text>
<text text-anchor="start" x="531" y="-735.7" font-family="Times,serif" font-size="14.00">validate_inv_part(value: str): str</text>
<text text-anchor="start" x="531" y="-719.2" font-family="Times,serif" font-size="14.00">write(target_file: Optional[Path], mode): Path</text>
</g>
<!-- document_segmentation.pagexml.datamodel.document.Document&#45;&gt;document_segmentation.pagexml.datamodel.inventory.Inventory -->
<g id="edge11" class="edge">
<title>document_segmentation.pagexml.datamodel.document.Document&#45;&gt;document_segmentation.pagexml.datamodel.inventory.Inventory</title>
<path fill="none" stroke="black" d="M860,-576.47C863.76,-607.59 869.14,-652.09 874.96,-700.23"/>
<polygon fill="none" stroke="black" points="871.47,-700.53 876.14,-710.04 878.42,-699.69 871.47,-700.53"/>
</g>
<!-- document_segmentation.model.document_classifier.DocumentClassifier -->
<g id="node4" class="node">
<title>document_segmentation.model.document_classifier.DocumentClassifier</title>
<polygon fill="antiquewhite" stroke="antiquewhite" points="993.38,-506.5 993.38,-555.5 1259.88,-555.5 1259.88,-506.5 993.38,-506.5"/>
<text text-anchor="start" x="1072.25" y="-538.2" font-family="Times,serif" font-size="14.00">DocumentClassifier</text>
<polyline fill="none" stroke="antiquewhite" points="993.38,-531 1259.88,-531"/>
<polyline fill="none" stroke="antiquewhite" points="993.38,-531 1259.88,-531"/>
<text text-anchor="start" x="1001.38" y="-513.7" font-family="Times,serif" font-size="14.00">predict(document: Document): pd.DataFrame</text>
</g>
<!-- document_segmentation.model.document_classifier.DocumentClassifier&#45;&gt;document_segmentation.model.page_learner.AbstractPageLearner -->
<g id="edge1" class="edge">
<title>document_segmentation.model.document_classifier.DocumentClassifier&#45;&gt;document_segmentation.model.page_learner.AbstractPageLearner</title>
<path fill="none" stroke="black" d="M1150.24,-555.7C1212.4,-618.12 1382.98,-789.36 1487.05,-893.85"/>
<polygon fill="none" stroke="black" points="1484.45,-896.19 1493.98,-900.8 1489.41,-891.25 1484.45,-896.19"/>
</g>
<!-- document_segmentation.pagexml.datamodel.label.DocumentType -->
<g id="node5" class="node">
<title>document_segmentation.pagexml.datamodel.label.DocumentType</title>
<polygon fill="aquamarine" stroke="aquamarine" points="1076.25,-201.75 1076.25,-275.25 1177,-275.25 1177,-201.75 1076.25,-201.75"/>
<text text-anchor="start" x="1084.25" y="-257.95" font-family="Times,serif" font-size="14.00">DocumentType</text>
<polyline fill="none" stroke="aquamarine" points="1076.25,-250.75 1177,-250.75"/>
<text text-anchor="start" x="1111.62" y="-233.45" font-family="Times,serif" font-size="14.00">name</text>
<polyline fill="none" stroke="aquamarine" points="1076.25,-226.25 1177,-226.25"/>
<text text-anchor="start" x="1124.75" y="-208.95" font-family="Times,serif" font-size="14.00"> </text>
</g>
<!-- document_segmentation.pagexml.datamodel.label.DocumentType&#45;&gt;document_segmentation.pagexml.datamodel.document.Document -->
<g id="edge20" class="edge">
<title>document_segmentation.pagexml.datamodel.label.DocumentType&#45;&gt;document_segmentation.pagexml.datamodel.document.Document</title>
<path fill="none" stroke="black" d="M1092.73,-275.7C1045.51,-326.13 959.6,-417.88 904.91,-476.29"/>
<polygon fill="black" stroke="black" points="904.9,-476.31 903.72,-483.42 896.7,-485.07 897.88,-477.95 904.9,-476.31"/>
<text text-anchor="middle" x="1059.75" y="-346.7" font-family="Times,serif" font-size="14.00" fill="green">label</text>
</g>
<!-- document_segmentation.pagexml.datamodel.label.DocumentType&#45;&gt;document_segmentation.model.document_classifier.DocumentClassifier -->
<g id="edge19" class="edge">
<title>document_segmentation.pagexml.datamodel.label.DocumentType&#45;&gt;document_segmentation.model.document_classifier.DocumentClassifier</title>
<path fill="none" stroke="black" d="M1126.62,-275.7C1126.62,-331.35 1126.62,-437.3 1126.62,-493.26"/>
<polygon fill="black" stroke="black" points="1126.63,-493.13 1130.63,-499.13 1126.63,-505.13 1122.63,-499.13 1126.63,-493.13"/>
<text text-anchor="middle" x="1172" y="-346.7" font-family="Times,serif" font-size="14.00" fill="green">_LABEL_TYPE</text>
</g>
<!-- document_segmentation.pagexml.datamodel.label.Label -->
<g id="node9" class="node">
<title>document_segmentation.pagexml.datamodel.label.Label</title>
<polygon fill="aquamarine" stroke="aquamarine" points="1277.88,-486 1277.88,-576 1529.38,-576 1529.38,-486 1277.88,-486"/>
<text text-anchor="start" x="1388.25" y="-558.7" font-family="Times,serif" font-size="14.00">Label</text>
<polyline fill="none" stroke="aquamarine" points="1277.88,-551.5 1529.38,-551.5"/>
<text text-anchor="start" x="1388.62" y="-534.2" font-family="Times,serif" font-size="14.00">name</text>
<polyline fill="none" stroke="aquamarine" points="1277.88,-527 1529.38,-527"/>
<text text-anchor="start" x="1285.88" y="-509.7" font-family="Times,serif" font-size="14.00">to_list(): list[int]</text>
<text text-anchor="start" x="1285.88" y="-493.2" font-family="Times,serif" font-size="14.00">to_tensor(labels: list[&#39;Label&#39;]): torch.Tensor</text>
</g>
<!-- document_segmentation.pagexml.datamodel.label.DocumentType&#45;&gt;document_segmentation.pagexml.datamodel.label.Label -->
<g id="edge12" class="edge">
<title>document_segmentation.pagexml.datamodel.label.DocumentType&#45;&gt;document_segmentation.pagexml.datamodel.label.Label</title>
<path fill="none" stroke="black" d="M1172.91,-275.39C1188.84,-288.42 1206.48,-303.61 1221.62,-318.5 1273.17,-369.18 1326.46,-432.64 1361.95,-476.76"/>
<polygon fill="none" stroke="black" points="1359.09,-478.79 1368.08,-484.41 1364.56,-474.42 1359.09,-478.79"/>
</g>
<!-- document_segmentation.pagexml.annotations.renate_analysis.DocumentTypeSheet -->
<g id="node6" class="node">
<title>document_segmentation.pagexml.annotations.renate_analysis.DocumentTypeSheet</title>
<polygon fill="aquamarine" stroke="aquamarine" points="2459.5,-29.25 2459.5,-94.75 2789.75,-94.75 2789.75,-29.25 2459.5,-29.25"/>
<text text-anchor="start" x="2567.25" y="-77.45" font-family="Times,serif" font-size="14.00">DocumentTypeSheet</text>
<polyline fill="none" stroke="aquamarine" points="2459.5,-70.25 2789.75,-70.25"/>
<polyline fill="none" stroke="aquamarine" points="2459.5,-70.25 2789.75,-70.25"/>
<text text-anchor="start" x="2467.5" y="-52.95" font-family="Times,serif" font-size="14.00">document_type(tanap_sub_category: str): DocumentType</text>
<text text-anchor="start" x="2467.5" y="-36.45" font-family="Times,serif" font-size="14.00">from_file(file: Path)</text>
</g>
<!-- document_segmentation.pagexml.annotations.renate_analysis.RenateAnalysis -->
<g id="node19" class="node">
<title>document_segmentation.pagexml.annotations.renate_analysis.RenateAnalysis</title>
<polygon fill="aquamarine" stroke="aquamarine" points="2419.75,-197.5 2419.75,-279.5 2829.5,-279.5 2829.5,-197.5 2419.75,-197.5"/>
<text text-anchor="start" x="2582.25" y="-262.2" font-family="Times,serif" font-size="14.00">RenateAnalysis</text>
<polyline fill="none" stroke="aquamarine" points="2419.75,-255 2829.5,-255"/>
<polyline fill="none" stroke="aquamarine" points="2419.75,-255 2829.5,-255"/>
<text text-anchor="start" x="2427.75" y="-237.7" font-family="Times,serif" font-size="14.00">annotated_rows(inventory: Inventory): pd.DataFrame</text>
<text text-anchor="start" x="2427.75" y="-221.2" font-family="Times,serif" font-size="14.00">documents(): Iterable[Document]</text>
<text text-anchor="start" x="2427.75" y="-204.7" font-family="Times,serif" font-size="14.00">documents_from_sheet(sheet: &#39;RenateAnalysisInv&#39;): Iterable[Document]</text>
</g>
<!-- document_segmentation.pagexml.annotations.renate_analysis.DocumentTypeSheet&#45;&gt;document_segmentation.pagexml.annotations.renate_analysis.RenateAnalysis -->
<g id="edge22" class="edge">
<title>document_segmentation.pagexml.annotations.renate_analysis.DocumentTypeSheet&#45;&gt;document_segmentation.pagexml.annotations.renate_analysis.RenateAnalysis</title>
<path fill="none" stroke="black" d="M2624.62,-95.01C2624.62,-119.92 2624.62,-155.05 2624.62,-184.19"/>
<polygon fill="none" stroke="black" points="2624.63,-184.19 2628.63,-190.19 2624.63,-196.19 2620.63,-190.19 2624.63,-184.19"/>
<text text-anchor="middle" x="2672.62" y="-145.2" font-family="Times,serif" font-size="14.00" fill="green">_document_types</text>
</g>
<!-- document_segmentation.pagexml.annotations.generale_missiven.GeneraleMissiven -->
<g id="node7" class="node">
<title>document_segmentation.pagexml.annotations.generale_missiven.GeneraleMissiven</title>
<polygon fill="aquamarine" stroke="aquamarine" points="2847.12,-214 2847.12,-263 2962.12,-263 2962.12,-214 2847.12,-214"/>
<text text-anchor="start" x="2855.12" y="-245.7" font-family="Times,serif" font-size="14.00">GeneraleMissiven</text>
<polyline fill="none" stroke="aquamarine" points="2847.12,-238.5 2962.12,-238.5"/>
<polyline fill="none" stroke="aquamarine" points="2847.12,-238.5 2962.12,-238.5"/>
<text text-anchor="start" x="2902.75" y="-221.2" font-family="Times,serif" font-size="14.00"> </text>
</g>
<!-- document_segmentation.pagexml.annotations.sheet.Sheet -->
<g id="node22" class="node">
<title>document_segmentation.pagexml.annotations.sheet.Sheet</title>
<polygon fill="aquamarine" stroke="aquamarine" points="2668.25,-457 2668.25,-605 3141,-605 3141,-457 2668.25,-457"/>
<text text-anchor="start" x="2889.62" y="-587.7" font-family="Times,serif" font-size="14.00">Sheet</text>
<polyline fill="none" stroke="aquamarine" points="2668.25,-580.5 3141,-580.5"/>
<polyline fill="none" stroke="aquamarine" points="2668.25,-580.5 3141,-580.5"/>
<text text-anchor="start" x="2676.25" y="-563.2" font-family="Times,serif" font-size="14.00">all_annotated_inventories(n: Optional[int]): Iterable[&#39;Inventory&#39;]</text>
<text text-anchor="start" x="2676.25" y="-546.7" font-family="Times,serif" font-size="14.00">annotate_inventory(inventory: Inventory): Inventory</text>
<text text-anchor="start" x="2676.25" y="-530.2" font-family="Times,serif" font-size="14.00">annotated_rows(inventory: Inventory): pd.DataFrame</text>
<text text-anchor="start" x="2676.25" y="-513.7" font-family="Times,serif" font-size="14.00">download_inventories()</text>
<text text-anchor="start" x="2676.25" y="-497.2" font-family="Times,serif" font-size="14.00">inventories(): Iterable[Inventory]</text>
<text text-anchor="start" x="2676.25" y="-480.7" font-family="Times,serif" font-size="14.00">inventory_numbers(): Iterable[tuple[int, str]]</text>
<text text-anchor="start" x="2676.25" y="-464.2" font-family="Times,serif" font-size="14.00">preprocess(inventory: Inventory, min_region_text_length, max_size: int): Inventory</text>
</g>
<!-- document_segmentation.pagexml.annotations.generale_missiven.GeneraleMissiven&#45;&gt;document_segmentation.pagexml.annotations.sheet.Sheet -->
<g id="edge8" class="edge">
<title>document_segmentation.pagexml.annotations.generale_missiven.GeneraleMissiven&#45;&gt;document_segmentation.pagexml.annotations.sheet.Sheet</title>
<path fill="none" stroke="black" d="M2904.62,-263.27C2904.62,-302.56 2904.62,-382.9 2904.62,-445.18"/>
<polygon fill="none" stroke="black" points="2901.13,-445.08 2904.63,-455.08 2908.13,-445.08 2901.13,-445.08"/>
</g>
<!-- document_segmentation.pagexml.datamodel.page.Page -->
<g id="node10" class="node">
<title>document_segmentation.pagexml.datamodel.page.Page</title>
<polygon fill="aquamarine" stroke="aquamarine" points="1890.12,-403.5 1890.12,-658.5 2329.12,-658.5 2329.12,-403.5 1890.12,-403.5"/>
<text text-anchor="start" x="2096.5" y="-641.2" font-family="Times,serif" font-size="14.00">Page</text>
<polyline fill="none" stroke="aquamarine" points="1890.12,-634 2329.12,-634"/>
<text text-anchor="start" x="2050.75" y="-616.7" font-family="Times,serif" font-size="14.00">doc_id : Optional[str]</text>
<text text-anchor="start" x="2050.75" y="-600.2" font-family="Times,serif" font-size="14.00">external_ref : str</text>
<text text-anchor="start" x="2050.75" y="-583.7" font-family="Times,serif" font-size="14.00">label</text>
<text text-anchor="start" x="2050.75" y="-567.2" font-family="Times,serif" font-size="14.00">regions : list[Region]</text>
<text text-anchor="start" x="2050.75" y="-550.7" font-family="Times,serif" font-size="14.00">scan_nr : Annotated</text>
<polyline fill="none" stroke="aquamarine" points="1890.12,-543.5 2329.12,-543.5"/>
<text text-anchor="start" x="1898.12" y="-526.2" font-family="Times,serif" font-size="14.00">annotate(label: SequenceLabel): &#39;Page&#39;</text>
<text text-anchor="start" x="1898.12" y="-509.7" font-family="Times,serif" font-size="14.00">empty(): &#39;Page&#39;</text>
<text text-anchor="start" x="1898.12" y="-493.2" font-family="Times,serif" font-size="14.00">enum_from_int(value)</text>
<text text-anchor="start" x="1898.12" y="-476.7" font-family="Times,serif" font-size="14.00">filter_short_regions(min_chars: int): &#39;Page&#39;</text>
<text text-anchor="start" x="1898.12" y="-460.2" font-family="Times,serif" font-size="14.00">from_pagexml(label: SequenceLabel, scan_nr: int, pagexml: PageXMLScan)</text>
<text text-anchor="start" x="1898.12" y="-443.7" font-family="Times,serif" font-size="14.00">guess_doc_id(inv_nr: str): str</text>
<text text-anchor="start" x="1898.12" y="-427.2" font-family="Times,serif" font-size="14.00">is_shorter_than(): bool</text>
<text text-anchor="start" x="1898.12" y="-410.7" font-family="Times,serif" font-size="14.00">text(delimiter: str): str</text>
</g>
<!-- document_segmentation.model.page_embedding.PageEmbedding -->
<g id="node11" class="node">
<title>document_segmentation.model.page_embedding.PageEmbedding</title>
<polygon fill="antiquewhite" stroke="antiquewhite" points="504.75,-486 504.75,-576 662.5,-576 662.5,-486 504.75,-486"/>
<text text-anchor="start" x="539" y="-558.7" font-family="Times,serif" font-size="14.00">PageEmbedding</text>
<polyline fill="none" stroke="antiquewhite" points="504.75,-551.5 662.5,-551.5"/>
<text text-anchor="start" x="539.75" y="-534.2" font-family="Times,serif" font-size="14.00">output_size : int</text>
<text text-anchor="start" x="539.75" y="-517.7" font-family="Times,serif" font-size="14.00">rnn</text>
<polyline fill="none" stroke="antiquewhite" points="504.75,-510.5 662.5,-510.5"/>
<text text-anchor="start" x="512.75" y="-493.2" font-family="Times,serif" font-size="14.00">forward(pages: list[Page])</text>
</g>
<!-- document_segmentation.model.page_embedding.PageEmbedding&#45;&gt;document_segmentation.model.page_learner.AbstractPageLearner -->
<g id="edge15" class="edge">
<title>document_segmentation.model.page_embedding.PageEmbedding&#45;&gt;document_segmentation.model.page_learner.AbstractPageLearner</title>
<path fill="none" stroke="black" d="M619.32,-576.47C645.24,-605.32 682.96,-640.8 724.62,-659 783.82,-684.86 1245.1,-684.15 1303.62,-711.5 1388.77,-751.3 1462.44,-830.05 1510.87,-891.81"/>
<polygon fill="black" stroke="black" points="1510.82,-891.75 1517.66,-894.05 1518.17,-901.24 1511.33,-898.95 1510.82,-891.75"/>
<text text-anchor="middle" x="1214.5" y="-680.2" font-family="Times,serif" font-size="14.00" fill="green">_page_embedding</text>
</g>
<!-- document_segmentation.model.page_embedding.PageEmbedding&#45;&gt;document_segmentation.model.device_module.DeviceModuleMixIn -->
<g id="edge2" class="edge">
<title>document_segmentation.model.page_embedding.PageEmbedding&#45;&gt;document_segmentation.model.device_module.DeviceModuleMixIn</title>
<path fill="none" stroke="black" d="M561.96,-576.16C545.58,-611.78 524.19,-663.65 513.62,-711.5 468.01,-918.15 470.58,-1173.38 473.8,-1273.78"/>
<polygon fill="none" stroke="black" points="470.3,-1273.85 474.15,-1283.73 477.3,-1273.61 470.3,-1273.85"/>
</g>
<!-- document_segmentation.model.page_sequence_tagger.PageSequenceTagger -->
<g id="node12" class="node">
<title>document_segmentation.model.page_sequence_tagger.PageSequenceTagger</title>
<polygon fill="antiquewhite" stroke="antiquewhite" points="1547.12,-498.25 1547.12,-563.75 1872.12,-563.75 1872.12,-498.25 1547.12,-498.25"/>
<text text-anchor="start" x="1651.5" y="-546.45" font-family="Times,serif" font-size="14.00">PageSequenceTagger</text>
<polyline fill="none" stroke="antiquewhite" points="1547.12,-539.25 1872.12,-539.25"/>
<polyline fill="none" stroke="antiquewhite" points="1547.12,-539.25 1872.12,-539.25"/>
<text text-anchor="start" x="1555.12" y="-521.95" font-family="Times,serif" font-size="14.00">predict(inventory: Inventory): pd.DataFrame</text>
<text text-anchor="start" x="1555.12" y="-505.45" font-family="Times,serif" font-size="14.00">predict_documents(inventory: Inventory): list[list[Page]]</text>
</g>
<!-- document_segmentation.model.page_sequence_tagger.PageSequenceTagger&#45;&gt;document_segmentation.model.page_learner.AbstractPageLearner -->
<g id="edge4" class="edge">
<title>document_segmentation.model.page_sequence_tagger.PageSequenceTagger&#45;&gt;document_segmentation.model.page_learner.AbstractPageLearner</title>
<path fill="none" stroke="black" d="M1699.7,-564.13C1678.8,-631.79 1629.63,-790.95 1598.66,-891.23"/>
<polygon fill="none" stroke="black" points="1595.4,-889.91 1595.8,-900.5 1602.09,-891.98 1595.4,-889.91"/>
</g>
<!-- document_segmentation.pagexml.pagexml.PageXML -->
<g id="node13" class="node">
<title>document_segmentation.pagexml.pagexml.PageXML</title>
<polygon fill="aquamarine" stroke="aquamarine" points="2807.38,-21 2807.38,-103 3163.88,-103 3163.88,-21 2807.38,-21"/>
<text text-anchor="start" x="2957.12" y="-85.7" font-family="Times,serif" font-size="14.00">PageXML</text>
<polyline fill="none" stroke="aquamarine" points="2807.38,-78.5 3163.88,-78.5"/>
<polyline fill="none" stroke="aquamarine" points="2807.38,-78.5 3163.88,-78.5"/>
<text text-anchor="start" x="2815.38" y="-61.2" font-family="Times,serif" font-size="14.00">document_type(): list[str]</text>
<text text-anchor="start" x="2815.38" y="-44.7" font-family="Times,serif" font-size="14.00">get_regions_from_top(): list[PageXMLTextRegion]</text>
<text text-anchor="start" x="2815.38" y="-28.2" font-family="Times,serif" font-size="14.00">top_paragraph(region_types): Optional[PageXMLTextRegion]</text>
</g>
<!-- document_segmentation.pagexml.datamodel.region.Region -->
<g id="node14" class="node">
<title>document_segmentation.pagexml.datamodel.region.Region</title>
<polygon fill="aquamarine" stroke="aquamarine" points="3182.12,-0.5 3182.12,-123.5 3501.12,-123.5 3501.12,-0.5 3182.12,-0.5"/>
<text text-anchor="start" x="3322.12" y="-106.2" font-family="Times,serif" font-size="14.00">Region</text>
<polyline fill="none" stroke="aquamarine" points="3182.12,-99 3501.12,-99"/>
<text text-anchor="start" x="3241.5" y="-81.7" font-family="Times,serif" font-size="14.00">coordinates : tuple[tuple[int, int], ...]</text>
<text text-anchor="start" x="3241.5" y="-65.2" font-family="Times,serif" font-size="14.00">id : str</text>
<text text-anchor="start" x="3241.5" y="-48.7" font-family="Times,serif" font-size="14.00">lines : tuple[str, ...]</text>
<text text-anchor="start" x="3241.5" y="-32.2" font-family="Times,serif" font-size="14.00">types : tuple[RegionType, ...]</text>
<polyline fill="none" stroke="aquamarine" points="3182.12,-25 3501.12,-25"/>
<text text-anchor="start" x="3190.12" y="-7.7" font-family="Times,serif" font-size="14.00">from_pagexml(region: PageXMLTextRegion): &#39;Region&#39;</text>
</g>
<!-- document_segmentation.model.region_classifier.RegionClassifier -->
<g id="node15" class="node">
<title>document_segmentation.model.region_classifier.RegionClassifier</title>
<polygon fill="antiquewhite" stroke="antiquewhite" points="0,-319 0,-384.5 441.25,-384.5 441.25,-319 0,-319"/>
<text text-anchor="start" x="175.25" y="-367.2" font-family="Times,serif" font-size="14.00">RegionClassifier</text>
<polyline fill="none" stroke="antiquewhite" points="0,-360 441.25,-360"/>
<polyline fill="none" stroke="antiquewhite" points="0,-360 441.25,-360"/>
<text text-anchor="start" x="8" y="-342.7" font-family="Times,serif" font-size="14.00">forward(regions: List[Region]): torch.Tensor</text>
<text text-anchor="start" x="8" y="-326.2" font-family="Times,serif" font-size="14.00">train_(dataset: RegionDataset, epochs: int, batch_size: int, weights: list[float])</text>
</g>
<!-- document_segmentation.model.region_classifier.RegionClassifier&#45;&gt;document_segmentation.model.device_module.DeviceModuleMixIn -->
<g id="edge5" class="edge">
<title>document_segmentation.model.region_classifier.RegionClassifier&#45;&gt;document_segmentation.model.device_module.DeviceModuleMixIn</title>
<path fill="none" stroke="black" d="M224.37,-384.78C239.26,-505.07 300.48,-939.64 442.62,-1267 443.83,-1269.78 445.19,-1272.57 446.64,-1275.34"/>
<polygon fill="none" stroke="black" points="443.52,-1276.93 451.52,-1283.88 449.6,-1273.46 443.52,-1276.93"/>
</g>
<!-- document_segmentation.model.region_embedding.RegionEmbedding -->
<g id="node16" class="node">
<title>document_segmentation.model.region_embedding.RegionEmbedding</title>
<polygon fill="antiquewhite" stroke="antiquewhite" points="341.5,-185.25 341.5,-291.75 563.75,-291.75 563.75,-185.25 341.5,-185.25"/>
<text text-anchor="start" x="401.62" y="-274.45" font-family="Times,serif" font-size="14.00">RegionEmbedding</text>
<polyline fill="none" stroke="antiquewhite" points="341.5,-267.25 563.75,-267.25"/>
<text text-anchor="start" x="394.88" y="-249.95" font-family="Times,serif" font-size="14.00">output_size : int</text>
<text text-anchor="start" x="394.88" y="-233.45" font-family="Times,serif" font-size="14.00">text_embedding_size</text>
<polyline fill="none" stroke="antiquewhite" points="341.5,-226.25 563.75,-226.25"/>
<text text-anchor="start" x="349.5" y="-208.95" font-family="Times,serif" font-size="14.00">forward(regions: list[Region])</text>
<text text-anchor="start" x="349.5" y="-192.45" font-family="Times,serif" font-size="14.00">from_model_name(model_name: str)</text>
</g>
<!-- document_segmentation.model.region_embedding.RegionEmbedding&#45;&gt;document_segmentation.model.device_module.DeviceModuleMixIn -->
<g id="edge6" class="edge">
<title>document_segmentation.model.region_embedding.RegionEmbedding&#45;&gt;document_segmentation.model.device_module.DeviceModuleMixIn</title>
<path fill="none" stroke="black" d="M452.03,-292.22C450.65,-443.85 448.84,-894.08 470.62,-1267 470.75,-1269.2 470.9,-1271.45 471.07,-1273.72"/>
<polygon fill="none" stroke="black" points="467.58,-1273.93 471.91,-1283.6 474.55,-1273.35 467.58,-1273.93"/>
</g>
<!-- document_segmentation.model.region_embedding.RegionEmbedding&#45;&gt;document_segmentation.model.page_embedding.PageEmbedding -->
<g id="edge16" class="edge">
<title>document_segmentation.model.region_embedding.RegionEmbedding&#45;&gt;document_segmentation.model.page_embedding.PageEmbedding</title>
<path fill="none" stroke="black" d="M468.48,-292.2C477.52,-320.21 489.7,-354.98 503.12,-385 516.75,-415.47 534.54,-448.09 549.94,-474.65"/>
<polygon fill="black" stroke="black" points="549.85,-474.5 556.34,-477.66 555.91,-484.86 549.43,-481.7 549.85,-474.5"/>
<text text-anchor="middle" x="544.88" y="-346.7" font-family="Times,serif" font-size="14.00" fill="green">_region_model</text>
</g>
<!-- document_segmentation.model.region_embedding.RegionEmbeddingSentenceTransformer -->
<g id="node17" class="node">
<title>document_segmentation.model.region_embedding.RegionEmbeddingSentenceTransformer</title>
<polygon fill="antiquewhite" stroke="antiquewhite" points="335.12,-25.25 335.12,-98.75 570.12,-98.75 570.12,-25.25 335.12,-25.25"/>
<text text-anchor="start" x="343.12" y="-81.45" font-family="Times,serif" font-size="14.00">RegionEmbeddingSentenceTransformer</text>
<polyline fill="none" stroke="antiquewhite" points="335.12,-74.25 570.12,-74.25"/>
<text text-anchor="start" x="394.88" y="-56.95" font-family="Times,serif" font-size="14.00">text_embedding_size</text>
<polyline fill="none" stroke="antiquewhite" points="335.12,-49.75 570.12,-49.75"/>
<text text-anchor="start" x="450.75" y="-32.45" font-family="Times,serif" font-size="14.00"> </text>
</g>
<!-- document_segmentation.model.region_embedding.RegionEmbeddingSentenceTransformer&#45;&gt;document_segmentation.model.page_embedding.PageEmbedding -->
<g id="edge17" class="edge">
<title>document_segmentation.model.region_embedding.RegionEmbeddingSentenceTransformer&#45;&gt;document_segmentation.model.page_embedding.PageEmbedding</title>
<path fill="none" stroke="black" d="M505.82,-99.11C530.51,-118.9 557.65,-145.68 572.62,-176.5 619.14,-272.23 607.7,-400.4 595.47,-473.18"/>
<polygon fill="black" stroke="black" points="595.51,-472.97 598.41,-479.57 593.43,-484.78 590.53,-478.18 595.51,-472.97"/>
<text text-anchor="middle" x="645.88" y="-233.45" font-family="Times,serif" font-size="14.00" fill="green">_region_model</text>
</g>
<!-- document_segmentation.model.region_embedding.RegionEmbeddingSentenceTransformer&#45;&gt;document_segmentation.model.region_classifier.RegionClassifier -->
<g id="edge18" class="edge">
<title>document_segmentation.model.region_embedding.RegionEmbeddingSentenceTransformer&#45;&gt;document_segmentation.model.region_classifier.RegionClassifier</title>
<path fill="none" stroke="black" d="M390.75,-99.12C373.01,-111.3 354.53,-125.93 339.88,-142 294.41,-191.86 258.81,-262.01 238.74,-306.92"/>
<polygon fill="black" stroke="black" points="238.8,-306.79 240.06,-313.89 233.98,-317.78 232.73,-310.68 238.8,-306.79"/>
<text text-anchor="middle" x="395" y="-145.2" font-family="Times,serif" font-size="14.00" fill="green">_region_embedding</text>
</g>
<!-- document_segmentation.model.region_embedding.RegionEmbeddingSentenceTransformer&#45;&gt;document_segmentation.model.region_embedding.RegionEmbedding -->
<g id="edge7" class="edge">
<title>document_segmentation.model.region_embedding.RegionEmbeddingSentenceTransformer&#45;&gt;document_segmentation.model.region_embedding.RegionEmbedding</title>
<path fill="none" stroke="black" d="M452.62,-99.16C452.62,-120.63 452.62,-148.47 452.62,-173.54"/>
<polygon fill="none" stroke="black" points="449.13,-173.32 452.63,-183.32 456.13,-173.32 449.13,-173.32"/>
</g>
<!-- document_segmentation.pagexml.datamodel.region.RegionType -->
<g id="node18" class="node">
<title>document_segmentation.pagexml.datamodel.region.RegionType</title>
<polygon fill="aquamarine" stroke="aquamarine" points="3519,-17 3519,-107 3828.25,-107 3828.25,-17 3519,-17"/>
<text text-anchor="start" x="3640.25" y="-89.7" font-family="Times,serif" font-size="14.00">RegionType</text>
<polyline fill="none" stroke="aquamarine" points="3519,-82.5 3828.25,-82.5"/>
<text text-anchor="start" x="3658.62" y="-65.2" font-family="Times,serif" font-size="14.00">name</text>
<polyline fill="none" stroke="aquamarine" points="3519,-58 3828.25,-58"/>
<text text-anchor="start" x="3527" y="-40.7" font-family="Times,serif" font-size="14.00">index(): int</text>
<text text-anchor="start" x="3527" y="-24.2" font-family="Times,serif" font-size="14.00">indices(region_types: Iterable[&#39;RegionType&#39;]): list[int]</text>
</g>
<!-- document_segmentation.pagexml.annotations.renate_analysis.RenateAnalysis&#45;&gt;document_segmentation.pagexml.annotations.sheet.Sheet -->
<g id="edge9" class="edge">
<title>document_segmentation.pagexml.annotations.renate_analysis.RenateAnalysis&#45;&gt;document_segmentation.pagexml.annotations.sheet.Sheet</title>
<path fill="none" stroke="black" d="M2663.56,-279.89C2705.45,-323.36 2773.2,-393.64 2826.22,-448.65"/>
<polygon fill="none" stroke="black" points="2823.42,-450.79 2832.88,-455.56 2828.46,-445.93 2823.42,-450.79"/>
</g>
<!-- document_segmentation.pagexml.annotations.renate_analysis.RenateAnalysisInv -->
<g id="node20" class="node">
<title>document_segmentation.pagexml.annotations.renate_analysis.RenateAnalysisInv</title>
<polygon fill="aquamarine" stroke="aquamarine" points="2979.88,-177 2979.88,-300 3285.38,-300 3285.38,-177 2979.88,-177"/>
<text text-anchor="start" x="3081.25" y="-282.7" font-family="Times,serif" font-size="14.00">RenateAnalysisInv</text>
<polyline fill="none" stroke="aquamarine" points="2979.88,-275.5 3285.38,-275.5"/>
<text text-anchor="start" x="3052" y="-258.2" font-family="Times,serif" font-size="14.00">NON_DOC_TYPES : set[str]</text>
<polyline fill="none" stroke="aquamarine" points="2979.88,-251 3285.38,-251"/>
<text text-anchor="start" x="2987.88" y="-233.7" font-family="Times,serif" font-size="14.00">annotate_inventory(inventory: Inventory): &#39;Inventory&#39;</text>
<text text-anchor="start" x="2987.88" y="-217.2" font-family="Times,serif" font-size="14.00">get_scans(start: int, end: int): list[Page]</text>
<text text-anchor="start" x="2987.88" y="-200.7" font-family="Times,serif" font-size="14.00">inventories(): Iterable[Inventory]</text>
<text text-anchor="start" x="2987.88" y="-184.2" font-family="Times,serif" font-size="14.00">inventory_numbers(): Iterable[tuple[int, str]]</text>
</g>
<!-- document_segmentation.pagexml.annotations.renate_analysis.RenateAnalysisInv&#45;&gt;document_segmentation.pagexml.annotations.sheet.Sheet -->
<g id="edge10" class="edge">
<title>document_segmentation.pagexml.annotations.renate_analysis.RenateAnalysisInv&#45;&gt;document_segmentation.pagexml.annotations.sheet.Sheet</title>
<path fill="none" stroke="black" d="M3084.83,-300.4C3051.28,-343.15 3006.02,-400.81 2969.25,-447.66"/>
<polygon fill="none" stroke="black" points="2966.61,-445.36 2963.19,-455.38 2972.12,-449.68 2966.61,-445.36"/>
</g>
<!-- document_segmentation.pagexml.datamodel.label.SequenceLabel -->
<g id="node21" class="node">
<title>document_segmentation.pagexml.datamodel.label.SequenceLabel</title>
<polygon fill="aquamarine" stroke="aquamarine" points="1660.38,-201.75 1660.38,-275.25 1758.88,-275.25 1758.88,-201.75 1660.38,-201.75"/>
<text text-anchor="start" x="1668.38" y="-257.95" font-family="Times,serif" font-size="14.00">SequenceLabel</text>
<polyline fill="none" stroke="aquamarine" points="1660.38,-250.75 1758.88,-250.75"/>
<text text-anchor="start" x="1694.62" y="-233.45" font-family="Times,serif" font-size="14.00">name</text>
<polyline fill="none" stroke="aquamarine" points="1660.38,-226.25 1758.88,-226.25"/>
<text text-anchor="start" x="1707.75" y="-208.95" font-family="Times,serif" font-size="14.00"> </text>
</g>
<!-- document_segmentation.pagexml.datamodel.label.SequenceLabel&#45;&gt;document_segmentation.pagexml.datamodel.label.Label -->
<g id="edge13" class="edge">
<title>document_segmentation.pagexml.datamodel.label.SequenceLabel&#45;&gt;document_segmentation.pagexml.datamodel.label.Label</title>
<path fill="none" stroke="black" d="M1671.49,-275.7C1617.82,-326.65 1519.73,-419.78 1458.31,-478.09"/>
<polygon fill="none" stroke="black" points="1456.2,-475.26 1451.36,-484.68 1461.02,-480.33 1456.2,-475.26"/>
</g>
<!-- document_segmentation.pagexml.datamodel.label.SequenceLabel&#45;&gt;document_segmentation.pagexml.datamodel.page.Page -->
<g id="edge24" class="edge">
<title>document_segmentation.pagexml.datamodel.label.SequenceLabel&#45;&gt;document_segmentation.pagexml.datamodel.page.Page</title>
<path fill="none" stroke="black" d="M1759.07,-275.41C1800.86,-305.76 1863.47,-351.23 1924.27,-395.38"/>
<polygon fill="none" stroke="black" points="1924.35,-395.45 1931.56,-395.74 1934.06,-402.5 1926.86,-402.21 1924.35,-395.45"/>
<text text-anchor="middle" x="1922.75" y="-346.7" font-family="Times,serif" font-size="14.00" fill="green">label</text>
</g>
<!-- document_segmentation.pagexml.datamodel.label.SequenceLabel&#45;&gt;document_segmentation.model.page_sequence_tagger.PageSequenceTagger -->
<g id="edge21" class="edge">
<title>document_segmentation.pagexml.datamodel.label.SequenceLabel&#45;&gt;document_segmentation.model.page_sequence_tagger.PageSequenceTagger</title>
<path fill="none" stroke="black" d="M1709.62,-275.7C1709.62,-328.65 1709.62,-427.14 1709.62,-484.78"/>
<polygon fill="black" stroke="black" points="1709.63,-484.91 1713.63,-490.91 1709.63,-496.91 1705.63,-490.91 1709.63,-484.91"/>
<text text-anchor="middle" x="1755" y="-346.7" font-family="Times,serif" font-size="14.00" fill="green">_LABEL_TYPE</text>
</g>
<!-- document_segmentation.pagexml.datamodel.label.Tanap -->
<g id="node23" class="node">
<title>document_segmentation.pagexml.datamodel.label.Tanap</title>
<polygon fill="aquamarine" stroke="aquamarine" points="1376.62,-201.75 1376.62,-275.25 1430.62,-275.25 1430.62,-201.75 1376.62,-201.75"/>
<text text-anchor="start" x="1386.62" y="-257.95" font-family="Times,serif" font-size="14.00">Tanap</text>
<polyline fill="none" stroke="aquamarine" points="1376.62,-250.75 1430.38,-250.75"/>
<text text-anchor="start" x="1388.5" y="-233.45" font-family="Times,serif" font-size="14.00">name</text>
<polyline fill="none" stroke="aquamarine" points="1376.62,-226.25 1430.38,-226.25"/>
<text text-anchor="start" x="1401.62" y="-208.95" font-family="Times,serif" font-size="14.00"> </text>
</g>
<!-- document_segmentation.pagexml.datamodel.label.Tanap&#45;&gt;document_segmentation.pagexml.datamodel.label.Label -->
<g id="edge14" class="edge">
<title>document_segmentation.pagexml.datamodel.label.Tanap&#45;&gt;document_segmentation.pagexml.datamodel.label.Label</title>
<path fill="none" stroke="black" d="M1403.62,-275.7C1403.62,-325.61 1403.62,-415.99 1403.62,-474.47"/>
<polygon fill="none" stroke="black" points="1400.13,-474.21 1403.63,-484.21 1407.13,-474.21 1400.13,-474.21"/>
</g>
<!-- document_segmentation.pagexml.datamodel.inventory.ThumbnailDownloader -->
<g id="node24" class="node">
<title>document_segmentation.pagexml.datamodel.inventory.ThumbnailDownloader</title>
<polygon fill="aquamarine" stroke="aquamarine" points="2347,-465.75 2347,-596.25 2650.25,-596.25 2650.25,-465.75 2347,-465.75"/>
<text text-anchor="start" x="2435.25" y="-578.95" font-family="Times,serif" font-size="14.00">ThumbnailDownloader</text>
<polyline fill="none" stroke="aquamarine" points="2347,-571.75 2650.25,-571.75"/>
<polyline fill="none" stroke="aquamarine" points="2347,-571.75 2650.25,-571.75"/>
<text text-anchor="start" x="2355" y="-555.45" font-family="Times,serif" font-size="14.00">download(inventory: Inventory, page: Page): Path</text>
<text text-anchor="start" x="2355" y="-541.45" font-family="Times,serif" font-size="14.00">from_file(file: Path): &#39;ThumbnailDownloader&#39;</text>
<text text-anchor="start" x="2355" y="-527.45" font-family="Times,serif" font-style="italic" font-size="14.00">from_url</text>
<text text-anchor="start" x="2403" y="-527.45" font-family="Times,serif" font-size="14.00">(url)</text>
<text text-anchor="start" x="2355" y="-513.45" font-family="Times,serif" font-size="14.00">get_metadata(inventory: Inventory, page: Page): dict</text>
<text text-anchor="start" x="2355" y="-499.45" font-family="Times,serif" font-size="14.00">get_uuid(inventory: Inventory): UUID</text>
<text text-anchor="start" x="2355" y="-485.45" font-family="Times,serif" font-size="14.00">thumbnail(inventory: Inventory, page: Page): Path</text>
<text text-anchor="start" x="2355" y="-471.45" font-family="Times,serif" font-size="14.00">thumbnail_url(inventory: Inventory, page: Page): str</text>
</g>
<!-- document_segmentation.pagexml.datamodel.inventory.ThumbnailDownloader&#45;&gt;document_segmentation.model.page_learner.AbstractPageLearner -->
<g id="edge23" class="edge">
<title>document_segmentation.pagexml.datamodel.inventory.ThumbnailDownloader&#45;&gt;document_segmentation.model.page_learner.AbstractPageLearner</title>
<path fill="none" stroke="black" d="M2425.51,-596.55C2398.97,-618.09 2368,-641.13 2337.62,-659 2170.56,-757.26 1967.61,-840.53 1812.59,-897.44"/>
<polygon fill="none" stroke="black" points="1812.69,-897.4 1808.43,-903.22 1801.42,-901.52 1805.68,-895.71 1812.69,-897.4"/>
<text text-anchor="middle" x="2366" y="-680.2" font-family="Times,serif" font-size="14.00" fill="green">_thumbnail_downloader</text>
</g>
</g>
</svg>
